<svg id="Capa_1" data-name="Capa 1" xmlns="http://www.w3.org/2000/svg" viewBox="0 0 1371.42 1278.17"><defs><style>.cls-1{fill:#03070f;}</style></defs><path class="cls-1" d="M.06,1102.05H0v-.77C0,1101.53,0,1101.79.06,1102.05Z"/><path class="cls-1" d="M1371.42,1086.23v15.82h-3.73A85.59,85.59,0,0,0,1371.42,1086.23Z"/><path class="cls-1" d="M1371.42,0V1086.23a85.59,85.59,0,0,1-3.73,15.82c-7.61,22.52-24.47,41.91-47.26,48.82-10.63,3.23-21.82,4-32.9,4.83l-59.48,4.25c-21.6,1.54-44.68,3.65-61.51,17.34-18,14.68-24.47,38.94-34.16,60.14s-28.06,42.78-51.17,40.58c-24.23-2.31-37.89-28.64-45.45-51.88s-16.24-50.14-38.91-59c-33.33-13-64.75,22.59-99.43,31.34-37.07,9.34-73.78-13-107.14-31.71s-75.88-34.46-108-13.72c-20.09,13-30,36.61-42.51,57s-33.07,40.28-56.7,36.92c-41.6-5.91-45.13-71.15-82.46-90.52-32.24-16.73-69.68,9.08-95.15,35s-56.24,56.34-91.84,49.33c-54-10.63-64.58-96.28-118-109.48-37.48-9.25-72.42,23.07-110.74,27.6a68.92,68.92,0,0,1-8.25.48c-22.18,0-43.79-10.39-58.89-26.52-7.27-7.77-13.91-17.49-17-27.8a15.79,15.79,0,0,1-.61-3c0-.26,0-.52-.06-.77V0Z"/></svg>