<?xml version="1.0" encoding="utf-8"?>
<!-- Generator: Adobe Illustrator 25.2.1, SVG Export Plug-In . SVG Version: 6.00 Build 0)  -->
<svg version="1.1" xmlns="http://www.w3.org/2000/svg" xmlns:xlink="http://www.w3.org/1999/xlink" x="0px" y="0px"
	 viewBox="0 0 600 600" style="enable-background:new 0 0 600 600;" xml:space="preserve">
<style type="text/css">
	.st0{display:none;}
	.st1{fill:#FFFFFF;stroke:#000000;stroke-width:9;stroke-miterlimit:10;}
	.st2{fill:#FFFFFF;stroke:#000000;stroke-width:8;stroke-miterlimit:10;}
	.st3{display:none;fill:none;stroke:#000000;stroke-width:5;stroke-miterlimit:10;}
	.st4{fill:none;stroke:#000000;stroke-width:10;stroke-miterlimit:10;}
	.st5{display:none;fill:none;stroke:#000000;stroke-width:9;stroke-miterlimit:10;}
	.st6{fill:none;stroke:#000000;stroke-width:9;stroke-miterlimit:10;}
	.st7{fill:#FFFFFF;stroke:#000000;stroke-width:10;stroke-miterlimit:10;}
</style>
<g id="Capa_1" class="st0">
	
		<image style="display:inline;overflow:visible;" width="1000" height="1000" xlink:href="iconos.png"  transform="matrix(1.2392 0 0 1.1641 -113.8727 43.1455)">
	</image>
</g>
<g id="Capa_3">
</g>
<g id="Capa_2">
	<path class="st1" d="M511.8,164.5v264.4H75.4V161.8c0-10.6,8.6-19.2,19.2-19.2H423L315.4,259.1c-9.6,10.4-8.9,26.6,1.4,36.2
		c4.9,4.5,11.1,6.8,17.3,6.8c6.9,0,13.8-2.8,18.8-8.2l139.5-151C503.4,144,511.8,153.3,511.8,164.5z"/>
	<polygon class="st1" points="74.6,431.5 22.2,514.4 22.2,536.2 563.3,536.2 563.3,514.4 511.8,429.8 	"/>
	<rect x="22.2" y="514.4" class="st1" width="541.1" height="21.8"/>
	<path class="st5" d="M201.1,109.6c11.2-1,20.2-9.6,26.2-19.1c6-9.5,9.8-20.2,16.1-29.5c6.4-9.2,16.3-17.2,27.5-16.7
		c9.9,0.4,18.8,7.6,23,16.6c4.2,9,4.3,19.5,2.3,29.2c-3.7,17.9-14.7,34.5-30.6,43.6c-15.9,9.1-36.4,10.2-52.6,1.5
		c-7-3.8-12.9-9.1-18-15.1c-2.6-3.1-5-6.3-7.3-9.6c-0.6-0.8-1.2-1.7-1.7-2.5c-0.2-0.4-1.5-1.7-1.4-2.1c0.2-0.8,2.2,0.4,2.7,0.7
		C191.7,108.8,196.2,110.1,201.1,109.6z"/>
	<path class="st1" d="M569.4,59.5l-76.9,83.3L353,293.8c-5,5.5-11.9,8.2-18.8,8.2c-6.2,0-12.4-2.3-17.3-6.8
		c-10.4-9.6-11-25.8-1.4-36.2L423,142.6L531.8,24.8c9.6-10.4,25.8-11,36.1-1.4C578.3,33,579,49.1,569.4,59.5z"/>
	<path class="st6" d="M266.5,372c17.4-4.7,34.8-15.3,40-32.6c4.9-16.5-3.9-36.2-19.6-43.6s-36.2-1.6-45.4,12.9
		c-5.6,8.8-7,19.7-11.9,28.9c-6.3,11.9-18.4,20.2-31.7,22.4c-3.8,0.6-7.4,0.4-11.2,0.4c2,4.4,7.5,7.8,12.1,9
		c4.6,1.1,9.3,2.2,13.9,3.3c11.3,2.7,23,3.7,34.5,2.7C253.8,374.7,260.2,373.6,266.5,372z"/>
</g>
<g id="Capa_4">
</g>
</svg>
