<?xml version="1.0" encoding="utf-8"?>
<!-- Generator: Adobe Illustrator 25.2.1, SVG Export Plug-In . SVG Version: 6.00 Build 0)  -->
<svg version="1.1" xmlns="http://www.w3.org/2000/svg" xmlns:xlink="http://www.w3.org/1999/xlink" x="0px" y="0px"
	 viewBox="0 0 600 600" style="enable-background:new 0 0 600 600;" xml:space="preserve">
<style type="text/css">
	.st0{display:none;}
	.st1{fill:#FFFFFF;stroke:#000000;stroke-width:9;stroke-miterlimit:10;}
	.st2{fill:#FFFFFF;stroke:#000000;stroke-width:8;stroke-miterlimit:10;}
	.st3{display:none;fill:none;stroke:#000000;stroke-width:5;stroke-miterlimit:10;}
	.st4{fill:none;stroke:#000000;stroke-width:10;stroke-miterlimit:10;}
	.st5{display:none;fill:none;stroke:#000000;stroke-width:9;stroke-miterlimit:10;}
	.st6{fill:none;stroke:#000000;stroke-width:9;stroke-miterlimit:10;}
</style>
<g id="Capa_1" class="st0">
	
		<image style="display:inline;overflow:visible;" width="1000" height="1000" xlink:href="../../../../../../../Desktop/diseños/iconos.png"  transform="matrix(1.2392 0 0 1.1641 -113.8727 43.1455)">
	</image>
</g>
<g id="Capa_3">
</g>
<g id="Capa_2">
	<path class="st5" d="M201.1,109.6c11.2-1,20.2-9.6,26.2-19.1c6-9.5,9.8-20.2,16.1-29.5c6.4-9.2,16.3-17.2,27.5-16.7
		c9.9,0.4,18.8,7.6,23,16.6c4.2,9,4.3,19.5,2.3,29.2c-3.7,17.9-14.7,34.5-30.6,43.6c-15.9,9.1-36.4,10.2-52.6,1.5
		c-7-3.8-12.9-9.1-18-15.1c-2.6-3.1-5-6.3-7.3-9.6c-0.6-0.8-1.2-1.7-1.7-2.5c-0.2-0.4-1.5-1.7-1.4-2.1c0.2-0.8,2.2,0.4,2.7,0.7
		C191.7,108.8,196.2,110.1,201.1,109.6z"/>
	<g>
		<path d="M511.8,164.5h-4.5v259.9H79.9l0-262.6c0-4.1,1.6-7.7,4.3-10.4c2.7-2.7,6.3-4.3,10.4-4.3h318.1L312.1,256
			c-5.3,5.8-8,13.1-8,20.4c0,4,0.8,8.1,2.4,11.9c1.6,3.8,4,7.3,7.2,10.2l0,0c5.8,5.3,13.1,8,20.4,8c4,0,8.1-0.8,11.9-2.4
			c3.8-1.6,7.3-4,10.2-7.2l139.5-151l-3.3-3.1l-0.5,4.5c4.3,0.5,8.1,2.6,10.9,5.6c2.8,3.1,4.4,7.1,4.4,11.6H511.8h4.5
			c0-6.7-2.5-12.9-6.7-17.6c-4.2-4.6-10-7.8-16.6-8.6l-2.3-0.3l-141,152.7c-2.1,2.3-4.5,3.9-7.2,5.1c-2.6,1.1-5.5,1.7-8.3,1.7
			c-5.1,0-10.2-1.8-14.3-5.6l0,0c-2.3-2.1-3.9-4.5-5.1-7.2c-1.1-2.6-1.7-5.5-1.7-8.3c0-5.1,1.8-10.2,5.6-14.3l114.5-124H94.6
			c-6.5,0-12.5,2.7-16.8,6.9c-4.3,4.3-6.9,10.2-6.9,16.8v271.6h445.4V164.5H511.8z"/>
		<polygon points="74.6,431.5 70.8,429.1 17.7,513.1 17.7,540.7 567.8,540.7 567.8,513.2 514.3,425.3 72.1,427 70.8,429.1 
			74.6,431.5 74.6,436 509.3,434.3 558.8,515.7 558.8,531.7 26.7,531.7 26.7,515.7 78.4,433.9 74.6,431.5 74.6,436 		"/>
		<polygon points="563.3,536.2 563.3,531.7 26.7,531.7 26.7,518.9 558.8,518.9 558.8,536.2 563.3,536.2 563.3,531.7 563.3,536.2 
			567.8,536.2 567.8,509.9 17.7,509.9 17.7,540.7 567.8,540.7 567.8,536.2 		"/>
		<path d="M569.4,59.5l-3.3-3.1l-76.9,83.3l-139.5,151c-2.1,2.3-4.5,3.9-7.2,5.1c-2.6,1.1-5.5,1.7-8.3,1.7c-5.1,0-10.2-1.8-14.3-5.6
			l0,0c-2.3-2.1-3.9-4.5-5.1-7.2c-1.1-2.6-1.7-5.5-1.7-8.3c0-5.1,1.8-10.2,5.6-14.3l107.6-116.5L535.2,27.8l-0.1,0.1
			c2.1-2.3,4.5-3.9,7.2-5.1c2.6-1.1,5.5-1.7,8.3-1.7c5.1,0,10.2,1.8,14.3,5.6l0,0c2.3,2.1,3.9,4.5,5.1,7.2c1.1,2.6,1.7,5.5,1.7,8.3
			c0,5.1-1.8,10.2-5.6,14.3l0,0L569.4,59.5l3.3,3.1c5.3-5.8,8-13.1,8-20.4c0-4-0.8-8.1-2.4-11.9c-1.6-3.8-4-7.3-7.2-10.2l0,0
			c-5.8-5.3-13.1-8-20.4-8c-4,0-8.1,0.8-11.9,2.4c-3.8,1.6-7.3,4-10.2,7.2L419.7,139.6L312.1,256c-5.3,5.8-8,13.1-8,20.4
			c0,4,0.8,8.1,2.4,11.9c1.6,3.8,4,7.3,7.2,10.2l0,0c5.8,5.3,13.1,8,20.4,8c4,0,8.1-0.8,11.9-2.4c3.8-1.6,7.3-4,10.2-7.2l139.5-151
			l76.9-83.3l0,0L569.4,59.5z"/>
		<path d="M266.5,372l1.2,4.3c9.2-2.5,18.4-6.5,26.1-12.3c3.9-2.9,7.4-6.3,10.3-10.2c2.9-3.9,5.2-8.3,6.7-13.2
			c1.1-3.5,1.6-7.2,1.6-10.8c0-7.9-2.3-15.6-6.4-22.4c-4.1-6.7-9.9-12.4-17.2-15.8c-5.3-2.5-11-3.7-16.7-3.7
			c-6.8,0-13.5,1.6-19.5,4.7c-6,3.1-11.2,7.6-14.9,13.5c-3.1,5-5,10.2-6.7,15.3c-1.7,5-3.2,9.8-5.4,13.9c-2.8,5.3-6.9,9.8-11.8,13.3
			c-4.9,3.5-10.7,5.8-16.6,6.8c-1.8,0.3-3.6,0.4-5.6,0.4c-1.5,0-3.2,0-4.9,0l-7,0l2.9,6.4c0.7,1.6,1.7,3,2.9,4.2
			c1.7,1.9,3.7,3.4,5.8,4.6c2.1,1.2,4.3,2.1,6.5,2.6c4.7,1.2,9.4,2.2,13.9,3.3c8.9,2.1,17.9,3.2,27,3.2c3,0,6-0.1,8.9-0.4
			c6.8-0.5,13.5-1.7,20.1-3.4L266.5,372l-1.2-4.3c-6,1.6-12.2,2.7-18.4,3.2c-2.7,0.2-5.5,0.3-8.2,0.3c-8.4,0-16.7-1-24.9-3
			c-4.7-1.1-9.4-2.1-13.9-3.3c-1.7-0.4-3.8-1.3-5.5-2.6c-0.9-0.6-1.6-1.3-2.3-2c-0.6-0.7-1.1-1.4-1.3-1.9l-4.1,1.9l0,4.5
			c1.6,0,3.2,0,4.9,0c2.2,0,4.6-0.1,7.1-0.5c7.3-1.2,14.3-4.1,20.3-8.3c6-4.2,11.1-9.8,14.6-16.5c2.7-5.1,4.3-10.4,6-15.3
			c1.6-4.9,3.3-9.5,5.7-13.3c2.8-4.4,6.8-7.9,11.5-10.3c4.7-2.4,10-3.7,15.3-3.7c4.5,0,8.9,0.9,12.8,2.8c5.5,2.6,10.1,7,13.4,12.4
			c3.2,5.4,5.1,11.6,5.1,17.7c0,2.8-0.4,5.6-1.2,8.2c-1.1,3.8-2.9,7.2-5.3,10.3c-3.5,4.7-8.3,8.7-13.8,11.9
			c-5.5,3.2-11.6,5.7-17.8,7.3L266.5,372z"/>
	</g>
</g>
<g id="Capa_4">
</g>
</svg>
