<?xml version="1.0" encoding="utf-8"?>
<!-- Generator: Adobe Illustrator 25.2.1, SVG Export Plug-In . SVG Version: 6.00 Build 0)  -->
<svg version="1.1" xmlns="http://www.w3.org/2000/svg" xmlns:xlink="http://www.w3.org/1999/xlink" x="0px" y="0px"
	 viewBox="0 0 600 600" style="enable-background:new 0 0 600 600;" xml:space="preserve">
<style type="text/css">
	.st0{display:none;}
	.st1{fill:#FFFFFF;stroke:#000000;stroke-width:9;stroke-miterlimit:10;}
	.st2{fill:#FFFFFF;stroke:#000000;stroke-width:8;stroke-miterlimit:10;}
	.st3{display:none;fill:none;stroke:#000000;stroke-width:5;stroke-miterlimit:10;}
	.st4{fill:none;stroke:#000000;stroke-width:10;stroke-miterlimit:10;}
	.st5{display:none;fill:none;stroke:#000000;stroke-width:9;stroke-miterlimit:10;}
	.st6{fill:none;stroke:#000000;stroke-width:9;stroke-miterlimit:10;}
	.st7{fill:#FFFFFF;stroke:#000000;stroke-width:10;stroke-miterlimit:10;}
</style>
<g id="Capa_1" class="st0">
	
		<image style="display:inline;overflow:visible;" width="1000" height="1000" xlink:href="iconos.png"  transform="matrix(1.2392 0 0 1.1641 -117.8727 -576.8546)">
	</image>
</g>
<g id="Capa_3">
</g>
<g id="Capa_2">
</g>
<g id="Capa_4">
	<path class="st1" d="M449.2,84.3c-17.3,5.2-34.3,16.4-39,33.8c-4.4,16.6,5,36.1,20.9,43c15.9,7,36.2,0.5,45-14.2
		c5.3-9,6.4-19.9,11-29.2c5.9-12.1,17.8-20.8,31-23.4c3.8-0.7,7.4-0.6,11.2-0.7c-2.1-4.3-7.8-7.6-12.4-8.6c-4.6-1-9.3-1.9-14-2.9
		c-11.4-2.4-23.1-3-34.6-1.7C461.9,81.2,455.5,82.5,449.2,84.3z"/>
	<path class="st1" d="M177.9,155.8c-8.8,7.3-17.6,14.6-26.5,21.9l25.7-22.3C177.4,155.5,177.7,155.6,177.9,155.8z"/>
	<path class="st1" d="M177.9,155.8c-8.8,7.3-17.6,14.6-26.5,21.9c0,0-0.1,0.1-0.2,0.1c-3.2,2.6-6.3,5.2-9.5,7.8
		c-3.4-6.5-6.8-13-10.2-19.5c8.8-7.4,17.5-14.8,26.3-22.1c6.4,3.8,12.9,7.5,19.3,11.3C177.4,155.5,177.7,155.6,177.9,155.8z"/>
	<path class="st1" d="M129.2,165.6c-15.6-5.4-31.3-10.7-46.9-16.1c-3.4-25.3-6.8-50.6-10.2-75.8c25.9,7.8,51.8,15.7,77.8,23.5
		c2,15,4,29.9,6,44.9C147,150,138.1,157.8,129.2,165.6z"/>
	<line class="st1" x1="74.6" y1="76.1" x2="106.7" y2="111.8"/>
	<ellipse class="st1" cx="109.3" cy="115.2" rx="4.7" ry="4.6"/>
	<path class="st7" d="M454.5,509c-4.9,4.2-10.8,6.3-16.8,6.3c-7.1,0-14.3-3-19.3-8.8l-54-62.1l-87.2-100.3l-33.9-39L162,211.6
		l-21.3-24.5l10.6-9.3c0.1,0,0.1-0.1,0.2-0.1c8.8-7.3,17.6-14.6,26.5-21.9c-0.3-0.1-0.5-0.3-0.8-0.5l2.1-1.8l22.9,26.3l75.1,86.3
		l33.9,39L401.4,409l55.6,63.9C466.3,483.6,465.2,499.8,454.5,509z"/>
	<path class="st7" d="M277.2,344.1l-87.3,100.4l-47.1,54.2c-9.3,10.7-25.4,11.8-36.1,2.5c-10.7-9.3-11.8-25.4-2.5-36.1l48.7-56
		l90.5-104.1L277.2,344.1z"/>
	<path class="st7" d="M243.3,305.1l-90.5,104.1c-19.5-26-31.1-58.3-31.1-93.3c0-40.2,15.3-76.8,40.3-104.4L243.3,305.1z"/>
	<path class="st7" d="M364.4,444.4c-24.9,17-55,26.9-87.4,26.9c-32.3,0-62.3-9.9-87.2-26.7l87.3-100.4L364.4,444.4z"/>
	<path class="st7" d="M403.7,198.6l-11.4,13.2l-81.2,93.3l-33.9-39l74.9-86.2l13-14.9c5.1-5.8,12.2-8.8,19.3-8.8
		c6,0,11.9,2.1,16.8,6.3C411.9,171.8,413,187.9,403.7,198.6z"/>
	<path class="st7" d="M352.2,179.9l-74.9,86.2l-75.1-86.3c22.2-12.2,47.7-19.2,74.9-19.2C304.3,160.6,329.9,167.6,352.2,179.9z"/>
	<path class="st7" d="M432.4,316c0,34.9-11.5,67.1-30.9,93l-90.3-103.9l81.2-93.3C417.2,239.3,432.4,275.9,432.4,316z"/>
</g>
</svg>
