<?xml version="1.0" encoding="utf-8"?>
<!-- Generator: Adobe Illustrator 25.2.1, SVG Export Plug-In . SVG Version: 6.00 Build 0)  -->
<svg version="1.1" xmlns="http://www.w3.org/2000/svg" xmlns:xlink="http://www.w3.org/1999/xlink" x="0px" y="0px"
	 viewBox="0 0 600 600" style="enable-background:new 0 0 600 600;" xml:space="preserve">
<style type="text/css">
	.st0{display:none;}
	.st1{fill:#FFFFFF;stroke:#000000;stroke-width:9;stroke-miterlimit:10;}
	.st2{fill:#FFFFFF;stroke:#000000;stroke-width:8;stroke-miterlimit:10;}
	.st3{display:none;fill:none;stroke:#000000;stroke-width:5;stroke-miterlimit:10;}
	.st4{fill:none;stroke:#000000;stroke-width:10;stroke-miterlimit:10;}
	.st5{display:none;fill:none;stroke:#000000;stroke-width:9;stroke-miterlimit:10;}
	.st6{fill:none;stroke:#000000;stroke-width:9;stroke-miterlimit:10;}
	.st7{fill:#FFFFFF;stroke:#000000;stroke-width:10;stroke-miterlimit:10;}
</style>
<g id="Capa_1" class="st0">
	
		<image style="display:inline;overflow:visible;" width="1000" height="1000" xlink:href="iconos.png"  transform="matrix(1.2392 0 0 1.1641 -733.8727 43.1455)">
	</image>
</g>
<g id="Capa_3">
	<path class="st1" d="M538.7,476.1l-12,2.4c-24.6,4.9-48.5-10.8-53.5-35.2l-11.5-56.5h-41.9c-8.1,9.1-20,14.8-33.3,14.8
		c-13.2,0-25.1-5.7-33.2-14.8h-73.5c-8.1,9.4-20.2,15.3-33.7,15.3c-10,0-19.2-3.2-26.6-8.7c-2.6-1.9-5.1-4.2-7.2-6.6h-43.1
		l-11.1,54.3c-5,24.3-28.9,40-53.5,35.1l-12-2.4C68.1,469,52.2,445.3,57.1,421l43.5-213.5c5-24.3,28.9-40.1,53.5-35.2l12,2.4
		c18.9,3.8,32.7,18.7,35.8,36.4h228c3.8-16.8,17.2-30.6,35.3-34.2l12-2.4c24.6-4.9,48.5,10.8,53.5,35.2l43.5,213.5
		C579.2,447.5,563.3,471.2,538.7,476.1z"/>
	<ellipse class="st2" cx="447.8" cy="250.7" rx="12.4" ry="12.3"/>
	<ellipse class="st2" cx="422.4" cy="281.6" rx="12.4" ry="12.3"/>
	<ellipse class="st2" cx="471.6" cy="282.4" rx="12.4" ry="12.3"/>
	<ellipse class="st2" cx="446.8" cy="313.7" rx="12.4" ry="12.3"/>
	<rect x="161.8" y="230.2" class="st2" width="18.2" height="27"/>
	
		<rect x="193.1" y="261.6" transform="matrix(-1.836970e-16 1 -1 -1.836970e-16 477.3257 73.1486)" class="st2" width="18" height="27.3"/>
	
		<rect x="161.8" y="293.4" transform="matrix(-1 4.438082e-11 -4.438082e-11 -1 341.9146 613.8886)" class="st2" width="18.2" height="27"/>
	
		<rect x="130.8" y="261.8" transform="matrix(-4.553507e-11 -1 1 -4.553507e-11 -135.6421 415.1905)" class="st2" width="18" height="27.3"/>
	<ellipse class="st2" cx="244.1" cy="354.3" rx="25.7" ry="25.4"/>
	<ellipse class="st2" cx="386.1" cy="353.9" rx="25.7" ry="25.4"/>
	<rect x="237.1" y="301.5" class="st3" width="16" height="12.2"/>
	<polygon class="st3" points="277.6,299.7 277.6,314 298.8,305.3 	"/>
	<path class="st1" d="M281.3,393l-95.2,168.6c-6.9,12.3-22.5,16.6-34.9,9.7c-12.3-6.9-16.6-22.5-9.7-34.8l78.3-138.7
		c2.7,2.1,5.8,3.7,9.2,4.7c0.9,0.3,1.7,0.5,2.4,0.7c1.1,0.2,3.6,0.8,7,0.8c1.9,0,5.8-0.1,13.7-1.6c2.8-0.6,6.5-1.4,10.9-2.6
		C269.2,397.5,275.3,395.3,281.3,393z"/>
	<path class="st1" d="M377.2,190l-12,21.2h-58.8l26.2-46.4c4.7-8.3,13.4-13,22.3-13c4.3,0,8.6,1.1,12.5,3.3
		C379.8,162,384.2,177.7,377.2,190z"/>
	<path class="st1" d="M438.3,100.8c-5.3,17.2-16.7,34.2-34.2,38.7c-16.7,4.3-36-5.4-42.8-21.4s-0.2-36.2,14.6-44.8
		c9-5.2,19.9-6.3,29.3-10.7c12.2-5.8,21-17.6,23.7-30.7c0.8-3.8,0.7-7.4,0.8-11.2c4.3,2.2,7.5,7.8,8.5,12.4c1,4.7,1.8,9.4,2.7,14
		c2.3,11.4,2.7,23.1,1.4,34.6C441.5,88.2,440.2,94.6,438.3,100.8z"/>
</g>
<g id="Capa_2">
</g>
<g id="Capa_4">
</g>
</svg>
