<?xml version="1.0" encoding="utf-8"?>
<!-- Generator: Adobe Illustrator 25.2.1, SVG Export Plug-In . SVG Version: 6.00 Build 0)  -->
<svg version="1.1" xmlns="http://www.w3.org/2000/svg" xmlns:xlink="http://www.w3.org/1999/xlink" x="0px" y="0px"
	 viewBox="0 0 600 600" style="enable-background:new 0 0 600 600;" xml:space="preserve">
<style type="text/css">
	.st0{display:none;}
	.st1{fill:#FFFFFF;stroke:#000000;stroke-width:9;stroke-miterlimit:10;}
	.st2{fill:#FFFFFF;stroke:#000000;stroke-width:8;stroke-miterlimit:10;}
	.st3{display:none;fill:none;stroke:#000000;stroke-width:5;stroke-miterlimit:10;}
	.st4{fill:none;stroke:#000000;stroke-width:10;stroke-miterlimit:10;}
	.st5{fill:none;stroke:#000000;stroke-width:9;stroke-miterlimit:10;}
	.st6{display:inline;}
	.st7{display:none;fill:url(#SVGID_1_);}
	.st8{fill:url(#SVGID_2_);}
	.st9{fill:url(#SVGID_3_);}
	.st10{fill:#88368C;}
	.st11{fill:#9FB3DE;}
	.st12{fill:url(#SVGID_4_);}
	.st13{fill:url(#SVGID_5_);}
	.st14{display:none;fill:url(#SVGID_6_);}
</style>
<g id="Capa_1" class="st0">
	
		<image style="display:inline;overflow:visible;" width="1000" height="1000" xlink:href="../../../../../../../Desktop/diseños/iconos.png"  transform="matrix(1.2392 0 0 1.1641 -117.8727 -576.8546)">
	</image>
</g>
<g id="Capa_3">
</g>
<g id="Capa_2" class="st0">
</g>
<g id="Capa_5">
</g>
<g id="Capa_4">
	<g>
		<linearGradient id="SVGID_1_" gradientUnits="userSpaceOnUse" x1="404.6525" y1="121.9146" x2="536.5045" y2="121.9146">
			<stop  offset="0" style="stop-color:#88368C"/>
			<stop  offset="1.189826e-02" style="stop-color:#88398D"/>
			<stop  offset="0.2651" style="stop-color:#9167A9"/>
			<stop  offset="0.4989" style="stop-color:#9689C1"/>
			<stop  offset="0.7062" style="stop-color:#9BA1D1"/>
			<stop  offset="0.879" style="stop-color:#9EAEDA"/>
			<stop  offset="0.9963" style="stop-color:#9FB3DE"/>
		</linearGradient>
		<path style="fill:url(#SVGID_1_);" d="M533.4,91.6c-0.8-1.6-1.8-2.9-3-4.1c-1.7-1.8-3.8-3.2-5.9-4.4c-2.1-1.1-4.3-2-6.5-2.5
			c-4.7-1-9.4-1.9-14-2.9c-7.8-1.6-15.7-2.4-23.7-2.4c-4.1,0-8.3,0.2-12.4,0.7c-6.8,0.7-13.4,2.1-19.9,4v0
			c-9.1,2.7-18.2,7-25.7,13.1c-3.8,3-7.2,6.5-10,10.5c-2.8,4-5,8.4-6.3,13.4c-0.8,3.2-1.2,6.4-1.2,9.7c0,8.1,2.5,16,6.7,22.8
			c4.3,6.8,10.4,12.5,18,15.8c5,2.2,10.3,3.2,15.6,3.2c7,0,13.9-1.8,20-5c6.1-3.3,11.4-8.1,15.1-14.2c3-5.1,4.7-10.4,6.2-15.5
			c1.5-5.1,2.9-9.9,5-14.1c2.6-5.4,6.6-10,11.4-13.6c4.8-3.6,10.5-6.2,16.4-7.3c1.6-0.3,3.2-0.4,4.9-0.5c1.7-0.1,3.6-0.1,5.6-0.1
			l7-0.2L533.4,91.6z M517.3,89.9c-7.3,1.4-14.1,4.5-20,8.9c-5.9,4.4-10.8,10.1-14.1,16.9c-2.5,5.2-4,10.5-5.5,15.4
			c-1.5,5-3,9.6-5.3,13.5c-2.7,4.6-6.8,8.3-11.6,10.8c-4.8,2.6-10.3,4-15.8,4c-4.1,0-8.2-0.8-12-2.4c-5.7-2.5-10.6-6.9-14-12.4
			c-3.4-5.4-5.4-11.8-5.4-18c0-2.5,0.3-5,0.9-7.3c1-3.8,2.7-7.3,5-10.5c3.4-4.8,8-8.9,13.4-12.3c5.4-3.4,11.5-6,17.6-7.9l-1.3-4.3
			l1.3,4.3c6-1.8,12.1-3,18.3-3.7c3.8-0.4,7.6-0.6,11.4-0.6c7.3,0,14.6,0.8,21.8,2.3c4.7,1,9.4,1.9,14,2.8c0.5,0.1,1,0.3,1.6,0.4
			C517.5,89.9,517.4,89.9,517.3,89.9z"/>
		<linearGradient id="SVGID_2_" gradientUnits="userSpaceOnUse" x1="66.7004" y1="293.8773" x2="468.3164" y2="293.8773">
			<stop  offset="0" style="stop-color:#88368C"/>
			<stop  offset="1.189826e-02" style="stop-color:#88398D"/>
			<stop  offset="0.2651" style="stop-color:#9167A9"/>
			<stop  offset="0.4989" style="stop-color:#9689C1"/>
			<stop  offset="0.7062" style="stop-color:#9BA1D1"/>
			<stop  offset="0.879" style="stop-color:#9EAEDA"/>
			<stop  offset="0.9963" style="stop-color:#9FB3DE"/>
		</linearGradient>
		<path class="st8" d="M407.8,408.7c18.6-26.2,29.6-58.2,29.6-92.8c0-39.8-14.5-76.2-38.5-104.2l8.6-9.9l-3.8-3.3l3.8,3.3
			c5-5.8,7.5-13,7.5-20.1c0-4.3-0.9-8.5-2.7-12.5c-1.8-4-4.4-7.6-7.9-10.6c-5.8-5-12.9-7.5-20.1-7.5c-4.3,0-8.5,0.9-12.5,2.7
			c-4,1.8-7.6,4.4-10.6,7.9L351,173.7c-22.1-11.5-47.3-18.1-74-18.1c-26.6,0-51.7,6.5-73.7,17.9l-23.6-27.1l-3.6,3.1
			c-5.3-3.1-10.7-6.3-16-9.4c-1.9-14.5-3.9-29-5.8-43.5l-0.4-2.9l-2.8-0.8c-25.9-7.8-51.8-15.7-77.8-23.5l-6.7-2l0.9,6.9
			c3.4,25.3,6.8,50.6,10.2,75.8l0.4,2.8l2.6,0.9c15.6,5.4,31.3,10.7,46.9,16.1l0.9,0.3c2.5,4.7,5,9.5,7.5,14.2l-2.5,2.2l21.7,25
			c-24.1,28-38.6,64.5-38.6,104.4c0,34.7,11,66.8,29.7,93l-46.1,53c-5,5.8-7.5,13-7.5,20.1c0,4.3,0.9,8.5,2.6,12.5
			c1.8,4,4.4,7.6,7.9,10.6l0,0c5.8,5,13,7.5,20.1,7.5c4.3,0,8.5-0.9,12.5-2.6c4-1.8,7.6-4.4,10.6-7.9l44.3-50.9
			c24.9,15.9,54.5,25.2,86.3,25.2c31.8,0,61.5-9.3,86.5-25.3l51.1,58.8c3,3.5,6.7,6.1,10.6,7.9c4,1.8,8.2,2.7,12.5,2.7
			c7.1,0,14.3-2.5,20.1-7.5l0,0c3.5-3,6.1-6.7,7.9-10.6c1.8-4,2.6-8.2,2.6-12.5c0-7.1-2.5-14.3-7.5-20.1L407.8,408.7z M427.4,316
			c0,31.6-9.7,60.8-26.3,85l-70.7-81.3l-12.6-14.5l74.5-85.7C414.2,245.5,427.4,279.2,427.4,316z M355.9,183.2l13-14.9
			c2-2.4,4.5-4.1,7.1-5.3c2.7-1.2,5.5-1.8,8.4-1.8c4.8,0,9.6,1.7,13.5,5.1l0,0c2.4,2,4.1,4.5,5.3,7.1c1.2,2.7,1.8,5.5,1.8,8.4
			c0,4.8-1.7,9.6-5.1,13.5l-11.3,13l-70.4,81l-7.1,8.1l-27.3-31.4L355.9,183.2z M277,165.6c24.2,0,47,5.7,67.2,15.8l-67,77.1
			l-67.1-77.2C230.2,171.3,253,165.6,277,165.6z M128.2,160.5c-13.9-4.8-27.9-9.5-41.8-14.3c-2.6-19.7-5.3-39.4-7.9-59.1l22.3,24.8
			c-0.4,1-0.6,2.1-0.6,3.2c0,2.5,1.1,4.9,2.8,6.5c1.7,1.6,4,2.6,6.5,2.6c2.5,0,4.8-1,6.5-2.6c1.7-1.6,2.8-3.9,2.8-6.5
			c0-2.5-1.1-4.9-2.8-6.5c-1.7-1.6-4-2.6-6.5-2.6c-0.5,0-1.1,0.1-1.6,0.1L86.7,82.9c19.7,6,39.4,11.9,59.1,17.9
			c1.8,13.2,3.5,26.4,5.3,39.7C143.5,147.1,135.8,153.8,128.2,160.5z M109.1,115.2L109.1,115.2l0.2-0.1c0.1,0,0.2,0,0.2,0.1l0,0
			l-0.2,0C109.2,115.3,109.2,115.2,109.1,115.2z M137.2,167.2c7-5.9,14-11.8,21.1-17.8c3.6,2.1,7.1,4.2,10.7,6.3l-0.4,0.4l0.5,0.3
			l-5.4,4.7c-5.1,4.2-10.2,8.5-15.4,12.7l-0.1,0L148,174l0,0l-4.9,4.3C141.1,174.6,139.2,170.9,137.2,167.2z M126.7,316
			c0-36.9,13.3-70.6,35.3-96.8l74.7,85.9l-83.5,96.1C136.5,377,126.7,347.6,126.7,316z M184.8,442.8L139,495.5
			c-2,2.4-4.5,4.1-7.1,5.3c-2.7,1.2-5.5,1.8-8.4,1.8c-4.8,0-9.6-1.7-13.5-5l0,0c-2.4-2-4.1-4.5-5.3-7.1c-1.2-2.7-1.8-5.5-1.8-8.4
			c0-4.8,1.7-9.6,5-13.5l44.6-51.3l0,0l3.5-4.1l0.5-0.6l86.7-99.8l27.3,31.4l-17.7,20.4L184.8,442.8z M277,466.3
			c-29.3,0-56.5-8.3-79.6-22.8l37.9-43.5l41.9-48.2l79.7,91.6C333.7,457.9,306.4,466.3,277,466.3z M456.5,498.1
			c-1.2,2.7-2.9,5.1-5.3,7.1c-3.9,3.4-8.7,5.1-13.5,5.1c-2.9,0-5.8-0.6-8.4-1.8c-2.7-1.2-5.1-2.9-7.1-5.3l-50.3-57.9l0,0l-3.1-3.6
			l-0.6-0.6L281,340.8l-30.7-35.3l-0.4-0.4l0,0l-2.9-3.3l-0.1-0.1l-3.7-4.2l0,0L202.9,251l-37.1-42.7l-18-20.7l6.9-6l0,0l0.1-0.1
			c8.2-6.8,16.4-13.6,24.6-20.3l15,17.3l0,0l3.6,4.1l0.5,0.5l47,54l28.5,32.8l23.2,26.6l7.5,8.6l0,0l2.6,3l4,4.6l0,0l5.1,5.9
			l81.4,93.6l55.6,63.9c3.4,3.9,5,8.7,5,13.5C458.3,492.6,457.7,495.5,456.5,498.1z"/>
		<linearGradient id="SVGID_3_" gradientUnits="userSpaceOnUse" x1="404.4893" y1="158.7363" x2="404.4915" y2="158.7363">
			<stop  offset="0" style="stop-color:#88368C"/>
			<stop  offset="1.189826e-02" style="stop-color:#88398D"/>
			<stop  offset="0.2651" style="stop-color:#9167A9"/>
			<stop  offset="0.4989" style="stop-color:#9689C1"/>
			<stop  offset="0.7062" style="stop-color:#9BA1D1"/>
			<stop  offset="0.879" style="stop-color:#9EAEDA"/>
			<stop  offset="0.9963" style="stop-color:#9FB3DE"/>
		</linearGradient>
		<polygon style="display:none;fill:url(#SVGID_3_);" points="404.5,158.7 404.5,158.7 404.5,158.7 		"/>
	</g>
</g>
</svg>
