<svg width="800" height="500" viewBox="0 0 800 500" fill="none" xmlns="http://www.w3.org/2000/svg">
<rect width="800" height="500" fill="white"/>
<path d="M423.036 279.022L448.231 285.438C442.911 306.415 433.476 322.403 419.724 333.503C405.972 344.501 389.21 350 369.435 350C348.959 350 332.196 345.723 319.348 337.271C306.499 328.819 296.662 316.497 290.038 300.407C283.413 284.318 280 267.108 280 248.574C280 228.411 283.814 210.896 291.343 195.927C298.871 180.957 309.711 169.552 323.664 161.813C337.616 154.073 353.074 150.102 369.837 150.102C388.908 150.102 404.868 154.99 417.917 164.868C430.866 174.745 440 188.595 445.019 206.415L420.226 212.322C415.809 198.269 409.385 187.984 400.954 181.568C392.522 175.153 381.982 171.996 369.235 171.996C354.58 171.996 342.334 175.56 332.497 182.688C322.66 189.817 315.734 199.389 311.819 211.303C307.804 223.32 305.797 235.642 305.797 248.371C305.797 264.766 308.206 279.124 312.923 291.446C317.641 303.666 324.969 312.831 334.906 318.941C344.843 325.051 355.684 328.004 367.227 328.004C381.38 328.004 393.325 323.829 403.061 315.58C412.898 307.536 419.523 295.316 423.036 279.022Z" fill="black"/>
<path d="M350.866 284.521L377.365 282.383C378.67 292.057 381.581 300 386.098 306.212C390.715 312.424 397.842 317.413 407.478 321.283C417.114 325.153 428.055 326.986 440.1 326.986C450.841 326.986 460.276 325.56 468.507 322.607C476.738 319.756 482.861 315.682 486.876 310.692C490.891 305.601 492.898 300.102 492.898 294.195C492.898 288.086 490.991 282.79 487.077 278.31C483.162 273.829 476.838 269.959 467.905 266.904C462.183 264.868 449.636 261.711 430.063 257.434C410.489 253.157 396.838 249.185 389.009 245.418C378.871 240.631 371.343 234.623 366.324 227.393C361.305 220.265 358.896 212.22 358.896 203.36C358.896 193.585 361.907 184.521 368.03 175.967C374.153 167.515 382.986 161.1 394.73 156.619C406.474 152.24 419.423 150 433.777 150C449.536 150 463.388 152.342 475.433 156.925C487.478 161.507 496.713 168.33 503.237 177.291C509.762 186.253 513.174 196.436 513.676 207.739L486.675 209.572C485.27 197.352 480.351 188.086 471.92 181.874C463.588 175.662 451.242 172.505 434.881 172.505C417.917 172.505 405.471 175.356 397.641 180.957C389.812 186.66 385.998 193.483 385.998 201.426C385.998 208.35 388.708 214.053 394.228 218.534C399.649 223.014 413.802 227.597 436.688 232.281C459.573 236.965 475.232 241.039 483.764 244.603C496.11 249.796 505.245 256.314 511.167 264.257C517.089 272.2 520 281.365 520 291.752C520 302.037 516.788 311.711 510.263 320.774C503.739 329.837 494.504 336.965 482.359 341.955C470.213 347.047 456.562 349.491 441.405 349.491C422.133 349.491 406.073 346.945 393.024 341.853C379.975 336.762 369.837 329.124 362.409 318.839C355.082 309.063 351.267 297.454 350.866 284.521Z" fill="black"/>
</svg>
