<?xml version="1.0" encoding="utf-8"?>
<!-- Generator: Adobe Illustrator 25.2.1, SVG Export Plug-In . SVG Version: 6.00 Build 0)  -->
<svg version="1.1" id="Capa_1" xmlns="http://www.w3.org/2000/svg" xmlns:xlink="http://www.w3.org/1999/xlink" x="0px" y="0px"
	 viewBox="0 0 532.5 225" style="enable-background:new 0 0 532.5 225;" xml:space="preserve">
<style type="text/css">
	.st0{fill:#FFF6F3;}
	.st1{fill:none;}
</style>
<rect x="-0.4" y="-1.5" class="st0" width="532.8" height="224.7"/>
<image style="display:none;overflow:visible;enable-background:new    ;" width="296" height="71" xlink:href="3962872E.png"  transform="matrix(0.7019 0 0 0.7019 182.7414 138.8413)">
</image>
<image style="display:none;overflow:visible;enable-background:new    ;" width="172" height="139" xlink:href="3962872D.png"  transform="matrix(0.507 0 0 0.507 222.6508 77.2658)">
</image>
<g>
	<path d="M287.5,124.1l9.8,2.5c-2.1,8-5.8,14.1-11.2,18.4c-5.4,4.2-11.9,6.4-19.6,6.4c-8,0-14.4-1.6-19.5-4.9
		c-5.1-3.3-8.8-8-11.4-14.1c-2.7-6.1-3.9-12.8-3.9-19.9c0-7.7,1.5-14.4,4.5-20.2s7.1-10.1,12.6-13.1s11.4-4.5,18-4.5
		c7.4,0,13.7,1.9,18.7,5.6s8.6,9.1,10.6,15.9l-9.8,2.4c-1.8-5.4-4.2-9.4-7.4-11.7c-3.3-2.5-7.4-3.7-12.3-3.7
		c-5.6,0-10.4,1.3-14.3,4.2c-3.9,2.7-6.5,6.4-8,11s-2.4,9.4-2.4,14.3c0,6.2,0.9,11.7,2.8,16.5c1.8,4.8,4.8,8.2,8.6,10.6
		c3.9,2.4,8,3.4,12.6,3.4c5.5,0,10.1-1.6,14-4.8C283.5,135.1,286.2,130.3,287.5,124.1z"/>
	<path d="M259.4,126.3l10.3-0.7c0.4,3.7,1.6,6.7,3.4,9.1c1.8,2.4,4.6,4.3,8.3,5.8c3.7,1.5,8,2.2,12.6,2.2c4.2,0,7.9-0.6,11-1.6
		c3.3-1,5.6-2.7,7.1-4.6c1.5-1.9,2.4-4,2.4-6.4c0-2.4-0.7-4.3-2.2-6.1c-1.5-1.8-4-3.1-7.4-4.3c-2.2-0.7-7.1-1.9-14.7-3.6
		c-7.6-1.6-12.9-3.1-15.9-4.6c-4-1.8-6.8-4.2-8.8-6.8c-1.9-2.7-3-5.8-3-9.2c0-3.7,1.2-7.3,3.6-10.6s5.8-5.6,10.4-7.4
		c4.6-1.6,9.7-2.5,15.2-2.5c6.1,0,11.6,0.9,16.2,2.7c4.6,1.8,8.3,4.3,10.9,7.9c2.5,3.4,3.9,7.3,4,11.7L312.2,98
		c-0.6-4.8-2.5-8.2-5.8-10.6s-8-3.6-14.4-3.6c-6.7,0-11.4,1-14.4,3.3c-3,2.2-4.6,4.8-4.6,7.9c0,2.7,1,4.9,3.3,6.5
		c2.1,1.8,7.6,3.4,16.5,5.4c8.9,1.8,15,3.4,18.3,4.8c4.8,1.9,8.3,4.5,10.7,7.6s3.4,6.5,3.4,10.6c0,4-1.2,7.7-3.7,11.2
		c-2.5,3.4-6.1,6.2-10.9,8.2c-4.8,1.9-10,3-15.9,3c-7.4,0-13.8-1-18.9-3c-5.1-1.9-9.1-4.9-11.9-8.8
		C261.1,135.7,259.6,131.2,259.4,126.3z"/>
</g>
<image style="display:none;overflow:visible;enable-background:new    ;" width="224" height="378" xlink:href="3962872A.png"  transform="matrix(0.4472 0 0 0.4472 143.8643 55.7135)">
</image>
<path class="st1" d="M435.7,57.3c-22.6,35.4-45.1,70.9-67.7,106.3"/>
<image style="overflow:visible;enable-background:new    ;" width="589" height="770" xlink:href="../recursos/uo-removebg-preview.png"  transform="matrix(0.3037 0 0 0.2922 352.4352 16.4182)">
</image>
<image style="display:none;overflow:visible;enable-background:new    ;" width="1872" height="2664" xlink:href="39628726.png"  transform="matrix(8.291805e-02 0 0 8.291805e-02 96.2221 3.6365)">
</image>
<image style="display:none;overflow:visible;enable-background:new    ;" width="408" height="612" xlink:href="../recursos/pit-removebg-preview.png"  transform="matrix(0.7471 0 0 0.7471 36.2364 -39.9091)">
</image>
<image style="display:none;overflow:visible;enable-background:new    ;" width="423" height="514" xlink:href="3962873A.png"  transform="matrix(0.3262 0 0 0.3262 132.4979 58.0046)">
</image>
<image style="display:none;overflow:visible;enable-background:new    ;" width="269" height="352" xlink:href="3962873B.png"  transform="matrix(0.5889 0 0 0.5889 113.0604 16.2041)">
</image>
<image style="display:none;overflow:visible;" width="453" height="629" xlink:href="../recursos/imagen-PhotoRoom_ccexpress.png"  transform="matrix(-0.4061 0 0 0.4061 178 -8.2884)">
</image>
<image style="overflow:visible;" width="680" height="794" xlink:href="4B3D8948.png"  transform="matrix(0.2898 0 0 0.2898 58.2507 -4.525)">
</image>
</svg>
