<svg xmlns="http://www.w3.org/2000/svg" viewBox="0 0 1627.2 613.09"><defs><style>.cls-1{fill:#fff;}.cls-2{fill:#21aa68;}.cls-3{fill:#fff6f3;}.cls-4{fill:#1c1c1c;}.cls-5{fill:#e0bd65;}</style></defs><g id="Capa_1" data-name="Capa 1"><rect class="cls-1" x="0.64" y="-0.09" width="412.28" height="613.92"/></g><g id="Capa_2" data-name="Capa 2"><rect class="cls-2" x="412.91" y="2.72" width="415.69" height="611.1"/><path class="cls-3" d="M549.07,301.12l3.48.8a10.6,10.6,0,0,1-3.94,6.16,11.29,11.29,0,0,1-7,2.13,13.37,13.37,0,0,1-6.92-1.62,10.19,10.19,0,0,1-4-4.75,16.4,16.4,0,0,1-1.41-6.66,13.71,13.71,0,0,1,1.57-6.77,10.62,10.62,0,0,1,4.44-4.39,13.45,13.45,0,0,1,6.36-1.52,11.44,11.44,0,0,1,6.67,1.92,9.64,9.64,0,0,1,3.74,5.35l-3.44.76a6.86,6.86,0,0,0-7.07-5.2,8.74,8.74,0,0,0-5,1.36,7.45,7.45,0,0,0-2.88,3.69,14.19,14.19,0,0,0-.81,4.8,14.63,14.63,0,0,0,1,5.55,6.83,6.83,0,0,0,3,3.54,9.23,9.23,0,0,0,4.45,1.16,7.77,7.77,0,0,0,7.83-6.31Z"/><path class="cls-3" d="M607,310.36V284.3h3.54l13.68,20.45V284.3h3.28v26H624l-13.69-20.46v20.46H607Z"/><path class="cls-3" d="M676.93,310.36V284.3h3.44v23h12.82v3.08Z"/><path class="cls-3" d="M697.39,310.36V284.3h18.83v3.08H700.87v8h14.34v3H700.82v8.84h16v3.08H697.39Z"/><path class="cls-3" d="M721,287.73v-3.68h3.43V287a8.25,8.25,0,0,1-.55,3.44,5,5,0,0,1-2.38,2.17l-.75-1.26a2.61,2.61,0,0,0,1.41-1.21,4.88,4.88,0,0,0,.51-2.33l-1.67,0Z"/><path class="cls-3" d="M728.44,301.82l3.24-.25a6.69,6.69,0,0,0,1.06,3.08,5.41,5.41,0,0,0,2.57,1.92,9.89,9.89,0,0,0,3.94.76,10.12,10.12,0,0,0,3.44-.56,5,5,0,0,0,2.22-1.51,3.4,3.4,0,0,0,.7-2.12,3.47,3.47,0,0,0-.7-2.08,5.2,5.2,0,0,0-2.33-1.46c-.7-.25-2.22-.66-4.59-1.21a23.58,23.58,0,0,1-5-1.57,6.61,6.61,0,0,1-2.73-2.32,5.56,5.56,0,0,1-.91-3.08,6.17,6.17,0,0,1,1.11-3.54,6.7,6.7,0,0,1,3.24-2.47,12.71,12.71,0,0,1,4.74-.86,13,13,0,0,1,5,.91,7.4,7.4,0,0,1,3.39,2.63,7.2,7.2,0,0,1,1.26,3.94l-3.28.25a5,5,0,0,0-1.77-3.59,7.12,7.12,0,0,0-4.5-1.21c-2.07,0-3.58.35-4.49,1.11a3.18,3.18,0,0,0-1.41,2.63,2.87,2.87,0,0,0,1,2.22c.65.55,2.37,1.16,5.15,1.77a33.39,33.39,0,0,1,5.7,1.61,7.72,7.72,0,0,1,3.34,2.53,6.12,6.12,0,0,1,1.06,3.53,6.83,6.83,0,0,1-1.16,3.74,8,8,0,0,1-3.39,2.73,12.11,12.11,0,0,1-4.95,1,15.31,15.31,0,0,1-5.85-1,8.05,8.05,0,0,1-3.69-3A8.24,8.24,0,0,1,728.44,301.82Z"/><polygon class="cls-3" points="661.83 287.02 653.75 310.31 650.07 310.31 660.07 284.3 661.83 287.02"/><polygon class="cls-3" points="661.83 287.02 663.8 284.3 674.46 310.31 670.52 310.31 661.83 287.02"/><polygon class="cls-3" points="660.07 284.3 663.8 284.3 661.83 287.02 660.07 284.3"/><polygon class="cls-3" points="674.46 310.31 669.96 307.28 657.39 307.23 656.28 310.31 674.46 310.31"/><polygon class="cls-3" points="591.69 287.08 583.56 310.36 579.87 310.36 589.87 284.3 591.69 287.08"/><polygon class="cls-3" points="591.69 287.08 593.61 284.3 604.26 310.36 600.32 310.36 591.69 287.08"/><polygon class="cls-3" points="589.87 284.3 593.61 284.3 591.69 287.08 589.87 284.3"/><polygon class="cls-3" points="604.26 310.36 599.77 307.33 587.19 307.28 586.08 310.36 604.26 310.36"/><rect class="cls-3" x="639.92" y="289.7" width="3.43" height="20.65"/><rect class="cls-3" x="631.38" y="284.3" width="20.65" height="3.08"/><rect class="cls-3" x="556.54" y="284.3" width="3.54" height="26.06"/><rect class="cls-3" x="573.61" y="284.3" width="3.43" height="26.06"/><rect class="cls-3" x="559.82" y="295" width="11.16" height="3.03"/><path class="cls-3" d="M510.58,301l3.34.86a11.38,11.38,0,0,1-3.79,6.26,10.54,10.54,0,0,1-6.67,2.18,11.91,11.91,0,0,1-6.61-1.67,10.54,10.54,0,0,1-3.89-4.8,16.64,16.64,0,0,1-1.31-6.76,14.8,14.8,0,0,1,1.51-6.87,10.2,10.2,0,0,1,4.29-4.45,12.61,12.61,0,0,1,6.12-1.51,10.42,10.42,0,0,1,6.36,1.92,9.74,9.74,0,0,1,3.58,5.4l-3.33.81a7.83,7.83,0,0,0-2.52-4,6.7,6.7,0,0,0-4.2-1.26,7.94,7.94,0,0,0-4.84,1.41,7,7,0,0,0-2.73,3.74,15.56,15.56,0,0,0-.81,4.85,14.71,14.71,0,0,0,1,5.6,7,7,0,0,0,2.93,3.59,8,8,0,0,0,4.29,1.16,7.31,7.31,0,0,0,4.75-1.62A8.91,8.91,0,0,0,510.58,301Z"/><path class="cls-3" d="M501,301.77l3.48-.25a6.32,6.32,0,0,0,1.17,3.08,6.4,6.4,0,0,0,2.82,2,11.76,11.76,0,0,0,4.3.76,12,12,0,0,0,3.73-.56,4.89,4.89,0,0,0,2.43-1.56,3.56,3.56,0,0,0,.81-2.18A3.13,3.13,0,0,0,519,301a5.73,5.73,0,0,0-2.53-1.46c-.75-.25-2.42-.66-5-1.21a26.18,26.18,0,0,1-5.4-1.57,7.14,7.14,0,0,1-3-2.32,5.25,5.25,0,0,1-1-3.13,6,6,0,0,1,1.21-3.59,7.49,7.49,0,0,1,3.54-2.52,16.46,16.46,0,0,1,10.65,0,7.76,7.76,0,0,1,3.69,2.67,6.92,6.92,0,0,1,1.36,4l-3.58.26a4.92,4.92,0,0,0-2-3.59,8.24,8.24,0,0,0-4.9-1.21c-2.27,0-3.89.35-4.9,1.11a3.31,3.31,0,0,0-1.56,2.68,2.62,2.62,0,0,0,1.11,2.22c.7.6,2.57,1.16,5.6,1.82a38.82,38.82,0,0,1,6.21,1.61,8.46,8.46,0,0,1,3.64,2.58,5.63,5.63,0,0,1,1.16,3.58,6.19,6.19,0,0,1-1.26,3.79,8.45,8.45,0,0,1-3.69,2.78,14.2,14.2,0,0,1-5.4,1,18.26,18.26,0,0,1-6.41-1,8.83,8.83,0,0,1-4.05-3A9.49,9.49,0,0,1,501,301.77Z"/><rect class="cls-3" x="491.7" y="314.55" width="257.3" height="2.17"/><path d="M130,303.87l3.49.81a10.67,10.67,0,0,1-3.94,6.16,11.36,11.36,0,0,1-7,2.12,13.37,13.37,0,0,1-6.92-1.62,10.11,10.11,0,0,1-4-4.74,16.45,16.45,0,0,1-1.42-6.67,13.85,13.85,0,0,1,1.57-6.77,10.62,10.62,0,0,1,4.44-4.39,13.46,13.46,0,0,1,6.37-1.52,11.41,11.41,0,0,1,6.66,1.92,9.67,9.67,0,0,1,3.74,5.36l-3.43.75a6.89,6.89,0,0,0-7.07-5.2,8.74,8.74,0,0,0-5,1.37,7.36,7.36,0,0,0-2.88,3.68,14,14,0,0,0-.81,4.8,14.53,14.53,0,0,0,1,5.56,6.85,6.85,0,0,0,3,3.53,9.08,9.08,0,0,0,4.44,1.16,7.74,7.74,0,0,0,7.83-6.31Z"/><path d="M188,313.11V287.05h3.53l13.69,20.46V287.05h3.28v26H205l-13.68-20.45v20.45H188Z"/><path d="M257.88,313.11V287.05h3.43v23h12.83v3.08Z"/><path d="M278.33,313.11V287.05h18.84v3.08H281.82v8h14.34v3h-14.4V310h16v3.08H278.33Z"/><path d="M301.91,290.49V286.8h3.44v2.93a8,8,0,0,1-.56,3.43,4.93,4.93,0,0,1-2.37,2.17l-.76-1.26a2.59,2.59,0,0,0,1.42-1.21,4.84,4.84,0,0,0,.5-2.32l-1.67-.05Z"/><path d="M309.39,304.58l3.23-.26a6.72,6.72,0,0,0,1.06,3.08,5.43,5.43,0,0,0,2.58,1.92,9.68,9.68,0,0,0,3.94.76,10.07,10.07,0,0,0,3.43-.55,4.94,4.94,0,0,0,2.22-1.52,3.33,3.33,0,0,0,.71-2.12,3.39,3.39,0,0,0-.71-2.07,5.11,5.11,0,0,0-2.32-1.47c-.71-.25-2.22-.65-4.6-1.21a23.71,23.71,0,0,1-5-1.56,6.6,6.6,0,0,1-2.72-2.33,5.48,5.48,0,0,1-.91-3.08,6.07,6.07,0,0,1,1.11-3.53,6.79,6.79,0,0,1,3.23-2.48,12.93,12.93,0,0,1,4.75-.85,13.19,13.19,0,0,1,5.05.9,7.49,7.49,0,0,1,3.38,2.63,7.12,7.12,0,0,1,1.26,3.94l-3.28.25a5,5,0,0,0-1.77-3.58,7.09,7.09,0,0,0-4.49-1.22c-2.07,0-3.59.36-4.5,1.12a3.18,3.18,0,0,0-1.41,2.62,2.86,2.86,0,0,0,1,2.22c.66.56,2.37,1.16,5.15,1.77a33,33,0,0,1,5.71,1.62,7.65,7.65,0,0,1,3.33,2.52,6.06,6.06,0,0,1,1.06,3.54,6.75,6.75,0,0,1-1.16,3.73,8,8,0,0,1-3.38,2.73,12,12,0,0,1-5,1,15.17,15.17,0,0,1-5.86-1,8.05,8.05,0,0,1-3.69-3A8.2,8.2,0,0,1,309.39,304.58Z"/><polygon points="242.78 289.78 234.7 313.06 231.01 313.06 241.01 287.05 242.78 289.78"/><polygon points="242.78 289.78 244.75 287.05 255.4 313.06 251.47 313.06 242.78 289.78"/><polygon points="241.01 287.05 244.75 287.05 242.78 289.78 241.01 287.05"/><polygon points="255.4 313.06 250.91 310.03 238.33 309.98 237.22 313.06 255.4 313.06"/><polygon points="172.63 289.83 164.5 313.11 160.82 313.11 170.81 287.05 172.63 289.83"/><polygon points="172.63 289.83 174.55 287.05 185.21 313.11 181.27 313.11 172.63 289.83"/><polygon points="170.81 287.05 174.55 287.05 172.63 289.83 170.81 287.05"/><polygon points="185.21 313.11 180.71 310.08 168.14 310.03 167.03 313.11 185.21 313.11"/><rect x="220.86" y="292.46" width="3.43" height="20.65"/><rect x="212.33" y="287.05" width="20.65" height="3.08"/><rect x="137.48" y="287.05" width="3.54" height="26.06"/><rect x="154.55" y="287.05" width="3.43" height="26.06"/><rect x="140.77" y="297.76" width="11.16" height="3.03"/><path d="M91.53,303.77l3.33.86a11.39,11.39,0,0,1-3.79,6.26,10.56,10.56,0,0,1-6.66,2.17,11.84,11.84,0,0,1-6.62-1.67,10.57,10.57,0,0,1-3.89-4.79,16.85,16.85,0,0,1-1.31-6.77A14.8,14.8,0,0,1,74.11,293a10.12,10.12,0,0,1,4.29-4.44A12.61,12.61,0,0,1,84.51,287a10.46,10.46,0,0,1,6.36,1.92,9.8,9.8,0,0,1,3.59,5.4l-3.33.81a7.84,7.84,0,0,0-2.53-4,6.65,6.65,0,0,0-4.19-1.26,8,8,0,0,0-4.85,1.41A7.14,7.14,0,0,0,76.83,295a15.9,15.9,0,0,0-.8,4.85,14.79,14.79,0,0,0,1,5.61,6.93,6.93,0,0,0,2.92,3.58,8,8,0,0,0,4.3,1.16A7.27,7.27,0,0,0,89,308.62,9,9,0,0,0,91.53,303.77Z"/><path d="M82,304.53l3.49-.26a6.15,6.15,0,0,0,1.16,3.08,6.41,6.41,0,0,0,2.83,2,11.5,11.5,0,0,0,4.29.76,12,12,0,0,0,3.74-.55A4.82,4.82,0,0,0,99.91,308a3.47,3.47,0,0,0,.81-2.17,3,3,0,0,0-.76-2.07,5.63,5.63,0,0,0-2.52-1.47q-1.14-.37-5-1.21A26.26,26.26,0,0,1,87,299.48a7.13,7.13,0,0,1-3-2.33,5.25,5.25,0,0,1-1-3.13,6,6,0,0,1,1.21-3.58,7.59,7.59,0,0,1,3.53-2.53,16.49,16.49,0,0,1,10.66,0,7.81,7.81,0,0,1,3.68,2.68,6.88,6.88,0,0,1,1.37,4l-3.59.25a4.92,4.92,0,0,0-2-3.59,8.29,8.29,0,0,0-4.9-1.21c-2.27,0-3.88.36-4.89,1.11a3.32,3.32,0,0,0-1.57,2.68,2.6,2.6,0,0,0,1.11,2.22c.71.61,2.58,1.16,5.61,1.82a38.53,38.53,0,0,1,6.21,1.62,8.33,8.33,0,0,1,3.63,2.57,5.65,5.65,0,0,1,1.17,3.59,6.24,6.24,0,0,1-1.27,3.79,8.38,8.38,0,0,1-3.68,2.77,14.1,14.1,0,0,1-5.41,1,18.11,18.11,0,0,1-6.41-1,8.66,8.66,0,0,1-4-3A9.47,9.47,0,0,1,82,304.53Z"/><rect x="72.64" y="317.3" width="257.3" height="2.17"/></g><g id="Capa_3" data-name="Capa 3"><rect class="cls-2" x="409.96" y="-0.75" width="415.69" height="611.1"/><path class="cls-3" d="M550.81,297.62l3.49.81a10.6,10.6,0,0,1-3.94,6.16,11.28,11.28,0,0,1-7,2.12,13.37,13.37,0,0,1-6.92-1.61,10.14,10.14,0,0,1-4-4.75,16.4,16.4,0,0,1-1.41-6.66,13.82,13.82,0,0,1,1.56-6.77,10.7,10.7,0,0,1,4.44-4.4,13.46,13.46,0,0,1,6.37-1.51,11.41,11.41,0,0,1,6.66,1.92,9.64,9.64,0,0,1,3.74,5.35l-3.43.76a6.86,6.86,0,0,0-7.07-5.2,8.74,8.74,0,0,0-5,1.36,7.34,7.34,0,0,0-2.88,3.69,14,14,0,0,0-.81,4.8,14.48,14.48,0,0,0,1,5.55,6.83,6.83,0,0,0,3,3.54,9.19,9.19,0,0,0,4.44,1.16,7.77,7.77,0,0,0,7.83-6.32Z"/><path class="cls-3" d="M608.79,306.87V280.81h3.53L626,301.26V280.81h3.28v26h-3.54l-13.68-20.46v20.46h-3.28Z"/><path class="cls-3" d="M678.68,306.87V280.81h3.43v23h12.83v3.08Z"/><path class="cls-3" d="M699.13,306.87V280.81H718v3.08H702.62v8H717v3H702.57v8.83h15.95v3.09H699.13Z"/><path class="cls-3" d="M722.72,284.24v-3.68h3.43v2.92a8.07,8.07,0,0,1-.56,3.44,5,5,0,0,1-2.37,2.17l-.76-1.26a2.67,2.67,0,0,0,1.42-1.21,4.89,4.89,0,0,0,.5-2.33l-1.66-.05Z"/><path class="cls-3" d="M730.19,298.33l3.23-.25a6.81,6.81,0,0,0,1.06,3.08,5.49,5.49,0,0,0,2.58,1.92,9.85,9.85,0,0,0,3.94.76,10.06,10.06,0,0,0,3.43-.56,4.93,4.93,0,0,0,2.22-1.51,3.36,3.36,0,0,0,.71-2.13,3.41,3.41,0,0,0-.71-2.07,5.1,5.1,0,0,0-2.32-1.46c-.71-.25-2.22-.66-4.6-1.21a23.58,23.58,0,0,1-5-1.57A6.51,6.51,0,0,1,732,291a5.48,5.48,0,0,1-.91-3.08,6.1,6.1,0,0,1,1.11-3.54,6.71,6.71,0,0,1,3.23-2.47,12.76,12.76,0,0,1,4.75-.86,13,13,0,0,1,5,.91,7.42,7.42,0,0,1,3.38,2.63,7.12,7.12,0,0,1,1.26,3.93l-3.28.26a5,5,0,0,0-1.77-3.59,7.09,7.09,0,0,0-4.49-1.21c-2.07,0-3.59.35-4.49,1.11a3.2,3.2,0,0,0-1.42,2.63,2.9,2.9,0,0,0,1,2.22c.66.55,2.38,1.16,5.15,1.77a33.29,33.29,0,0,1,5.71,1.61,7.68,7.68,0,0,1,3.33,2.53,6.05,6.05,0,0,1,1.06,3.53,6.78,6.78,0,0,1-1.16,3.74,8,8,0,0,1-3.38,2.73,12.14,12.14,0,0,1-4.95,1,15.4,15.4,0,0,1-5.86-1,8.1,8.1,0,0,1-3.69-3A8.31,8.31,0,0,1,730.19,298.33Z"/><polygon class="cls-3" points="663.58 283.54 655.5 306.81 651.81 306.81 661.81 280.81 663.58 283.54"/><polygon class="cls-3" points="663.58 283.54 665.55 280.81 676.2 306.81 672.26 306.81 663.58 283.54"/><polygon class="cls-3" points="661.81 280.81 665.55 280.81 663.58 283.54 661.81 280.81"/><polygon class="cls-3" points="676.2 306.81 671.71 303.79 659.13 303.74 658.02 306.81 676.2 306.81"/><polygon class="cls-3" points="593.43 283.58 585.3 306.87 581.62 306.87 591.62 280.81 593.43 283.58"/><polygon class="cls-3" points="593.43 283.58 595.35 280.81 606.01 306.87 602.07 306.87 593.43 283.58"/><polygon class="cls-3" points="591.62 280.81 595.35 280.81 593.43 283.58 591.62 280.81"/><polygon class="cls-3" points="606.01 306.87 601.51 303.84 588.94 303.79 587.83 306.87 606.01 306.87"/><rect class="cls-3" x="641.66" y="286.21" width="3.43" height="20.65"/><rect class="cls-3" x="633.13" y="280.81" width="20.65" height="3.08"/><rect class="cls-3" x="558.29" y="280.81" width="3.54" height="26.06"/><rect class="cls-3" x="575.35" y="280.81" width="3.43" height="26.06"/><rect class="cls-3" x="561.57" y="291.51" width="11.16" height="3.03"/><path class="cls-3" d="M512.33,297.52l3.33.86a11.37,11.37,0,0,1-3.78,6.26,10.54,10.54,0,0,1-6.67,2.18,11.92,11.92,0,0,1-6.62-1.67,10.52,10.52,0,0,1-3.88-4.8,16.66,16.66,0,0,1-1.32-6.77,14.79,14.79,0,0,1,1.52-6.86,10.15,10.15,0,0,1,4.29-4.45,12.6,12.6,0,0,1,6.11-1.51,10.38,10.38,0,0,1,6.36,1.92,9.8,9.8,0,0,1,3.59,5.4l-3.33.81a7.84,7.84,0,0,0-2.53-4,6.65,6.65,0,0,0-4.19-1.26,8,8,0,0,0-4.85,1.41,7.1,7.1,0,0,0-2.73,3.74,15.84,15.84,0,0,0-.8,4.84,14.76,14.76,0,0,0,1,5.61,6.92,6.92,0,0,0,2.92,3.59A8.05,8.05,0,0,0,505,304a7.28,7.28,0,0,0,4.74-1.62A8.89,8.89,0,0,0,512.33,297.52Z"/><path class="cls-3" d="M502.79,298.28l3.48-.25a6.32,6.32,0,0,0,1.16,3.08,6.49,6.49,0,0,0,2.83,2,11.7,11.7,0,0,0,4.29.76,12,12,0,0,0,3.74-.56,4.76,4.76,0,0,0,2.42-1.57,3.45,3.45,0,0,0,.81-2.17,3.08,3.08,0,0,0-.76-2.07,5.63,5.63,0,0,0-2.52-1.46c-.76-.25-2.43-.66-5-1.21a26,26,0,0,1-5.4-1.57,7.09,7.09,0,0,1-3-2.32,5.25,5.25,0,0,1-1-3.13,6,6,0,0,1,1.21-3.59,7.51,7.51,0,0,1,3.53-2.52,16.49,16.49,0,0,1,10.66.05,7.81,7.81,0,0,1,3.69,2.67,7,7,0,0,1,1.36,4l-3.59.26a4.92,4.92,0,0,0-2-3.59,8.2,8.2,0,0,0-4.89-1.21c-2.28,0-3.89.35-4.9,1.11a3.31,3.31,0,0,0-1.57,2.68,2.62,2.62,0,0,0,1.11,2.22c.71.6,2.58,1.16,5.61,1.82a38.82,38.82,0,0,1,6.21,1.61,8.46,8.46,0,0,1,3.64,2.58,5.69,5.69,0,0,1,1.16,3.58,6.2,6.2,0,0,1-1.27,3.79,8.41,8.41,0,0,1-3.68,2.78,14.29,14.29,0,0,1-5.41,1,18.34,18.34,0,0,1-6.41-1,8.8,8.8,0,0,1-4-3A9.39,9.39,0,0,1,502.79,298.28Z"/><rect class="cls-3" x="493.44" y="311.06" width="257.3" height="2.17"/></g><g id="Capa_4" data-name="Capa 4"><rect class="cls-3" x="828.02" y="-1.58" width="400" height="616.15"/><path class="cls-2" d="M950.08,300l3.48.8a10.59,10.59,0,0,1-3.93,6.16,11.33,11.33,0,0,1-7,2.12,13.31,13.31,0,0,1-6.91-1.62,10.11,10.11,0,0,1-4-4.74,16.56,16.56,0,0,1-1.41-6.66,13.74,13.74,0,0,1,1.57-6.75,10.59,10.59,0,0,1,4.43-4.39,13.45,13.45,0,0,1,6.36-1.51,11.42,11.42,0,0,1,6.66,1.91,9.67,9.67,0,0,1,3.73,5.35l-3.43.75a6.86,6.86,0,0,0-7.06-5.19,8.76,8.76,0,0,0-5.05,1.36,7.39,7.39,0,0,0-2.87,3.68,14,14,0,0,0-.81,4.79,14.44,14.44,0,0,0,1,5.55,6.73,6.73,0,0,0,3,3.53,9,9,0,0,0,4.43,1.16,7.73,7.73,0,0,0,7.82-6.3Z"/><path class="cls-2" d="M1008,309.19v-26h3.53l13.67,20.43V283.16h3.27v26h-3.53l-13.66-20.43v20.43H1008Z"/><path class="cls-2" d="M1077.78,309.19v-26h3.43v22.95H1094v3.08Z"/><path class="cls-2" d="M1098.2,309.19v-26H1117v3.08h-15.33v8H1116v3h-14.38v8.83h15.94v3.08H1098.2Z"/><path class="cls-2" d="M1121.76,286.59v-3.68h3.42v2.93a8.23,8.23,0,0,1-.55,3.43,5,5,0,0,1-2.37,2.16l-.76-1.26a2.59,2.59,0,0,0,1.42-1.21,4.82,4.82,0,0,0,.5-2.32l-1.66-.05Z"/><path class="cls-2" d="M1129.22,300.66l3.23-.25a6.69,6.69,0,0,0,1.06,3.08,5.34,5.34,0,0,0,2.57,1.91,9.67,9.67,0,0,0,3.93.76,10.07,10.07,0,0,0,3.43-.55,4.94,4.94,0,0,0,2.22-1.52,3.36,3.36,0,0,0,.71-2.11,3.43,3.43,0,0,0-.71-2.07,5.11,5.11,0,0,0-2.32-1.47c-.71-.25-2.22-.65-4.59-1.21a23,23,0,0,1-5-1.56,6.61,6.61,0,0,1-2.73-2.32,5.55,5.55,0,0,1-.9-3.08,6.07,6.07,0,0,1,1.11-3.53,6.7,6.7,0,0,1,3.22-2.47,13,13,0,0,1,4.75-.85,13.14,13.14,0,0,1,5,.9,7.49,7.49,0,0,1,3.38,2.63,7.2,7.2,0,0,1,1.26,3.93l-3.28.25a5,5,0,0,0-1.77-3.58,7.06,7.06,0,0,0-4.48-1.21c-2.07,0-3.58.35-4.49,1.11a3.17,3.17,0,0,0-1.41,2.62,2.88,2.88,0,0,0,1,2.22c.66.56,2.37,1.16,5.15,1.77a33.39,33.39,0,0,1,5.7,1.61,7.73,7.73,0,0,1,3.33,2.52,6.12,6.12,0,0,1,1.06,3.53,6.86,6.86,0,0,1-1.16,3.74,8,8,0,0,1-3.38,2.72,12.14,12.14,0,0,1-5,1,15.34,15.34,0,0,1-5.85-1,8.08,8.08,0,0,1-3.68-3A8.17,8.17,0,0,1,1129.22,300.66Z"/><polygon class="cls-2" points="1062.7 285.89 1054.63 309.14 1050.95 309.14 1060.93 283.16 1062.7 285.89"/><polygon class="cls-2" points="1062.7 285.89 1064.66 283.16 1075.31 309.14 1071.37 309.14 1062.7 285.89"/><polygon class="cls-2" points="1060.93 283.16 1064.66 283.16 1062.7 285.89 1060.93 283.16"/><polygon class="cls-2" points="1075.31 309.14 1070.82 306.11 1058.26 306.06 1057.15 309.14 1075.31 309.14"/><polygon class="cls-2" points="992.65 285.94 984.53 309.19 980.85 309.19 990.83 283.16 992.65 285.94"/><polygon class="cls-2" points="992.65 285.94 994.56 283.16 1005.21 309.19 1001.27 309.19 992.65 285.94"/><polygon class="cls-2" points="990.83 283.16 994.56 283.16 992.65 285.94 990.83 283.16"/><polygon class="cls-2" points="1005.21 309.19 1000.72 306.16 988.16 306.11 987.05 309.19 1005.21 309.19"/><rect class="cls-2" x="1040.81" y="288.56" width="3.43" height="20.63"/><rect class="cls-2" x="1032.29" y="283.16" width="20.63" height="3.08"/><rect class="cls-2" x="957.55" y="283.16" width="3.53" height="26.02"/><rect class="cls-2" x="974.59" y="283.16" width="3.43" height="26.02"/><rect class="cls-2" x="960.82" y="293.86" width="11.15" height="3.03"/><path class="cls-2" d="M911.65,299.86l3.33.85A11.42,11.42,0,0,1,911.2,307a10.58,10.58,0,0,1-6.66,2.17,11.91,11.91,0,0,1-6.61-1.67,10.55,10.55,0,0,1-3.88-4.79,16.64,16.64,0,0,1-1.31-6.76,14.79,14.79,0,0,1,1.51-6.86,10.1,10.1,0,0,1,4.29-4.43,12.57,12.57,0,0,1,6.1-1.52A10.48,10.48,0,0,1,911,285a9.84,9.84,0,0,1,3.58,5.4l-3.33.8a7.84,7.84,0,0,0-2.52-4,6.65,6.65,0,0,0-4.19-1.26,7.94,7.94,0,0,0-4.84,1.41,7,7,0,0,0-2.72,3.73,15.6,15.6,0,0,0-.81,4.84,14.71,14.71,0,0,0,1,5.6,6.85,6.85,0,0,0,2.92,3.58,7.93,7.93,0,0,0,4.29,1.16,7.27,7.27,0,0,0,4.74-1.61A8.91,8.91,0,0,0,911.65,299.86Z"/><path class="cls-2" d="M902.12,300.61l3.48-.25a6.22,6.22,0,0,0,1.16,3.08,6.45,6.45,0,0,0,2.82,2,11.5,11.5,0,0,0,4.29.76,12,12,0,0,0,3.73-.55A4.82,4.82,0,0,0,920,304a3.45,3.45,0,0,0,.81-2.17,3,3,0,0,0-.76-2.06,5.63,5.63,0,0,0-2.52-1.47c-.75-.25-2.42-.65-5-1.21a26.32,26.32,0,0,1-5.4-1.56,7,7,0,0,1-3-2.32,5.25,5.25,0,0,1-1-3.13,6,6,0,0,1,1.21-3.58,7.58,7.58,0,0,1,3.53-2.52,16.43,16.43,0,0,1,10.64.05,7.79,7.79,0,0,1,3.68,2.67,6.9,6.9,0,0,1,1.36,4L920,291a4.91,4.91,0,0,0-2-3.58,8.24,8.24,0,0,0-4.9-1.21c-2.26,0-3.88.35-4.89,1.11a3.3,3.3,0,0,0-1.56,2.67,2.6,2.6,0,0,0,1.11,2.22c.71.61,2.57,1.16,5.6,1.82a38.92,38.92,0,0,1,6.2,1.61,8.47,8.47,0,0,1,3.63,2.57,5.63,5.63,0,0,1,1.16,3.58,6.19,6.19,0,0,1-1.26,3.79,8.46,8.46,0,0,1-3.68,2.77,14,14,0,0,1-5.4,1,18,18,0,0,1-6.4-1,8.73,8.73,0,0,1-4-3A9.32,9.32,0,0,1,902.12,300.61Z"/><rect class="cls-2" x="892.79" y="313.37" width="256.96" height="2.17"/></g><g id="Capa_5" data-name="Capa 5"><rect class="cls-4" x="1230.62" y="-1.96" width="400.27" height="619.84"/><path class="cls-5" d="M1352.68,299.58l3.48.8a10.62,10.62,0,0,1-3.93,6.16,11.33,11.33,0,0,1-7,2.11,13.31,13.31,0,0,1-6.91-1.61,10.11,10.11,0,0,1-4-4.74,16.56,16.56,0,0,1-1.41-6.66,13.81,13.81,0,0,1,1.57-6.76,10.63,10.63,0,0,1,4.43-4.38,13.45,13.45,0,0,1,6.36-1.52,11.43,11.43,0,0,1,6.66,1.92,9.67,9.67,0,0,1,3.73,5.35l-3.43.75a6.86,6.86,0,0,0-7.06-5.19,8.76,8.76,0,0,0-5.05,1.36,7.39,7.39,0,0,0-2.87,3.68,13.94,13.94,0,0,0-.81,4.79,14.44,14.44,0,0,0,1,5.55,6.8,6.8,0,0,0,3,3.53,9,9,0,0,0,4.43,1.16,7.73,7.73,0,0,0,7.82-6.3Z"/><path class="cls-5" d="M1410.58,308.81v-26h3.53l13.67,20.43V282.78h3.27v26h-3.53l-13.66-20.42v20.42h-3.28Z"/><path class="cls-5" d="M1480.38,308.81v-26h3.43v23h12.81v3.08Z"/><path class="cls-5" d="M1500.8,308.81v-26h18.81v3.08h-15.33v8h14.33v3h-14.38v8.83h15.94v3.07H1500.8Z"/><path class="cls-5" d="M1524.36,286.21v-3.68h3.42v2.92a8.17,8.17,0,0,1-.55,3.43,4.93,4.93,0,0,1-2.37,2.17l-.76-1.26a2.59,2.59,0,0,0,1.42-1.21,4.82,4.82,0,0,0,.5-2.32l-1.66-.05Z"/><path class="cls-5" d="M1531.82,300.28l3.23-.25a6.69,6.69,0,0,0,1.06,3.08,5.4,5.4,0,0,0,2.57,1.91,9.67,9.67,0,0,0,3.93.76,9.82,9.82,0,0,0,3.43-.56,4.86,4.86,0,0,0,2.22-1.51,3.37,3.37,0,0,0,.71-2.12,3.43,3.43,0,0,0-.71-2.06,5.11,5.11,0,0,0-2.32-1.47c-.71-.25-2.22-.65-4.59-1.21a23.57,23.57,0,0,1-5-1.56,6.68,6.68,0,0,1-2.73-2.32,5.55,5.55,0,0,1-.9-3.08,6.07,6.07,0,0,1,1.11-3.53,6.7,6.7,0,0,1,3.22-2.47,13,13,0,0,1,4.75-.86,13.14,13.14,0,0,1,5,.91,7.47,7.47,0,0,1,3.38,2.62,7.23,7.23,0,0,1,1.26,3.94l-3.28.25a5,5,0,0,0-1.77-3.58A7.06,7.06,0,0,0,1542,286c-2.07,0-3.58.35-4.49,1.11a3.15,3.15,0,0,0-1.41,2.62,2.88,2.88,0,0,0,1,2.22c.66.56,2.37,1.16,5.15,1.77a33.39,33.39,0,0,1,5.7,1.61,7.65,7.65,0,0,1,3.33,2.52,6.12,6.12,0,0,1,1.06,3.53,6.83,6.83,0,0,1-1.16,3.73,8,8,0,0,1-3.38,2.73,12.14,12.14,0,0,1-5,.95,15.35,15.35,0,0,1-5.85-1,8.08,8.08,0,0,1-3.68-3A8.17,8.17,0,0,1,1531.82,300.28Z"/><polygon class="cls-5" points="1465.3 285.5 1457.23 308.75 1453.55 308.75 1463.53 282.78 1465.3 285.5"/><polygon class="cls-5" points="1465.3 285.5 1467.27 282.78 1477.91 308.75 1473.97 308.75 1465.3 285.5"/><polygon class="cls-5" points="1463.53 282.78 1467.27 282.78 1465.3 285.5 1463.53 282.78"/><polygon class="cls-5" points="1477.91 308.75 1473.42 305.73 1460.86 305.68 1459.75 308.75 1477.91 308.75"/><polygon class="cls-5" points="1395.25 285.56 1387.13 308.81 1383.45 308.81 1393.43 282.78 1395.25 285.56"/><polygon class="cls-5" points="1395.25 285.56 1397.16 282.78 1407.81 308.81 1403.87 308.81 1395.25 285.56"/><polygon class="cls-5" points="1393.43 282.78 1397.16 282.78 1395.25 285.56 1393.43 282.78"/><polygon class="cls-5" points="1407.81 308.81 1403.32 305.78 1390.76 305.73 1389.65 308.81 1407.81 308.81"/><rect class="cls-5" x="1443.41" y="288.18" width="3.43" height="20.63"/><rect class="cls-5" x="1434.89" y="282.78" width="20.63" height="3.08"/><rect class="cls-5" x="1360.15" y="282.78" width="3.53" height="26.02"/><rect class="cls-5" x="1377.19" y="282.78" width="3.43" height="26.02"/><rect class="cls-5" x="1363.42" y="293.47" width="11.15" height="3.03"/><path class="cls-5" d="M1314.25,299.48l3.33.85a11.46,11.46,0,0,1-3.78,6.26,10.58,10.58,0,0,1-6.66,2.16,11.91,11.91,0,0,1-6.61-1.66,10.55,10.55,0,0,1-3.88-4.79,16.64,16.64,0,0,1-1.31-6.76,14.79,14.79,0,0,1,1.51-6.86,10.18,10.18,0,0,1,4.29-4.44,12.68,12.68,0,0,1,6.1-1.51,10.48,10.48,0,0,1,6.36,1.92,9.81,9.81,0,0,1,3.58,5.39l-3.33.81a7.8,7.8,0,0,0-2.52-4,6.65,6.65,0,0,0-4.19-1.26,7.94,7.94,0,0,0-4.84,1.41,7,7,0,0,0-2.72,3.73,15.55,15.55,0,0,0-.81,4.84,14.71,14.71,0,0,0,1,5.6,6.93,6.93,0,0,0,2.92,3.58,7.93,7.93,0,0,0,4.29,1.16,7.27,7.27,0,0,0,4.74-1.61A9,9,0,0,0,1314.25,299.48Z"/><path class="cls-5" d="M1304.72,300.23l3.48-.25a6.22,6.22,0,0,0,1.16,3.08,6.45,6.45,0,0,0,2.82,2,11.5,11.5,0,0,0,4.29.76,11.66,11.66,0,0,0,3.73-.56,4.75,4.75,0,0,0,2.42-1.56,3.45,3.45,0,0,0,.81-2.17,3.08,3.08,0,0,0-.76-2.07,5.72,5.72,0,0,0-2.52-1.46c-.75-.25-2.42-.65-5-1.21a26.32,26.32,0,0,1-5.4-1.56,7.12,7.12,0,0,1-3-2.32,5.25,5.25,0,0,1-1-3.13,6,6,0,0,1,1.21-3.58,7.51,7.51,0,0,1,3.53-2.52,16.43,16.43,0,0,1,10.64.05,7.73,7.73,0,0,1,3.68,2.67,6.87,6.87,0,0,1,1.36,4l-3.58.25a4.91,4.91,0,0,0-2-3.58,8.24,8.24,0,0,0-4.9-1.21c-2.26,0-3.88.35-4.89,1.11a3.28,3.28,0,0,0-1.56,2.67,2.61,2.61,0,0,0,1.11,2.22c.71.6,2.57,1.16,5.6,1.81a38.63,38.63,0,0,1,6.2,1.62,8.38,8.38,0,0,1,3.63,2.57,5.63,5.63,0,0,1,1.16,3.58,6.18,6.18,0,0,1-1.26,3.78,8.47,8.47,0,0,1-3.68,2.78,14.2,14.2,0,0,1-5.4,1,18.24,18.24,0,0,1-6.4-1,8.8,8.8,0,0,1-4-3A9.32,9.32,0,0,1,1304.72,300.23Z"/><rect class="cls-5" x="1295.39" y="312.99" width="256.96" height="2.17"/></g></svg>