<svg xmlns="http://www.w3.org/2000/svg" viewBox="0 0 600 600"><defs><style>.cls-1{fill:#7a7a7a;}.cls-2{fill:#1c1c1c;}.cls-3{fill:#21aa68;}.cls-4{fill:#fff6f3;}.cls-5{fill:#fff;}.cls-6{fill:#e0bd65;}</style></defs><g id="Capa_6" data-name="Capa 6"><rect class="cls-1" x="0.2" y="-1.55" width="598.69" height="602.18"/><rect class="cls-2" x="-0.24" y="-1" width="300.85" height="300"/><rect class="cls-3" x="0.2" y="299.11" width="300.93" height="300.65"/><rect class="cls-4" x="299.8" y="299.36" width="300" height="300"/><rect class="cls-5" x="300.07" y="-0.8" width="300" height="300"/><path class="cls-6" d="M158.83,173.88,174.78,178c-3.38,13-9.42,23-18.12,30-8.7,6.77-19.34,10.39-31.9,10.39-13.05,0-23.45-2.65-31.66-8s-14.26-13-18.61-23S68.2,166.63,68.2,155c0-12.56,2.42-23.44,7.25-32.87A48.57,48.57,0,0,1,96,100.9a60.21,60.21,0,0,1,29.24-7.25,54.36,54.36,0,0,1,30.45,9.18c16.69,11.41,21,29.16,21.89,33.52l-18.25-2a36.73,36.73,0,0,0-14.51-20.85,35.71,35.71,0,0,0-20.06-6c-9.19,0-16.92,2.18-23.21,6.77a33.8,33.8,0,0,0-13,17.88,75.58,75.58,0,0,0-3.86,23.2c0,10.16,1.45,19.1,4.59,26.83a33.19,33.19,0,0,0,14,17.16,38,38,0,0,0,20.54,5.56,35,35,0,0,0,22.72-7.73C152.31,191.77,156.66,184,158.83,173.88Z"/><path class="cls-6" d="M113.16,176.91l16.67-1.21a30,30,0,0,0,5.56,14.74c2.9,3.87,7.49,7,13.53,9.43a55.75,55.75,0,0,0,20.55,3.62,56.89,56.89,0,0,0,17.88-2.66c5.32-1.69,9.19-4.35,11.6-7.49A16.74,16.74,0,0,0,202.82,183a14.74,14.74,0,0,0-3.63-9.91c-2.41-2.9-6.52-5.08-12.08-7q-5.43-1.82-23.93-5.8c-12.32-2.66-21-5.08-25.86-7.49a34.32,34.32,0,0,1-14.26-11.12,25.23,25.23,0,0,1-4.83-15,28.74,28.74,0,0,1,5.8-17.16c3.87-5.32,9.43-9.19,16.92-12.09a73.2,73.2,0,0,1,24.65-4.11c9.91,0,18.85,1.45,26.34,4.35s13.54,7,17.65,12.81a33,33,0,0,1,6.52,19.1L199,130.74c-1-7.73-4.11-13.29-9.42-17.16s-13.05-5.8-23.45-5.8c-10.87,0-18.61,1.7-23.44,5.32s-7.49,7.73-7.49,12.81a12.51,12.51,0,0,0,5.32,10.63c3.38,2.9,12.32,5.56,26.82,8.7,14.5,2.91,24.41,5.56,29.73,7.74q11.6,4.71,17.4,12.32A27.06,27.06,0,0,1,220,182.46a29.72,29.72,0,0,1-6,18.13,40.21,40.21,0,0,1-17.65,13.29,67.37,67.37,0,0,1-25.86,4.84c-12.08,0-22.47-1.69-30.69-4.84a41.85,41.85,0,0,1-19.33-14.26C115.81,192.13,113.4,184.88,113.16,176.91Z"/><path class="cls-2" d="M462.45,174.54l15.95,4.11c-3.38,13-9.42,23-18.12,30-8.7,6.76-19.34,10.39-31.91,10.39-13.05,0-23.44-2.66-31.66-8s-14.26-13.05-18.61-23-6.28-20.78-6.28-32.38c0-12.57,2.42-23.45,7.25-32.87a48.52,48.52,0,0,1,20.54-21.27,60.36,60.36,0,0,1,29.25-7.25,54.47,54.47,0,0,1,30.45,9.18c16.69,11.42,21,29.17,21.89,33.52L463,135a36.79,36.79,0,0,0-14.52-20.84,35.58,35.58,0,0,0-20.06-6c-9.18,0-16.91,2.17-23.2,6.76a33.82,33.82,0,0,0-13.05,17.89,75.19,75.19,0,0,0-3.87,23.2c0,10.15,1.45,19.09,4.6,26.83a33.26,33.26,0,0,0,14,17.16,38.15,38.15,0,0,0,20.55,5.55,34.94,34.94,0,0,0,22.72-7.73C455.93,192.42,460.28,184.69,462.45,174.54Z"/><path class="cls-2" d="M416.77,177.56l16.68-1.21A29.87,29.87,0,0,0,439,191.09c2.9,3.87,7.49,7,13.53,9.43a55.47,55.47,0,0,0,20.55,3.63A56.89,56.89,0,0,0,491,201.49c5.32-1.69,9.18-4.35,11.6-7.5a16.71,16.71,0,0,0,3.87-10.39,14.75,14.75,0,0,0-3.63-9.91c-2.41-2.9-6.52-5.07-12.08-7q-5.44-1.8-23.93-5.8c-12.32-2.65-21-5.07-25.86-7.49a34.26,34.26,0,0,1-14.26-11.12,25.21,25.21,0,0,1-4.83-15,28.78,28.78,0,0,1,5.8-17.16c3.87-5.32,9.42-9.18,16.92-12.08a73.2,73.2,0,0,1,24.65-4.11c9.91,0,18.85,1.45,26.34,4.35s13.54,7,17.65,12.81a33.09,33.09,0,0,1,6.52,19.09l-17.16,1.21c-1-7.74-4.11-13.29-9.42-17.16s-13.06-5.8-23.45-5.8c-10.87,0-18.61,1.69-23.44,5.32s-7.49,7.73-7.49,12.8a12.54,12.54,0,0,0,5.31,10.64c3.39,2.9,12.33,5.56,26.83,8.7,14.5,2.9,24.41,5.56,29.73,7.73q11.6,4.73,17.4,12.33a27,27,0,0,1,5.56,17.16,29.81,29.81,0,0,1-6,18.13,40.28,40.28,0,0,1-17.65,13.29,67.56,67.56,0,0,1-25.86,4.83c-12.08,0-22.47-1.69-30.69-4.83A42,42,0,0,1,424,200.28C419.43,192.79,417,185.54,416.77,177.56Z"/><path class="cls-4" d="M158.74,456.08l15.95,4.11c-3.38,13.05-9.42,23-18.12,30-8.7,6.77-19.34,10.39-31.9,10.39-13.06,0-23.45-2.65-31.67-8s-14.25-13.05-18.61-23-6.28-20.79-6.28-32.39c0-12.56,2.42-23.44,7.25-32.87A48.6,48.6,0,0,1,95.9,383.1a60.25,60.25,0,0,1,29.25-7.25A54.36,54.36,0,0,1,155.6,385c16.69,11.41,21,29.16,21.89,33.52l-18.25-2a36.79,36.79,0,0,0-14.51-20.85,35.71,35.71,0,0,0-20.06-6c-9.19,0-16.92,2.18-23.21,6.77a33.8,33.8,0,0,0-13,17.88,75.58,75.58,0,0,0-3.86,23.2c0,10.16,1.45,19.1,4.59,26.83a33.19,33.19,0,0,0,14,17.16A38,38,0,0,0,123.7,487a35,35,0,0,0,22.72-7.73C152.22,474,156.57,466.24,158.74,456.08Z"/><path class="cls-4" d="M113.06,459.11l16.68-1.21a30,30,0,0,0,5.56,14.74c2.9,3.87,7.49,7,13.53,9.43a55.71,55.71,0,0,0,20.55,3.62A56.89,56.89,0,0,0,187.26,483c5.32-1.69,9.19-4.35,11.6-7.49a16.74,16.74,0,0,0,3.87-10.39,14.74,14.74,0,0,0-3.63-9.91c-2.41-2.9-6.52-5.08-12.08-7q-5.45-1.82-23.93-5.8c-12.32-2.66-21-5.08-25.86-7.49A34.32,34.32,0,0,1,123,423.82a25.23,25.23,0,0,1-4.83-15,28.74,28.74,0,0,1,5.8-17.16c3.87-5.32,9.43-9.19,16.92-12.09a73.2,73.2,0,0,1,24.65-4.11c9.91,0,18.85,1.45,26.34,4.35s13.54,7,17.65,12.81a33,33,0,0,1,6.52,19.1l-17.16,1.2c-1-7.73-4.11-13.29-9.42-17.16S176.39,390,166,390c-10.87,0-18.61,1.7-23.44,5.32s-7.49,7.73-7.49,12.81a12.52,12.52,0,0,0,5.31,10.63c3.39,2.9,12.33,5.56,26.83,8.7,14.5,2.91,24.41,5.56,29.73,7.74q11.59,4.71,17.4,12.32a27.06,27.06,0,0,1,5.56,17.16,29.72,29.72,0,0,1-6,18.13,40.21,40.21,0,0,1-17.65,13.29,67.37,67.37,0,0,1-25.86,4.84c-12.08,0-22.47-1.69-30.69-4.84a41.93,41.93,0,0,1-19.34-14.26C115.72,474.33,113.31,467.08,113.06,459.11Z"/><path class="cls-3" d="M462.54,456.08l15.95,4.11c-3.38,13.05-9.42,23-18.12,30-8.7,6.77-19.34,10.39-31.9,10.39-13.06,0-23.45-2.65-31.67-8s-14.25-13.05-18.61-23-6.28-20.79-6.28-32.39c0-12.56,2.42-23.44,7.25-32.87A48.6,48.6,0,0,1,399.7,383.1,60.25,60.25,0,0,1,429,375.85,54.36,54.36,0,0,1,459.4,385c16.69,11.41,21,29.16,21.89,33.52l-18.25-2a36.79,36.79,0,0,0-14.51-20.85,35.71,35.71,0,0,0-20.06-6c-9.19,0-16.92,2.18-23.21,6.77a33.8,33.8,0,0,0-13.05,17.88,75.58,75.58,0,0,0-3.86,23.2c0,10.16,1.45,19.1,4.59,26.83a33.19,33.19,0,0,0,14,17.16A38,38,0,0,0,427.5,487a35,35,0,0,0,22.72-7.73C456,474,460.37,466.24,462.54,456.08Z"/><path class="cls-3" d="M416.86,459.11l16.68-1.21a30,30,0,0,0,5.56,14.74c2.9,3.87,7.49,7,13.53,9.43a55.71,55.71,0,0,0,20.55,3.62A56.89,56.89,0,0,0,491.06,483c5.32-1.69,9.19-4.35,11.6-7.49a16.74,16.74,0,0,0,3.87-10.39,14.74,14.74,0,0,0-3.63-9.91c-2.41-2.9-6.52-5.08-12.08-7q-5.44-1.82-23.93-5.8c-12.32-2.66-21-5.08-25.86-7.49a34.32,34.32,0,0,1-14.26-11.12,25.23,25.23,0,0,1-4.83-15,28.74,28.74,0,0,1,5.8-17.16c3.87-5.32,9.43-9.19,16.92-12.09a73.2,73.2,0,0,1,24.65-4.11c9.91,0,18.85,1.45,26.34,4.35s13.54,7,17.65,12.81a33,33,0,0,1,6.52,19.1l-17.16,1.2c-1-7.73-4.11-13.29-9.42-17.16s-13.05-5.8-23.45-5.8c-10.87,0-18.61,1.7-23.44,5.32s-7.49,7.73-7.49,12.81a12.52,12.52,0,0,0,5.31,10.63c3.39,2.9,12.33,5.56,26.83,8.7,14.5,2.91,24.41,5.56,29.73,7.74q11.59,4.71,17.4,12.32a27.06,27.06,0,0,1,5.56,17.16,29.72,29.72,0,0,1-6,18.13A40.21,40.21,0,0,1,500,496.08a67.37,67.37,0,0,1-25.86,4.84c-12.08,0-22.47-1.69-30.69-4.84a41.93,41.93,0,0,1-19.34-14.26C419.52,474.33,417.11,467.08,416.86,459.11Z"/></g></svg>