<svg id="Capa_1" data-name="Capa 1" xmlns="http://www.w3.org/2000/svg" viewBox="0 0 363.05 250"><defs><style>.cls-1{fill:#fff;}.cls-2{font-size:15px;font-family:Arial-BoldMT, Arial;font-weight:700;}.cls-2,.cls-3,.cls-7{fill:#100000;}.cls-4{fill:#fff3f0;}.cls-5{fill:#00884e;}.cls-6{fill:#d2af65;}.cls-7,.cls-8{font-size:5.48px;font-family:ChaparralPro-LightIt, Chaparral Pro;font-weight:300;font-style:italic;}.cls-8,.cls-9{fill:#1c1c1c;}</style></defs><rect class="cls-1" x="-0.22" width="363.5" height="250"/><text class="cls-2" transform="translate(122.3 61.7)">BRAND COLORS</text><rect class="cls-3" x="123.03" y="63.06" width="117.49" height="1"/><rect class="cls-4" x="253.38" y="141.12" width="52.48" height="52.48" rx="26.24" transform="translate(559.18 334.82) rotate(-179.98)"/><rect class="cls-5" x="190.6" y="141.21" width="52.48" height="52.48" rx="26.24" transform="matrix(-1, 0, 0, -1, 433.63, 334.97)"/><rect class="cls-6" x="57.2" y="142.43" width="52.48" height="52.48" rx="26.24" transform="translate(166.82 337.38) rotate(-179.98)"/><text class="cls-7" transform="translate(255.39 124.25)">hex: #FFF6F3</text><text class="cls-7" transform="translate(255.71 132.05)">rgb: 255, 246, 243</text><text class="cls-7" transform="translate(193.28 125.56)">hex: #009b58</text><text class="cls-7" transform="translate(193.6 133.36)">rgb: 0, 155, 88</text><text class="cls-8" transform="translate(64.1 123.2)">hex: #a3722c</text><text class="cls-8" transform="translate(64.42 131)">rgb: 163, 114, 44</text><rect class="cls-9" x="120.2" y="141.58" width="52.48" height="52.48" rx="26.24" transform="translate(292.83 335.7) rotate(-179.98)"/><text class="cls-8" transform="translate(123.46 123.23)">hex: #1C1C1C</text><text class="cls-8" transform="translate(123.78 131.03)">rgb: 28, 28, 28</text></svg>