<svg id="Capa_1" data-name="Capa 1" xmlns="http://www.w3.org/2000/svg" viewBox="0 0 600 600"><defs><style>.cls-1,.cls-5,.cls-6,.cls-7,.cls-8,.cls-9{fill:#fff;}.cls-2{fill:#21aa68;}.cls-3{fill:#100000;}.cls-4{fill:#2a1000;}.cls-11,.cls-5,.cls-6,.cls-7,.cls-8,.cls-9{font-size:12px;}.cls-11,.cls-5{font-family:ArialMT, Arial;}.cls-6{font-family:Arial-BoldMT, Arial;}.cls-6,.cls-8{font-weight:700;}.cls-7{font-family:Arial-ItalicMT, Arial;}.cls-7,.cls-8{font-style:italic;}.cls-8{font-family:Arial-BoldItalicMT, Arial;}.cls-9{font-family:Arial-Black, Arial;font-weight:800;}.cls-10{letter-spacing:-0.02em;}</style></defs><rect class="cls-1" x="0.18" y="0.18" width="600" height="600"/><path class="cls-2" d="M.58,4.12C202.76-20.52,360.47,154.1,353,318.8,345.89,475,190,626.48-.22,600.45"/><rect class="cls-3" x="352.76" y="55.58" width="1.41" height="8.49"/><rect class="cls-3" x="349.25" y="53.36" width="8.49" height="1.27"/><path class="cls-3" d="M230,63.91V53.18h4a4.91,4.91,0,0,1,2,.32,2.6,2.6,0,0,1,1.17,1,2.69,2.69,0,0,1,.42,1.42,2.45,2.45,0,0,1-.38,1.3,2.71,2.71,0,0,1-1.12,1,2.87,2.87,0,0,1,1.49,1,2.63,2.63,0,0,1,.53,1.63,3.16,3.16,0,0,1-.32,1.4,2.7,2.7,0,0,1-.79,1,3.14,3.14,0,0,1-1.18.53,7.07,7.07,0,0,1-1.73.18Zm1.42-6.22h2.32a4.91,4.91,0,0,0,1.36-.13,1.43,1.43,0,0,0,.81-.53,1.5,1.5,0,0,0,.28-.94,1.72,1.72,0,0,0-.26-.94,1.29,1.29,0,0,0-.73-.56,6.11,6.11,0,0,0-1.63-.15h-2.15Zm0,5h2.67a5.34,5.34,0,0,0,1-.06,2.09,2.09,0,0,0,.82-.29,1.51,1.51,0,0,0,.54-.6,1.87,1.87,0,0,0,.21-.9,1.79,1.79,0,0,0-.3-1,1.62,1.62,0,0,0-.86-.63,5.22,5.22,0,0,0-1.57-.18h-2.48Z"/><path class="cls-3" d="M240.07,63.91V53.18h4.77a6.46,6.46,0,0,1,2.18.28,2.47,2.47,0,0,1,1.19,1,3,3,0,0,1,.45,1.62,2.7,2.7,0,0,1-.74,1.92,3.76,3.76,0,0,1-2.29,1,3.92,3.92,0,0,1,.86.53A7.2,7.2,0,0,1,247.67,61l1.87,2.92h-1.79l-1.42-2.23c-.42-.65-.76-1.14-1-1.48a3.45,3.45,0,0,0-.72-.72,2.17,2.17,0,0,0-.65-.28,3.62,3.62,0,0,0-.79-.06H241.5v4.77Zm1.43-6h3.05a4.39,4.39,0,0,0,1.52-.2,1.62,1.62,0,0,0,.84-.64,1.76,1.76,0,0,0,.28-1,1.61,1.61,0,0,0-.55-1.26,2.63,2.63,0,0,0-1.75-.49H241.5Z"/><path class="cls-3" d="M260.87,63.91V53.18h1.46L268,61.61V53.18h1.36V63.91h-1.45l-5.64-8.43v8.43Z"/><path class="cls-3" d="M271.72,63.91V53.18h3.7a9.15,9.15,0,0,1,1.91.15,3.66,3.66,0,0,1,1.58.77,4.44,4.44,0,0,1,1.27,1.83,7.27,7.27,0,0,1,.42,2.56,7.48,7.48,0,0,1-.29,2.16,5.32,5.32,0,0,1-.73,1.57,3.91,3.91,0,0,1-1,1,3.83,3.83,0,0,1-1.28.54,7.39,7.39,0,0,1-1.72.18Zm1.42-1.26h2.29a5.62,5.62,0,0,0,1.67-.2,2.3,2.3,0,0,0,1-.56,3.4,3.4,0,0,0,.79-1.36,6.6,6.6,0,0,0,.28-2.07,5,5,0,0,0-.55-2.59,2.85,2.85,0,0,0-1.34-1.21,5.76,5.76,0,0,0-1.84-.22h-2.26Z"/><path class="cls-3" d="M286.8,63.91V53.18H294v1.26h-5.82v3.33h5V59h-5v4.88Z"/><path class="cls-3" d="M295.45,58.68a5.82,5.82,0,0,1,1.44-4.18,4.87,4.87,0,0,1,3.7-1.51,5,5,0,0,1,2.68.71,4.61,4.61,0,0,1,1.83,2,6.49,6.49,0,0,1,.62,2.88,6.31,6.31,0,0,1-.66,2.92,4.47,4.47,0,0,1-1.87,2,5.22,5.22,0,0,1-2.6.67,5.05,5.05,0,0,1-2.71-.74,4.61,4.61,0,0,1-1.81-2A6,6,0,0,1,295.45,58.68Zm1.47,0a4.26,4.26,0,0,0,1,3,3.64,3.64,0,0,0,5.26,0,4.56,4.56,0,0,0,1-3.2,5.44,5.44,0,0,0-.45-2.29,3.35,3.35,0,0,0-1.29-1.51,3.52,3.52,0,0,0-1.92-.54,3.62,3.62,0,0,0-2.59,1A4.64,4.64,0,0,0,296.92,58.71Z"/><path class="cls-3" d="M307.54,63.91V53.18H309l5.64,8.43V53.18H316V63.91h-1.46l-5.64-8.43v8.43Z"/><path class="cls-3" d="M321.12,63.91V54.44h-3.54V53.18h8.51v1.26h-3.55v9.47Z"/><path class="cls-3" d="M327.06,60.46l1.34-.11a3,3,0,0,0,.45,1.32,2.4,2.4,0,0,0,1.08.83,4.4,4.4,0,0,0,3.08.08,2,2,0,0,0,.93-.66,1.56,1.56,0,0,0,.3-.92,1.41,1.41,0,0,0-.29-.88,2.13,2.13,0,0,0-1-.64c-.29-.11-.92-.28-1.91-.52a9.73,9.73,0,0,1-2.07-.67,2.85,2.85,0,0,1-1.15-1,2.49,2.49,0,0,1-.38-1.34,2.79,2.79,0,0,1,.46-1.52,2.86,2.86,0,0,1,1.35-1.07,5,5,0,0,1,2-.37,5.33,5.33,0,0,1,2.11.39,3,3,0,0,1,1.4,1.13,3.28,3.28,0,0,1,.53,1.69l-1.36.1a2.25,2.25,0,0,0-.75-1.54,2.92,2.92,0,0,0-1.87-.52,3,3,0,0,0-1.88.48,1.41,1.41,0,0,0-.59,1.14,1.22,1.22,0,0,0,.42,1,5.64,5.64,0,0,0,2.14.76,14.36,14.36,0,0,1,2.38.69,3.24,3.24,0,0,1,1.38,1.09,2.67,2.67,0,0,1,.45,1.53,2.93,2.93,0,0,1-.49,1.62,3.28,3.28,0,0,1-1.41,1.17,4.76,4.76,0,0,1-2.07.43,6.2,6.2,0,0,1-2.44-.43,3.43,3.43,0,0,1-1.55-1.28A3.66,3.66,0,0,1,327.06,60.46Z"/><path class="cls-4" d="M341,60.69V59.36h4v1.33Z"/><path class="cls-3" d="M362.8,63.91V59.36l-4.14-6.18h1.73l2.12,3.23c.39.61.75,1.21,1.09,1.82.32-.56.71-1.19,1.17-1.9l2.08-3.15h1.65l-4.28,6.18v4.55Z"/><path class="cls-3" d="M369.78,63.91V53.18h4.05a9.59,9.59,0,0,1,1.63.1,3.24,3.24,0,0,1,1.33.5,2.71,2.71,0,0,1,.86,1,3.23,3.23,0,0,1,.33,1.46,3.32,3.32,0,0,1-.88,2.32,4.19,4.19,0,0,1-3.15.95H371.2v4.36Zm1.42-5.63H374a2.94,2.94,0,0,0,1.95-.51,1.81,1.81,0,0,0,.58-1.45,1.93,1.93,0,0,0-.34-1.15,1.59,1.59,0,0,0-.9-.63,5.57,5.57,0,0,0-1.32-.1H371.2Z"/><path class="cls-3" d="M379.35,58.68a5.82,5.82,0,0,1,1.44-4.18,4.85,4.85,0,0,1,3.7-1.51,5.07,5.07,0,0,1,2.68.71,4.53,4.53,0,0,1,1.82,2,6.84,6.84,0,0,1,0,5.8,4.47,4.47,0,0,1-1.87,2,5.22,5.22,0,0,1-2.6.67,5.09,5.09,0,0,1-2.72-.74,4.65,4.65,0,0,1-1.8-2A6,6,0,0,1,379.35,58.68Zm1.47,0a4.26,4.26,0,0,0,1,3,3.64,3.64,0,0,0,5.26,0,4.56,4.56,0,0,0,1-3.2,5.44,5.44,0,0,0-.45-2.29,3.41,3.41,0,0,0-1.29-1.51,3.52,3.52,0,0,0-1.92-.54,3.64,3.64,0,0,0-2.6,1A4.68,4.68,0,0,0,380.82,58.71Z"/><path class="cls-3" d="M396.48,59.7V58.44H401v4a7.81,7.81,0,0,1-2.16,1.25,6.36,6.36,0,0,1-5.16-.25,4.5,4.5,0,0,1-1.95-2,6.18,6.18,0,0,1-.66-2.86,6.62,6.62,0,0,1,.66-2.93,4.3,4.3,0,0,1,1.88-2,5.92,5.92,0,0,1,2.84-.66,5.57,5.57,0,0,1,2.1.38,3.49,3.49,0,0,1,1.48,1.05,4.56,4.56,0,0,1,.81,1.76l-1.28.35a3.88,3.88,0,0,0-.6-1.29,2.49,2.49,0,0,0-1-.75,3.67,3.67,0,0,0-1.47-.28,4.52,4.52,0,0,0-1.69.29,3.24,3.24,0,0,0-1.15.78,3.77,3.77,0,0,0-.67,1.07,5.47,5.47,0,0,0-.41,2.16,5.24,5.24,0,0,0,.49,2.4,3.24,3.24,0,0,0,1.44,1.44,4.49,4.49,0,0,0,2,.46,4.73,4.73,0,0,0,1.8-.35,4.57,4.57,0,0,0,1.33-.76v-2Z"/><path class="cls-3" d="M403.14,63.91V53.18h4.76a6.49,6.49,0,0,1,2.19.28,2.47,2.47,0,0,1,1.19,1,3,3,0,0,1,.45,1.62A2.7,2.7,0,0,1,411,58a3.78,3.78,0,0,1-2.29,1,3.92,3.92,0,0,1,.86.53A8,8,0,0,1,410.74,61l1.86,2.92h-1.78l-1.42-2.23c-.42-.65-.76-1.14-1-1.48a3.45,3.45,0,0,0-.72-.72,2.17,2.17,0,0,0-.65-.28,3.62,3.62,0,0,0-.79-.06h-1.65v4.77Zm1.42-6h3.06a4.47,4.47,0,0,0,1.52-.2,1.59,1.59,0,0,0,.83-.64,1.69,1.69,0,0,0,.29-1,1.61,1.61,0,0,0-.55-1.26,2.63,2.63,0,0,0-1.75-.49h-3.4Z"/><path class="cls-3" d="M412.77,63.91l4.13-10.73h1.53l4.39,10.73H421.2L420,60.66h-4.49l-1.18,3.25Zm3.1-4.41h3.64l-1.12-3c-.34-.9-.6-1.65-.76-2.23a13.62,13.62,0,0,1-.58,2.05Z"/><path class="cls-3" d="M424,63.91V53.18H428a9.67,9.67,0,0,1,1.63.1,3.14,3.14,0,0,1,1.32.5,2.64,2.64,0,0,1,.87,1,3.36,3.36,0,0,1,.32,1.46,3.31,3.31,0,0,1-.87,2.32,4.19,4.19,0,0,1-3.15.95h-2.75v4.36Zm1.42-5.63h2.77a3,3,0,0,0,2-.51,1.85,1.85,0,0,0,.58-1.45,2,2,0,0,0-.34-1.15,1.59,1.59,0,0,0-.9-.63,5.61,5.61,0,0,0-1.33-.1h-2.74Z"/><path class="cls-3" d="M434,63.91V53.18h1.42v4.4H441v-4.4h1.42V63.91H441V58.85h-5.58v5.06Z"/><path class="cls-3" d="M447.82,63.91V59.36l-4.14-6.18h1.73l2.11,3.23c.4.61.76,1.21,1.1,1.82.32-.56.71-1.19,1.17-1.9l2.08-3.15h1.65l-4.28,6.18v4.55Z"/><rect class="cls-3" x="229.5" y="66.19" width="106.05" height="1"/><rect class="cls-3" x="349.8" y="66.02" width="103.35" height="1"/><text class="cls-5" transform="translate(37.76 156.64)">Principal - logo typography</text><text class="cls-5" transform="translate(38.64 188.96)">Arial 5</text><text class="cls-6" transform="translate(37.75 208.89)">Bold</text><text class="cls-7" transform="translate(37.9 226.53)">Italic</text><text class="cls-8" transform="translate(38.21 245.58)">Bold italic</text><text class="cls-9" transform="translate(37.9 264.15)">Bla<tspan class="cls-10" x="21.33" y="0">c</tspan><tspan x="29.13" y="0">k</tspan></text><path class="cls-1" d="M128.06,185.15h-.82v-7h.82Z"/><path class="cls-1" d="M139.63,185.15h-.8v-2.88a2.18,2.18,0,0,0-.26-1.2,1,1,0,0,0-.86-.37,1.08,1.08,0,0,0-.87.47,1.79,1.79,0,0,0-.36,1.12v2.86h-.8v-3c0-1-.38-1.48-1.14-1.48a1.07,1.07,0,0,0-.87.44,1.89,1.89,0,0,0-.34,1.15v2.86h-.8v-5h.8v.79h0a1.69,1.69,0,0,1,1.55-.91,1.46,1.46,0,0,1,.9.28,1.48,1.48,0,0,1,.52.75,1.77,1.77,0,0,1,1.66-1c1.1,0,1.65.68,1.65,2Z"/><path class="cls-1" d="M144.72,185.15h-.8v-.79h0a1.83,1.83,0,0,1-2.71.51,1.39,1.39,0,0,1-.42-1.05c0-.94.55-1.48,1.65-1.63l1.5-.21c0-.85-.34-1.28-1-1.28a2.48,2.48,0,0,0-1.63.62v-.82A3,3,0,0,1,143,180c1.18,0,1.76.62,1.76,1.86Zm-.8-2.53-1.2.16a1.92,1.92,0,0,0-.84.28.9.9,0,0,0,0,1.3,1.05,1.05,0,0,0,.7.23,1.27,1.27,0,0,0,1-.42,1.49,1.49,0,0,0,.39-1.06Z"/><path class="cls-1" d="M150.5,185.15h-.8v-.85h0a2,2,0,0,1-3.23.29,2.8,2.8,0,0,1-.56-1.83,3,3,0,0,1,.62-2,2.08,2.08,0,0,1,1.67-.75,1.6,1.6,0,0,1,1.5.81h0v-3.1h.8Zm-.8-2.27v-.73a1.46,1.46,0,0,0-.4-1,1.36,1.36,0,0,0-1-.42,1.37,1.37,0,0,0-1.15.54,2.35,2.35,0,0,0-.42,1.48,2.19,2.19,0,0,0,.4,1.37,1.33,1.33,0,0,0,1.08.5,1.38,1.38,0,0,0,1.09-.48A1.82,1.82,0,0,0,149.7,182.88Z"/><path class="cls-1" d="M156.14,182.85h-3.53a1.82,1.82,0,0,0,.45,1.28,1.52,1.52,0,0,0,1.18.46,2.46,2.46,0,0,0,1.55-.56v.75a2.89,2.89,0,0,1-1.74.48,2.11,2.11,0,0,1-1.67-.68,2.8,2.8,0,0,1-.6-1.92,2.75,2.75,0,0,1,.66-1.9,2.12,2.12,0,0,1,1.64-.73,1.88,1.88,0,0,1,1.52.63,2.66,2.66,0,0,1,.54,1.77Zm-.82-.68a1.61,1.61,0,0,0-.34-1.08,1.12,1.12,0,0,0-.91-.39,1.28,1.28,0,0,0-1,.41,1.78,1.78,0,0,0-.49,1.06Z"/><path class="cls-1" d="M159.79,185v-.85a2.35,2.35,0,0,0,1.44.48c.7,0,1.05-.24,1.05-.7a.59.59,0,0,0-.09-.34.82.82,0,0,0-.24-.25,1.75,1.75,0,0,0-.36-.19l-.45-.18a5.37,5.37,0,0,1-.58-.27,1.74,1.74,0,0,1-.42-.3,1.08,1.08,0,0,1-.26-.38,1.33,1.33,0,0,1-.08-.51,1.17,1.17,0,0,1,.16-.62,1.32,1.32,0,0,1,.43-.45,1.79,1.79,0,0,1,.61-.28,2.82,2.82,0,0,1,.71-.09,2.86,2.86,0,0,1,1.16.22v.81a2.27,2.27,0,0,0-1.27-.36,1.62,1.62,0,0,0-.4.05,1.12,1.12,0,0,0-.31.15.53.53,0,0,0-.2.22.57.57,0,0,0-.07.29.63.63,0,0,0,.07.32.64.64,0,0,0,.2.24,1.56,1.56,0,0,0,.34.18l.44.18c.22.09.42.17.6.26a2.11,2.11,0,0,1,.45.31,1.21,1.21,0,0,1,.28.39,1.18,1.18,0,0,1,.1.52,1.19,1.19,0,0,1-.16.64,1.48,1.48,0,0,1-.44.46,1.78,1.78,0,0,1-.63.26,3,3,0,0,1-.75.09A2.78,2.78,0,0,1,159.79,185Z"/><path class="cls-1" d="M166.42,185.26a2.31,2.31,0,0,1-1.77-.7,2.6,2.6,0,0,1-.66-1.86,2.68,2.68,0,0,1,.69-2,2.45,2.45,0,0,1,1.86-.71,2.26,2.26,0,0,1,1.75.69,2.76,2.76,0,0,1,.62,1.91,2.68,2.68,0,0,1-.67,1.91A2.38,2.38,0,0,1,166.42,185.26Zm.06-4.56a1.53,1.53,0,0,0-1.22.53,2.14,2.14,0,0,0-.45,1.44,2.08,2.08,0,0,0,.45,1.41,1.56,1.56,0,0,0,1.22.51,1.46,1.46,0,0,0,1.19-.5,2.2,2.2,0,0,0,.42-1.43,2.22,2.22,0,0,0-.42-1.45A1.43,1.43,0,0,0,166.48,180.7Z"/><path class="cls-1" d="M177.29,185.15h-.8v-2.88a2.18,2.18,0,0,0-.26-1.2,1,1,0,0,0-.86-.37,1.08,1.08,0,0,0-.87.47,1.79,1.79,0,0,0-.36,1.12v2.86h-.8v-3c0-1-.38-1.48-1.14-1.48a1.07,1.07,0,0,0-.87.44,1.89,1.89,0,0,0-.34,1.15v2.86h-.8v-5h.8v.79h0a1.69,1.69,0,0,1,1.55-.91,1.46,1.46,0,0,1,.9.28,1.43,1.43,0,0,1,.52.75,1.78,1.78,0,0,1,1.66-1c1.1,0,1.65.68,1.65,2Z"/><path class="cls-1" d="M182.82,182.85h-3.53a1.92,1.92,0,0,0,.45,1.28,1.53,1.53,0,0,0,1.18.46,2.47,2.47,0,0,0,1.56-.56v.75a2.9,2.9,0,0,1-1.75.48,2.09,2.09,0,0,1-1.66-.68,2.8,2.8,0,0,1-.61-1.92,2.71,2.71,0,0,1,.67-1.9,2.1,2.1,0,0,1,1.64-.73,1.9,1.9,0,0,1,1.52.63,2.71,2.71,0,0,1,.53,1.77Zm-.82-.68a1.6,1.6,0,0,0-.33-1.08,1.14,1.14,0,0,0-.92-.39,1.32,1.32,0,0,0-1,.41,1.84,1.84,0,0,0-.49,1.06Z"/><path class="cls-1" d="M190.18,184.92a2.6,2.6,0,0,1-1.37.34,2.27,2.27,0,0,1-1.72-.69,2.54,2.54,0,0,1-.66-1.81,2.78,2.78,0,0,1,.71-2A2.47,2.47,0,0,1,189,180a2.64,2.64,0,0,1,1.16.24v.82a2,2,0,0,0-1.19-.39,1.64,1.64,0,0,0-1.26.55,2.13,2.13,0,0,0-.49,1.44,2,2,0,0,0,.46,1.39,1.59,1.59,0,0,0,1.24.51,2,2,0,0,0,1.23-.44Z"/><path class="cls-1" d="M195.54,185.15h-.8v-2.89c0-1-.39-1.56-1.16-1.56a1.28,1.28,0,0,0-1,.45,1.72,1.72,0,0,0-.4,1.16v2.84h-.8v-7.41h.8V181h0a1.81,1.81,0,0,1,1.64-.95c1.13,0,1.69.68,1.69,2Z"/><path class="cls-1" d="M200.63,185.15h-.8v-.79h0a1.83,1.83,0,0,1-2.71.51,1.39,1.39,0,0,1-.42-1.05c0-.94.55-1.48,1.65-1.63l1.5-.21c0-.85-.34-1.28-1-1.28a2.46,2.46,0,0,0-1.63.62v-.82a3,3,0,0,1,1.7-.47c1.17,0,1.76.62,1.76,1.86Zm-.8-2.53-1.21.16a2,2,0,0,0-.84.28.81.81,0,0,0-.28.7.79.79,0,0,0,.26.6,1.05,1.05,0,0,0,.7.23,1.27,1.27,0,0,0,1-.42,1.49,1.49,0,0,0,.39-1.06Z"/><path class="cls-1" d="M206.29,185.15h-.8v-2.86c0-1.06-.39-1.59-1.16-1.59a1.29,1.29,0,0,0-1,.45,1.68,1.68,0,0,0-.39,1.14v2.86h-.8v-5h.8V181h0a1.8,1.8,0,0,1,1.64-.95,1.52,1.52,0,0,1,1.26.53,2.34,2.34,0,0,1,.43,1.53Z"/><path class="cls-1" d="M212.07,184.74q0,2.76-2.64,2.76a3.58,3.58,0,0,1-1.62-.35v-.8a3.35,3.35,0,0,0,1.61.47c1.23,0,1.85-.66,1.85-2v-.54h0a2,2,0,0,1-3.22.29,2.67,2.67,0,0,1-.57-1.79,3.11,3.11,0,0,1,.61-2,2.06,2.06,0,0,1,1.68-.75,1.64,1.64,0,0,1,1.5.81h0v-.69h.8Zm-.8-1.86v-.73a1.42,1.42,0,0,0-.41-1,1.3,1.3,0,0,0-1-.43,1.38,1.38,0,0,0-1.16.54,2.4,2.4,0,0,0-.42,1.51,2.08,2.08,0,0,0,.4,1.34,1.32,1.32,0,0,0,1.07.5,1.38,1.38,0,0,0,1.09-.48A1.76,1.76,0,0,0,211.27,182.88Z"/><path class="cls-1" d="M217.71,182.85h-3.53a1.82,1.82,0,0,0,.45,1.28,1.52,1.52,0,0,0,1.18.46,2.46,2.46,0,0,0,1.55-.56v.75a2.89,2.89,0,0,1-1.74.48,2.09,2.09,0,0,1-1.67-.68,2.8,2.8,0,0,1-.6-1.92,2.75,2.75,0,0,1,.66-1.9,2.12,2.12,0,0,1,1.64-.73,1.88,1.88,0,0,1,1.52.63,2.66,2.66,0,0,1,.54,1.77Zm-.82-.68a1.66,1.66,0,0,0-.34-1.08,1.12,1.12,0,0,0-.91-.39,1.32,1.32,0,0,0-1,.41,1.83,1.83,0,0,0-.48,1.06Z"/><path class="cls-1" d="M218.61,185v-.85a2.4,2.4,0,0,0,1.45.48c.7,0,1.05-.24,1.05-.7a.59.59,0,0,0-.09-.34.75.75,0,0,0-.25-.25,1.52,1.52,0,0,0-.36-.19l-.44-.18c-.22-.09-.42-.18-.59-.27a2.25,2.25,0,0,1-.42-.3,1.19,1.19,0,0,1-.25-.38,1.33,1.33,0,0,1-.09-.51,1.18,1.18,0,0,1,.17-.62,1.32,1.32,0,0,1,.43-.45,1.71,1.71,0,0,1,.61-.28,2.76,2.76,0,0,1,.71-.09,2.86,2.86,0,0,1,1.16.22v.81a2.27,2.27,0,0,0-1.27-.36,1.62,1.62,0,0,0-.4.05,1.12,1.12,0,0,0-.31.15.63.63,0,0,0-.21.22.69.69,0,0,0-.07.29.76.76,0,0,0,.07.32.79.79,0,0,0,.21.24,1.36,1.36,0,0,0,.34.18,4,4,0,0,0,.44.18c.22.09.42.17.6.26a1.82,1.82,0,0,1,.44.31,1.11,1.11,0,0,1,.29.39,1.18,1.18,0,0,1,.1.52,1.19,1.19,0,0,1-.16.64,1.48,1.48,0,0,1-.44.46,1.78,1.78,0,0,1-.63.26,3.08,3.08,0,0,1-.75.09A2.85,2.85,0,0,1,218.61,185Z"/><path class="cls-1" d="M228.22,185.1a1.61,1.61,0,0,1-.75.15c-.87,0-1.31-.49-1.31-1.46v-3h-.86v-.68h.86v-1.23l.8-.25v1.48h1.26v.68H227v2.82a1.17,1.17,0,0,0,.17.71.66.66,0,0,0,.57.22.85.85,0,0,0,.52-.17Z"/><path class="cls-1" d="M231.3,185.26a2.31,2.31,0,0,1-1.77-.7,2.6,2.6,0,0,1-.66-1.86,2.68,2.68,0,0,1,.69-2,2.45,2.45,0,0,1,1.86-.71,2.24,2.24,0,0,1,1.74.69,2.72,2.72,0,0,1,.63,1.91,2.69,2.69,0,0,1-.68,1.91A2.36,2.36,0,0,1,231.3,185.26Zm.06-4.56a1.52,1.52,0,0,0-1.22.53,2.14,2.14,0,0,0-.45,1.44,2.08,2.08,0,0,0,.45,1.41,1.56,1.56,0,0,0,1.22.51,1.47,1.47,0,0,0,1.19-.5,2.2,2.2,0,0,0,.42-1.43,2.22,2.22,0,0,0-.42-1.45A1.45,1.45,0,0,0,231.36,180.7Z"/><path class="cls-1" d="M240.13,185.1a1.61,1.61,0,0,1-.75.15c-.87,0-1.31-.49-1.31-1.46v-3h-.86v-.68h.86v-1.23l.8-.25v1.48h1.26v.68h-1.26v2.82a1.17,1.17,0,0,0,.17.71.66.66,0,0,0,.57.22.85.85,0,0,0,.52-.17Z"/><path class="cls-1" d="M245.35,185.15h-.8v-2.89c0-1-.39-1.56-1.16-1.56a1.27,1.27,0,0,0-1,.45,1.67,1.67,0,0,0-.4,1.16v2.84h-.8v-7.41h.8V181h0a1.8,1.8,0,0,1,1.64-.95c1.12,0,1.69.68,1.69,2Z"/><path class="cls-1" d="M250.88,182.85h-3.53a1.87,1.87,0,0,0,.44,1.28,1.54,1.54,0,0,0,1.19.46,2.46,2.46,0,0,0,1.55-.56v.75a2.89,2.89,0,0,1-1.74.48,2.09,2.09,0,0,1-1.67-.68,2.8,2.8,0,0,1-.61-1.92,2.75,2.75,0,0,1,.67-1.9,2.12,2.12,0,0,1,1.64-.73,1.9,1.9,0,0,1,1.52.63,2.66,2.66,0,0,1,.54,1.77Zm-.82-.68a1.66,1.66,0,0,0-.34-1.08,1.12,1.12,0,0,0-.91-.39,1.32,1.32,0,0,0-1,.41,1.91,1.91,0,0,0-.49,1.06Z"/><path class="cls-1" d="M129.45,197.1a1.61,1.61,0,0,1-.75.15c-.87,0-1.31-.49-1.31-1.46v-3h-.86v-.68h.86v-1.23l.8-.25v1.48h1.26v.68h-1.26v2.82a1.17,1.17,0,0,0,.17.71.66.66,0,0,0,.57.22.85.85,0,0,0,.52-.17Z"/><path class="cls-1" d="M134.5,192.15l-2.3,5.8c-.41,1-1,1.55-1.73,1.55a1.9,1.9,0,0,1-.52-.06v-.72a1.44,1.44,0,0,0,.47.09,1,1,0,0,0,.91-.73l.4-.94-1.95-5h.89L132,196s0,.18.1.38h0c0-.07,0-.2.1-.37l1.42-3.85Z"/><path class="cls-1" d="M136.18,196.42h0v3h-.8v-7.3h.8V193h0a1.89,1.89,0,0,1,1.73-1,1.84,1.84,0,0,1,1.51.67,2.8,2.8,0,0,1,.54,1.8,3.13,3.13,0,0,1-.61,2,2,2,0,0,1-1.67.75A1.67,1.67,0,0,1,136.18,196.42Zm0-2v.69a1.49,1.49,0,0,0,.4,1.06,1.37,1.37,0,0,0,1,.43,1.33,1.33,0,0,0,1.14-.56,2.53,2.53,0,0,0,.42-1.55,2,2,0,0,0-.39-1.3,1.26,1.26,0,0,0-1-.48,1.42,1.42,0,0,0-1.13.49A1.79,1.79,0,0,0,136.16,194.41Z"/><path class="cls-1" d="M143.33,197.26a2.31,2.31,0,0,1-1.77-.7,2.6,2.6,0,0,1-.67-1.86,2.68,2.68,0,0,1,.69-2,2.45,2.45,0,0,1,1.86-.71,2.25,2.25,0,0,1,1.75.69,2.72,2.72,0,0,1,.63,1.91,2.69,2.69,0,0,1-.68,1.91A2.36,2.36,0,0,1,143.33,197.26Zm.06-4.56a1.54,1.54,0,0,0-1.23.53,2.14,2.14,0,0,0-.44,1.44,2.08,2.08,0,0,0,.45,1.41,1.55,1.55,0,0,0,1.22.51,1.48,1.48,0,0,0,1.19-.5,2.2,2.2,0,0,0,.42-1.43,2.22,2.22,0,0,0-.42-1.45A1.46,1.46,0,0,0,143.39,192.7Z"/><path class="cls-1" d="M151.36,196.74c0,1.84-.88,2.76-2.63,2.76a3.58,3.58,0,0,1-1.62-.35v-.8a3.35,3.35,0,0,0,1.61.47c1.23,0,1.84-.66,1.84-2v-.54h0a2,2,0,0,1-3.22.29,2.67,2.67,0,0,1-.57-1.79,3.11,3.11,0,0,1,.62-2A2,2,0,0,1,149,192a1.62,1.62,0,0,1,1.5.81h0v-.69h.8Zm-.8-1.86v-.73a1.41,1.41,0,0,0-.4-1,1.3,1.3,0,0,0-1-.43,1.4,1.4,0,0,0-1.17.54,2.4,2.4,0,0,0-.42,1.51,2.08,2.08,0,0,0,.41,1.34,1.3,1.3,0,0,0,1.06.5,1.4,1.4,0,0,0,1.1-.48A1.8,1.8,0,0,0,150.56,194.88Z"/><path class="cls-1" d="M155.59,193a1,1,0,0,0-.6-.17,1,1,0,0,0-.86.49,2.23,2.23,0,0,0-.34,1.32v2.55H153v-5h.81v1h0a1.67,1.67,0,0,1,.52-.83,1.2,1.2,0,0,1,.78-.29,1.22,1.22,0,0,1,.48.07Z"/><path class="cls-1" d="M160,197.15h-.8v-.79h0a1.68,1.68,0,0,1-1.54.9,1.65,1.65,0,0,1-1.17-.39,1.39,1.39,0,0,1-.42-1.05c0-.94.55-1.48,1.65-1.63l1.5-.21c0-.85-.34-1.28-1-1.28a2.46,2.46,0,0,0-1.63.62v-.82a3,3,0,0,1,1.7-.47c1.17,0,1.76.62,1.76,1.86Zm-.8-2.53-1.21.16a2,2,0,0,0-.84.28.81.81,0,0,0-.28.7.79.79,0,0,0,.26.6,1.05,1.05,0,0,0,.7.23,1.29,1.29,0,0,0,1-.42,1.49,1.49,0,0,0,.39-1.06Z"/><path class="cls-1" d="M162.37,196.42h0v3h-.8v-7.3h.8V193h0a1.89,1.89,0,0,1,1.73-1,1.83,1.83,0,0,1,1.51.67,2.8,2.8,0,0,1,.54,1.8,3.07,3.07,0,0,1-.61,2,2,2,0,0,1-1.67.75A1.67,1.67,0,0,1,162.37,196.42Zm0-2v.69a1.49,1.49,0,0,0,.4,1.06,1.37,1.37,0,0,0,1,.43,1.36,1.36,0,0,0,1.14-.56,2.6,2.6,0,0,0,.41-1.55,2,2,0,0,0-.39-1.3,1.25,1.25,0,0,0-1-.48,1.42,1.42,0,0,0-1.13.49A1.79,1.79,0,0,0,162.35,194.41Z"/><path class="cls-1" d="M171.58,197.15h-.8v-2.89c0-1-.39-1.56-1.16-1.56a1.27,1.27,0,0,0-1,.45,1.67,1.67,0,0,0-.4,1.16v2.84h-.8v-7.41h.8V193h0a1.8,1.8,0,0,1,1.64-.95c1.12,0,1.69.68,1.69,2Z"/><path class="cls-1" d="M177.07,192.15l-2.3,5.8c-.41,1-1,1.55-1.73,1.55a1.9,1.9,0,0,1-.52-.06v-.72a1.44,1.44,0,0,0,.47.09,1,1,0,0,0,.91-.73l.4-.94-2-5h.88l1.36,3.84s0,.18.1.38h0a3.74,3.74,0,0,1,.1-.37l1.42-3.85Z"/><path class="cls-1" d="M183.14,190.45a1.09,1.09,0,0,0-.54-.14c-.56,0-.84.36-.84,1.06v.78h1.18v.68h-1.18v4.32H181v-4.32h-.86v-.68H181v-.82a1.7,1.7,0,0,1,.45-1.24,1.54,1.54,0,0,1,1.14-.45,1.59,1.59,0,0,1,.58.08Z"/><path class="cls-1" d="M185.89,197.26a2.31,2.31,0,0,1-1.77-.7,2.56,2.56,0,0,1-.67-1.86,2.68,2.68,0,0,1,.69-2A2.45,2.45,0,0,1,186,192a2.25,2.25,0,0,1,1.75.69,2.72,2.72,0,0,1,.63,1.91,2.69,2.69,0,0,1-.68,1.91A2.37,2.37,0,0,1,185.89,197.26Zm.05-4.56a1.53,1.53,0,0,0-1.22.53,2.14,2.14,0,0,0-.45,1.44,2.08,2.08,0,0,0,.46,1.41,1.54,1.54,0,0,0,1.21.51,1.49,1.49,0,0,0,1.2-.5,2.2,2.2,0,0,0,.42-1.43,2.22,2.22,0,0,0-.42-1.45A1.47,1.47,0,0,0,185.94,192.7Z"/><path class="cls-1" d="M192.26,193a1,1,0,0,0-.6-.17,1,1,0,0,0-.86.49,2.23,2.23,0,0,0-.34,1.32v2.55h-.81v-5h.81v1h0a1.76,1.76,0,0,1,.53-.83,1.2,1.2,0,0,1,.78-.29,1.22,1.22,0,0,1,.48.07Z"/><path class="cls-1" d="M196.67,197.15h-.8v-7.41h.8Z"/><path class="cls-1" d="M200.38,197.26a2.31,2.31,0,0,1-1.77-.7,2.6,2.6,0,0,1-.66-1.86,2.68,2.68,0,0,1,.69-2,2.45,2.45,0,0,1,1.86-.71,2.26,2.26,0,0,1,1.75.69,2.76,2.76,0,0,1,.62,1.91,2.68,2.68,0,0,1-.67,1.91A2.38,2.38,0,0,1,200.38,197.26Zm.06-4.56a1.53,1.53,0,0,0-1.22.53,2.14,2.14,0,0,0-.45,1.44,2.08,2.08,0,0,0,.45,1.41,1.56,1.56,0,0,0,1.22.51,1.46,1.46,0,0,0,1.19-.5,2.2,2.2,0,0,0,.42-1.43,2.22,2.22,0,0,0-.42-1.45A1.43,1.43,0,0,0,200.44,192.7Z"/><path class="cls-1" d="M208.42,196.74q0,2.76-2.64,2.76a3.58,3.58,0,0,1-1.62-.35v-.8a3.35,3.35,0,0,0,1.61.47c1.23,0,1.85-.66,1.85-2v-.54h0a2,2,0,0,1-3.22.29,2.67,2.67,0,0,1-.57-1.79,3.11,3.11,0,0,1,.61-2,2.06,2.06,0,0,1,1.68-.75,1.64,1.64,0,0,1,1.5.81h0v-.69h.8Zm-.8-1.86v-.73a1.45,1.45,0,0,0-.4-1,1.32,1.32,0,0,0-1-.43,1.39,1.39,0,0,0-1.16.54,2.4,2.4,0,0,0-.42,1.51,2.08,2.08,0,0,0,.4,1.34,1.32,1.32,0,0,0,1.07.5,1.41,1.41,0,0,0,1.1-.48A1.8,1.8,0,0,0,207.62,194.88Z"/><path class="cls-1" d="M212.13,197.26a2.31,2.31,0,0,1-1.77-.7,2.6,2.6,0,0,1-.66-1.86,2.68,2.68,0,0,1,.69-2,2.45,2.45,0,0,1,1.86-.71,2.24,2.24,0,0,1,1.74.69,2.72,2.72,0,0,1,.63,1.91,2.69,2.69,0,0,1-.68,1.91A2.36,2.36,0,0,1,212.13,197.26Zm.06-4.56a1.52,1.52,0,0,0-1.22.53,2.14,2.14,0,0,0-.45,1.44,2.08,2.08,0,0,0,.45,1.41,1.56,1.56,0,0,0,1.22.51,1.47,1.47,0,0,0,1.19-.5,2.2,2.2,0,0,0,.42-1.43,2.22,2.22,0,0,0-.42-1.45A1.45,1.45,0,0,0,212.19,192.7Z"/><path class="cls-1" d="M216.63,196l-.78,2.4h-.57l.57-2.4Z"/><path class="cls-1" d="M223.13,197.1a1.61,1.61,0,0,1-.75.15c-.88,0-1.31-.49-1.31-1.46v-3h-.86v-.68h.86v-1.23l.8-.25v1.48h1.26v.68h-1.26v2.82a1.11,1.11,0,0,0,.17.71.65.65,0,0,0,.56.22.86.86,0,0,0,.53-.17Z"/><path class="cls-1" d="M228.35,197.15h-.8v-2.89q0-1.56-1.17-1.56a1.25,1.25,0,0,0-1,.45,1.67,1.67,0,0,0-.4,1.16v2.84h-.8v-7.41h.8V193h0a1.8,1.8,0,0,1,1.64-.95c1.12,0,1.69.68,1.69,2Z"/><path class="cls-1" d="M230.26,190.88a.49.49,0,0,1-.36-.15.5.5,0,0,1-.15-.37.5.5,0,0,1,.51-.52.56.56,0,0,1,.38.14.52.52,0,0,1,.15.38.53.53,0,0,1-.53.52Zm.4,6.27h-.81v-5h.81Z"/><path class="cls-1" d="M232,197v-.85a2.4,2.4,0,0,0,1.44.48c.71,0,1.06-.24,1.06-.7a.59.59,0,0,0-.09-.34.75.75,0,0,0-.25-.25,1.52,1.52,0,0,0-.36-.19l-.44-.18a5.6,5.6,0,0,1-.59-.27,2,2,0,0,1-.42-.3,1.19,1.19,0,0,1-.25-.38,1.33,1.33,0,0,1-.09-.51,1.27,1.27,0,0,1,.16-.62,1.54,1.54,0,0,1,.43-.45,1.84,1.84,0,0,1,.62-.28,2.76,2.76,0,0,1,.71-.09,2.86,2.86,0,0,1,1.16.22v.81a2.27,2.27,0,0,0-1.27-.36,1.62,1.62,0,0,0-.4.05,1,1,0,0,0-.31.15.63.63,0,0,0-.21.22.69.69,0,0,0-.07.29.76.76,0,0,0,.07.32.79.79,0,0,0,.21.24,1.29,1.29,0,0,0,.33.18l.45.18c.22.09.42.17.59.26a1.7,1.7,0,0,1,.45.31,1.11,1.11,0,0,1,.29.39,1.18,1.18,0,0,1,.1.52,1.29,1.29,0,0,1-.16.64,1.48,1.48,0,0,1-.44.46,1.78,1.78,0,0,1-.63.26,3.08,3.08,0,0,1-.75.09A2.85,2.85,0,0,1,232,197Z"/><path class="cls-1" d="M241.58,197.1a1.61,1.61,0,0,1-.75.15c-.87,0-1.31-.49-1.31-1.46v-3h-.86v-.68h.86v-1.23l.8-.25v1.48h1.26v.68h-1.26v2.82a1.17,1.17,0,0,0,.17.71.66.66,0,0,0,.57.22.85.85,0,0,0,.52-.17Z"/><path class="cls-1" d="M246.63,192.15l-2.3,5.8c-.41,1-1,1.55-1.73,1.55a1.9,1.9,0,0,1-.52-.06v-.72a1.44,1.44,0,0,0,.47.09,1,1,0,0,0,.91-.73l.4-.94-2-5h.88l1.36,3.84s0,.18.1.38h0c0-.07.05-.2.1-.37l1.42-3.85Z"/><path class="cls-1" d="M248.31,196.42h0v3h-.8v-7.3h.8V193h0a1.89,1.89,0,0,1,1.73-1,1.81,1.81,0,0,1,1.5.67,2.74,2.74,0,0,1,.55,1.8,3.13,3.13,0,0,1-.61,2,2,2,0,0,1-1.67.75A1.67,1.67,0,0,1,248.31,196.42Zm0-2v.69a1.49,1.49,0,0,0,.4,1.06,1.37,1.37,0,0,0,1,.43,1.33,1.33,0,0,0,1.14-.56,2.53,2.53,0,0,0,.42-1.55,2,2,0,0,0-.39-1.3,1.28,1.28,0,0,0-1-.48,1.42,1.42,0,0,0-1.13.49A1.79,1.79,0,0,0,248.29,194.41Z"/><path class="cls-1" d="M257.38,194.85h-3.53a1.92,1.92,0,0,0,.45,1.28,1.53,1.53,0,0,0,1.18.46A2.47,2.47,0,0,0,257,196v.75a2.9,2.9,0,0,1-1.75.48,2.09,2.09,0,0,1-1.66-.68,2.8,2.8,0,0,1-.61-1.92,2.71,2.71,0,0,1,.67-1.9,2.1,2.1,0,0,1,1.64-.73,1.9,1.9,0,0,1,1.52.63,2.65,2.65,0,0,1,.53,1.77Zm-.82-.68a1.6,1.6,0,0,0-.33-1.08,1.14,1.14,0,0,0-.92-.39,1.32,1.32,0,0,0-1,.41,1.91,1.91,0,0,0-.49,1.06Z"/><path class="cls-1" d="M261.07,190.45a1.09,1.09,0,0,0-.54-.14c-.56,0-.84.36-.84,1.06v.78h1.18v.68h-1.18v4.32h-.79v-4.32H258v-.68h.86v-.82a1.7,1.7,0,0,1,.45-1.24,1.54,1.54,0,0,1,1.13-.45,1.61,1.61,0,0,1,.59.08Z"/><path class="cls-1" d="M265.3,197.15h-.8v-.79h0a1.82,1.82,0,0,1-2.7.51,1.37,1.37,0,0,1-.43-1.05c0-.94.55-1.48,1.65-1.63l1.5-.21c0-.85-.34-1.28-1-1.28a2.48,2.48,0,0,0-1.63.62v-.82a3,3,0,0,1,1.7-.47c1.18,0,1.76.62,1.76,1.86Zm-.8-2.53-1.2.16a2,2,0,0,0-.84.28.79.79,0,0,0-.29.7.77.77,0,0,0,.27.6,1,1,0,0,0,.69.23,1.29,1.29,0,0,0,1-.42,1.53,1.53,0,0,0,.38-1.06Z"/><path class="cls-1" d="M270.22,196.92a2.6,2.6,0,0,1-1.37.34,2.27,2.27,0,0,1-1.72-.69,2.54,2.54,0,0,1-.66-1.81,2.78,2.78,0,0,1,.71-2,2.47,2.47,0,0,1,1.89-.75,2.64,2.64,0,0,1,1.16.24v.82a2,2,0,0,0-1.19-.39,1.64,1.64,0,0,0-1.26.55,2.13,2.13,0,0,0-.49,1.44,2,2,0,0,0,.46,1.39,1.59,1.59,0,0,0,1.24.51,2,2,0,0,0,1.23-.44Z"/><path class="cls-1" d="M275.45,194.85h-3.53a1.82,1.82,0,0,0,.45,1.28,1.53,1.53,0,0,0,1.18.46,2.46,2.46,0,0,0,1.55-.56v.75a2.89,2.89,0,0,1-1.74.48,2.07,2.07,0,0,1-1.66-.68,3.19,3.19,0,0,1,.05-3.82,2.12,2.12,0,0,1,1.64-.73,1.87,1.87,0,0,1,1.52.63,2.66,2.66,0,0,1,.54,1.77Zm-.82-.68a1.6,1.6,0,0,0-.33-1.08,1.14,1.14,0,0,0-.92-.39,1.28,1.28,0,0,0-1,.41,1.78,1.78,0,0,0-.49,1.06Z"/><path class="cls-1" d="M126.83,209v-.85a2.35,2.35,0,0,0,1.44.48c.7,0,1-.24,1-.7a.59.59,0,0,0-.09-.34.82.82,0,0,0-.24-.25,1.75,1.75,0,0,0-.36-.19l-.45-.18a5.37,5.37,0,0,1-.58-.27,1.74,1.74,0,0,1-.42-.3,1.08,1.08,0,0,1-.26-.38,1.56,1.56,0,0,1-.08-.51,1.17,1.17,0,0,1,.16-.62,1.42,1.42,0,0,1,.43-.45,1.79,1.79,0,0,1,.61-.28,2.82,2.82,0,0,1,.71-.09,2.86,2.86,0,0,1,1.16.22v.81a2.25,2.25,0,0,0-1.27-.36,1.62,1.62,0,0,0-.4.05,1.12,1.12,0,0,0-.31.15.6.6,0,0,0-.2.22.57.57,0,0,0-.07.29.63.63,0,0,0,.07.32.79.79,0,0,0,.21.24,1.29,1.29,0,0,0,.33.18l.44.18c.22.09.42.17.6.26a2.11,2.11,0,0,1,.45.31,1.08,1.08,0,0,1,.28.39,1.18,1.18,0,0,1,.1.52,1.19,1.19,0,0,1-.16.64,1.48,1.48,0,0,1-.44.46,1.78,1.78,0,0,1-.63.26,2.94,2.94,0,0,1-.74.09A2.82,2.82,0,0,1,126.83,209Z"/><path class="cls-1" d="M135.52,209.15h-.8v-2.89c0-1-.38-1.56-1.16-1.56a1.28,1.28,0,0,0-1,.45,1.72,1.72,0,0,0-.4,1.16v2.84h-.8v-7.41h.8V205h0a1.81,1.81,0,0,1,1.64-.95c1.13,0,1.69.68,1.69,2Z"/><path class="cls-1" d="M139.12,209.26a2.31,2.31,0,0,1-1.77-.7,2.6,2.6,0,0,1-.66-1.86,2.68,2.68,0,0,1,.69-2,2.45,2.45,0,0,1,1.86-.71,2.26,2.26,0,0,1,1.75.69,2.76,2.76,0,0,1,.62,1.91,2.68,2.68,0,0,1-.67,1.91A2.38,2.38,0,0,1,139.12,209.26Zm.06-4.56a1.53,1.53,0,0,0-1.22.53,2.14,2.14,0,0,0-.45,1.44,2,2,0,0,0,.46,1.41,1.53,1.53,0,0,0,1.21.51,1.46,1.46,0,0,0,1.19-.5,2.2,2.2,0,0,0,.42-1.43,2.22,2.22,0,0,0-.42-1.45A1.43,1.43,0,0,0,139.18,204.7Z"/><path class="cls-1" d="M146.93,209.15h-.8v-.8h0a1.63,1.63,0,0,1-1.54.91c-1.19,0-1.79-.71-1.79-2.13v-3h.8V207c0,1.05.4,1.58,1.21,1.58a1.27,1.27,0,0,0,1-.43,1.67,1.67,0,0,0,.37-1.13v-2.88h.8Z"/><path class="cls-1" d="M149.35,209.15h-.8v-7.41h.8Z"/><path class="cls-1" d="M155.24,209.15h-.8v-.85h0a2,2,0,0,1-3.22.29,2.75,2.75,0,0,1-.57-1.83,3,3,0,0,1,.63-2,2,2,0,0,1,1.66-.75,1.6,1.6,0,0,1,1.5.81h0v-3.1h.8Zm-.8-2.27v-.73a1.42,1.42,0,0,0-.4-1,1.36,1.36,0,0,0-1-.42,1.39,1.39,0,0,0-1.15.54,2.35,2.35,0,0,0-.42,1.48,2.19,2.19,0,0,0,.4,1.37,1.33,1.33,0,0,0,1.09.5,1.37,1.37,0,0,0,1.08-.48A1.82,1.82,0,0,0,154.44,206.88Z"/><path class="cls-1" d="M161.69,209.26a2.31,2.31,0,0,1-1.77-.7,2.6,2.6,0,0,1-.66-1.86,2.68,2.68,0,0,1,.69-2,2.45,2.45,0,0,1,1.86-.71,2.22,2.22,0,0,1,1.74.69,2.72,2.72,0,0,1,.63,1.91,2.68,2.68,0,0,1-.67,1.91A2.39,2.39,0,0,1,161.69,209.26Zm.06-4.56a1.52,1.52,0,0,0-1.22.53,2.14,2.14,0,0,0-.45,1.44,2.08,2.08,0,0,0,.45,1.41,1.56,1.56,0,0,0,1.22.51,1.46,1.46,0,0,0,1.19-.5,2.2,2.2,0,0,0,.42-1.43,2.22,2.22,0,0,0-.42-1.45A1.43,1.43,0,0,0,161.75,204.7Z"/><path class="cls-1" d="M169.61,209.15h-.8v-2.86c0-1.06-.39-1.59-1.16-1.59a1.29,1.29,0,0,0-1,.45,1.68,1.68,0,0,0-.39,1.14v2.86h-.8v-5h.8V205h0a1.8,1.8,0,0,1,1.64-.95,1.52,1.52,0,0,1,1.26.53,2.34,2.34,0,0,1,.43,1.53Z"/><path class="cls-1" d="M171.92,209.15h-.8v-7.41h.8Z"/><path class="cls-1" d="M177.52,204.15l-2.3,5.8c-.41,1-1,1.55-1.73,1.55a1.9,1.9,0,0,1-.52-.06v-.72a1.44,1.44,0,0,0,.47.09,1,1,0,0,0,.91-.73l.4-.94-1.95-5h.89L175,208s.05.18.1.38h0c0-.07.05-.2.1-.37l1.42-3.85Z"/><path class="cls-1" d="M181.94,208.42h0v.73h-.8v-7.41h.8V205h0a1.89,1.89,0,0,1,1.73-1,1.81,1.81,0,0,1,1.5.67,2.74,2.74,0,0,1,.55,1.8,3.07,3.07,0,0,1-.61,2,2,2,0,0,1-1.67.75A1.65,1.65,0,0,1,181.94,208.42Zm0-2v.69a1.53,1.53,0,0,0,.4,1.06,1.37,1.37,0,0,0,1,.43,1.36,1.36,0,0,0,1.14-.56,2.6,2.6,0,0,0,.41-1.55,2,2,0,0,0-.39-1.3,1.25,1.25,0,0,0-1-.48,1.39,1.39,0,0,0-1.12.49A1.75,1.75,0,0,0,181.92,206.41Z"/><path class="cls-1" d="M191,206.85h-3.53a1.82,1.82,0,0,0,.45,1.28,1.52,1.52,0,0,0,1.18.46,2.46,2.46,0,0,0,1.55-.56v.75a2.89,2.89,0,0,1-1.74.48,2.11,2.11,0,0,1-1.67-.68,2.8,2.8,0,0,1-.6-1.92,2.75,2.75,0,0,1,.66-1.9A2.12,2.12,0,0,1,189,204a1.88,1.88,0,0,1,1.52.63,2.66,2.66,0,0,1,.54,1.77Zm-.82-.68a1.66,1.66,0,0,0-.34-1.08,1.12,1.12,0,0,0-.91-.39,1.32,1.32,0,0,0-1,.41,1.83,1.83,0,0,0-.48,1.06Z"/><path class="cls-1" d="M199,209.15h-.8v-.8h0a1.64,1.64,0,0,1-1.54.91c-1.19,0-1.79-.71-1.79-2.13v-3h.8V207c0,1.05.4,1.58,1.21,1.58a1.24,1.24,0,0,0,1-.43,1.68,1.68,0,0,0,.38-1.13v-2.88h.8Z"/><path class="cls-1" d="M200.32,209v-.85a2.4,2.4,0,0,0,1.44.48c.71,0,1.06-.24,1.06-.7a.59.59,0,0,0-.09-.34.75.75,0,0,0-.25-.25,1.52,1.52,0,0,0-.36-.19l-.44-.18a5.6,5.6,0,0,1-.59-.27,2,2,0,0,1-.42-.3,1.19,1.19,0,0,1-.25-.38,1.33,1.33,0,0,1-.09-.51,1.27,1.27,0,0,1,.16-.62,1.54,1.54,0,0,1,.43-.45,1.84,1.84,0,0,1,.62-.28,2.76,2.76,0,0,1,.71-.09,2.86,2.86,0,0,1,1.16.22v.81a2.27,2.27,0,0,0-1.27-.36,1.7,1.7,0,0,0-.41.05,1.05,1.05,0,0,0-.3.15.63.63,0,0,0-.21.22.69.69,0,0,0-.07.29.76.76,0,0,0,.07.32.79.79,0,0,0,.21.24,1.29,1.29,0,0,0,.33.18l.45.18c.22.09.42.17.59.26a1.7,1.7,0,0,1,.45.31,1.11,1.11,0,0,1,.29.39,1.18,1.18,0,0,1,.1.52,1.29,1.29,0,0,1-.16.64,1.48,1.48,0,0,1-.44.46,1.78,1.78,0,0,1-.63.26,3.08,3.08,0,0,1-.75.09A2.85,2.85,0,0,1,200.32,209Z"/><path class="cls-1" d="M208.89,206.85h-3.53a1.82,1.82,0,0,0,.45,1.28,1.52,1.52,0,0,0,1.18.46,2.46,2.46,0,0,0,1.55-.56v.75a2.89,2.89,0,0,1-1.74.48,2.11,2.11,0,0,1-1.67-.68,2.8,2.8,0,0,1-.6-1.92,2.75,2.75,0,0,1,.66-1.9,2.12,2.12,0,0,1,1.64-.73,1.88,1.88,0,0,1,1.52.63,2.66,2.66,0,0,1,.54,1.77Zm-.82-.68a1.66,1.66,0,0,0-.34-1.08,1.12,1.12,0,0,0-.91-.39,1.28,1.28,0,0,0-1,.41,1.78,1.78,0,0,0-.49,1.06Z"/><path class="cls-1" d="M214.37,209.15h-.8v-.85h0a2,2,0,0,1-3.23.29,2.74,2.74,0,0,1-.56-1.83,3,3,0,0,1,.62-2,2.06,2.06,0,0,1,1.67-.75,1.62,1.62,0,0,1,1.5.81h0v-3.1h.8Zm-.8-2.27v-.73a1.46,1.46,0,0,0-.4-1,1.36,1.36,0,0,0-1-.42,1.37,1.37,0,0,0-1.15.54,2.35,2.35,0,0,0-.42,1.48,2.13,2.13,0,0,0,.4,1.37,1.33,1.33,0,0,0,1.08.5,1.38,1.38,0,0,0,1.09-.48A1.82,1.82,0,0,0,213.57,206.88Z"/><path class="cls-1" d="M129.6,214.45a1,1,0,0,0-.53-.14c-.56,0-.84.36-.84,1.06v.78h1.17v.68h-1.17v4.32h-.8v-4.32h-.85v-.68h.85v-.82a1.67,1.67,0,0,1,.46-1.24,1.54,1.54,0,0,1,1.13-.45,1.56,1.56,0,0,1,.58.08Z"/><path class="cls-1" d="M132.35,221.26a2.31,2.31,0,0,1-1.77-.7,2.6,2.6,0,0,1-.66-1.86,2.68,2.68,0,0,1,.69-2,2.45,2.45,0,0,1,1.86-.71,2.24,2.24,0,0,1,1.74.69,2.72,2.72,0,0,1,.63,1.91,2.69,2.69,0,0,1-.68,1.91A2.36,2.36,0,0,1,132.35,221.26Zm.06-4.56a1.52,1.52,0,0,0-1.22.53,2.14,2.14,0,0,0-.45,1.44,2.08,2.08,0,0,0,.45,1.41,1.56,1.56,0,0,0,1.22.51,1.47,1.47,0,0,0,1.19-.5,2.2,2.2,0,0,0,.42-1.43,2.22,2.22,0,0,0-.42-1.45A1.45,1.45,0,0,0,132.41,216.7Z"/><path class="cls-1" d="M138.73,217a1,1,0,0,0-.61-.17,1,1,0,0,0-.86.49,2.3,2.3,0,0,0-.34,1.32v2.55h-.8v-5h.8v1h0a1.74,1.74,0,0,1,.52-.83,1.24,1.24,0,0,1,.79-.29,1.22,1.22,0,0,1,.48.07Z"/><path class="cls-1" d="M142,221v-.85a2.4,2.4,0,0,0,1.44.48c.71,0,1.06-.24,1.06-.7a.59.59,0,0,0-.09-.34.75.75,0,0,0-.25-.25,1.52,1.52,0,0,0-.36-.19l-.44-.18a5.6,5.6,0,0,1-.59-.27,1.74,1.74,0,0,1-.42-.3,1,1,0,0,1-.25-.38,1.33,1.33,0,0,1-.09-.51,1.27,1.27,0,0,1,.16-.62,1.42,1.42,0,0,1,.43-.45,1.84,1.84,0,0,1,.62-.28A2.76,2.76,0,0,1,144,216a2.86,2.86,0,0,1,1.16.22v.81a2.27,2.27,0,0,0-1.27-.36,1.7,1.7,0,0,0-.41.05,1.28,1.28,0,0,0-.31.15.7.7,0,0,0-.2.22.69.69,0,0,0-.07.29.76.76,0,0,0,.07.32.79.79,0,0,0,.21.24,1.29,1.29,0,0,0,.33.18l.45.18c.22.09.42.17.59.26a1.7,1.7,0,0,1,.45.31,1.11,1.11,0,0,1,.29.39,1.34,1.34,0,0,1,.1.52,1.2,1.2,0,0,1-.17.64,1.35,1.35,0,0,1-.43.46,2,2,0,0,1-.63.26,3.08,3.08,0,0,1-.75.09A2.85,2.85,0,0,1,142,221Z"/><path class="cls-1" d="M150.73,221.15h-.8v-2.89c0-1-.39-1.56-1.16-1.56a1.28,1.28,0,0,0-1,.45,1.67,1.67,0,0,0-.4,1.16v2.84h-.8v-7.41h.8V217h0A1.8,1.8,0,0,1,149,216c1.13,0,1.69.68,1.69,2Z"/><path class="cls-1" d="M154.33,221.26a2.31,2.31,0,0,1-1.77-.7,2.6,2.6,0,0,1-.66-1.86,2.72,2.72,0,0,1,.68-2,2.45,2.45,0,0,1,1.86-.71,2.25,2.25,0,0,1,1.75.69,2.72,2.72,0,0,1,.63,1.91,2.69,2.69,0,0,1-.68,1.91A2.36,2.36,0,0,1,154.33,221.26Zm.06-4.56a1.52,1.52,0,0,0-1.22.53,2.14,2.14,0,0,0-.45,1.44,2.08,2.08,0,0,0,.45,1.41,1.55,1.55,0,0,0,1.22.51,1.48,1.48,0,0,0,1.19-.5,2.2,2.2,0,0,0,.42-1.43,2.22,2.22,0,0,0-.42-1.45A1.46,1.46,0,0,0,154.39,216.7Z"/><path class="cls-1" d="M160.7,217a1,1,0,0,0-.6-.17,1,1,0,0,0-.86.49,2.23,2.23,0,0,0-.34,1.32v2.55h-.8v-5h.8v1h0a1.74,1.74,0,0,1,.52-.83,1.22,1.22,0,0,1,.79-.29,1.19,1.19,0,0,1,.47.07Z"/><path class="cls-1" d="M164.18,221.1a1.61,1.61,0,0,1-.75.15c-.87,0-1.31-.49-1.31-1.46v-3h-.86v-.68h.86v-1.23l.8-.25v1.48h1.26v.68h-1.26v2.82a1.17,1.17,0,0,0,.17.71.67.67,0,0,0,.57.22.85.85,0,0,0,.52-.17Z"/><path class="cls-1" d="M170.31,221.1a1.61,1.61,0,0,1-.75.15c-.87,0-1.31-.49-1.31-1.46v-3h-.86v-.68h.86v-1.23l.8-.25v1.48h1.26v.68h-1.26v2.82a1.17,1.17,0,0,0,.17.71.66.66,0,0,0,.57.22.85.85,0,0,0,.52-.17Z"/><path class="cls-1" d="M175.32,218.85h-3.53a1.82,1.82,0,0,0,.45,1.28,1.52,1.52,0,0,0,1.18.46A2.46,2.46,0,0,0,175,220v.75a2.89,2.89,0,0,1-1.74.48,2.11,2.11,0,0,1-1.67-.68,2.8,2.8,0,0,1-.6-1.92,2.75,2.75,0,0,1,.66-1.9,2.12,2.12,0,0,1,1.64-.73,1.88,1.88,0,0,1,1.52.63,2.66,2.66,0,0,1,.54,1.77Zm-.82-.68a1.61,1.61,0,0,0-.34-1.08,1.12,1.12,0,0,0-.91-.39,1.28,1.28,0,0,0-1,.41,1.78,1.78,0,0,0-.49,1.06Z"/><path class="cls-1" d="M180.18,216.15l-1.68,2.52,1.65,2.48h-.93l-1-1.63c-.06-.1-.14-.22-.22-.38h0s-.09.16-.23.38l-1,1.63h-.92l1.7-2.46-1.63-2.54h.93l1,1.7.21.39h0l1.25-2.09Z"/><path class="cls-1" d="M183.44,221.1a1.61,1.61,0,0,1-.75.15c-.87,0-1.31-.49-1.31-1.46v-3h-.86v-.68h.86v-1.23l.8-.25v1.48h1.26v.68h-1.26v2.82a1.17,1.17,0,0,0,.17.71.66.66,0,0,0,.57.22.85.85,0,0,0,.52-.17Z"/><path class="cls-1" d="M184.21,221v-.85a2.35,2.35,0,0,0,1.44.48c.7,0,1-.24,1-.7a.59.59,0,0,0-.09-.34.82.82,0,0,0-.24-.25,1.84,1.84,0,0,0-.37-.19l-.44-.18c-.22-.09-.42-.18-.59-.27a1.89,1.89,0,0,1-.41-.3,1.08,1.08,0,0,1-.26-.38,1.33,1.33,0,0,1-.08-.51,1.17,1.17,0,0,1,.16-.62,1.32,1.32,0,0,1,.43-.45,1.71,1.71,0,0,1,.61-.28,2.82,2.82,0,0,1,.71-.09,2.86,2.86,0,0,1,1.16.22v.81a2.27,2.27,0,0,0-1.27-.36,1.62,1.62,0,0,0-.4.05,1.12,1.12,0,0,0-.31.15.53.53,0,0,0-.2.22.57.57,0,0,0-.07.29.63.63,0,0,0,.07.32.64.64,0,0,0,.2.24,1.36,1.36,0,0,0,.34.18l.44.18c.22.09.42.17.6.26a2.11,2.11,0,0,1,.45.31,1.21,1.21,0,0,1,.28.39,1.18,1.18,0,0,1,.1.52,1.19,1.19,0,0,1-.16.64,1.48,1.48,0,0,1-.44.46,1.78,1.78,0,0,1-.63.26,3.08,3.08,0,0,1-.75.09A2.78,2.78,0,0,1,184.21,221Z"/><path class="cls-1" d="M191.19,221v-.85a2.35,2.35,0,0,0,1.44.48c.7,0,1.05-.24,1.05-.7a.59.59,0,0,0-.09-.34.82.82,0,0,0-.24-.25,1.52,1.52,0,0,0-.36-.19l-.45-.18a5.37,5.37,0,0,1-.58-.27,1.74,1.74,0,0,1-.42-.3,1.08,1.08,0,0,1-.26-.38,1.56,1.56,0,0,1-.08-.51,1.17,1.17,0,0,1,.16-.62,1.42,1.42,0,0,1,.43-.45,1.79,1.79,0,0,1,.61-.28,2.82,2.82,0,0,1,.71-.09,2.86,2.86,0,0,1,1.16.22v.81a2.25,2.25,0,0,0-1.27-.36,1.62,1.62,0,0,0-.4.05,1.28,1.28,0,0,0-.31.15.6.6,0,0,0-.2.22.57.57,0,0,0-.07.29.63.63,0,0,0,.07.32.79.79,0,0,0,.21.24,1.29,1.29,0,0,0,.33.18l.44.18c.22.09.42.17.6.26a2.11,2.11,0,0,1,.45.31,1.08,1.08,0,0,1,.28.39,1.18,1.18,0,0,1,.1.52,1.19,1.19,0,0,1-.16.64,1.38,1.38,0,0,1-.44.46,1.78,1.78,0,0,1-.63.26,2.94,2.94,0,0,1-.74.09A2.82,2.82,0,0,1,191.19,221Z"/><path class="cls-1" d="M199.78,221.15H199v-.8h0a1.65,1.65,0,0,1-1.55.91c-1.19,0-1.78-.71-1.78-2.13v-3h.79V219c0,1.05.41,1.58,1.21,1.58a1.26,1.26,0,0,0,1-.43A1.68,1.68,0,0,0,199,219v-2.88h.8Z"/><path class="cls-1" d="M204.8,220.92a2.6,2.6,0,0,1-1.37.34,2.27,2.27,0,0,1-1.72-.69,2.54,2.54,0,0,1-.66-1.81,2.78,2.78,0,0,1,.71-2,2.47,2.47,0,0,1,1.89-.75,2.64,2.64,0,0,1,1.16.24v.82a2,2,0,0,0-1.19-.39,1.64,1.64,0,0,0-1.26.55,2.13,2.13,0,0,0-.49,1.44,2,2,0,0,0,.46,1.39,1.59,1.59,0,0,0,1.24.51,2,2,0,0,0,1.23-.44Z"/><path class="cls-1" d="M210.16,221.15h-.8v-2.89c0-1-.39-1.56-1.16-1.56a1.28,1.28,0,0,0-1,.45,1.72,1.72,0,0,0-.4,1.16v2.84H206v-7.41h.8V217h0a1.81,1.81,0,0,1,1.64-.95c1.13,0,1.69.68,1.69,2Z"/><path class="cls-1" d="M218,221.15h-.8v-.79h0a1.68,1.68,0,0,1-1.54.9,1.65,1.65,0,0,1-1.17-.39,1.39,1.39,0,0,1-.42-1.05c0-.94.55-1.48,1.65-1.63l1.5-.21c0-.85-.34-1.28-1-1.28a2.46,2.46,0,0,0-1.63.62v-.82a3,3,0,0,1,1.7-.47c1.17,0,1.76.62,1.76,1.86Zm-.8-2.53-1.21.16a2,2,0,0,0-.84.28.78.78,0,0,0-.28.7.79.79,0,0,0,.26.6,1.05,1.05,0,0,0,.7.23,1.29,1.29,0,0,0,1-.42,1.49,1.49,0,0,0,.39-1.06Z"/><path class="cls-1" d="M219.2,221v-.85a2.35,2.35,0,0,0,1.44.48c.7,0,1.05-.24,1.05-.7a.59.59,0,0,0-.09-.34.82.82,0,0,0-.24-.25,1.84,1.84,0,0,0-.37-.19l-.44-.18a5.37,5.37,0,0,1-.58-.27,1.74,1.74,0,0,1-.42-.3,1.08,1.08,0,0,1-.26-.38,1.33,1.33,0,0,1-.08-.51,1.17,1.17,0,0,1,.16-.62,1.32,1.32,0,0,1,.43-.45,1.71,1.71,0,0,1,.61-.28,2.82,2.82,0,0,1,.71-.09,2.86,2.86,0,0,1,1.16.22v.81a2.27,2.27,0,0,0-1.27-.36,1.62,1.62,0,0,0-.4.05,1.12,1.12,0,0,0-.31.15.53.53,0,0,0-.2.22.57.57,0,0,0-.07.29.63.63,0,0,0,.07.32.64.64,0,0,0,.2.24,1.36,1.36,0,0,0,.34.18l.44.18c.22.09.42.17.6.26a2.11,2.11,0,0,1,.45.31,1.21,1.21,0,0,1,.28.39,1.18,1.18,0,0,1,.1.52,1.19,1.19,0,0,1-.16.64,1.48,1.48,0,0,1-.44.46,1.78,1.78,0,0,1-.63.26,3.08,3.08,0,0,1-.75.09A2.78,2.78,0,0,1,219.2,221Z"/><path class="cls-1" d="M228.8,221.1a1.61,1.61,0,0,1-.75.15c-.87,0-1.31-.49-1.31-1.46v-3h-.86v-.68h.86v-1.23l.8-.25v1.48h1.26v.68h-1.26v2.82a1.17,1.17,0,0,0,.17.71.67.67,0,0,0,.57.22.85.85,0,0,0,.52-.17Z"/><path class="cls-1" d="M230.28,214.88a.51.51,0,0,1-.37-.15.5.5,0,0,1-.15-.37.52.52,0,0,1,.15-.38.55.55,0,0,1,.37-.14.53.53,0,0,1,.37.14.49.49,0,0,1,.16.38.46.46,0,0,1-.16.36A.47.47,0,0,1,230.28,214.88Zm.39,6.27h-.8v-5h.8Z"/><path class="cls-1" d="M234.61,221.1a1.61,1.61,0,0,1-.75.15c-.87,0-1.31-.49-1.31-1.46v-3h-.86v-.68h.86v-1.23l.8-.25v1.48h1.26v.68h-1.26v2.82a1.17,1.17,0,0,0,.17.71.67.67,0,0,0,.57.22.85.85,0,0,0,.52-.17Z"/><path class="cls-1" d="M236.48,221.15h-.8v-7.41h.8Z"/><path class="cls-1" d="M242.12,218.85h-3.53a1.82,1.82,0,0,0,.45,1.28,1.53,1.53,0,0,0,1.18.46,2.46,2.46,0,0,0,1.55-.56v.75a2.89,2.89,0,0,1-1.74.48,2.07,2.07,0,0,1-1.66-.68,3.19,3.19,0,0,1,0-3.82,2.12,2.12,0,0,1,1.64-.73,1.88,1.88,0,0,1,1.52.63,2.66,2.66,0,0,1,.54,1.77Zm-.82-.68a1.6,1.6,0,0,0-.33-1.08,1.14,1.14,0,0,0-.92-.39,1.28,1.28,0,0,0-1,.41,1.78,1.78,0,0,0-.49,1.06Z"/><path class="cls-1" d="M243,221v-.85a2.38,2.38,0,0,0,1.44.48c.7,0,1.05-.24,1.05-.7a.59.59,0,0,0-.09-.34.82.82,0,0,0-.24-.25,1.52,1.52,0,0,0-.36-.19l-.45-.18c-.22-.09-.41-.18-.58-.27a1.74,1.74,0,0,1-.42-.3,1.08,1.08,0,0,1-.26-.38,1.56,1.56,0,0,1-.08-.51,1.17,1.17,0,0,1,.16-.62,1.42,1.42,0,0,1,.43-.45,1.79,1.79,0,0,1,.61-.28,3,3,0,0,1,1.87.13v.81a2.24,2.24,0,0,0-1.26-.36,1.7,1.7,0,0,0-.41.05,1.28,1.28,0,0,0-.31.15.6.6,0,0,0-.2.22.57.57,0,0,0-.07.29.63.63,0,0,0,.07.32.79.79,0,0,0,.21.24,1.29,1.29,0,0,0,.33.18l.44.18c.23.09.42.17.6.26a2.11,2.11,0,0,1,.45.31,1.08,1.08,0,0,1,.28.39,1.18,1.18,0,0,1,.1.52,1.19,1.19,0,0,1-.16.64,1.38,1.38,0,0,1-.44.46,1.78,1.78,0,0,1-.63.26,2.94,2.94,0,0,1-.74.09A2.82,2.82,0,0,1,243,221Z"/><path class="cls-1" d="M248.31,220l-.78,2.4H247l.58-2.4Z"/><path class="cls-1" d="M252.18,221v-.85a2.4,2.4,0,0,0,1.44.48c.7,0,1-.24,1-.7a.59.59,0,0,0-.09-.34.82.82,0,0,0-.24-.25,1.52,1.52,0,0,0-.36-.19l-.45-.18c-.22-.09-.41-.18-.58-.27a1.74,1.74,0,0,1-.42-.3,1.22,1.22,0,0,1-.26-.38,1.56,1.56,0,0,1-.08-.51,1.17,1.17,0,0,1,.16-.62,1.42,1.42,0,0,1,.43-.45,1.79,1.79,0,0,1,.61-.28,3,3,0,0,1,1.87.13v.81a2.24,2.24,0,0,0-1.26-.36,1.7,1.7,0,0,0-.41.05,1.28,1.28,0,0,0-.31.15.6.6,0,0,0-.2.22.57.57,0,0,0-.07.29.63.63,0,0,0,.07.32.79.79,0,0,0,.21.24,1.29,1.29,0,0,0,.33.18l.44.18c.23.09.42.17.6.26a1.88,1.88,0,0,1,.45.31,1.08,1.08,0,0,1,.28.39,1.18,1.18,0,0,1,.1.52,1.19,1.19,0,0,1-.16.64,1.38,1.38,0,0,1-.44.46,1.78,1.78,0,0,1-.63.26,2.94,2.94,0,0,1-.74.09A2.82,2.82,0,0,1,252.18,221Z"/><path class="cls-1" d="M260.77,221.15H260v-.8h0a1.64,1.64,0,0,1-1.55.91c-1.19,0-1.78-.71-1.78-2.13v-3h.79V219c0,1.05.41,1.58,1.21,1.58a1.26,1.26,0,0,0,1-.43A1.68,1.68,0,0,0,260,219v-2.88h.8Z"/><path class="cls-1" d="M263.2,220.42h0v.73h-.8v-7.41h.8V217h0a1.9,1.9,0,0,1,1.73-1,1.83,1.83,0,0,1,1.51.67,2.8,2.8,0,0,1,.54,1.8,3.07,3.07,0,0,1-.61,2,2,2,0,0,1-1.67.75A1.65,1.65,0,0,1,263.2,220.42Zm0-2v.69a1.5,1.5,0,0,0,.41,1.06,1.37,1.37,0,0,0,1,.43,1.33,1.33,0,0,0,1.14-.56,2.53,2.53,0,0,0,.41-1.55,2,2,0,0,0-.38-1.3,1.28,1.28,0,0,0-1-.48,1.4,1.4,0,0,0-1.12.49A1.8,1.8,0,0,0,263.18,218.41Z"/><path class="cls-1" d="M270.58,221.1a1.6,1.6,0,0,1-.74.15c-.88,0-1.32-.49-1.32-1.46v-3h-.86v-.68h.86v-1.23l.8-.25v1.48h1.26v.68h-1.26v2.82a1.17,1.17,0,0,0,.17.71.68.68,0,0,0,.57.22.83.83,0,0,0,.52-.17Z"/><path class="cls-1" d="M272.06,214.88a.49.49,0,0,1-.36-.15.51.51,0,0,1-.16-.37.53.53,0,0,1,.89-.38.49.49,0,0,1,.16.38.46.46,0,0,1-.16.36A.47.47,0,0,1,272.06,214.88Zm.39,6.27h-.8v-5h.8Z"/><path class="cls-1" d="M276.39,221.1a1.57,1.57,0,0,1-.74.15c-.88,0-1.32-.49-1.32-1.46v-3h-.86v-.68h.86v-1.23l.8-.25v1.48h1.26v.68h-1.26v2.82a1.17,1.17,0,0,0,.17.71.68.68,0,0,0,.57.22.83.83,0,0,0,.52-.17Z"/><path class="cls-1" d="M278.26,221.15h-.8v-7.41h.8Z"/><path class="cls-1" d="M283.9,218.85h-3.53a1.92,1.92,0,0,0,.45,1.28,1.53,1.53,0,0,0,1.18.46,2.49,2.49,0,0,0,1.56-.56v.75a2.9,2.9,0,0,1-1.75.48,2.09,2.09,0,0,1-1.66-.68,3.19,3.19,0,0,1,.05-3.82,2.12,2.12,0,0,1,1.65-.73,1.9,1.9,0,0,1,1.52.63,2.71,2.71,0,0,1,.53,1.77Zm-.82-.68a1.6,1.6,0,0,0-.33-1.08,1.14,1.14,0,0,0-.92-.39,1.28,1.28,0,0,0-1,.41,1.84,1.84,0,0,0-.49,1.06Z"/><path class="cls-1" d="M284.81,221v-.85a2.4,2.4,0,0,0,1.44.48c.7,0,1.06-.24,1.06-.7a.59.59,0,0,0-.09-.34.85.85,0,0,0-.25-.25,1.52,1.52,0,0,0-.36-.19l-.45-.18c-.22-.09-.41-.18-.58-.27a1.74,1.74,0,0,1-.42-.3,1,1,0,0,1-.25-.38,1.33,1.33,0,0,1-.09-.51,1.17,1.17,0,0,1,.16-.62,1.42,1.42,0,0,1,.43-.45,1.88,1.88,0,0,1,.61-.28,2.82,2.82,0,0,1,.71-.09,2.87,2.87,0,0,1,1.17.22v.81a2.27,2.27,0,0,0-1.27-.36,1.7,1.7,0,0,0-.41.05,1.28,1.28,0,0,0-.31.15.7.7,0,0,0-.2.22.57.57,0,0,0-.07.29.63.63,0,0,0,.07.32.79.79,0,0,0,.21.24,1.29,1.29,0,0,0,.33.18l.45.18c.22.09.42.17.59.26a1.7,1.7,0,0,1,.45.31,1.24,1.24,0,0,1,.29.39,1.34,1.34,0,0,1,.1.52,1.2,1.2,0,0,1-.17.64,1.45,1.45,0,0,1-.43.46,2,2,0,0,1-.63.26,3.08,3.08,0,0,1-.75.09A2.82,2.82,0,0,1,284.81,221Z"/><path class="cls-1" d="M290.09,220l-.78,2.4h-.57l.57-2.4Z"/><path class="cls-1" d="M131.15,230.85h-3.53a1.82,1.82,0,0,0,.45,1.28,1.52,1.52,0,0,0,1.18.46,2.46,2.46,0,0,0,1.55-.56v.75a2.89,2.89,0,0,1-1.74.48,2.11,2.11,0,0,1-1.67-.68,2.8,2.8,0,0,1-.6-1.92,2.75,2.75,0,0,1,.66-1.9,2.12,2.12,0,0,1,1.64-.73,1.88,1.88,0,0,1,1.52.63,2.66,2.66,0,0,1,.54,1.77Zm-.82-.68a1.61,1.61,0,0,0-.34-1.08,1.12,1.12,0,0,0-.91-.39,1.28,1.28,0,0,0-1,.41,1.78,1.78,0,0,0-.49,1.06Z"/><path class="cls-1" d="M134.68,233.1a1.61,1.61,0,0,1-.75.15c-.87,0-1.31-.49-1.31-1.46v-3h-.86v-.68h.86v-1.23l.8-.25v1.48h1.26v.68h-1.26v2.82a1.17,1.17,0,0,0,.17.71.66.66,0,0,0,.57.22.85.85,0,0,0,.52-.17Z"/><path class="cls-1" d="M139,232.92a2.59,2.59,0,0,1-1.36.34,2.27,2.27,0,0,1-1.73-.69,2.54,2.54,0,0,1-.66-1.81,2.78,2.78,0,0,1,.71-2,2.47,2.47,0,0,1,1.89-.75,2.64,2.64,0,0,1,1.16.24v.82a2,2,0,0,0-1.19-.39,1.61,1.61,0,0,0-1.25.55,2.08,2.08,0,0,0-.49,1.44,2,2,0,0,0,.46,1.39,1.57,1.57,0,0,0,1.23.51,2,2,0,0,0,1.23-.44Z"/><path class="cls-1" d="M143.25,233.25a.55.55,0,0,1-.54-.54.53.53,0,0,1,.16-.39.52.52,0,0,1,.38-.17.51.51,0,0,1,.39.17.54.54,0,0,1,.17.39.52.52,0,0,1-.17.38A.5.5,0,0,1,143.25,233.25Z"/><path class="cls-1" d="M145.42,233.25a.49.49,0,0,1-.38-.16.51.51,0,0,1-.16-.38.53.53,0,0,1,.16-.39.5.5,0,0,1,.38-.17.54.54,0,0,1,.39.17.53.53,0,0,1,.16.39.51.51,0,0,1-.16.38A.53.53,0,0,1,145.42,233.25Z"/><path class="cls-1" d="M147.59,233.25a.49.49,0,0,1-.38-.16.51.51,0,0,1-.16-.38.53.53,0,0,1,.16-.39.5.5,0,0,1,.38-.17.54.54,0,0,1,.39.17.53.53,0,0,1,.16.39.51.51,0,0,1-.16.38A.53.53,0,0,1,147.59,233.25Z"/><text class="cls-11" transform="translate(391.2 143.22)">Resources</text><polygon points="397.58 167.1 391.85 183.53 389.25 183.53 396.3 165.15 397.58 167.1"/><polygon points="397.58 167.1 398.94 165.15 406.45 183.53 403.67 183.53 397.58 167.1"/><polygon points="396.3 165.15 398.94 165.15 397.58 167.1 396.3 165.15"/><polygon points="406.45 183.53 403.28 181.39 394.41 181.35 393.63 183.53 406.45 183.53"/><rect x="415.66" y="165.29" width="2.45" height="18.09"/><rect x="427.51" y="165.29" width="2.38" height="18.09"/><rect x="417.94" y="172.72" width="7.75" height="2.1"/><polygon class="cls-3" points="254.82 54.17 251.75 63.94 250.36 63.94 254.14 53 254.82 54.17"/><polygon class="cls-3" points="254.82 54.17 255.55 53 259.58 63.94 258.09 63.94 254.82 54.17"/><polygon class="cls-3" points="254.14 53 255.55 53 254.82 54.17 254.14 53"/><polygon class="cls-3" points="259.58 63.94 257.88 62.66 253.13 62.64 252.71 63.94 259.58 63.94"/><rect x="443.1" y="169.24" width="2.37" height="14.25"/><rect x="437.21" y="165.51" width="14.25" height="2.12"/><text class="cls-5" transform="translate(37.79 350.48)">Secundary typography</text><path class="cls-1" d="M39.37,382.46V381.3a1.91,1.91,0,0,0,.48.32,5,5,0,0,0,.58.24c.21.06.41.11.62.15a4.13,4.13,0,0,0,.57.05,2.22,2.22,0,0,0,1.36-.34,1.12,1.12,0,0,0,.45-1,1.15,1.15,0,0,0-.15-.59,1.76,1.76,0,0,0-.41-.46,4.57,4.57,0,0,0-.63-.4l-.77-.4c-.3-.15-.57-.3-.83-.45A3.81,3.81,0,0,1,40,378a2.3,2.3,0,0,1-.44-.63,1.86,1.86,0,0,1-.16-.81,1.88,1.88,0,0,1,.25-1,2.11,2.11,0,0,1,.66-.7,3,3,0,0,1,.94-.41,4.24,4.24,0,0,1,1.07-.14,4.08,4.08,0,0,1,1.81.3v1.11a3.26,3.26,0,0,0-1.91-.52,2.88,2.88,0,0,0-.65.07,1.78,1.78,0,0,0-.57.22,1.18,1.18,0,0,0-.41.39,1,1,0,0,0-.16.59,1.18,1.18,0,0,0,.12.55,1.31,1.31,0,0,0,.36.43,3,3,0,0,0,.57.38l.77.4c.3.14.59.3.86.46a4.46,4.46,0,0,1,.71.55,2.53,2.53,0,0,1,.48.66,1.84,1.84,0,0,1,.18.83,2.09,2.09,0,0,1-.24,1.05,1.93,1.93,0,0,1-.66.7,2.88,2.88,0,0,1-1,.39,5.24,5.24,0,0,1-1.14.12l-.49,0-.6-.09a5.47,5.47,0,0,1-.58-.15A1.57,1.57,0,0,1,39.37,382.46Z"/><path class="cls-1" d="M50.86,382.8h-1v-.95h0A2,2,0,0,1,48,382.94c-1.43,0-2.14-.85-2.14-2.55V376.8h.95v3.44c0,1.26.49,1.9,1.46,1.9a1.48,1.48,0,0,0,1.15-.52,2,2,0,0,0,.46-1.36V376.8h1Z"/><path class="cls-1" d="M57.92,382.32q0,3.31-3.17,3.31a4.23,4.23,0,0,1-1.94-.42v-1a4,4,0,0,0,1.93.56c1.48,0,2.22-.79,2.22-2.36v-.65h0a2.43,2.43,0,0,1-3.86.34,3.14,3.14,0,0,1-.68-2.14,3.73,3.73,0,0,1,.73-2.43,2.44,2.44,0,0,1,2-.91,2,2,0,0,1,1.79,1h0v-.84h1Zm-1-2.23v-.88a1.7,1.7,0,0,0-.49-1.23,1.58,1.58,0,0,0-1.2-.51,1.66,1.66,0,0,0-1.39.65,2.87,2.87,0,0,0-.51,1.81,2.51,2.51,0,0,0,.48,1.61,1.58,1.58,0,0,0,1.29.6,1.69,1.69,0,0,0,1.31-.58A2.12,2.12,0,0,0,57,380.09Z"/><path class="cls-1" d="M62.37,382.94a2.77,2.77,0,0,1-2.12-.84,3.11,3.11,0,0,1-.8-2.23,3.26,3.26,0,0,1,.83-2.36,3,3,0,0,1,2.23-.85,2.71,2.71,0,0,1,2.1.83,3.27,3.27,0,0,1,.75,2.29,3.23,3.23,0,0,1-.81,2.3A2.83,2.83,0,0,1,62.37,382.94Zm.07-5.47a1.81,1.81,0,0,0-1.46.63,2.59,2.59,0,0,0-.54,1.74,2.46,2.46,0,0,0,.54,1.68,1.87,1.87,0,0,0,1.46.62,1.76,1.76,0,0,0,1.43-.61,2.57,2.57,0,0,0,.51-1.71,2.65,2.65,0,0,0-.51-1.74A1.76,1.76,0,0,0,62.44,377.47Z"/><path class="cls-1" d="M71.72,380H67.48a2.28,2.28,0,0,0,.54,1.55,1.87,1.87,0,0,0,1.42.55,3,3,0,0,0,1.86-.67v.9a3.5,3.5,0,0,1-2.09.57,2.56,2.56,0,0,1-2-.81,3.37,3.37,0,0,1-.73-2.3,3.25,3.25,0,0,1,.8-2.28,2.55,2.55,0,0,1,2-.89,2.24,2.24,0,0,1,1.82.77,3.15,3.15,0,0,1,.65,2.11Zm-1-.81a1.93,1.93,0,0,0-.4-1.3,1.39,1.39,0,0,0-1.1-.46,1.52,1.52,0,0,0-1.15.49,2.22,2.22,0,0,0-.59,1.27Z"/><path class="cls-1" d="M82.73,379.41q0,3.52-3.19,3.53t-3.06-3.4V374.4h1v5.08c0,1.72.72,2.58,2.17,2.58s2.11-.83,2.11-2.5V374.4h1Z"/><path class="cls-1" d="M85.81,382.8h-1v-8.4h1Z"/><path class="cls-1" d="M96,380H91.77a2.19,2.19,0,0,0,.54,1.55,1.85,1.85,0,0,0,1.41.55,3,3,0,0,0,1.87-.67v.9a3.52,3.52,0,0,1-2.09.57,2.54,2.54,0,0,1-2-.81,3.33,3.33,0,0,1-.73-2.3,3.25,3.25,0,0,1,.8-2.28,2.54,2.54,0,0,1,2-.89,2.26,2.26,0,0,1,1.82.77,3.15,3.15,0,0,1,.64,2.11Zm-1-.81a2,2,0,0,0-.4-1.3,1.4,1.4,0,0,0-1.1-.46,1.52,1.52,0,0,0-1.15.49,2.16,2.16,0,0,0-.59,1.27Z"/><path class="cls-1" d="M106,382.8h-1v-3.44a2.61,2.61,0,0,0-.31-1.44,1.17,1.17,0,0,0-1-.45,1.28,1.28,0,0,0-1,.56,2.16,2.16,0,0,0-.43,1.35v3.42h-1v-3.56c0-1.18-.46-1.77-1.37-1.77a1.27,1.27,0,0,0-1,.53,2.24,2.24,0,0,0-.41,1.38v3.42h-1v-6h1v.95h0a2.06,2.06,0,0,1,1.87-1.09,1.74,1.74,0,0,1,1.07.35,1.66,1.66,0,0,1,.62.9,2.15,2.15,0,0,1,2-1.25c1.32,0,2,.82,2,2.45Z"/><path class="cls-1" d="M110.3,382.94a2.77,2.77,0,0,1-2.12-.84,3.11,3.11,0,0,1-.8-2.23,3.26,3.26,0,0,1,.83-2.36,3,3,0,0,1,2.23-.85,2.71,2.71,0,0,1,2.1.83,3.27,3.27,0,0,1,.75,2.29,3.23,3.23,0,0,1-.81,2.3A2.83,2.83,0,0,1,110.3,382.94Zm.07-5.47a1.81,1.81,0,0,0-1.46.63,2.59,2.59,0,0,0-.54,1.74,2.46,2.46,0,0,0,.54,1.68,1.87,1.87,0,0,0,1.46.62,1.76,1.76,0,0,0,1.43-.61,2.57,2.57,0,0,0,.51-1.71,2.65,2.65,0,0,0-.51-1.74A1.76,1.76,0,0,0,110.37,377.47Z"/><path class="cls-1" d="M115.79,382.55a3.73,3.73,0,0,1-.6,2.28,2,2,0,0,1-1.7.8,1.77,1.77,0,0,1-.8-.19v-.9a1.56,1.56,0,0,0,.82.27c.88,0,1.31-.7,1.31-2.1V376.8h1Zm-.47-7.27a.59.59,0,0,1-.44-.18.57.57,0,0,1-.18-.44.61.61,0,0,1,.18-.45.59.59,0,0,1,.44-.18.6.6,0,0,1,.44.18.58.58,0,0,1,.19.45.58.58,0,0,1-.19.44A.6.6,0,0,1,115.32,375.28Z"/><path class="cls-1" d="M118.22,375.28a.6.6,0,0,1-.44-.18.57.57,0,0,1-.18-.44.61.61,0,0,1,.18-.45.6.6,0,0,1,.44-.18.61.61,0,0,1,.45.18.62.62,0,0,1,0,.89A.61.61,0,0,1,118.22,375.28Zm.47,7.52h-1v-6h1Z"/><path class="cls-1" d="M45.06,403.57H43v6.26h-.82v-6.26h-2v-.75h4.86Z"/><path class="cls-1" d="M50.2,409.83h-.8V407c0-1.05-.39-1.57-1.16-1.57a1.28,1.28,0,0,0-1,.45,1.74,1.74,0,0,0-.4,1.16v2.84h-.8v-7.41h.8v3.24h0a1.81,1.81,0,0,1,1.64-1c1.13,0,1.69.68,1.69,2Z"/><path class="cls-1" d="M52.12,403.56a.49.49,0,0,1-.36-.15.51.51,0,0,1-.16-.37.53.53,0,0,1,.52-.52.54.54,0,0,1,.38.15.48.48,0,0,1,.15.37.53.53,0,0,1-.15.37A.54.54,0,0,1,52.12,403.56Zm.39,6.27h-.8v-5h.8Z"/><path class="cls-1" d="M53.83,409.65v-.86a2.4,2.4,0,0,0,1.44.48c.7,0,1.06-.23,1.06-.7a.59.59,0,0,0-.09-.34A.75.75,0,0,0,56,408a2,2,0,0,0-.36-.19l-.45-.18c-.22-.09-.41-.18-.58-.27a1.74,1.74,0,0,1-.42-.3,1,1,0,0,1-.25-.38,1.33,1.33,0,0,1-.09-.51,1.17,1.17,0,0,1,.16-.62,1.42,1.42,0,0,1,.43-.45,2.12,2.12,0,0,1,.61-.28,3.07,3.07,0,0,1,1.88.13v.81a2.27,2.27,0,0,0-1.27-.36,1.7,1.7,0,0,0-.41.05,1.28,1.28,0,0,0-.31.15.7.7,0,0,0-.2.22.57.57,0,0,0-.07.29.61.61,0,0,0,.07.32.79.79,0,0,0,.21.24,1.29,1.29,0,0,0,.33.18l.45.18.59.26a2,2,0,0,1,.45.31,1.11,1.11,0,0,1,.29.39,1.34,1.34,0,0,1,.1.52,1.2,1.2,0,0,1-.17.64,1.45,1.45,0,0,1-.43.46,2.22,2.22,0,0,1-.63.27,3.67,3.67,0,0,1-.75.08A2.94,2.94,0,0,1,53.83,409.65Z"/><path class="cls-1" d="M63.44,409.78a1.61,1.61,0,0,1-.75.15c-.88,0-1.31-.48-1.31-1.46v-3h-.86v-.68h.86v-1.22l.8-.26v1.48h1.26v.68H62.18v2.82a1.16,1.16,0,0,0,.17.72.68.68,0,0,0,.56.21.86.86,0,0,0,.53-.17Z"/><path class="cls-1" d="M68.48,404.83l-2.3,5.8c-.41,1-1,1.55-1.72,1.55a2,2,0,0,1-.53-.06v-.72a1.49,1.49,0,0,0,.48.09c.4,0,.7-.24.91-.73l.4-.94-2-5h.89L66,408.67a3.42,3.42,0,0,1,.11.39h0a2.7,2.7,0,0,1,.09-.38l1.42-3.85Z"/><path class="cls-1" d="M70.16,409.1h0v3h-.8v-7.3h.8v.88h0a1.89,1.89,0,0,1,1.73-1,1.82,1.82,0,0,1,1.51.67,2.8,2.8,0,0,1,.54,1.8,3.07,3.07,0,0,1-.61,2,2,2,0,0,1-1.67.75A1.69,1.69,0,0,1,70.16,409.1Zm0-2v.7a1.49,1.49,0,0,0,.41,1,1.43,1.43,0,0,0,2.16-.13,2.49,2.49,0,0,0,.41-1.54,2,2,0,0,0-.38-1.31,1.28,1.28,0,0,0-1-.48,1.43,1.43,0,0,0-1.12.49A1.8,1.8,0,0,0,70.14,407.09Z"/><path class="cls-1" d="M79.24,407.53H75.71a1.87,1.87,0,0,0,.45,1.29,1.56,1.56,0,0,0,1.18.45,2.44,2.44,0,0,0,1.55-.56v.76a2.94,2.94,0,0,1-1.74.47,2.09,2.09,0,0,1-1.66-.68,3.19,3.19,0,0,1,.05-3.82,2.12,2.12,0,0,1,1.65-.73,1.86,1.86,0,0,1,1.51.63,2.66,2.66,0,0,1,.54,1.77Zm-.82-.68a1.62,1.62,0,0,0-.33-1.08,1.14,1.14,0,0,0-.92-.39,1.28,1.28,0,0,0-1,.41,1.84,1.84,0,0,0-.49,1.06Z"/><path class="cls-1" d="M82.92,403.13a1,1,0,0,0-.53-.13c-.56,0-.84.35-.84,1.06v.77h1.17v.68H81.55v4.32h-.79v-4.32H79.9v-.68h.86V404a1.71,1.71,0,0,1,.45-1.25,1.54,1.54,0,0,1,1.13-.45,1.75,1.75,0,0,1,.58.08Z"/><path class="cls-1" d="M87.16,409.83h-.8v-.78h0a1.84,1.84,0,0,1-2.71.5,1.39,1.39,0,0,1-.42-1.05c0-.94.55-1.48,1.65-1.63l1.5-.21c0-.85-.34-1.28-1-1.28a2.46,2.46,0,0,0-1.63.62v-.82a3.12,3.12,0,0,1,1.7-.47c1.17,0,1.76.62,1.76,1.86Zm-.8-2.53-1.21.16a2,2,0,0,0-.84.28.81.81,0,0,0-.28.7.79.79,0,0,0,.26.6,1.05,1.05,0,0,0,.7.23,1.27,1.27,0,0,0,1-.42,1.48,1.48,0,0,0,.39-1.05Z"/><path class="cls-1" d="M92.08,409.6a2.63,2.63,0,0,1-1.37.34,2.29,2.29,0,0,1-1.73-.69,2.57,2.57,0,0,1-.65-1.81,2.73,2.73,0,0,1,.71-2,2.47,2.47,0,0,1,1.89-.75,2.67,2.67,0,0,1,1.16.24v.82a2,2,0,0,0-1.19-.39,1.64,1.64,0,0,0-1.26.55,2.09,2.09,0,0,0-.49,1.45,2,2,0,0,0,.46,1.38,1.59,1.59,0,0,0,1.24.51,2.09,2.09,0,0,0,1.23-.43Z"/><path class="cls-1" d="M97.31,407.53H93.78a1.87,1.87,0,0,0,.45,1.29,1.54,1.54,0,0,0,1.18.45,2.46,2.46,0,0,0,1.55-.56v.76a3,3,0,0,1-1.74.47,2.11,2.11,0,0,1-1.67-.68,2.79,2.79,0,0,1-.6-1.91,2.76,2.76,0,0,1,.66-1.91,2.12,2.12,0,0,1,1.64-.73,1.88,1.88,0,0,1,1.52.63,2.66,2.66,0,0,1,.54,1.77Zm-.82-.68a1.68,1.68,0,0,0-.34-1.08,1.12,1.12,0,0,0-.91-.39,1.28,1.28,0,0,0-1,.41,1.78,1.78,0,0,0-.49,1.06Z"/><path class="cls-1" d="M101,409.65v-.86a2.35,2.35,0,0,0,1.44.48c.7,0,1-.23,1-.7a.59.59,0,0,0-.09-.34.82.82,0,0,0-.24-.25,2.55,2.55,0,0,0-.37-.19l-.44-.18c-.22-.09-.42-.18-.59-.27a1.89,1.89,0,0,1-.41-.3,1.08,1.08,0,0,1-.26-.38,1.33,1.33,0,0,1-.08-.51,1.17,1.17,0,0,1,.16-.62,1.32,1.32,0,0,1,.43-.45,1.9,1.9,0,0,1,.61-.28,2.82,2.82,0,0,1,.71-.09,2.86,2.86,0,0,1,1.16.22v.81a2.27,2.27,0,0,0-1.27-.36,1.62,1.62,0,0,0-.4.05,1.12,1.12,0,0,0-.31.15.53.53,0,0,0-.2.22.57.57,0,0,0-.07.29.61.61,0,0,0,.07.32.64.64,0,0,0,.2.24,1.36,1.36,0,0,0,.34.18l.44.18.6.26a2.55,2.55,0,0,1,.45.31,1.21,1.21,0,0,1,.28.39,1.18,1.18,0,0,1,.1.52,1.19,1.19,0,0,1-.16.64,1.48,1.48,0,0,1-.44.46,2,2,0,0,1-.63.27,3.67,3.67,0,0,1-.75.08A2.9,2.9,0,0,1,101,409.65Z"/><path class="cls-1" d="M109.65,409.83h-.8V407c0-1.05-.39-1.57-1.16-1.57a1.28,1.28,0,0,0-1,.45,1.74,1.74,0,0,0-.4,1.16v2.84h-.8v-7.41h.8v3.24h0a1.81,1.81,0,0,1,1.64-1c1.13,0,1.69.68,1.69,2Z"/><path class="cls-1" d="M113.25,409.94a2.31,2.31,0,0,1-1.77-.7,2.57,2.57,0,0,1-.66-1.85,2.7,2.7,0,0,1,.69-2,2.45,2.45,0,0,1,1.86-.71,2.24,2.24,0,0,1,1.74.69,2.72,2.72,0,0,1,.63,1.91,2.69,2.69,0,0,1-.68,1.91A2.36,2.36,0,0,1,113.25,409.94Zm.06-4.56a1.52,1.52,0,0,0-1.22.53,2.15,2.15,0,0,0-.45,1.45,2,2,0,0,0,.45,1.4,1.56,1.56,0,0,0,1.22.51,1.47,1.47,0,0,0,1.19-.5,2.2,2.2,0,0,0,.42-1.43,2.22,2.22,0,0,0-.42-1.45A1.45,1.45,0,0,0,113.31,405.38Z"/><path class="cls-1" d="M121.06,409.83h-.8V409h0a1.64,1.64,0,0,1-1.54.9c-1.19,0-1.79-.71-1.79-2.13v-3h.8v2.86c0,1.05.4,1.58,1.21,1.58a1.21,1.21,0,0,0,1-.43,1.63,1.63,0,0,0,.38-1.13v-2.88h.8Z"/><path class="cls-1" d="M123.48,409.83h-.8v-7.41h.8Z"/><path class="cls-1" d="M129.37,409.83h-.8V409h0a2,2,0,0,1-3.23.29,2.78,2.78,0,0,1-.56-1.83,3,3,0,0,1,.62-2,2.08,2.08,0,0,1,1.67-.75,1.6,1.6,0,0,1,1.5.81h0v-3.1h.8Zm-.8-2.26v-.74a1.46,1.46,0,0,0-.4-1,1.36,1.36,0,0,0-1-.42,1.37,1.37,0,0,0-1.15.54,2.35,2.35,0,0,0-.42,1.48,2.11,2.11,0,0,0,.4,1.37,1.33,1.33,0,0,0,1.08.5,1.38,1.38,0,0,0,1.09-.48A1.81,1.81,0,0,0,128.57,407.57Z"/><path class="cls-1" d="M134.55,409.1h0v.73h-.8v-7.41h.8v3.29h0a1.88,1.88,0,0,1,1.73-1,1.81,1.81,0,0,1,1.5.67,2.74,2.74,0,0,1,.55,1.8,3.07,3.07,0,0,1-.61,2,2,2,0,0,1-1.67.75A1.65,1.65,0,0,1,134.55,409.1Zm0-2v.7a1.48,1.48,0,0,0,.4,1,1.34,1.34,0,0,0,1,.43,1.36,1.36,0,0,0,1.14-.56,2.56,2.56,0,0,0,.41-1.54,2,2,0,0,0-.39-1.31,1.25,1.25,0,0,0-1-.48,1.45,1.45,0,0,0-1.13.49A1.79,1.79,0,0,0,134.53,407.09Z"/><path class="cls-1" d="M143.63,407.53H140.1a1.87,1.87,0,0,0,.45,1.29,1.54,1.54,0,0,0,1.18.45,2.46,2.46,0,0,0,1.55-.56v.76a3,3,0,0,1-1.74.47,2.09,2.09,0,0,1-1.67-.68,2.79,2.79,0,0,1-.6-1.91,2.76,2.76,0,0,1,.66-1.91,2.12,2.12,0,0,1,1.64-.73,1.9,1.9,0,0,1,1.52.63,2.66,2.66,0,0,1,.54,1.77Zm-.82-.68a1.68,1.68,0,0,0-.34-1.08,1.12,1.12,0,0,0-.91-.39,1.32,1.32,0,0,0-1,.41,1.83,1.83,0,0,0-.48,1.06Z"/><path class="cls-1" d="M151.62,409.83h-.8V409h0a1.65,1.65,0,0,1-1.54.9c-1.2,0-1.79-.71-1.79-2.13v-3h.79v2.86c0,1.05.41,1.58,1.22,1.58a1.21,1.21,0,0,0,1-.43,1.68,1.68,0,0,0,.38-1.13v-2.88h.8Z"/><path class="cls-1" d="M152.93,409.65v-.86a2.4,2.4,0,0,0,1.44.48c.71,0,1.06-.23,1.06-.7a.59.59,0,0,0-.09-.34.75.75,0,0,0-.25-.25,2,2,0,0,0-.36-.19l-.44-.18a5.6,5.6,0,0,1-.59-.27,1.74,1.74,0,0,1-.42-.3,1.19,1.19,0,0,1-.25-.38,1.33,1.33,0,0,1-.09-.51,1.27,1.27,0,0,1,.16-.62,1.42,1.42,0,0,1,.43-.45,2.06,2.06,0,0,1,.62-.28,2.76,2.76,0,0,1,.71-.09,2.86,2.86,0,0,1,1.16.22v.81a2.27,2.27,0,0,0-1.27-.36,1.7,1.7,0,0,0-.41.05,1.28,1.28,0,0,0-.31.15.7.7,0,0,0-.2.22.69.69,0,0,0-.07.29.72.72,0,0,0,.07.32.79.79,0,0,0,.21.24,1.29,1.29,0,0,0,.33.18l.45.18.59.26a2,2,0,0,1,.45.31,1.11,1.11,0,0,1,.29.39,1.18,1.18,0,0,1,.1.52,1.29,1.29,0,0,1-.16.64,1.48,1.48,0,0,1-.44.46,2,2,0,0,1-.63.27,3.67,3.67,0,0,1-.75.08A3,3,0,0,1,152.93,409.65Z"/><path class="cls-1" d="M161.5,407.53H158a1.87,1.87,0,0,0,.45,1.29,1.54,1.54,0,0,0,1.18.45,2.46,2.46,0,0,0,1.55-.56v.76a3,3,0,0,1-1.74.47,2.11,2.11,0,0,1-1.67-.68,2.79,2.79,0,0,1-.6-1.91,2.76,2.76,0,0,1,.66-1.91,2.12,2.12,0,0,1,1.64-.73,1.88,1.88,0,0,1,1.52.63,2.66,2.66,0,0,1,.54,1.77Zm-.82-.68a1.68,1.68,0,0,0-.34-1.08,1.12,1.12,0,0,0-.91-.39,1.28,1.28,0,0,0-1,.41,1.78,1.78,0,0,0-.49,1.06Z"/><path class="cls-1" d="M167,409.83h-.8V409h0a2,2,0,0,1-3.23.29,2.72,2.72,0,0,1-.56-1.83,3,3,0,0,1,.62-2,2.06,2.06,0,0,1,1.67-.75,1.62,1.62,0,0,1,1.5.81h0v-3.1h.8Zm-.8-2.26v-.74a1.43,1.43,0,0,0-.41-1,1.32,1.32,0,0,0-1-.42,1.37,1.37,0,0,0-1.15.54,2.35,2.35,0,0,0-.42,1.48,2.11,2.11,0,0,0,.4,1.37,1.33,1.33,0,0,0,1.08.5,1.38,1.38,0,0,0,1.09-.48A1.81,1.81,0,0,0,166.18,407.57Z"/><path class="cls-1" d="M43.28,415.13a1,1,0,0,0-.53-.13c-.56,0-.84.35-.84,1.06v.77h1.17v.68H41.91v4.32h-.79v-4.32h-.86v-.68h.86V416a1.71,1.71,0,0,1,.45-1.25,1.54,1.54,0,0,1,1.13-.45,1.75,1.75,0,0,1,.58.08Z"/><path class="cls-1" d="M46,421.94a2.31,2.31,0,0,1-1.77-.7,2.57,2.57,0,0,1-.66-1.85,2.7,2.7,0,0,1,.69-2,2.45,2.45,0,0,1,1.86-.71,2.25,2.25,0,0,1,1.75.69,2.76,2.76,0,0,1,.62,1.91,2.68,2.68,0,0,1-.67,1.91A2.38,2.38,0,0,1,46,421.94Zm.06-4.56a1.53,1.53,0,0,0-1.22.53,2.15,2.15,0,0,0-.45,1.45,2,2,0,0,0,.46,1.4,1.53,1.53,0,0,0,1.21.51,1.49,1.49,0,0,0,1.2-.5,2.73,2.73,0,0,0,0-2.88A1.47,1.47,0,0,0,46.09,417.38Z"/><path class="cls-1" d="M52.41,417.64a1,1,0,0,0-.6-.16A1,1,0,0,0,51,418a2.22,2.22,0,0,0-.35,1.32v2.55h-.8v-5h.8v1h0a1.81,1.81,0,0,1,.53-.83,1.2,1.2,0,0,1,.78-.29,1.22,1.22,0,0,1,.48.07Z"/><path class="cls-1" d="M56.82,421.83H56v-7.41h.8Z"/><path class="cls-1" d="M60.53,421.94a2.31,2.31,0,0,1-1.77-.7,2.57,2.57,0,0,1-.66-1.85,2.7,2.7,0,0,1,.69-2,2.45,2.45,0,0,1,1.86-.71,2.24,2.24,0,0,1,1.74.69,2.72,2.72,0,0,1,.63,1.91,2.68,2.68,0,0,1-.67,1.91A2.39,2.39,0,0,1,60.53,421.94Zm.06-4.56a1.52,1.52,0,0,0-1.22.53,2.15,2.15,0,0,0-.45,1.45,2,2,0,0,0,.45,1.4,1.56,1.56,0,0,0,1.22.51,1.46,1.46,0,0,0,1.19-.5,2.2,2.2,0,0,0,.42-1.43,2.22,2.22,0,0,0-.42-1.45A1.43,1.43,0,0,0,60.59,417.38Z"/><path class="cls-1" d="M68.45,421.83h-.8V419c0-1.06-.39-1.59-1.16-1.59a1.29,1.29,0,0,0-1,.45A1.71,1.71,0,0,0,65.1,419v2.86h-.8v-5h.8v.83h0a1.8,1.8,0,0,1,1.64-1,1.55,1.55,0,0,1,1.26.53,2.34,2.34,0,0,1,.43,1.53Z"/><path class="cls-1" d="M74.23,421.43c0,1.83-.88,2.75-2.64,2.75a3.58,3.58,0,0,1-1.62-.35V423a3.35,3.35,0,0,0,1.61.47c1.23,0,1.85-.66,1.85-2V421h0a2,2,0,0,1-3.22.29,2.67,2.67,0,0,1-.57-1.79,3.11,3.11,0,0,1,.61-2,2.06,2.06,0,0,1,1.68-.75,1.64,1.64,0,0,1,1.5.81h0v-.69h.8Zm-.8-1.86v-.74a1.42,1.42,0,0,0-.41-1,1.3,1.3,0,0,0-1-.43,1.38,1.38,0,0,0-1.16.54,2.42,2.42,0,0,0-.42,1.51,2.06,2.06,0,0,0,.4,1.34,1.32,1.32,0,0,0,1.07.5,1.38,1.38,0,0,0,1.09-.48A1.75,1.75,0,0,0,73.43,419.57Z"/><path class="cls-1" d="M82.17,421.83h-.8v-.78h0a1.7,1.7,0,0,1-1.54.89,1.65,1.65,0,0,1-1.17-.39,1.39,1.39,0,0,1-.42-1.05c0-.94.55-1.48,1.65-1.63l1.5-.21c0-.85-.35-1.28-1-1.28a2.49,2.49,0,0,0-1.64.62v-.82a3.15,3.15,0,0,1,1.7-.47q1.77,0,1.77,1.86Zm-.8-2.53-1.21.16a2,2,0,0,0-.84.28.78.78,0,0,0-.28.7.76.76,0,0,0,.26.6,1,1,0,0,0,.69.23,1.29,1.29,0,0,0,1-.42,1.48,1.48,0,0,0,.39-1.05Z"/><path class="cls-1" d="M87.83,421.83H87V419c0-1.06-.38-1.59-1.16-1.59a1.25,1.25,0,0,0-1,.45,1.71,1.71,0,0,0-.39,1.14v2.86h-.8v-5h.8v.83h0a1.78,1.78,0,0,1,1.64-1,1.54,1.54,0,0,1,1.25.53,2.35,2.35,0,0,1,.44,1.53Z"/><path class="cls-1" d="M93.6,421.83h-.8V421h0a2,2,0,0,1-3.22.29,2.73,2.73,0,0,1-.57-1.83,3,3,0,0,1,.63-2,2,2,0,0,1,1.66-.75,1.6,1.6,0,0,1,1.5.81h0v-3.1h.8Zm-.8-2.26v-.74a1.42,1.42,0,0,0-.4-1,1.34,1.34,0,0,0-1-.42,1.39,1.39,0,0,0-1.16.54,2.35,2.35,0,0,0-.42,1.48,2.11,2.11,0,0,0,.41,1.37,1.32,1.32,0,0,0,1.08.5,1.36,1.36,0,0,0,1.08-.48A1.81,1.81,0,0,0,92.8,419.57Z"/><path class="cls-1" d="M101.37,421.6a2.6,2.6,0,0,1-1.37.34,2.27,2.27,0,0,1-1.72-.69,2.54,2.54,0,0,1-.66-1.81,2.78,2.78,0,0,1,.71-2,2.47,2.47,0,0,1,1.89-.75,2.64,2.64,0,0,1,1.16.24v.82a2,2,0,0,0-1.19-.39,1.64,1.64,0,0,0-1.26.55,2.09,2.09,0,0,0-.49,1.45,2,2,0,0,0,.46,1.38,1.59,1.59,0,0,0,1.24.51,2,2,0,0,0,1.23-.43Z"/><path class="cls-1" d="M104.67,421.94a2.31,2.31,0,0,1-1.77-.7,2.57,2.57,0,0,1-.66-1.85,2.7,2.7,0,0,1,.69-2,2.45,2.45,0,0,1,1.86-.71,2.22,2.22,0,0,1,1.74.69,2.72,2.72,0,0,1,.63,1.91,2.68,2.68,0,0,1-.67,1.91A2.39,2.39,0,0,1,104.67,421.94Zm.06-4.56a1.53,1.53,0,0,0-1.22.53,2.15,2.15,0,0,0-.45,1.45,2,2,0,0,0,.45,1.4,1.56,1.56,0,0,0,1.22.51,1.46,1.46,0,0,0,1.19-.5,2.2,2.2,0,0,0,.42-1.43,2.22,2.22,0,0,0-.42-1.45A1.43,1.43,0,0,0,104.73,417.38Z"/><path class="cls-1" d="M115.54,421.83h-.8V419a2.19,2.19,0,0,0-.26-1.21,1,1,0,0,0-.86-.37,1.08,1.08,0,0,0-.87.47,1.79,1.79,0,0,0-.36,1.12v2.86h-.8v-3c0-1-.38-1.48-1.14-1.48a1.07,1.07,0,0,0-.87.44,1.89,1.89,0,0,0-.34,1.15v2.86h-.8v-5h.8v.79h0a1.69,1.69,0,0,1,1.55-.91,1.46,1.46,0,0,1,.9.28,1.43,1.43,0,0,1,.52.75,1.77,1.77,0,0,1,1.66-1q1.65,0,1.65,2Z"/><path class="cls-1" d="M117.87,421.1h0v3h-.8v-7.3h.8v.88h0a1.89,1.89,0,0,1,1.73-1,1.82,1.82,0,0,1,1.51.67,2.8,2.8,0,0,1,.54,1.8,3.07,3.07,0,0,1-.61,2,2,2,0,0,1-1.67.75A1.69,1.69,0,0,1,117.87,421.1Zm0-2v.7a1.49,1.49,0,0,0,.41,1,1.43,1.43,0,0,0,2.16-.13,2.49,2.49,0,0,0,.41-1.54,2,2,0,0,0-.38-1.31,1.28,1.28,0,0,0-1-.48,1.43,1.43,0,0,0-1.12.49A1.8,1.8,0,0,0,117.85,419.09Z"/><path class="cls-1" d="M123.73,421.83h-.8v-7.41h.8Z"/><path class="cls-1" d="M129.37,419.53h-3.53a2,2,0,0,0,.45,1.29,1.56,1.56,0,0,0,1.18.45,2.47,2.47,0,0,0,1.56-.56v.76a3,3,0,0,1-1.75.47,2.09,2.09,0,0,1-1.66-.68,2.79,2.79,0,0,1-.61-1.91,2.72,2.72,0,0,1,.67-1.91,2.1,2.1,0,0,1,1.64-.73,1.9,1.9,0,0,1,1.52.63,2.71,2.71,0,0,1,.53,1.77Zm-.82-.68a1.62,1.62,0,0,0-.33-1.08,1.14,1.14,0,0,0-.92-.39,1.3,1.3,0,0,0-1,.41,1.84,1.84,0,0,0-.49,1.06Z"/><path class="cls-1" d="M137.68,421.83h-.8V419a2.21,2.21,0,0,0-.25-1.21,1,1,0,0,0-.87-.37,1.08,1.08,0,0,0-.87.47,1.79,1.79,0,0,0-.36,1.12v2.86h-.8v-3c0-1-.38-1.48-1.13-1.48a1,1,0,0,0-.87.44,1.83,1.83,0,0,0-.34,1.15v2.86h-.81v-5h.81v.79h0a1.71,1.71,0,0,1,1.56-.91,1.42,1.42,0,0,1,1.41,1,1.78,1.78,0,0,1,1.66-1q1.65,0,1.65,2Z"/><path class="cls-1" d="M143.22,419.53h-3.53a1.87,1.87,0,0,0,.45,1.29,1.54,1.54,0,0,0,1.18.45,2.46,2.46,0,0,0,1.55-.56v.76a3,3,0,0,1-1.74.47,2.09,2.09,0,0,1-1.67-.68,2.79,2.79,0,0,1-.6-1.91,2.76,2.76,0,0,1,.66-1.91,2.12,2.12,0,0,1,1.64-.73,1.9,1.9,0,0,1,1.52.63,2.66,2.66,0,0,1,.54,1.77Zm-.82-.68a1.68,1.68,0,0,0-.34-1.08,1.12,1.12,0,0,0-.91-.39,1.32,1.32,0,0,0-1,.41,1.83,1.83,0,0,0-.48,1.06Z"/><path class="cls-1" d="M148.58,421.83h-.8V419q0-1.59-1.17-1.59a1.25,1.25,0,0,0-1,.45,1.71,1.71,0,0,0-.39,1.14v2.86h-.8v-5h.8v.83h0a1.79,1.79,0,0,1,1.64-1,1.54,1.54,0,0,1,1.25.53,2.35,2.35,0,0,1,.44,1.53Z"/><path class="cls-1" d="M152.41,421.78a1.61,1.61,0,0,1-.75.15c-.88,0-1.31-.48-1.31-1.46v-3h-.86v-.68h.86v-1.22l.8-.26v1.48h1.26v.68h-1.26v2.82a1.16,1.16,0,0,0,.17.72.68.68,0,0,0,.56.21.86.86,0,0,0,.53-.17Z"/><path class="cls-1" d="M157.05,421.83h-.8v-.78h0a1.67,1.67,0,0,1-1.53.89,1.65,1.65,0,0,1-1.17-.39,1.37,1.37,0,0,1-.43-1.05c0-.94.55-1.48,1.65-1.63l1.5-.21c0-.85-.34-1.28-1-1.28a2.48,2.48,0,0,0-1.63.62v-.82a3.12,3.12,0,0,1,1.7-.47c1.18,0,1.76.62,1.76,1.86Zm-.8-2.53-1.2.16a2,2,0,0,0-.84.28.79.79,0,0,0-.29.7.77.77,0,0,0,.27.6,1,1,0,0,0,.69.23,1.29,1.29,0,0,0,1-.42,1.52,1.52,0,0,0,.38-1.05Z"/><path class="cls-1" d="M161.17,417.64a1,1,0,0,0-.61-.16,1,1,0,0,0-.85.48,2.22,2.22,0,0,0-.35,1.32v2.55h-.8v-5h.8v1h0a1.81,1.81,0,0,1,.53-.83,1.2,1.2,0,0,1,.78-.29,1.22,1.22,0,0,1,.48.07Z"/><path class="cls-1" d="M166.42,416.83l-2.3,5.8c-.41,1-1,1.55-1.73,1.55a1.9,1.9,0,0,1-.52-.06v-.72a1.44,1.44,0,0,0,.47.09,1,1,0,0,0,.91-.73l.4-.94-2-5h.89l1.35,3.84c0,.05.05.18.1.39h0c0-.08.05-.21.1-.38l1.42-3.85Z"/><path class="cls-1" d="M43.13,433.78a1.57,1.57,0,0,1-.74.15c-.88,0-1.32-.48-1.32-1.46v-3h-.86v-.68h.86v-1.22l.8-.26v1.48h1.26v.68H41.87v2.82a1.23,1.23,0,0,0,.17.72.71.71,0,0,0,.57.21.83.83,0,0,0,.52-.17Z"/><path class="cls-1" d="M48.14,431.53H44.61a2,2,0,0,0,.45,1.29,1.56,1.56,0,0,0,1.18.45,2.49,2.49,0,0,0,1.56-.56v.76a3,3,0,0,1-1.75.47,2.09,2.09,0,0,1-1.66-.68,3.19,3.19,0,0,1,0-3.82,2.14,2.14,0,0,1,1.65-.73,1.9,1.9,0,0,1,1.52.63,2.71,2.71,0,0,1,.53,1.77Zm-.82-.68a1.62,1.62,0,0,0-.33-1.08,1.14,1.14,0,0,0-.92-.39,1.28,1.28,0,0,0-1,.41,1.84,1.84,0,0,0-.49,1.06Z"/><path class="cls-1" d="M53,428.83l-1.68,2.53L53,433.83H52l-1-1.62-.22-.39h0s-.09.16-.23.39l-1,1.62h-.92l1.7-2.45-1.63-2.55h.94l1,1.71.21.39h0l1.25-2.1Z"/><path class="cls-1" d="M56.26,433.78a1.57,1.57,0,0,1-.74.15c-.88,0-1.32-.48-1.32-1.46v-3h-.86v-.68h.86v-1.22l.8-.26v1.48h1.26v.68H55v2.82a1.23,1.23,0,0,0,.17.72.71.71,0,0,0,.57.21.83.83,0,0,0,.52-.17Z"/><path class="cls-1" d="M57,433.65v-.86a2.4,2.4,0,0,0,1.44.48c.7,0,1.05-.23,1.05-.7a.59.59,0,0,0-.09-.34.82.82,0,0,0-.24-.25,2,2,0,0,0-.36-.19l-.45-.18c-.22-.09-.41-.18-.58-.27a1.74,1.74,0,0,1-.42-.3,1,1,0,0,1-.25-.38,1.33,1.33,0,0,1-.09-.51,1.17,1.17,0,0,1,.16-.62,1.42,1.42,0,0,1,.43-.45,2,2,0,0,1,.61-.28,2.82,2.82,0,0,1,.71-.09,2.91,2.91,0,0,1,1.17.22v.81a2.3,2.3,0,0,0-1.27-.36,1.7,1.7,0,0,0-.41.05,1.28,1.28,0,0,0-.31.15.6.6,0,0,0-.2.22.57.57,0,0,0-.07.29.61.61,0,0,0,.07.32.79.79,0,0,0,.21.24,1.29,1.29,0,0,0,.33.18l.44.18.6.26a2,2,0,0,1,.45.31,1.08,1.08,0,0,1,.28.39,1.17,1.17,0,0,1,.11.52,1.2,1.2,0,0,1-.17.64,1.38,1.38,0,0,1-.44.46,2,2,0,0,1-.63.27,3.5,3.5,0,0,1-.74.08A2.94,2.94,0,0,1,57,433.65Z"/><path class="cls-1" d="M64,433.65v-.86a2.4,2.4,0,0,0,1.44.48c.71,0,1.06-.23,1.06-.7a.59.59,0,0,0-.09-.34.75.75,0,0,0-.25-.25,2,2,0,0,0-.36-.19l-.45-.18c-.22-.09-.41-.18-.58-.27a1.74,1.74,0,0,1-.42-.3,1,1,0,0,1-.25-.38,1.33,1.33,0,0,1-.09-.51,1.27,1.27,0,0,1,.16-.62,1.42,1.42,0,0,1,.43-.45,2.12,2.12,0,0,1,.61-.28,2.9,2.9,0,0,1,.72-.09,2.86,2.86,0,0,1,1.16.22v.81a2.27,2.27,0,0,0-1.27-.36,1.7,1.7,0,0,0-.41.05,1.28,1.28,0,0,0-.31.15.7.7,0,0,0-.2.22.69.69,0,0,0-.07.29.72.72,0,0,0,.07.32.79.79,0,0,0,.21.24,1.29,1.29,0,0,0,.33.18l.45.18.59.26a2,2,0,0,1,.45.31,1.11,1.11,0,0,1,.29.39,1.34,1.34,0,0,1,.1.52,1.2,1.2,0,0,1-.17.64,1.35,1.35,0,0,1-.43.46,2.22,2.22,0,0,1-.63.27,3.67,3.67,0,0,1-.75.08A3,3,0,0,1,64,433.65Z"/><path class="cls-1" d="M72.6,433.83h-.8V433h0a1.65,1.65,0,0,1-1.54.9c-1.19,0-1.79-.71-1.79-2.13v-3h.8v2.86c0,1.05.4,1.58,1.21,1.58a1.21,1.21,0,0,0,1-.43,1.68,1.68,0,0,0,.38-1.13v-2.88h.8Z"/><path class="cls-1" d="M77.63,433.6a2.63,2.63,0,0,1-1.37.34,2.29,2.29,0,0,1-1.73-.69,2.53,2.53,0,0,1-.65-1.81,2.77,2.77,0,0,1,.7-2,2.49,2.49,0,0,1,1.89-.75,2.72,2.72,0,0,1,1.17.24v.82a2.07,2.07,0,0,0-1.2-.39,1.61,1.61,0,0,0-1.25.55,2.09,2.09,0,0,0-.49,1.45,2,2,0,0,0,.46,1.38,1.58,1.58,0,0,0,1.23.51,2.1,2.1,0,0,0,1.24-.43Z"/><path class="cls-1" d="M83,433.83h-.8V431c0-1.05-.39-1.57-1.17-1.57a1.25,1.25,0,0,0-1,.45,1.69,1.69,0,0,0-.4,1.16v2.84h-.8v-7.41h.8v3.24h0a1.8,1.8,0,0,1,1.64-1c1.12,0,1.69.68,1.69,2Z"/><path class="cls-1" d="M90.81,433.83H90v-.78h0a1.68,1.68,0,0,1-1.53.89,1.65,1.65,0,0,1-1.17-.39,1.37,1.37,0,0,1-.43-1.05c0-.94.55-1.48,1.65-1.63l1.5-.21c0-.85-.34-1.28-1-1.28a2.48,2.48,0,0,0-1.63.62v-.82a3.12,3.12,0,0,1,1.7-.47c1.18,0,1.76.62,1.76,1.86ZM90,431.3l-1.2.16a2,2,0,0,0-.84.28.79.79,0,0,0-.29.7.77.77,0,0,0,.27.6,1,1,0,0,0,.69.23,1.29,1.29,0,0,0,1-.42A1.52,1.52,0,0,0,90,431.8Z"/><path class="cls-1" d="M92,433.65v-.86a2.4,2.4,0,0,0,1.44.48c.7,0,1.05-.23,1.05-.7a.59.59,0,0,0-.09-.34.82.82,0,0,0-.24-.25,2,2,0,0,0-.36-.19l-.45-.18c-.22-.09-.41-.18-.58-.27a1.74,1.74,0,0,1-.42-.3,1,1,0,0,1-.25-.38,1.33,1.33,0,0,1-.09-.51,1.17,1.17,0,0,1,.16-.62,1.42,1.42,0,0,1,.43-.45,2,2,0,0,1,.61-.28,2.82,2.82,0,0,1,.71-.09,2.91,2.91,0,0,1,1.17.22v.81a2.3,2.3,0,0,0-1.27-.36,1.7,1.7,0,0,0-.41.05,1.28,1.28,0,0,0-.31.15.6.6,0,0,0-.2.22.57.57,0,0,0-.07.29.61.61,0,0,0,.07.32.79.79,0,0,0,.21.24,1.29,1.29,0,0,0,.33.18l.44.18.6.26a2,2,0,0,1,.45.31,1.08,1.08,0,0,1,.28.39,1.17,1.17,0,0,1,.11.52,1.2,1.2,0,0,1-.17.64,1.38,1.38,0,0,1-.44.46,2,2,0,0,1-.63.27,3.5,3.5,0,0,1-.74.08A2.94,2.94,0,0,1,92,433.65Z"/><path class="cls-1" d="M100.13,433.1h0v3h-.8v-7.3h.8v.88h0a1.88,1.88,0,0,1,1.72-1,1.82,1.82,0,0,1,1.51.67,2.8,2.8,0,0,1,.54,1.8,3.07,3.07,0,0,1-.61,2,2,2,0,0,1-1.67.75A1.67,1.67,0,0,1,100.13,433.1Zm0-2v.7a1.48,1.48,0,0,0,.4,1,1.43,1.43,0,0,0,2.16-.13,2.49,2.49,0,0,0,.41-1.54,2,2,0,0,0-.38-1.31,1.28,1.28,0,0,0-1-.48,1.43,1.43,0,0,0-1.12.49A1.79,1.79,0,0,0,100.11,431.09Z"/><path class="cls-1" d="M108.63,433.83h-.8v-.78h0a1.84,1.84,0,0,1-2.71.5,1.39,1.39,0,0,1-.42-1.05c0-.94.55-1.48,1.65-1.63l1.5-.21c0-.85-.34-1.28-1-1.28a2.46,2.46,0,0,0-1.63.62v-.82a3.12,3.12,0,0,1,1.7-.47c1.17,0,1.76.62,1.76,1.86Zm-.8-2.53-1.21.16a2,2,0,0,0-.84.28.81.81,0,0,0-.28.7.79.79,0,0,0,.26.6,1.05,1.05,0,0,0,.7.23,1.27,1.27,0,0,0,1-.42,1.48,1.48,0,0,0,.39-1.05Z"/><path class="cls-1" d="M112.75,429.64a1,1,0,0,0-.61-.16,1,1,0,0,0-.86.48,2.3,2.3,0,0,0-.34,1.32v2.55h-.8v-5h.8v1h0a1.79,1.79,0,0,1,.52-.83,1.24,1.24,0,0,1,.79-.29,1.22,1.22,0,0,1,.48.07Z"/><path class="cls-1" d="M116.22,429.64a1,1,0,0,0-.6-.16,1,1,0,0,0-.86.48,2.23,2.23,0,0,0-.34,1.32v2.55h-.8v-5h.8v1h0A1.72,1.72,0,0,1,115,429a1.22,1.22,0,0,1,.79-.29,1.19,1.19,0,0,1,.47.07Z"/><path class="cls-1" d="M120.67,433.83h-.8v-.78h0a1.84,1.84,0,0,1-2.71.5,1.39,1.39,0,0,1-.42-1.05c0-.94.55-1.48,1.65-1.63l1.5-.21c0-.85-.34-1.28-1-1.28a2.48,2.48,0,0,0-1.63.62v-.82a3.12,3.12,0,0,1,1.7-.47c1.17,0,1.76.62,1.76,1.86Zm-.8-2.53-1.2.16a1.87,1.87,0,0,0-.84.28.9.9,0,0,0,0,1.3,1.05,1.05,0,0,0,.7.23,1.27,1.27,0,0,0,1-.42,1.48,1.48,0,0,0,.39-1.05Z"/><path class="cls-1" d="M124.65,427.13a1,1,0,0,0-.53-.13c-.56,0-.84.35-.84,1.06v.77h1.17v.68h-1.17v4.32h-.8v-4.32h-.85v-.68h.85V428a1.72,1.72,0,0,1,.46-1.25,1.54,1.54,0,0,1,1.13-.45,1.8,1.8,0,0,1,.58.08Z"/><path class="cls-1" d="M125.41,432.71l-.78,2.41h-.57l.57-2.41Z"/><path class="cls-1" d="M129.29,433.65v-.86a2.35,2.35,0,0,0,1.44.48c.7,0,1.05-.23,1.05-.7a.59.59,0,0,0-.09-.34.82.82,0,0,0-.24-.25,2.55,2.55,0,0,0-.37-.19l-.44-.18a5.37,5.37,0,0,1-.58-.27,1.74,1.74,0,0,1-.42-.3,1.08,1.08,0,0,1-.26-.38,1.33,1.33,0,0,1-.08-.51,1.17,1.17,0,0,1,.16-.62,1.32,1.32,0,0,1,.43-.45,1.9,1.9,0,0,1,.61-.28,2.82,2.82,0,0,1,.71-.09,2.86,2.86,0,0,1,1.16.22v.81a2.27,2.27,0,0,0-1.27-.36,1.62,1.62,0,0,0-.4.05,1.12,1.12,0,0,0-.31.15.53.53,0,0,0-.2.22.57.57,0,0,0-.07.29.61.61,0,0,0,.07.32.64.64,0,0,0,.2.24,1.36,1.36,0,0,0,.34.18l.44.18.6.26a2.55,2.55,0,0,1,.45.31,1.21,1.21,0,0,1,.28.39,1.18,1.18,0,0,1,.1.52,1.19,1.19,0,0,1-.16.64,1.48,1.48,0,0,1-.44.46,2,2,0,0,1-.63.27,3.67,3.67,0,0,1-.75.08A2.9,2.9,0,0,1,129.29,433.65Z"/><path class="cls-1" d="M134.63,433.83h-.8v-7.41h.8Z"/><path class="cls-1" d="M138.34,433.94a2.31,2.31,0,0,1-1.77-.7,2.57,2.57,0,0,1-.66-1.85,2.7,2.7,0,0,1,.69-2,2.45,2.45,0,0,1,1.86-.71,2.25,2.25,0,0,1,1.75.69,2.76,2.76,0,0,1,.62,1.91,2.68,2.68,0,0,1-.67,1.91A2.38,2.38,0,0,1,138.34,433.94Zm.06-4.56a1.53,1.53,0,0,0-1.22.53,2.15,2.15,0,0,0-.45,1.45,2,2,0,0,0,.46,1.4,1.53,1.53,0,0,0,1.21.51,1.49,1.49,0,0,0,1.2-.5,2.73,2.73,0,0,0,0-2.88A1.47,1.47,0,0,0,138.4,429.38Z"/><path class="cls-1" d="M146.38,433.43c0,1.83-.88,2.75-2.64,2.75a3.61,3.61,0,0,1-1.62-.35V435a3.38,3.38,0,0,0,1.61.47c1.23,0,1.85-.66,1.85-2V433h0a2,2,0,0,1-3.22.29,2.67,2.67,0,0,1-.57-1.79,3.11,3.11,0,0,1,.61-2,2.06,2.06,0,0,1,1.68-.75,1.64,1.64,0,0,1,1.5.81h0v-.69h.8Zm-.8-1.86v-.74a1.45,1.45,0,0,0-.4-1,1.32,1.32,0,0,0-1-.43,1.39,1.39,0,0,0-1.16.54,2.42,2.42,0,0,0-.42,1.51,2.12,2.12,0,0,0,.4,1.34,1.32,1.32,0,0,0,1.07.5,1.4,1.4,0,0,0,1.1-.48A1.79,1.79,0,0,0,145.58,431.57Z"/><path class="cls-1" d="M151.58,433.83h-.8v-.78h0a1.69,1.69,0,0,1-1.54.89,1.65,1.65,0,0,1-1.17-.39,1.39,1.39,0,0,1-.42-1.05c0-.94.55-1.48,1.65-1.63l1.5-.21c0-.85-.34-1.28-1-1.28a2.46,2.46,0,0,0-1.63.62v-.82a3.12,3.12,0,0,1,1.7-.47c1.17,0,1.76.62,1.76,1.86Zm-.8-2.53-1.21.16a2,2,0,0,0-.84.28.81.81,0,0,0-.28.7.79.79,0,0,0,.26.6,1.05,1.05,0,0,0,.7.23,1.27,1.27,0,0,0,1-.42,1.48,1.48,0,0,0,.39-1.05Z"/><path class="cls-1" d="M157.24,433.83h-.8V431c0-1.06-.39-1.59-1.16-1.59a1.29,1.29,0,0,0-1,.45,1.71,1.71,0,0,0-.39,1.14v2.86h-.8v-5h.8v.83h0a1.79,1.79,0,0,1,1.64-1,1.56,1.56,0,0,1,1.26.53,2.34,2.34,0,0,1,.43,1.53Z"/><path class="cls-1" d="M158.45,433.65v-.86a2.35,2.35,0,0,0,1.44.48c.7,0,1.05-.23,1.05-.7a.59.59,0,0,0-.09-.34.82.82,0,0,0-.24-.25,2.55,2.55,0,0,0-.37-.19l-.44-.18a5.37,5.37,0,0,1-.58-.27,1.74,1.74,0,0,1-.42-.3,1.08,1.08,0,0,1-.26-.38,1.33,1.33,0,0,1-.08-.51,1.17,1.17,0,0,1,.16-.62,1.32,1.32,0,0,1,.43-.45,1.9,1.9,0,0,1,.61-.28,2.82,2.82,0,0,1,.71-.09,2.86,2.86,0,0,1,1.16.22v.81a2.27,2.27,0,0,0-1.27-.36,1.62,1.62,0,0,0-.4.05,1.12,1.12,0,0,0-.31.15.53.53,0,0,0-.2.22.57.57,0,0,0-.07.29.61.61,0,0,0,.07.32.64.64,0,0,0,.2.24,1.36,1.36,0,0,0,.34.18l.44.18.6.26a2.55,2.55,0,0,1,.45.31,1.21,1.21,0,0,1,.28.39,1.18,1.18,0,0,1,.1.52,1.19,1.19,0,0,1-.16.64,1.48,1.48,0,0,1-.44.46,2,2,0,0,1-.63.27,3.67,3.67,0,0,1-.75.08A2.9,2.9,0,0,1,158.45,433.65Z"/><path class="cls-1" d="M163.72,432.71l-.78,2.41h-.57l.57-2.41Z"/><path class="cls-1" d="M44.83,443.53H41.3a1.92,1.92,0,0,0,.45,1.29,1.56,1.56,0,0,0,1.18.45,2.49,2.49,0,0,0,1.56-.56v.76a3,3,0,0,1-1.75.47,2.09,2.09,0,0,1-1.66-.68,3.19,3.19,0,0,1,.05-3.82,2.12,2.12,0,0,1,1.65-.73,1.9,1.9,0,0,1,1.52.63,2.71,2.71,0,0,1,.53,1.77Zm-.82-.68a1.62,1.62,0,0,0-.33-1.08,1.14,1.14,0,0,0-.92-.39,1.28,1.28,0,0,0-1,.41,1.84,1.84,0,0,0-.49,1.06Z"/><path class="cls-1" d="M48.36,445.78a1.57,1.57,0,0,1-.74.15c-.88,0-1.32-.48-1.32-1.46v-3h-.86v-.68h.86v-1.22l.8-.26v1.48h1.26v.68H47.1v2.82a1.23,1.23,0,0,0,.17.72.71.71,0,0,0,.57.21.83.83,0,0,0,.52-.17Z"/><path class="cls-1" d="M52.71,445.6a2.63,2.63,0,0,1-1.37.34,2.29,2.29,0,0,1-1.73-.69,2.57,2.57,0,0,1-.65-1.81,2.73,2.73,0,0,1,.71-2,2.47,2.47,0,0,1,1.89-.75,2.67,2.67,0,0,1,1.16.24v.82a2,2,0,0,0-1.19-.39,1.64,1.64,0,0,0-1.26.55,2.09,2.09,0,0,0-.49,1.45,2,2,0,0,0,.46,1.38,1.59,1.59,0,0,0,1.24.51,2.09,2.09,0,0,0,1.23-.43Z"/><path class="cls-1" d="M56.94,445.93a.55.55,0,0,1-.55-.54.57.57,0,0,1,.16-.39.56.56,0,0,1,.78,0,.57.57,0,0,1,.16.39.55.55,0,0,1-.55.54Z"/><path class="cls-1" d="M59.1,445.93a.52.52,0,0,1-.38-.16.53.53,0,0,1-.16-.38.57.57,0,0,1,.16-.39.52.52,0,0,1,.38-.16.54.54,0,0,1,.4.16.57.57,0,0,1,.16.39.53.53,0,0,1-.16.38A.54.54,0,0,1,59.1,445.93Z"/><path class="cls-1" d="M61.27,445.93a.51.51,0,0,1-.38-.16.49.49,0,0,1-.16-.38.53.53,0,0,1,.16-.39.51.51,0,0,1,.38-.16.5.5,0,0,1,.39.16.53.53,0,0,1,.16.39.49.49,0,0,1-.16.38A.5.5,0,0,1,61.27,445.93Z"/></svg>