<svg xmlns="http://www.w3.org/2000/svg" viewBox="0 0 1627.2 615.71"><defs><style>.cls-1{fill:#21aa68;}.cls-2{fill:#fff6f3;}.cls-3{fill:#1c1c1c;}.cls-4{fill:#e0bd65;}</style></defs><g id="Capa_2" data-name="Capa 2"><rect class="cls-1" x="408.91" y="5.34" width="415.69" height="611.1"/><path class="cls-2" d="M545.07,303.73l3.48.81a10.6,10.6,0,0,1-3.94,6.16,11.28,11.28,0,0,1-7,2.12,13.37,13.37,0,0,1-6.92-1.61,10.19,10.19,0,0,1-4-4.75,16.41,16.41,0,0,1-1.41-6.67,13.7,13.7,0,0,1,1.57-6.76,10.64,10.64,0,0,1,4.44-4.4,13.45,13.45,0,0,1,6.36-1.51,11.44,11.44,0,0,1,6.67,1.92,9.64,9.64,0,0,1,3.74,5.35l-3.44.76a6.86,6.86,0,0,0-7.07-5.2,8.74,8.74,0,0,0-5,1.36,7.45,7.45,0,0,0-2.88,3.69,14.18,14.18,0,0,0-.81,4.79,14.69,14.69,0,0,0,1,5.56,6.77,6.77,0,0,0,3,3.53,9.13,9.13,0,0,0,4.45,1.17,7.79,7.79,0,0,0,5-1.62A7.89,7.89,0,0,0,545.07,303.73Z"/><path class="cls-2" d="M603,313V286.92h3.54l13.68,20.45V286.92h3.28v26H620l-13.69-20.45v20.45H603Z"/><path class="cls-2" d="M672.93,313V286.92h3.44v23h12.82V313Z"/><path class="cls-2" d="M693.39,313V286.92h18.83V290H696.87v8h14.34v3H696.82v8.83h16v3.08H693.39Z"/><path class="cls-2" d="M717,290.35v-3.69h3.43v2.93a8.25,8.25,0,0,1-.55,3.44,5,5,0,0,1-2.38,2.17l-.75-1.26a2.63,2.63,0,0,0,1.41-1.22,4.81,4.81,0,0,0,.51-2.32l-1.67,0Z"/><path class="cls-2" d="M724.44,304.44l3.24-.25a6.69,6.69,0,0,0,1.06,3.08,5.41,5.41,0,0,0,2.57,1.92,9.89,9.89,0,0,0,3.94.75,10.13,10.13,0,0,0,3.44-.55,4.92,4.92,0,0,0,2.22-1.52,3.36,3.36,0,0,0,.7-2.12,3.47,3.47,0,0,0-.7-2.07,5.2,5.2,0,0,0-2.33-1.46c-.7-.25-2.22-.66-4.59-1.21a23.58,23.58,0,0,1-5-1.57,6.68,6.68,0,0,1-2.73-2.32,5.56,5.56,0,0,1-.91-3.08,6.15,6.15,0,0,1,1.11-3.54A6.7,6.7,0,0,1,729.7,288a12.71,12.71,0,0,1,4.74-.86,13,13,0,0,1,5,.91,7.38,7.38,0,0,1,3.39,2.62,7.26,7.26,0,0,1,1.26,3.94l-3.28.26a5,5,0,0,0-1.77-3.59,7.12,7.12,0,0,0-4.5-1.21c-2.07,0-3.58.35-4.49,1.11a3.18,3.18,0,0,0-1.41,2.63,2.89,2.89,0,0,0,1,2.22c.65.55,2.37,1.16,5.15,1.76a34.11,34.11,0,0,1,5.7,1.62,7.72,7.72,0,0,1,3.34,2.53A6.12,6.12,0,0,1,745,305.5a6.86,6.86,0,0,1-1.16,3.74A7.91,7.91,0,0,1,740.4,312a12,12,0,0,1-4.95,1,15.12,15.12,0,0,1-5.85-1,7.93,7.93,0,0,1-3.69-3A8.18,8.18,0,0,1,724.44,304.44Z"/><polygon class="cls-2" points="657.83 289.64 649.75 312.92 646.07 312.92 656.07 286.92 657.83 289.64"/><polygon class="cls-2" points="657.83 289.64 659.8 286.92 670.46 312.92 666.52 312.92 657.83 289.64"/><polygon class="cls-2" points="656.07 286.92 659.8 286.92 657.83 289.64 656.07 286.92"/><polygon class="cls-2" points="670.46 312.92 665.96 309.89 653.39 309.84 652.28 312.92 670.46 312.92"/><polygon class="cls-2" points="587.69 289.69 579.56 312.98 575.87 312.98 585.87 286.92 587.69 289.69"/><polygon class="cls-2" points="587.69 289.69 589.61 286.92 600.26 312.98 596.32 312.98 587.69 289.69"/><polygon class="cls-2" points="585.87 286.92 589.61 286.92 587.69 289.69 585.87 286.92"/><polygon class="cls-2" points="600.26 312.98 595.77 309.94 583.19 309.89 582.08 312.98 600.26 312.98"/><rect class="cls-2" x="635.92" y="292.32" width="3.43" height="20.65"/><rect class="cls-2" x="627.38" y="286.92" width="20.65" height="3.08"/><rect class="cls-2" x="552.54" y="286.92" width="3.54" height="26.06"/><rect class="cls-2" x="569.61" y="286.92" width="3.43" height="26.06"/><rect class="cls-2" x="555.82" y="297.62" width="11.16" height="3.03"/><path class="cls-2" d="M506.58,303.63l3.34.86a11.38,11.38,0,0,1-3.79,6.26,10.53,10.53,0,0,1-6.67,2.17,11.91,11.91,0,0,1-6.61-1.66,10.54,10.54,0,0,1-3.89-4.8,16.65,16.65,0,0,1-1.31-6.77,14.76,14.76,0,0,1,1.51-6.86,10.2,10.2,0,0,1,4.29-4.45,12.61,12.61,0,0,1,6.12-1.51,10.42,10.42,0,0,1,6.36,1.92,9.74,9.74,0,0,1,3.58,5.4l-3.33.81a7.83,7.83,0,0,0-2.52-4,6.7,6.7,0,0,0-4.2-1.27,8,8,0,0,0-4.84,1.42,7,7,0,0,0-2.73,3.74,15.55,15.55,0,0,0-.81,4.84,14.79,14.79,0,0,0,1,5.61,6.92,6.92,0,0,0,2.93,3.58,7.94,7.94,0,0,0,4.29,1.17,7.31,7.31,0,0,0,4.75-1.62A8.94,8.94,0,0,0,506.58,303.63Z"/><path class="cls-2" d="M497,304.39l3.48-.25a6.32,6.32,0,0,0,1.17,3.08,6.4,6.4,0,0,0,2.82,2,11.76,11.76,0,0,0,4.3.75,12,12,0,0,0,3.73-.55,4.84,4.84,0,0,0,2.43-1.57,3.51,3.51,0,0,0,.81-2.17,3.11,3.11,0,0,0-.76-2.07,5.73,5.73,0,0,0-2.53-1.46q-1.12-.39-5-1.21a26.83,26.83,0,0,1-5.4-1.57,7.22,7.22,0,0,1-3-2.32,5.25,5.25,0,0,1-1-3.13,6,6,0,0,1,1.21-3.59,7.49,7.49,0,0,1,3.54-2.52,16.46,16.46,0,0,1,10.65.05,7.76,7.76,0,0,1,3.69,2.67,6.9,6.9,0,0,1,1.36,4l-3.58.25a4.92,4.92,0,0,0-2-3.58,8.24,8.24,0,0,0-4.9-1.21c-2.27,0-3.89.35-4.9,1.11a3.3,3.3,0,0,0-1.56,2.67,2.63,2.63,0,0,0,1.11,2.23c.7.6,2.57,1.16,5.6,1.81a39.65,39.65,0,0,1,6.21,1.62A8.46,8.46,0,0,1,518.2,302a5.63,5.63,0,0,1,1.16,3.58,6.21,6.21,0,0,1-1.26,3.79,8.45,8.45,0,0,1-3.69,2.78,14.2,14.2,0,0,1-5.4,1,18.26,18.26,0,0,1-6.41-1,8.83,8.83,0,0,1-4.05-3A9.49,9.49,0,0,1,497,304.39Z"/><rect class="cls-2" x="487.7" y="317.17" width="257.3" height="2.17"/><path d="M130,306.49l3.49.81a10.67,10.67,0,0,1-3.94,6.16,11.36,11.36,0,0,1-7,2.12,13.37,13.37,0,0,1-6.92-1.62,10.09,10.09,0,0,1-4-4.75,16.4,16.4,0,0,1-1.42-6.66,13.82,13.82,0,0,1,1.57-6.77,10.62,10.62,0,0,1,4.44-4.39,13.46,13.46,0,0,1,6.37-1.52,11.41,11.41,0,0,1,6.66,1.92,9.63,9.63,0,0,1,3.74,5.36l-3.43.75a6.86,6.86,0,0,0-7.07-5.2,8.82,8.82,0,0,0-5,1.36,7.38,7.38,0,0,0-2.88,3.69,14,14,0,0,0-.81,4.8,14.44,14.44,0,0,0,1,5.55,6.83,6.83,0,0,0,3,3.54,9.08,9.08,0,0,0,4.44,1.16,7.77,7.77,0,0,0,7.83-6.31Z"/><path d="M188,315.73V289.67h3.53l13.69,20.45V289.67h3.28v26H205l-13.68-20.45v20.45H188Z"/><path d="M257.88,315.73V289.67h3.43v23h12.83v3.08Z"/><path d="M278.33,315.73V289.67h18.84v3.08H281.82v8h14.34v3h-14.4v8.84h16v3.08H278.33Z"/><path d="M301.91,293.11v-3.69h3.44v2.93a8,8,0,0,1-.56,3.43,4.93,4.93,0,0,1-2.37,2.17l-.76-1.26a2.63,2.63,0,0,0,1.42-1.21,4.84,4.84,0,0,0,.5-2.32l-1.67-.05Z"/><path d="M309.39,307.19l3.23-.25a6.81,6.81,0,0,0,1.06,3.08,5.43,5.43,0,0,0,2.58,1.92,9.68,9.68,0,0,0,3.94.76,9.82,9.82,0,0,0,3.43-.56,4.93,4.93,0,0,0,2.22-1.51,3.33,3.33,0,0,0,.71-2.12,3.37,3.37,0,0,0-.71-2.07,5.11,5.11,0,0,0-2.32-1.47c-.71-.25-2.22-.65-4.6-1.21a23.71,23.71,0,0,1-5-1.56,6.6,6.6,0,0,1-2.72-2.33,5.48,5.48,0,0,1-.91-3.08,6.07,6.07,0,0,1,1.11-3.53,6.79,6.79,0,0,1,3.23-2.48,12.92,12.92,0,0,1,4.75-.86,13.19,13.19,0,0,1,5.05.91,7.49,7.49,0,0,1,3.38,2.63,7.12,7.12,0,0,1,1.26,3.94l-3.28.25a5,5,0,0,0-1.77-3.59,7.15,7.15,0,0,0-4.49-1.21c-2.07,0-3.59.36-4.5,1.11a3.21,3.21,0,0,0-1.41,2.63,2.86,2.86,0,0,0,1,2.22c.66.56,2.37,1.16,5.15,1.77a33,33,0,0,1,5.71,1.62,7.65,7.65,0,0,1,3.33,2.52,6.06,6.06,0,0,1,1.06,3.54,6.75,6.75,0,0,1-1.16,3.73,8,8,0,0,1-3.38,2.73,12,12,0,0,1-5,1,15.17,15.17,0,0,1-5.86-1,8.05,8.05,0,0,1-3.69-3A8.2,8.2,0,0,1,309.39,307.19Z"/><polygon points="242.78 292.4 234.7 315.68 231.01 315.68 241.01 289.67 242.78 292.4"/><polygon points="242.78 292.4 244.75 289.67 255.4 315.68 251.47 315.68 242.78 292.4"/><polygon points="241.01 289.67 244.75 289.67 242.78 292.4 241.01 289.67"/><polygon points="255.4 315.68 250.91 312.65 238.33 312.6 237.22 315.68 255.4 315.68"/><polygon points="172.63 292.45 164.5 315.73 160.82 315.73 170.81 289.67 172.63 292.45"/><polygon points="172.63 292.45 174.55 289.67 185.21 315.73 181.27 315.73 172.63 292.45"/><polygon points="170.81 289.67 174.55 289.67 172.63 292.45 170.81 289.67"/><polygon points="185.21 315.73 180.71 312.7 168.14 312.65 167.03 315.73 185.21 315.73"/><rect x="220.86" y="295.07" width="3.43" height="20.65"/><rect x="212.33" y="289.67" width="20.65" height="3.08"/><rect x="137.48" y="289.67" width="3.54" height="26.06"/><rect x="154.55" y="289.67" width="3.43" height="26.06"/><rect x="140.77" y="300.38" width="11.16" height="3.03"/><path d="M91.53,306.39l3.33.86a11.39,11.39,0,0,1-3.79,6.26,10.56,10.56,0,0,1-6.66,2.17A11.92,11.92,0,0,1,77.79,314a10.55,10.55,0,0,1-3.89-4.8,16.81,16.81,0,0,1-1.31-6.76,14.8,14.8,0,0,1,1.52-6.87,10.12,10.12,0,0,1,4.29-4.44,12.61,12.61,0,0,1,6.11-1.52,10.46,10.46,0,0,1,6.36,1.92,9.8,9.8,0,0,1,3.59,5.4l-3.33.81a7.84,7.84,0,0,0-2.53-4,6.65,6.65,0,0,0-4.19-1.26,8,8,0,0,0-4.85,1.41,7.1,7.1,0,0,0-2.73,3.74,15.9,15.9,0,0,0-.8,4.85,14.71,14.71,0,0,0,1,5.6,6.92,6.92,0,0,0,2.92,3.59,8,8,0,0,0,4.3,1.16A7.23,7.23,0,0,0,89,311.23,8.92,8.92,0,0,0,91.53,306.39Z"/><path d="M82,307.14l3.49-.25A6.22,6.22,0,0,0,86.63,310a6.41,6.41,0,0,0,2.83,2,11.5,11.5,0,0,0,4.29.76,11.68,11.68,0,0,0,3.74-.56,4.81,4.81,0,0,0,2.42-1.56,3.49,3.49,0,0,0,.81-2.17,3,3,0,0,0-.76-2.07,5.63,5.63,0,0,0-2.52-1.47q-1.14-.37-5-1.21A26.12,26.12,0,0,1,87,302.09a7,7,0,0,1-3-2.32,5.25,5.25,0,0,1-1-3.13,6,6,0,0,1,1.21-3.59,7.58,7.58,0,0,1,3.53-2.52,16.49,16.49,0,0,1,10.66.05,7.74,7.74,0,0,1,3.68,2.68,6.88,6.88,0,0,1,1.37,4l-3.59.25a4.92,4.92,0,0,0-2-3.59A8.29,8.29,0,0,0,93,292.7c-2.27,0-3.88.35-4.89,1.11a3.32,3.32,0,0,0-1.57,2.68,2.6,2.6,0,0,0,1.11,2.22c.71.61,2.58,1.16,5.61,1.82a38.82,38.82,0,0,1,6.21,1.61,8.42,8.42,0,0,1,3.63,2.58,5.65,5.65,0,0,1,1.17,3.59,6.19,6.19,0,0,1-1.27,3.78,8.47,8.47,0,0,1-3.68,2.78,14.1,14.1,0,0,1-5.41,1,18.11,18.11,0,0,1-6.41-1,8.8,8.8,0,0,1-4-3A9.47,9.47,0,0,1,82,307.14Z"/><rect x="72.64" y="319.92" width="257.3" height="2.17"/></g><g id="Capa_3" data-name="Capa 3"><rect class="cls-1" x="405.96" y="1.87" width="415.69" height="611.1"/><path class="cls-2" d="M546.81,300.24l3.49.81a10.6,10.6,0,0,1-3.94,6.16,11.28,11.28,0,0,1-7,2.12,13.37,13.37,0,0,1-6.92-1.61,10.14,10.14,0,0,1-4-4.75A16.41,16.41,0,0,1,527,296.3a13.8,13.8,0,0,1,1.56-6.76,10.7,10.7,0,0,1,4.44-4.4,13.46,13.46,0,0,1,6.37-1.51,11.33,11.33,0,0,1,6.66,1.92,9.64,9.64,0,0,1,3.74,5.35l-3.43.76a6.86,6.86,0,0,0-7.07-5.2,8.74,8.74,0,0,0-5,1.36,7.34,7.34,0,0,0-2.88,3.69,13.94,13.94,0,0,0-.81,4.79,14.53,14.53,0,0,0,1,5.56,6.81,6.81,0,0,0,3,3.53,9.08,9.08,0,0,0,4.44,1.16,7.74,7.74,0,0,0,7.83-6.31Z"/><path class="cls-2" d="M604.79,309.48V283.43h3.53L622,303.88V283.43h3.28v26h-3.54L608.07,289v20.45h-3.28Z"/><path class="cls-2" d="M674.68,309.48V283.43h3.43v23h12.83v3.08Z"/><path class="cls-2" d="M695.13,309.48V283.43H714v3.08H698.62v8H713v3H698.57v8.83h15.95v3.08H695.13Z"/><path class="cls-2" d="M718.72,286.86v-3.69h3.43v2.93a8.07,8.07,0,0,1-.56,3.44,5,5,0,0,1-2.37,2.17l-.76-1.26a2.65,2.65,0,0,0,1.42-1.22,4.82,4.82,0,0,0,.5-2.32l-1.66-.05Z"/><path class="cls-2" d="M726.19,301l3.23-.25a6.81,6.81,0,0,0,1.06,3.08,5.49,5.49,0,0,0,2.58,1.92,9.85,9.85,0,0,0,3.94.75,10.07,10.07,0,0,0,3.43-.55,4.94,4.94,0,0,0,2.22-1.52,3.31,3.31,0,0,0,.71-2.12,3.39,3.39,0,0,0-.71-2.07,5.1,5.1,0,0,0-2.32-1.46c-.71-.26-2.22-.66-4.6-1.21a24.19,24.19,0,0,1-5-1.57,6.59,6.59,0,0,1-2.72-2.32,5.48,5.48,0,0,1-.91-3.08,6.08,6.08,0,0,1,1.11-3.54,6.71,6.71,0,0,1,3.23-2.47,12.76,12.76,0,0,1,4.75-.86,13,13,0,0,1,5,.91,7.4,7.4,0,0,1,3.38,2.62,7.15,7.15,0,0,1,1.26,3.94l-3.28.25a5,5,0,0,0-1.77-3.58,7.09,7.09,0,0,0-4.49-1.21c-2.07,0-3.59.35-4.49,1.11a3.18,3.18,0,0,0-1.42,2.62,2.92,2.92,0,0,0,1,2.23c.66.55,2.38,1.16,5.15,1.76A34,34,0,0,1,742.3,296a7.67,7.67,0,0,1,3.33,2.52,6.08,6.08,0,0,1,1.06,3.54,6.78,6.78,0,0,1-1.16,3.74,7.94,7.94,0,0,1-3.38,2.72,12,12,0,0,1-4.95,1,15.21,15.21,0,0,1-5.86-1,8,8,0,0,1-3.69-3A8.25,8.25,0,0,1,726.19,301Z"/><polygon class="cls-2" points="659.58 286.15 651.5 309.43 647.81 309.43 657.81 283.43 659.58 286.15"/><polygon class="cls-2" points="659.58 286.15 661.55 283.43 672.2 309.43 668.26 309.43 659.58 286.15"/><polygon class="cls-2" points="657.81 283.43 661.55 283.43 659.58 286.15 657.81 283.43"/><polygon class="cls-2" points="672.2 309.43 667.71 306.4 655.13 306.35 654.02 309.43 672.2 309.43"/><polygon class="cls-2" points="589.43 286.2 581.3 309.48 577.62 309.48 587.62 283.43 589.43 286.2"/><polygon class="cls-2" points="589.43 286.2 591.35 283.43 602.01 309.48 598.07 309.48 589.43 286.2"/><polygon class="cls-2" points="587.62 283.43 591.35 283.43 589.43 286.2 587.62 283.43"/><polygon class="cls-2" points="602.01 309.48 597.51 306.45 584.94 306.4 583.83 309.48 602.01 309.48"/><rect class="cls-2" x="637.66" y="288.83" width="3.43" height="20.65"/><rect class="cls-2" x="629.13" y="283.43" width="20.65" height="3.08"/><rect class="cls-2" x="554.29" y="283.43" width="3.54" height="26.06"/><rect class="cls-2" x="571.35" y="283.43" width="3.43" height="26.06"/><rect class="cls-2" x="557.57" y="294.13" width="11.16" height="3.03"/><path class="cls-2" d="M508.33,300.14l3.33.86a11.37,11.37,0,0,1-3.78,6.26,10.53,10.53,0,0,1-6.67,2.17,11.92,11.92,0,0,1-6.62-1.66,10.52,10.52,0,0,1-3.88-4.8,16.66,16.66,0,0,1-1.32-6.77,14.83,14.83,0,0,1,1.52-6.87,10.12,10.12,0,0,1,4.29-4.44,12.6,12.6,0,0,1,6.11-1.51,10.44,10.44,0,0,1,6.36,1.91,9.83,9.83,0,0,1,3.59,5.41l-3.33.81a7.8,7.8,0,0,0-2.53-4,6.65,6.65,0,0,0-4.19-1.27,8,8,0,0,0-4.85,1.42,7.11,7.11,0,0,0-2.73,3.73,16,16,0,0,0-.8,4.85,14.79,14.79,0,0,0,1,5.61,6.89,6.89,0,0,0,2.92,3.58,8,8,0,0,0,4.3,1.17,7.28,7.28,0,0,0,4.74-1.62A8.89,8.89,0,0,0,508.33,300.14Z"/><path class="cls-2" d="M498.79,300.9l3.48-.25a6.32,6.32,0,0,0,1.16,3.08,6.58,6.58,0,0,0,2.83,2,11.7,11.7,0,0,0,4.29.75,12,12,0,0,0,3.74-.55,4.82,4.82,0,0,0,2.42-1.57,3.45,3.45,0,0,0,.81-2.17,3.06,3.06,0,0,0-.76-2.07,5.54,5.54,0,0,0-2.52-1.46c-.76-.26-2.43-.66-5-1.22a26.12,26.12,0,0,1-5.4-1.56,7.17,7.17,0,0,1-3-2.32,5.26,5.26,0,0,1-1-3.14,6,6,0,0,1,1.21-3.58,7.59,7.59,0,0,1,3.53-2.53,16.67,16.67,0,0,1,10.66.05,7.89,7.89,0,0,1,3.69,2.68,7,7,0,0,1,1.36,4l-3.59.25a4.92,4.92,0,0,0-2-3.58,8.2,8.2,0,0,0-4.89-1.21c-2.28,0-3.89.35-4.9,1.11a3.29,3.29,0,0,0-1.57,2.67,2.63,2.63,0,0,0,1.11,2.23c.71.6,2.58,1.16,5.61,1.81a38.53,38.53,0,0,1,6.21,1.62,8.44,8.44,0,0,1,3.64,2.57,5.74,5.74,0,0,1,1.16,3.59,6.22,6.22,0,0,1-1.27,3.79,8.41,8.41,0,0,1-3.68,2.78,14.29,14.29,0,0,1-5.41,1,18.34,18.34,0,0,1-6.41-1,8.8,8.8,0,0,1-4-3A9.39,9.39,0,0,1,498.79,300.9Z"/><rect class="cls-2" x="489.44" y="313.68" width="257.3" height="2.17"/></g><g id="Capa_4" data-name="Capa 4"><rect class="cls-2" x="828.02" y="1.04" width="400" height="616.15"/><path class="cls-1" d="M950.08,302.58l3.48.8a10.62,10.62,0,0,1-3.93,6.16,11.33,11.33,0,0,1-7,2.11,13.31,13.31,0,0,1-6.91-1.61,10.11,10.11,0,0,1-4-4.74,16.56,16.56,0,0,1-1.41-6.66,13.81,13.81,0,0,1,1.57-6.76,10.63,10.63,0,0,1,4.43-4.38,13.45,13.45,0,0,1,6.36-1.52,11.43,11.43,0,0,1,6.66,1.92,9.67,9.67,0,0,1,3.73,5.35l-3.43.75a6.86,6.86,0,0,0-7.06-5.19,8.76,8.76,0,0,0-5.05,1.36,7.39,7.39,0,0,0-2.87,3.68,13.94,13.94,0,0,0-.81,4.79,14.44,14.44,0,0,0,1,5.55,6.8,6.8,0,0,0,3,3.53,9,9,0,0,0,4.43,1.16,7.73,7.73,0,0,0,7.82-6.3Z"/><path class="cls-1" d="M1008,311.81v-26h3.53l13.67,20.43V285.78h3.27v26h-3.53l-13.66-20.42v20.42H1008Z"/><path class="cls-1" d="M1077.78,311.81v-26h3.43v23H1094v3.08Z"/><path class="cls-1" d="M1098.2,311.81v-26H1117v3.08h-15.33v8H1116v3h-14.38v8.83h15.94v3.07H1098.2Z"/><path class="cls-1" d="M1121.76,289.21v-3.68h3.42v2.92a8.17,8.17,0,0,1-.55,3.43,4.93,4.93,0,0,1-2.37,2.17l-.76-1.26a2.59,2.59,0,0,0,1.42-1.21,4.82,4.82,0,0,0,.5-2.32l-1.66-.05Z"/><path class="cls-1" d="M1129.22,303.28l3.23-.25a6.69,6.69,0,0,0,1.06,3.08,5.4,5.4,0,0,0,2.57,1.91,9.67,9.67,0,0,0,3.93.76,9.82,9.82,0,0,0,3.43-.56,4.86,4.86,0,0,0,2.22-1.51,3.37,3.37,0,0,0,.71-2.12,3.43,3.43,0,0,0-.71-2.06,5.11,5.11,0,0,0-2.32-1.47c-.71-.25-2.22-.65-4.59-1.21a23.57,23.57,0,0,1-5-1.56A6.68,6.68,0,0,1,1131,296a5.55,5.55,0,0,1-.9-3.08,6.07,6.07,0,0,1,1.11-3.53,6.7,6.7,0,0,1,3.22-2.47,13,13,0,0,1,4.75-.86,13.14,13.14,0,0,1,5,.91,7.47,7.47,0,0,1,3.38,2.62,7.23,7.23,0,0,1,1.26,3.94l-3.28.25a5,5,0,0,0-1.77-3.58,7.06,7.06,0,0,0-4.48-1.21c-2.07,0-3.58.35-4.49,1.11a3.15,3.15,0,0,0-1.41,2.62,2.88,2.88,0,0,0,1,2.22c.66.56,2.37,1.16,5.15,1.77a33.39,33.39,0,0,1,5.7,1.61,7.65,7.65,0,0,1,3.33,2.52,6.12,6.12,0,0,1,1.06,3.53,6.83,6.83,0,0,1-1.16,3.73,8,8,0,0,1-3.38,2.73,12.14,12.14,0,0,1-5,.95,15.35,15.35,0,0,1-5.85-1,8.08,8.08,0,0,1-3.68-3A8.17,8.17,0,0,1,1129.22,303.28Z"/><polygon class="cls-1" points="1062.7 288.5 1054.63 311.75 1050.95 311.75 1060.93 285.78 1062.7 288.5"/><polygon class="cls-1" points="1062.7 288.5 1064.66 285.78 1075.31 311.75 1071.37 311.75 1062.7 288.5"/><polygon class="cls-1" points="1060.93 285.78 1064.66 285.78 1062.7 288.5 1060.93 285.78"/><polygon class="cls-1" points="1075.31 311.75 1070.82 308.73 1058.26 308.68 1057.15 311.75 1075.31 311.75"/><polygon class="cls-1" points="992.65 288.56 984.53 311.81 980.85 311.81 990.83 285.78 992.65 288.56"/><polygon class="cls-1" points="992.65 288.56 994.56 285.78 1005.21 311.81 1001.27 311.81 992.65 288.56"/><polygon class="cls-1" points="990.83 285.78 994.56 285.78 992.65 288.56 990.83 285.78"/><polygon class="cls-1" points="1005.21 311.81 1000.72 308.78 988.16 308.73 987.05 311.81 1005.21 311.81"/><rect class="cls-1" x="1040.81" y="291.18" width="3.43" height="20.63"/><rect class="cls-1" x="1032.29" y="285.78" width="20.63" height="3.08"/><rect class="cls-1" x="957.55" y="285.78" width="3.53" height="26.02"/><rect class="cls-1" x="974.59" y="285.78" width="3.43" height="26.02"/><rect class="cls-1" x="960.82" y="296.47" width="11.15" height="3.03"/><path class="cls-1" d="M911.65,302.48l3.33.85a11.46,11.46,0,0,1-3.78,6.26,10.58,10.58,0,0,1-6.66,2.16,11.91,11.91,0,0,1-6.61-1.66,10.55,10.55,0,0,1-3.88-4.79,16.64,16.64,0,0,1-1.31-6.76,14.79,14.79,0,0,1,1.51-6.86,10.18,10.18,0,0,1,4.29-4.44,12.68,12.68,0,0,1,6.1-1.51,10.48,10.48,0,0,1,6.36,1.92,9.81,9.81,0,0,1,3.58,5.39l-3.33.81a7.8,7.8,0,0,0-2.52-4,6.65,6.65,0,0,0-4.19-1.26A7.94,7.94,0,0,0,899.7,290a7,7,0,0,0-2.72,3.73,15.55,15.55,0,0,0-.81,4.84,14.71,14.71,0,0,0,1,5.6,6.93,6.93,0,0,0,2.92,3.58,7.93,7.93,0,0,0,4.29,1.16,7.27,7.27,0,0,0,4.74-1.61A9,9,0,0,0,911.65,302.48Z"/><path class="cls-1" d="M902.12,303.23l3.48-.25a6.22,6.22,0,0,0,1.16,3.08,6.45,6.45,0,0,0,2.82,2,11.5,11.5,0,0,0,4.29.76,11.66,11.66,0,0,0,3.73-.56,4.75,4.75,0,0,0,2.42-1.56,3.45,3.45,0,0,0,.81-2.17,3.08,3.08,0,0,0-.76-2.07,5.72,5.72,0,0,0-2.52-1.46c-.75-.25-2.42-.65-5-1.21a26.32,26.32,0,0,1-5.4-1.56,7.12,7.12,0,0,1-3-2.32,5.25,5.25,0,0,1-1-3.13,6,6,0,0,1,1.21-3.58,7.51,7.51,0,0,1,3.53-2.52,16.43,16.43,0,0,1,10.64.05,7.73,7.73,0,0,1,3.68,2.67,6.87,6.87,0,0,1,1.36,4l-3.58.25a4.91,4.91,0,0,0-2-3.58,8.24,8.24,0,0,0-4.9-1.21c-2.26,0-3.88.35-4.89,1.11a3.28,3.28,0,0,0-1.56,2.67,2.61,2.61,0,0,0,1.11,2.22c.71.6,2.57,1.16,5.6,1.81a38.63,38.63,0,0,1,6.2,1.62,8.38,8.38,0,0,1,3.63,2.57,5.63,5.63,0,0,1,1.16,3.58,6.18,6.18,0,0,1-1.26,3.78,8.47,8.47,0,0,1-3.68,2.78,14.2,14.2,0,0,1-5.4,1,18.24,18.24,0,0,1-6.4-1,8.8,8.8,0,0,1-4-3A9.32,9.32,0,0,1,902.12,303.23Z"/><rect class="cls-1" x="892.79" y="315.99" width="256.96" height="2.17"/></g><g id="Capa_5" data-name="Capa 5"><rect class="cls-3" x="1230.62" y="0.65" width="400.27" height="619.84"/><path class="cls-4" d="M1352.68,302.19l3.48.81a10.6,10.6,0,0,1-3.93,6.15,11.27,11.27,0,0,1-7,2.12,13.31,13.31,0,0,1-6.91-1.61,10.11,10.11,0,0,1-4-4.74,16.56,16.56,0,0,1-1.41-6.66,13.81,13.81,0,0,1,1.57-6.76,10.65,10.65,0,0,1,4.43-4.39,13.56,13.56,0,0,1,6.36-1.51,11.43,11.43,0,0,1,6.66,1.92,9.65,9.65,0,0,1,3.73,5.34l-3.43.76a6.86,6.86,0,0,0-7.06-5.19,8.76,8.76,0,0,0-5.05,1.36,7.39,7.39,0,0,0-2.87,3.68,13.94,13.94,0,0,0-.81,4.79,14.48,14.48,0,0,0,1,5.55,6.8,6.8,0,0,0,3,3.53,9.15,9.15,0,0,0,4.43,1.16,7.75,7.75,0,0,0,7.82-6.31Z"/><path class="cls-4" d="M1410.58,311.42v-26h3.53l13.67,20.43V285.4h3.27v26h-3.53L1413.86,291v20.42h-3.28Z"/><path class="cls-4" d="M1480.38,311.42v-26h3.43v23h12.81v3.07Z"/><path class="cls-4" d="M1500.8,311.42v-26h18.81v3.08h-15.33v8h14.33v3h-14.38v8.83h15.94v3.07H1500.8Z"/><path class="cls-4" d="M1524.36,288.83v-3.68h3.42v2.92a8.17,8.17,0,0,1-.55,3.43,4.93,4.93,0,0,1-2.37,2.17l-.76-1.26a2.63,2.63,0,0,0,1.42-1.21,4.82,4.82,0,0,0,.5-2.32l-1.66-.05Z"/><path class="cls-4" d="M1531.82,302.9l3.23-.25a6.61,6.61,0,0,0,1.06,3.07,5.35,5.35,0,0,0,2.57,1.92,9.67,9.67,0,0,0,3.93.76,9.82,9.82,0,0,0,3.43-.56,4.93,4.93,0,0,0,2.22-1.51,3.39,3.39,0,0,0,.71-2.12,3.48,3.48,0,0,0-.71-2.07,5.1,5.1,0,0,0-2.32-1.46c-.71-.25-2.22-.65-4.59-1.21a23.57,23.57,0,0,1-5-1.56,6.68,6.68,0,0,1-2.73-2.32,5.55,5.55,0,0,1-.9-3.08,6.07,6.07,0,0,1,1.11-3.53,6.64,6.64,0,0,1,3.22-2.47,12.76,12.76,0,0,1,4.75-.86,13,13,0,0,1,5,.91,7.47,7.47,0,0,1,3.38,2.62,7.2,7.2,0,0,1,1.26,3.94l-3.28.25a5,5,0,0,0-1.77-3.58,7.06,7.06,0,0,0-4.48-1.21c-2.07,0-3.58.35-4.49,1.11a3.15,3.15,0,0,0-1.41,2.62,2.89,2.89,0,0,0,1,2.22c.66.55,2.37,1.16,5.15,1.76a33.14,33.14,0,0,1,5.7,1.62,7.65,7.65,0,0,1,3.33,2.52,6.12,6.12,0,0,1,1.06,3.53,6.83,6.83,0,0,1-1.16,3.73,7.94,7.94,0,0,1-3.38,2.72,12,12,0,0,1-5,1,15.15,15.15,0,0,1-5.85-1,8,8,0,0,1-3.68-3A8.2,8.2,0,0,1,1531.82,302.9Z"/><polygon class="cls-4" points="1465.3 288.12 1457.23 311.37 1453.55 311.37 1463.53 285.4 1465.3 288.12"/><polygon class="cls-4" points="1465.3 288.12 1467.27 285.4 1477.91 311.37 1473.97 311.37 1465.3 288.12"/><polygon class="cls-4" points="1463.53 285.4 1467.27 285.4 1465.3 288.12 1463.53 285.4"/><polygon class="cls-4" points="1477.91 311.37 1473.42 308.35 1460.86 308.3 1459.75 311.37 1477.91 311.37"/><polygon class="cls-4" points="1395.25 288.17 1387.13 311.42 1383.45 311.42 1393.43 285.4 1395.25 288.17"/><polygon class="cls-4" points="1395.25 288.17 1397.16 285.4 1407.81 311.42 1403.87 311.42 1395.25 288.17"/><polygon class="cls-4" points="1393.43 285.4 1397.16 285.4 1395.25 288.17 1393.43 285.4"/><polygon class="cls-4" points="1407.81 311.42 1403.32 308.4 1390.76 308.35 1389.65 311.42 1407.81 311.42"/><rect class="cls-4" x="1443.41" y="290.8" width="3.43" height="20.63"/><rect class="cls-4" x="1434.89" y="285.4" width="20.63" height="3.08"/><rect class="cls-4" x="1360.15" y="285.4" width="3.53" height="26.02"/><rect class="cls-4" x="1377.19" y="285.4" width="3.43" height="26.02"/><rect class="cls-4" x="1363.42" y="296.09" width="11.15" height="3.03"/><path class="cls-4" d="M1314.25,302.09l3.33.86a11.43,11.43,0,0,1-3.78,6.25,10.52,10.52,0,0,1-6.66,2.17,11.91,11.91,0,0,1-6.61-1.66,10.55,10.55,0,0,1-3.88-4.79,16.64,16.64,0,0,1-1.31-6.76,14.79,14.79,0,0,1,1.51-6.86,10.12,10.12,0,0,1,4.29-4.44,12.56,12.56,0,0,1,6.1-1.51,10.48,10.48,0,0,1,6.36,1.92,9.81,9.81,0,0,1,3.58,5.39l-3.33.81a7.76,7.76,0,0,0-2.52-4,6.65,6.65,0,0,0-4.19-1.27,8,8,0,0,0-4.84,1.42,7,7,0,0,0-2.72,3.73,15.55,15.55,0,0,0-.81,4.84,14.74,14.74,0,0,0,1,5.6,6.93,6.93,0,0,0,2.92,3.58,7.93,7.93,0,0,0,4.29,1.16,7.28,7.28,0,0,0,4.74-1.62A8.88,8.88,0,0,0,1314.25,302.09Z"/><path class="cls-4" d="M1304.72,302.85l3.48-.25a6.14,6.14,0,0,0,1.16,3.07,6.38,6.38,0,0,0,2.82,2,11.5,11.5,0,0,0,4.29.76,11.66,11.66,0,0,0,3.73-.56,4.81,4.81,0,0,0,2.42-1.56,3.47,3.47,0,0,0,.81-2.17,3.06,3.06,0,0,0-.76-2.07,5.63,5.63,0,0,0-2.52-1.46c-.75-.25-2.42-.66-5-1.21a26.32,26.32,0,0,1-5.4-1.56,7.2,7.2,0,0,1-3-2.32,5.25,5.25,0,0,1-1-3.13,6,6,0,0,1,1.21-3.58,7.51,7.51,0,0,1,3.53-2.52,16.43,16.43,0,0,1,10.64.05,7.73,7.73,0,0,1,3.68,2.67,6.87,6.87,0,0,1,1.36,4l-3.58.25a4.87,4.87,0,0,0-2-3.58,8.24,8.24,0,0,0-4.9-1.21c-2.26,0-3.88.35-4.89,1.11a3.28,3.28,0,0,0-1.56,2.67,2.61,2.61,0,0,0,1.11,2.22c.71.6,2.57,1.16,5.6,1.81a38.63,38.63,0,0,1,6.2,1.62,8.38,8.38,0,0,1,3.63,2.57A5.63,5.63,0,0,1,1327,304a6.18,6.18,0,0,1-1.26,3.78,8.47,8.47,0,0,1-3.68,2.78,14.2,14.2,0,0,1-5.4,1,18.26,18.26,0,0,1-6.4-1,8.8,8.8,0,0,1-4-3A9.35,9.35,0,0,1,1304.72,302.85Z"/><rect class="cls-4" x="1295.39" y="315.61" width="256.96" height="2.17"/></g></svg>