<?xml version="1.0" encoding="utf-8"?>
<!-- Generator: Adobe Illustrator 25.2.1, SVG Export Plug-In . SVG Version: 6.00 Build 0)  -->
<svg version="1.1" xmlns="http://www.w3.org/2000/svg" xmlns:xlink="http://www.w3.org/1999/xlink" x="0px" y="0px"
	 viewBox="0 0 1400.7 800" style="enable-background:new 0 0 1400.7 800;" xml:space="preserve">
<style type="text/css">
	.st0{fill:#5F4634;}
	.st1{display:none;}
	.st2{display:inline;fill:#5A2F15;}
	.st3{display:inline;fill:#FBBF29;}
	.st4{display:inline;fill:#225527;}
	.st5{fill:#153F65;}
	.st6{fill:#FFC499;}
	.st7{fill:#FCD571;}
	.st8{fill:url(#);}
	.st9{clip-path:url(#SVGID_3_);fill:#5F4634;}
	.st10{clip-path:url(#SVGID_3_);fill:none;stroke:#1D1D1B;stroke-miterlimit:10;}
	.st11{clip-path:url(#SVGID_3_);fill:#F9C199;}
	.st12{display:none;fill:#5F4634;}
	.st13{fill:#1D1D1B;}
	.st14{fill:none;stroke:#1D1D1B;stroke-width:7;stroke-miterlimit:10;}
	.st15{fill:#F9C199;}
	.st16{fill:none;stroke:#1D1D1B;stroke-miterlimit:10;}
	.st17{fill:#FCD572;}
	.st18{fill:none;stroke:#5F4634;stroke-width:0.5;stroke-miterlimit:10;}
	.st19{clip-path:url(#SVGID_5_);fill:#FCD571;}
	.st20{clip-path:url(#SVGID_5_);fill:none;stroke:#FFFFFF;stroke-width:2;stroke-miterlimit:10;}
	.st21{clip-path:url(#SVGID_5_);}
	.st22{fill:none;stroke:#FFFFFF;stroke-miterlimit:10;}
	.st23{fill:none;stroke:#FFFFFF;stroke-width:5;stroke-miterlimit:10;}
	.st24{fill:none;stroke:#FFFFFF;stroke-width:3;stroke-miterlimit:10;}
	.st25{fill:#FFFFFF;}
	.st26{fill:none;stroke:#FFFFFF;stroke-width:2;stroke-miterlimit:10;}
	.st27{clip-path:url(#SVGID_6_);fill:#153F65;stroke:#FFFFFF;stroke-miterlimit:10;}
	.st28{clip-path:url(#SVGID_6_);fill:none;stroke:#1D1D1B;stroke-miterlimit:10;}
	.st29{display:none;clip-path:url(#SVGID_6_);}
	.st30{display:inline;fill:#153F65;}
	.st31{display:inline;fill:none;stroke:#5F4634;stroke-miterlimit:10;}
	.st32{clip-path:url(#SVGID_6_);fill:#FFC499;}
	.st33{fill:none;stroke:#1D1D1B;stroke-width:3;stroke-miterlimit:10;}
	.st34{fill:#153F65;stroke:#E20613;stroke-miterlimit:10;}
	.st35{opacity:0.1;fill:url(#);}
	.st36{fill:none;stroke:#66CC33;stroke-miterlimit:10;}
	.st37{fill:none;stroke:#E20613;stroke-miterlimit:10;}
	.st38{fill:#FF6700;}
	.st39{fill:#FCEA0D;}
	.st40{display:none;fill:#153F65;stroke:#FFFFFF;stroke-miterlimit:10;}
	.st41{display:inline;fill:#5F4634;}
	.st42{display:inline;}
	.st43{clip-path:url(#SVGID_10_);fill:#FFC499;}
	.st44{clip-path:url(#SVGID_10_);fill:none;stroke:#1D1D1B;stroke-miterlimit:10;}
	.st45{fill:#9AC079;}
	.st46{fill:#133F65;}
	.st47{fill:none;stroke:#133F65;stroke-width:5;stroke-miterlimit:10;}
	.st48{fill:#F4F4F4;}
	.st49{fill:none;stroke:#5F4634;stroke-miterlimit:10;}
	.st50{clip-path:url(#SVGID_12_);fill:#133F65;}
	.st51{clip-path:url(#SVGID_12_);fill:none;stroke:#1D1D1B;stroke-miterlimit:10;}
	.st52{fill:none;stroke:#1D1D1B;stroke-width:0.25;stroke-miterlimit:10;}
	.st53{fill:none;stroke:#1D1D1B;stroke-width:2;stroke-miterlimit:10;}
	.st54{clip-path:url(#SVGID_14_);fill:#153F65;}
	.st55{clip-path:url(#SVGID_14_);}
	.st56{fill:#FFFFFF;stroke:#1D1D1B;stroke-width:2;stroke-miterlimit:10;}
	.st57{clip-path:url(#SVGID_16_);fill:#5F4634;}
	.st58{display:none;clip-path:url(#SVGID_16_);}
	.st59{display:inline;fill:#FCD572;}
	.st60{clip-path:url(#SVGID_16_);}
	.st61{fill:#1D1D1B;stroke:#FFFFFF;stroke-width:3;stroke-miterlimit:10;}
	.st62{display:none;fill:#FFFFFF;}
	.st63{opacity:0.3;clip-path:url(#SVGID_18_);fill:url(#);}
	.st64{clip-path:url(#SVGID_18_);}
	.st65{opacity:0.3;clip-path:url(#SVGID_20_);fill:url(#);stroke:#FFFFFF;stroke-width:2;stroke-miterlimit:10;}
	.st66{clip-path:url(#SVGID_18_);fill:#5F4634;}
	.st67{clip-path:url(#SVGID_18_);fill:none;stroke:#1D1D1B;stroke-miterlimit:10;}
	.st68{display:inline;fill:#9AC079;}
	.st69{display:inline;fill:#F9C199;}
	.st70{display:inline;fill:#133F65;}
	.st71{display:inline;fill:none;stroke:#133F65;stroke-width:5;stroke-miterlimit:10;}
	.st72{display:inline;fill:#F4F4F4;}
	.st73{fill:#FFFFFF;stroke:#1D1D1B;stroke-miterlimit:10;}
	.st74{fill:#FCD572;stroke:#1D1D1B;stroke-miterlimit:10;}
	.st75{display:inline;fill:#FCD572;stroke:#1D1D1B;stroke-miterlimit:10;}
	.st76{fill:#5F4634;stroke:#1D1D1B;stroke-miterlimit:10;}
	.st77{fill:#F4F4F4;stroke:#1D1D1B;stroke-miterlimit:10;}
	.st78{fill:#133F65;stroke:#FFFFFF;stroke-miterlimit:10;}
	.st79{display:none;clip-path:url(#SVGID_22_);}
	.st80{clip-path:url(#SVGID_22_);}
	.st81{clip-path:url(#SVGID_24_);fill:#FCD571;}
	.st82{clip-path:url(#SVGID_24_);fill:#153F65;}
	.st83{clip-path:url(#SVGID_24_);fill:none;stroke:#1D1D1B;stroke-miterlimit:10;}
	.st84{display:none;clip-path:url(#SVGID_24_);}
	.st85{display:inline;fill:#FFC499;stroke:#5F4634;stroke-width:0.5;stroke-miterlimit:10;}
	.st86{display:inline;fill:none;stroke:#FCD571;stroke-width:0.5;stroke-miterlimit:10;}
	.st87{clip-path:url(#SVGID_24_);fill:#5F4634;stroke:#5F4634;stroke-miterlimit:10;}
	.st88{display:none;fill:url(#SVGID_25_);}
	.st89{clip-path:url(#SVGID_27_);fill:#FCD571;}
	.st90{clip-path:url(#SVGID_27_);fill:none;stroke:#000000;stroke-miterlimit:10;}
	.st91{clip-path:url(#SVGID_29_);fill:#FFC499;}
	.st92{clip-path:url(#SVGID_29_);fill:none;stroke:#FFFFFF;stroke-width:2;stroke-miterlimit:10;}
	.st93{clip-path:url(#SVGID_31_);fill:#FFC499;}
	.st94{clip-path:url(#SVGID_31_);fill:none;stroke:#FFFFFF;stroke-miterlimit:10;}
	.st95{clip-path:url(#SVGID_31_);fill:#FCD571;}
	.st96{clip-path:url(#SVGID_33_);fill:#FCD571;}
	.st97{display:none;clip-path:url(#SVGID_33_);fill:none;stroke:#1D1D1B;stroke-miterlimit:10;}
	.st98{clip-path:url(#SVGID_33_);fill:#153F65;}
	.st99{clip-path:url(#SVGID_33_);fill:none;stroke:#1D1D1B;stroke-miterlimit:10;}
	.st100{fill:#122236;}
	.st101{opacity:0.3;fill:#66CC33;}
	.st102{clip-path:url(#SVGID_35_);fill:#FCD571;}
	.st103{clip-path:url(#SVGID_35_);fill:#153F65;stroke:#1D1D1B;stroke-miterlimit:10;}
	.st104{clip-path:url(#SVGID_35_);fill:#FFC499;}
	.st105{clip-path:url(#SVGID_37_);fill:#5F4634;}
	.st106{clip-path:url(#SVGID_37_);fill:none;stroke:#FFFFFF;stroke-miterlimit:10;}
	.st107{clip-path:url(#SVGID_37_);fill:#FFC499;}
	.st108{display:none;clip-path:url(#SVGID_37_);fill:#5F4634;}
	.st109{fill:#F5F5F5;}
	.st110{display:none;clip-path:url(#SVGID_39_);fill:#FCD571;}
	.st111{clip-path:url(#SVGID_39_);fill:#FFC499;}
	.st112{clip-path:url(#SVGID_39_);fill:none;stroke:#1D1D1B;stroke-miterlimit:10;}
	.st113{clip-path:url(#SVGID_39_);}
	.st114{clip-path:url(#SVGID_41_);fill:#FCD571;}
	.st115{clip-path:url(#SVGID_41_);fill:#153F65;}
	.st116{clip-path:url(#SVGID_41_);fill:none;stroke:#1D1D1B;stroke-miterlimit:10;}
	.st117{clip-path:url(#SVGID_41_);}
	.st118{fill:#FFC499;stroke:#5F4634;stroke-width:0.5;stroke-miterlimit:10;}
	.st119{fill:none;stroke:#FCD571;stroke-width:0.5;stroke-miterlimit:10;}
	.st120{clip-path:url(#SVGID_41_);fill:#5F4634;stroke:#5F4634;stroke-miterlimit:10;}
	.st121{display:none;clip-path:url(#SVGID_41_);}
	.st122{display:inline;fill:#051521;}
	.st123{clip-path:url(#SVGID_43_);fill:#153F65;stroke:#FFFFFF;stroke-miterlimit:10;}
	.st124{clip-path:url(#SVGID_43_);fill:none;stroke:#1D1D1B;stroke-miterlimit:10;}
	.st125{display:none;clip-path:url(#SVGID_43_);}
	.st126{clip-path:url(#SVGID_43_);fill:#FFC499;}
	.st127{font-family:'GiddyupStd';}
	.st128{font-size:30px;}
	.st129{font-family:'CooperBlackStd';}
	.st130{font-size:44.2076px;}
	.st131{display:none;clip-path:url(#SVGID_45_);}
	.st132{clip-path:url(#SVGID_45_);}
	.st133{clip-path:url(#SVGID_47_);fill:#FFC499;}
	.st134{clip-path:url(#SVGID_47_);fill:none;stroke:#FFFFFF;stroke-miterlimit:10;}
</style>
<g id="Capa_1">
	<g id="Capa_2">
	</g>
</g>
<g id="Capa_13">
</g>
<g id="Capa_3">
</g>
<g id="Capa_4">
</g>
<g id="Capa_5">
</g>
<g id="Capa_6">
</g>
<g id="Capa_24">
</g>
<g id="Capa_12">
</g>
<g id="Capa_7">
</g>
<g id="Capa_8">
</g>
<g id="Capa_9">
</g>
<g id="Capa_10">
</g>
<g id="Capa_11">
</g>
<g id="Capa_14">
</g>
<g id="Capa_15">
</g>
<g id="Capa_16">
</g>
<g id="Capa_17">
</g>
<g id="Capa_18">
</g>
<g id="Capa_19">
</g>
<g id="Capa_20">
</g>
<g id="Capa_21">
</g>
<g id="Capa_22">
</g>
<g id="Capa_23">
</g>
<g id="Capa_25">
</g>
<g id="Capa_26">
</g>
<g id="Capa_27">
</g>
<g id="Capa_28">
</g>
<g id="Capa_29">
</g>
<g id="Capa_30">
	<g>
		<g>
			<text transform="matrix(1 0 0 1 95.8114 101.3488)" class="st100 st127 st128">Logo</text>
		</g>
		<g>
			<rect class="st25" width="700" height="400"/>
			<g>
				<g>
					<g>
						<path class="st13" d="M244.3,182.4c1.1,0,6.4,0.3,9.8,4.1c0.7,0.8,2.3,2.6,2.5,5.3c0,0.7,0.2,3.2-1.6,5
							c-1.3,1.3-2.9,1.6-3.2,1.6c-0.5,0.1-2.2,0.3-3.4-0.6c-2.4-1.9,0.7-6.6-2-10.9c-0.4-0.7-1.4-2.2-2.9-2.4
							c-3.4-0.5-8.1,6.1-8.6,12.4c-0.5,5.9,2.5,13.2,6.7,13.7c3.2,0.4,6.2-3,6.6-3.4c3-3.4,2.4-7.1,4.4-7.6c1.4-0.3,3.1,1.2,3.7,2.7
							c1,2.4-0.5,4.9-1,5.7c-3.2,5.2-11.2,6.5-16.5,5.3c-1.4-0.3-6.4-1.6-9.7-6.5c-0.4-0.6-4-6.1-2.3-12.7
							C228.9,186.3,237.6,182.2,244.3,182.4z"/>
					</g>
					<path class="st33" d="M242.9,184.3c-1.9,2.5-2.8,5.8-2.3,8.9c0.3,2.2,1.3,4.2,2.1,6.2c0.8,2,1.6,4.2,1.5,6.4s-1.2,4.5-3.3,5.4"
						/>
				</g>
				<text transform="matrix(1 0 0 1 260.8763 213.2624)" class="st13 st129 st130">hantale’s</text>
			</g>
		</g>
		<g>
			<rect x="700" width="700" height="400"/>
			<g>
				<g>
					<g>
						<path class="st25" d="M944.3,182.4c1.1,0,6.4,0.3,9.8,4.1c0.7,0.8,2.3,2.6,2.5,5.3c0,0.7,0.2,3.2-1.6,5
							c-1.3,1.3-2.9,1.6-3.2,1.6c-0.5,0.1-2.2,0.3-3.4-0.6c-2.4-1.9,0.7-6.6-2-10.9c-0.4-0.7-1.4-2.2-2.9-2.4
							c-3.4-0.5-8.1,6.1-8.6,12.4c-0.5,5.9,2.5,13.2,6.7,13.7c3.2,0.4,6.2-3,6.6-3.4c3-3.4,2.4-7.1,4.4-7.6c1.4-0.3,3.1,1.2,3.7,2.7
							c1,2.4-0.5,4.9-1,5.7c-3.2,5.2-11.2,6.5-16.5,5.3c-1.4-0.3-6.4-1.6-9.7-6.5c-0.4-0.6-4-6.1-2.3-12.7
							C928.9,186.3,937.6,182.2,944.3,182.4z"/>
					</g>
					<path class="st24" d="M942.9,184.3c-1.9,2.5-2.8,5.8-2.3,8.9c0.3,2.2,1.3,4.2,2.1,6.2c0.8,2,1.6,4.2,1.5,6.4
						c-0.1,2.2-1.2,4.5-3.3,5.4"/>
				</g>
				<text transform="matrix(1 0 0 1 960.8787 213.2619)" class="st25 st129 st130">hantale’s</text>
			</g>
			<path d="M705,397.4c-20.1-12.3-31.1-37.6-26.5-60.5c2.9-14.3,11.2-27.2,13.1-41.6c4.3-33.3-25.8-63-24.3-96.5
				c1.3-29,25.9-52.7,28.6-81.5c1.8-19.1-6.2-37.6-9.9-56.4s-1.3-41.7,14.9-52c0.2-3.4-0.6-5.3-0.4-8.7
				c9.2,75.4,18.5,150.8,27.7,226.2c3.6,29.1,7.1,58.3,5.5,87.6C732.1,343,721.4,373,705,397.4z"/>
		</g>
		<g>
			<rect x="700" y="400" class="st0" width="700" height="400"/>
			<g>
				<g>
					<g>
						<path class="st25" d="M944.3,582.4c1.1,0,6.4,0.3,9.8,4.1c0.7,0.8,2.3,2.6,2.5,5.3c0,0.7,0.2,3.2-1.6,5
							c-1.3,1.3-2.9,1.6-3.2,1.6c-0.5,0.1-2.2,0.3-3.4-0.6c-2.4-1.9,0.7-6.6-2-10.9c-0.4-0.7-1.4-2.2-2.9-2.4
							c-3.4-0.5-8.1,6.1-8.6,12.4c-0.5,5.9,2.5,13.2,6.7,13.7c3.2,0.4,6.2-3,6.6-3.4c3-3.4,2.4-7.1,4.4-7.6c1.4-0.3,3.1,1.2,3.7,2.7
							c1,2.4-0.5,4.9-1,5.7c-3.2,5.2-11.2,6.5-16.5,5.3c-1.4-0.3-6.4-1.6-9.7-6.5c-0.4-0.6-4-6.1-2.3-12.7
							C928.9,586.3,937.6,582.2,944.3,582.4z"/>
					</g>
					<path class="st24" d="M942.9,584.3c-1.9,2.5-2.8,5.8-2.3,8.9c0.3,2.2,1.3,4.2,2.1,6.2s1.6,4.2,1.5,6.4s-1.2,4.5-3.3,5.4"/>
				</g>
				<text transform="matrix(1 0 0 1 960.8782 613.2629)" class="st25 st129 st130">hantale’s</text>
			</g>
			<path class="st0" d="M784,380.4c31.2,1.7,63.1,6.4,93.2,1.1c29.9-5.3,55.3-20.2,86.3-21.1c38.6-1.1,73.6,19.9,111.7,16.2
				c28.1-2.8,50.9-18.7,79.4-18.6c29.5,0.1,52.1,17.1,80.8,21.6c20.5,3.2,41.9-0.4,62.9-1.3c35.8-1.5,72.3,5.2,101.4,18.6
				c3.3,5-1.5,10.9-8.5,13.9c-7.1,3-15.8,3.7-24.2,4.3c-147.6,11.3-296.5,22.7-444.6,14.4c-23.9-1.3-47.8-3.2-71.5-5.5
				c-23.6-2.3-47.1-5.1-70.5-8.3c-23.5-3.2-46.8-6.8-70-10.9c-3.7-0.6-12-1.1-14.6-3.1c-2.2-1.7,0.6-3.9,2.4-5.3
				c5.8-4.4,13.9-8.1,22-10.6c17.6-5.4,37.9-6.5,57.1-5.9C779.6,380.2,781.8,380.3,784,380.4z"/>
		</g>
		<g>
			<rect y="400" class="st5" width="700" height="400"/>
			<g>
				<g>
					<g>
						<path class="st25" d="M244.3,582.4c1.1,0,6.4,0.3,9.8,4.1c0.7,0.8,2.3,2.6,2.5,5.3c0,0.7,0.2,3.2-1.6,5
							c-1.3,1.3-2.9,1.6-3.2,1.6c-0.5,0.1-2.2,0.3-3.4-0.6c-2.4-1.9,0.7-6.6-2-10.9c-0.4-0.7-1.4-2.2-2.9-2.4
							c-3.4-0.5-8.1,6.1-8.6,12.4c-0.5,5.9,2.5,13.2,6.7,13.7c3.2,0.4,6.2-3,6.6-3.4c3-3.4,2.4-7.1,4.4-7.6c1.4-0.3,3.1,1.2,3.7,2.7
							c1,2.4-0.5,4.9-1,5.7c-3.2,5.2-11.2,6.5-16.5,5.3c-1.4-0.3-6.4-1.6-9.7-6.5c-0.4-0.6-4-6.1-2.3-12.7
							C228.9,586.3,237.6,582.2,244.3,582.4z"/>
					</g>
					<path class="st24" d="M242.9,584.3c-1.9,2.5-2.8,5.8-2.3,8.9c0.3,2.2,1.3,4.2,2.1,6.2c0.8,2,1.6,4.2,1.5,6.4s-1.2,4.5-3.3,5.4"
						/>
				</g>
				<text transform="matrix(1 0 0 1 260.8763 613.2626)" class="st25 st129 st130">hantale’s</text>
			</g>
			<path class="st5" d="M694.1,398.9c18.5,17.9,27.4,45.2,23,70.5c-1.8,10.5-5.7,20.5-6.5,31.1c-2.4,34.2,28.1,65.1,23.3,99.1
				c-2.6,18.3-15.3,33.9-18.7,52.1c-3,15.6,1.1,31.7,6.4,46.7s12,29.6,14.6,45.3c2.6,15.7,0.5,33.1-10.1,45s-30.9,15.5-42.5,4.7
				c-7.8-7.3-10-18.7-11.5-29.3c-15.8-105.4-17.4-212.8-4.9-318.6c2-16.9,5.7-36,20.2-44.9c-2.8,0.6-5.7,1.1-8.5,1.7"/>
		</g>
		<path class="st25" d="M598.7,420.7c-37.1-3.2-72.8-17.7-109.4-12.5c-35.7,5-61.3,27.8-97.7,30.2c-44.4,3-80.2-25.4-124.7-27.8
			c-46.2-2.5-86.9,23.4-133.1,21.8c-17.6-0.6-34.2-5.1-50.3-9.6c-21.1-5.9-42.3-11.7-63.4-17.6c-8.7-2.4-18.7-5.8-19.8-11.8
			c-0.8-4.5,4.2-8.8,10.5-11c6.3-2.2,13.7-2.7,20.8-3.2c26.1-1.7,52.3-3.2,78.5-4.4c26.4-1.2,52.9-2.1,79.4-2.8
			c26.5-0.7,53-1,79.5-1.1c26.5-0.1,53,0.1,79.5,0.5c26.4,0.4,52.8,1.2,79.1,2.2c26.5,1,52.9,2.3,79.3,3.8c26.4,1.5,52.7,3.4,79,5.5
			c26.3,2.1,52.5,4.5,78.7,7.1c8.8,0.9,26.1,0.9,30.8,7c3.9,5.1-13,10.7-18.4,12.8c-18.6,7.4-40.3,11.5-62.3,11.6
			C609.4,421.3,604,421.1,598.7,420.7z"/>
	</g>
</g>
<g id="Capa_31">
</g>
<g id="Capa_32">
</g>
<g id="Capa_33">
</g>
<g id="Capa_34">
</g>
<g id="Capa_35">
</g>
</svg>
