<svg width="800" height="500" viewBox="0 0 800 500" fill="none" xmlns="http://www.w3.org/2000/svg">
<g clip-path="url(#clip0_3_10)">
<path d="M800.057 2.67297H0.628174V499.528H800.057V2.67297Z" fill="#FFC499"/>
<path d="M387.152 1.65095C382.413 9.43398 368.251 32.783 368.023 64.4654C367.737 105.267 389.836 139.544 399.657 150.943C416.445 170.362 439.572 187.264 447.566 210.063C455.446 232.469 447.109 256.368 435.86 277.83C424.611 299.214 410.278 319.969 405.368 342.846C403.769 350.157 403.712 358.412 406.624 365.33C409.479 372.17 414.218 374.843 417.188 376.887C427.066 383.569 432.948 393.16 444.711 412.421C451.734 423.899 459.786 437.107 464.126 457.704C466.238 467.689 469.036 480.975 466.353 494.733C460.3 526.022 430.778 536.164 431.977 541.038C434.889 552.752 606.709 499.371 644.454 516.667C645.939 517.374 654.618 522.406 666.952 525C677.402 527.201 688.023 528.852 698.701 530.031C720.114 532.311 741.813 532.547 763.283 530.739C784.754 528.931 805.996 525.157 826.324 519.418C846.709 513.679 866.181 505.896 884.226 496.305C884.511 496.148 884.739 495.991 885.025 495.833C909.693 482.547 932.591 464.78 940.985 441.745C950.464 415.802 940.186 388.286 932.42 361.95C916.374 307.783 911.006 251.494 916.431 195.991C920.143 158.412 928.765 120.755 924.654 83.1761C920.485 45.5975 900.899 6.6824 861.099 -13.0503C813.533 -36.6352 771.049 -33.5692 741.413 -28.3019C549.379 5.50315 437.345 -81.0534 387.152 1.65095Z" fill="#FCD571"/>
<path d="M-4.8537 176.415C-7.76593 181.682 -1.42758 187.736 6.33828 189.23C14.1042 190.723 22.3269 188.837 29.5788 186.399C63.0978 175 84.7966 151.808 102.841 128.931C120.885 106.054 137.73 81.6824 166.395 65.0944C207.966 40.9592 266.21 37.4214 313.719 19.5755C325.996 14.9371 338.273 8.72646 342.555 -0.550276C346.838 -9.827 338.901 -22.2484 325.025 -22.6415C327.937 -23.1918 330.849 -23.8207 333.819 -24.371C244.34 -38.8364 150.921 -49.6855 59.2719 -52.9088C31.1206 -53.9308 2.45536 -54.3239 -24.611 -48.8993C-51.6774 -43.4748 -77.4304 -31.4465 -89.0221 -13.4434C-98.8437 1.80821 -97.6445 19.3397 -96.217 36.0849C-92.334 82.0755 -88.4511 128.066 -82.1128 173.899C-81.4846 178.616 -80.7423 183.491 -77.7159 187.736C-74.7466 191.981 -68.9222 195.598 -62.1841 195.755C-54.7609 195.912 -48.4226 192.138 -43.6831 188.129C-38.9437 184.12 -34.5468 179.56 -27.923 177.28C-21.2991 175 -6.9094 171.384 -4.8537 176.415Z" fill="#153F65"/>
<path d="M6.681 194.576C3.76877 199.843 10.1071 205.896 17.873 207.39C25.6389 208.884 33.8616 206.997 41.1135 204.56C74.6325 193.16 96.3312 169.969 114.376 147.091C132.42 124.214 149.265 99.8428 177.93 83.2548C219.5 59.1195 277.744 55.5818 325.253 37.7359C337.53 33.0975 349.807 26.8868 354.09 17.6101C358.43 8.33337 350.435 -4.088 336.56 -4.48109C339.472 -5.0314 342.384 -5.66033 345.353 -6.21065C255.874 -20.5974 162.455 -31.5251 70.8066 -34.7484C42.6552 -35.6918 13.9901 -36.1635 -13.0763 -30.7389C-40.1427 -25.3144 -65.8957 -13.2861 -77.4874 4.71702C-87.309 19.9686 -86.1099 37.5 -84.6823 54.2453C-80.7994 100.236 -76.9164 146.226 -70.5781 192.06C-69.95 196.777 -69.2076 201.651 -66.1812 205.896C-63.2119 210.142 -57.3875 213.758 -50.6495 213.915C-43.2262 214.072 -36.8879 210.299 -32.1484 206.289C-27.4089 202.28 -23.0121 197.72 -16.3883 195.44C-9.76439 193.16 4.6253 189.623 6.681 194.576Z" stroke="#1D1D1B" stroke-miterlimit="10"/>
<path d="M753.614 447.264C760.937 451.573 766.122 457.016 769.578 462.836C776.819 475.007 775.914 485.968 774.762 491.108C774.433 491.184 774.186 491.259 773.857 491.335C773.034 491.486 772.129 491.562 771.224 491.713C770.072 491.94 768.755 491.94 767.603 491.788C767.274 491.713 767.027 491.713 766.698 491.637C764.558 491.184 762.748 490.352 760.937 489.369C753.943 485.514 748.594 480.223 745.714 474.251C743.656 469.942 742.916 465.406 742.011 460.946C741.188 456.486 740.2 451.951 737.731 447.718C735.51 443.862 731.807 440.234 726.787 438.042C740.529 440.309 749.17 444.694 753.614 447.264Z" fill="#5F4634"/>
<path d="M754.354 446.659C743.327 440.083 731.56 438.268 725.964 437.664C732.054 435.32 739.542 435.774 746.207 437.059C762.665 440.083 777.642 447.718 785.378 458.452C789.492 464.197 791.549 470.849 789.739 477.123C789.328 478.635 788.587 480.147 787.682 481.583C786.777 483.02 785.624 484.38 784.225 485.665C782.909 486.875 781.345 488.009 779.617 488.991C778.794 489.445 777.889 489.899 776.902 490.277C776.573 490.428 776.326 490.503 775.996 490.655C777.395 481.583 776.079 471.529 770.648 462.534C768.426 458.905 764.064 452.404 754.354 446.659Z" fill="#5F4634"/>
<path d="M725.799 437.739C725.799 437.739 725.882 437.739 725.882 437.815C725.882 437.739 725.882 437.739 725.799 437.739Z" fill="#5F4634"/>
<path d="M775.667 492.393C774.762 497.231 772.787 502.145 768.343 506C768.426 505.698 768.426 505.395 768.508 505.093C770.483 502.22 773.034 497.836 774.515 492.318C774.597 492.015 774.68 491.562 774.762 491.184C775.173 491.033 775.503 490.957 775.914 490.806C775.832 491.259 775.75 491.864 775.667 492.393Z" fill="#5F4634"/>
<path d="M726.869 438.193C726.54 438.042 726.211 437.89 725.882 437.739C726.293 437.89 726.622 438.042 726.869 438.193C726.951 438.193 726.951 438.193 726.869 438.193Z" fill="#5F4634"/>
<path d="M725.635 437.664C725.717 437.664 725.8 437.664 725.882 437.664H725.8C725.717 437.739 725.717 437.664 725.635 437.664Z" fill="#5F4634"/>
<path d="M775.914 478.786C779.782 477.048 783.073 474.629 785.295 471.756L775.914 478.786Z" fill="#FFC499"/>
<path d="M775.914 478.786C779.782 477.048 783.073 474.629 785.295 471.756" stroke="#5F4634" stroke-width="0.5" stroke-miterlimit="10"/>
<path d="M770.648 463.743C770.648 459.964 773.116 456.184 777.149 453.689" stroke="#FCD571" stroke-width="0.5" stroke-miterlimit="10"/>
<path d="M758.14 449.91C757.152 448.927 756.905 447.642 757.399 446.508C757.893 445.374 759.209 444.467 760.773 444.089C760.773 444.013 760.773 444.013 760.773 443.938" stroke="#FCD571" stroke-width="0.5" stroke-miterlimit="10"/>
<path d="M765.628 456.789C759.785 453.009 752.132 450.666 744.232 450.288" stroke="#FCD571" stroke-width="0.5" stroke-miterlimit="10"/>
<path d="M775.668 478.786C774.845 476.897 772.87 475.309 770.977 473.873C767.932 471.605 764.887 469.262 761.184 467.523C757.481 465.784 753.12 464.65 748.676 464.877C748.841 464.802 749.005 464.726 749.17 464.726" stroke="#FCD571" stroke-width="0.5" stroke-miterlimit="10"/>
<path d="M707.12 471.303C716.501 470.32 725.635 471.151 734.111 473.268C751.639 477.577 762.501 485.363 767.109 489.369C767.027 489.596 766.862 489.823 766.78 489.974C766.369 490.579 765.875 491.033 765.464 491.637C764.887 492.393 764.065 493.074 763.159 493.603C762.912 493.754 762.666 493.829 762.419 493.981C760.526 494.812 758.386 495.19 756.247 495.493C747.606 496.626 738.472 495.87 730.325 493.451C724.483 491.713 719.216 489.067 713.95 486.497C708.683 483.927 703.334 481.432 697.327 479.92C691.731 478.484 685.559 478.03 679.964 479.316C691.073 473.495 701.442 471.832 707.12 471.303Z" fill="#5F4634"/>
<path d="M706.955 470.471C692.719 471.907 683.008 476.897 678.565 479.542C680.211 474.78 685.642 471.076 691.484 468.354C705.638 461.702 723.66 458.83 740.036 461.929C748.758 463.592 757.07 466.918 762.418 472.134C763.735 473.419 764.805 474.78 765.71 476.216C766.615 477.652 767.274 479.164 767.685 480.752C768.096 482.264 768.261 483.851 768.096 485.439C768.014 486.195 767.85 487.026 767.685 487.782C767.603 488.009 767.521 488.236 767.438 488.538C758.88 481.735 747.442 475.687 734.44 472.512C729.173 471.151 719.463 469.186 706.955 470.471Z" fill="#5F4634"/>
<path d="M678.565 479.618C678.647 479.618 678.647 479.618 678.729 479.618C678.647 479.542 678.565 479.542 678.565 479.618Z" fill="#5F4634"/>
<path d="M769.002 489.747C773.445 493.451 777.231 497.836 778.3 502.674C778.054 502.447 777.724 502.22 777.478 501.993C775.832 499.045 772.952 494.737 768.096 490.277C767.767 489.974 767.438 489.672 767.109 489.369C767.274 489.067 767.356 488.765 767.438 488.462C768.014 488.84 768.508 489.294 769.002 489.747Z" fill="#5F4634"/>
<path d="M679.799 479.316C679.47 479.391 679.059 479.467 678.729 479.542C679.059 479.467 679.47 479.391 679.799 479.316Z" fill="#5F4634"/>
<path d="M678.4 479.618C678.482 479.618 678.565 479.542 678.565 479.467V479.542C678.482 479.618 678.482 479.618 678.4 479.618Z" fill="#5F4634"/>
<path d="M754.93 480.449C755.753 477.199 755.342 473.873 753.778 470.773L754.93 480.449Z" fill="#FFC499"/>
<path d="M754.93 480.449C755.753 477.199 755.342 473.873 753.778 470.773" stroke="#5F4634" stroke-width="0.5" stroke-miterlimit="10"/>
<path d="M735.757 473.268C731.807 470.698 729.502 466.918 729.585 463.139" stroke="#FCD571" stroke-width="0.5" stroke-miterlimit="10"/>
<path d="M712.88 470.622C711.234 470.471 709.67 469.791 708.847 468.732C708.024 467.674 707.942 466.389 708.601 465.331C708.518 465.255 708.518 465.255 708.436 465.18" stroke="#FCD571" stroke-width="0.5" stroke-miterlimit="10"/>
<path d="M725.059 471.227C717.159 471.832 709.588 474.326 703.91 478.182" stroke="#FCD571" stroke-width="0.5" stroke-miterlimit="10"/>
<path d="M754.766 480.676C752.215 479.845 749.334 479.845 746.454 479.92C742.011 479.996 737.567 480.071 733.288 480.903C729.009 481.735 724.894 483.246 722.179 485.741C722.261 485.59 722.261 485.514 722.343 485.363" stroke="#FCD571" stroke-width="0.5" stroke-miterlimit="10"/>
<path d="M-26.7237 455.346C-22.3268 449.528 -13.4189 445.598 -4.11131 445.283C5.19633 444.969 14.6182 448.349 19.7574 453.774C25.2963 459.67 27.0664 468.239 36.4883 470.755C40.0286 471.698 43.9116 471.541 47.6803 471.698C66.6382 472.642 83.1978 484.513 84.2827 497.799C85.3106 511.164 70.6924 524.214 52.02 526.572C17.302 531.053 -21.6416 519.182 -37.9728 497.248C-42.4268 491.274 -45.4532 484.355 -43.7972 477.752C-41.6844 468.947 -32.6623 463.286 -26.7237 455.346Z" fill="#5F4634" stroke="#5F4634" stroke-miterlimit="10"/>
<path d="M-7.42328 452.673C-3.0264 446.855 5.8815 442.925 15.1891 442.61C24.4968 442.296 33.9186 445.676 39.0578 451.101C44.5967 456.997 46.3669 465.566 55.7888 468.082C59.3291 469.025 63.212 468.868 66.9808 469.025C85.9387 469.969 102.498 481.84 103.583 495.126C104.611 508.491 89.9929 521.541 71.3205 523.899C36.6024 528.381 -2.34117 516.509 -18.6724 494.575C-23.1264 488.601 -26.1528 481.682 -24.4968 475.079C-22.384 466.274 -13.419 460.535 -7.42328 452.673Z" stroke="#1D1D1B" stroke-miterlimit="10"/>
<path d="M536.272 276.849C531.327 266.022 518.346 255.194 507.835 256.997C492.382 260.006 497.328 287.676 474.453 312.337C471.98 314.743 453.435 335.195 432.416 337.601C436.125 334.595 439.218 330.383 441.69 326.174C446.016 318.352 448.489 309.931 449.109 300.91C449.109 299.707 449.109 298.504 449.109 297.901C449.109 281.661 443.543 266.622 437.361 252.788C431.18 237.749 423.761 223.312 421.288 207.673C420.672 203.464 420.055 199.251 420.055 195.042C420.055 177.597 426.234 159.551 437.361 145.718H437.981C449.109 146.921 456.527 158.348 460.236 163.16C481.255 194.439 457.144 228.727 475.689 243.164C484.344 249.779 497.944 247.976 501.037 247.373C503.51 246.773 515.874 244.967 525.145 235.343C538.745 222.109 537.509 204.063 536.892 198.651C535.656 178.8 523.909 165.566 518.346 160.154C492.382 131.884 452.198 130.078 444.163 130.078C394.088 128.275 328.563 157.748 312.49 216.697C299.506 264.819 326.707 305.119 329.796 309.331C355.143 345.422 392.852 354.444 402.743 356.85C442.927 365.874 502.89 356.25 527.001 318.352C532.563 312.337 544.311 294.292 536.272 276.849ZM374.306 237.149C377.398 198.048 402.746 157.748 426.234 148.124C417.583 162.56 412.634 178.8 412.634 195.642C412.634 200.454 413.254 204.667 413.873 209.479C416.346 226.321 423.761 241.358 430.563 256.397C436.745 270.231 441.69 284.667 441.69 298.504C441.69 299.707 441.69 300.307 441.69 301.51C441.071 308.728 439.218 316.549 435.509 323.165C431.799 329.18 426.854 334.595 420.055 337.001C390.999 326.774 371.217 277.449 374.306 237.149Z" fill="#1D1D1B"/>
</g>
<defs>
<clipPath id="clip0_3_10">
<rect width="800" height="500" fill="white"/>
</clipPath>
</defs>
</svg>
