<?xml version="1.0" encoding="utf-8"?>
<!-- Generator: Adobe Illustrator 25.2.1, SVG Export Plug-In . SVG Version: 6.00 Build 0)  -->
<svg version="1.1" xmlns="http://www.w3.org/2000/svg" xmlns:xlink="http://www.w3.org/1999/xlink" x="0px" y="0px"
	 viewBox="0 0 1400.5 635.3" style="enable-background:new 0 0 1400.5 635.3;" xml:space="preserve">
<style type="text/css">
	.st0{fill:#5F4634;}
	.st1{display:none;}
	.st2{display:inline;fill:#5A2F15;}
	.st3{display:inline;fill:#FBBF29;}
	.st4{display:inline;fill:#225527;}
	.st5{fill:#153F65;}
	.st6{fill:#FFC499;}
	.st7{fill:#FCD571;}
	.st8{fill:url(#);}
	.st9{clip-path:url(#SVGID_3_);fill:#5F4634;}
	.st10{clip-path:url(#SVGID_3_);fill:none;stroke:#1D1D1B;stroke-miterlimit:10;}
	.st11{clip-path:url(#SVGID_3_);fill:#F9C199;}
	.st12{display:none;fill:#5F4634;}
	.st13{fill:#1D1D1B;}
	.st14{fill:none;stroke:#1D1D1B;stroke-width:7;stroke-miterlimit:10;}
	.st15{fill:#F9C199;}
	.st16{fill:none;stroke:#1D1D1B;stroke-miterlimit:10;}
	.st17{fill:#FCD572;}
	.st18{fill:none;stroke:#5F4634;stroke-width:0.5;stroke-miterlimit:10;}
	.st19{clip-path:url(#SVGID_5_);fill:#FCD571;}
	.st20{clip-path:url(#SVGID_5_);fill:none;stroke:#FFFFFF;stroke-width:2;stroke-miterlimit:10;}
	.st21{clip-path:url(#SVGID_5_);}
	.st22{fill:none;stroke:#FFFFFF;stroke-miterlimit:10;}
	.st23{fill:none;stroke:#FFFFFF;stroke-width:5;stroke-miterlimit:10;}
	.st24{fill:none;stroke:#FFFFFF;stroke-width:3;stroke-miterlimit:10;}
	.st25{fill:#FFFFFF;}
	.st26{fill:none;stroke:#FFFFFF;stroke-width:2;stroke-miterlimit:10;}
	.st27{clip-path:url(#SVGID_6_);fill:#153F65;stroke:#FFFFFF;stroke-miterlimit:10;}
	.st28{clip-path:url(#SVGID_6_);fill:none;stroke:#1D1D1B;stroke-miterlimit:10;}
	.st29{display:none;clip-path:url(#SVGID_6_);}
	.st30{display:inline;fill:#153F65;}
	.st31{display:inline;fill:none;stroke:#5F4634;stroke-miterlimit:10;}
	.st32{clip-path:url(#SVGID_6_);fill:#FFC499;}
	.st33{fill:none;stroke:#1D1D1B;stroke-width:3;stroke-miterlimit:10;}
	.st34{fill:#153F65;stroke:#E20613;stroke-miterlimit:10;}
	.st35{opacity:0.1;fill:url(#);}
	.st36{fill:none;stroke:#66CC33;stroke-miterlimit:10;}
	.st37{fill:none;stroke:#E20613;stroke-miterlimit:10;}
	.st38{fill:#FF6700;}
	.st39{fill:#FCEA0D;}
	.st40{display:none;fill:#153F65;stroke:#FFFFFF;stroke-miterlimit:10;}
	.st41{display:inline;fill:#5F4634;}
	.st42{display:inline;}
	.st43{clip-path:url(#SVGID_10_);fill:#FFC499;}
	.st44{clip-path:url(#SVGID_10_);fill:none;stroke:#1D1D1B;stroke-miterlimit:10;}
	.st45{fill:#9AC079;}
	.st46{fill:#133F65;}
	.st47{fill:none;stroke:#133F65;stroke-width:5;stroke-miterlimit:10;}
	.st48{fill:#F4F4F4;}
	.st49{fill:none;stroke:#5F4634;stroke-miterlimit:10;}
	.st50{clip-path:url(#SVGID_12_);fill:#133F65;}
	.st51{clip-path:url(#SVGID_12_);fill:none;stroke:#1D1D1B;stroke-miterlimit:10;}
	.st52{fill:none;stroke:#1D1D1B;stroke-width:0.25;stroke-miterlimit:10;}
	.st53{fill:none;stroke:#1D1D1B;stroke-width:2;stroke-miterlimit:10;}
	.st54{clip-path:url(#SVGID_14_);fill:#153F65;}
	.st55{clip-path:url(#SVGID_14_);}
	.st56{fill:#FFFFFF;stroke:#1D1D1B;stroke-width:2;stroke-miterlimit:10;}
	.st57{clip-path:url(#SVGID_16_);fill:#5F4634;}
	.st58{display:none;clip-path:url(#SVGID_16_);}
	.st59{display:inline;fill:#FCD572;}
	.st60{clip-path:url(#SVGID_16_);}
	.st61{fill:#1D1D1B;stroke:#FFFFFF;stroke-width:3;stroke-miterlimit:10;}
	.st62{display:none;fill:#FFFFFF;}
	.st63{opacity:0.3;clip-path:url(#SVGID_18_);fill:url(#);}
	.st64{clip-path:url(#SVGID_18_);}
	.st65{opacity:0.3;clip-path:url(#SVGID_20_);fill:url(#);stroke:#FFFFFF;stroke-width:2;stroke-miterlimit:10;}
	.st66{clip-path:url(#SVGID_18_);fill:#5F4634;}
	.st67{clip-path:url(#SVGID_18_);fill:none;stroke:#1D1D1B;stroke-miterlimit:10;}
	.st68{display:inline;fill:#9AC079;}
	.st69{display:inline;fill:#F9C199;}
	.st70{display:inline;fill:#133F65;}
	.st71{display:inline;fill:none;stroke:#133F65;stroke-width:5;stroke-miterlimit:10;}
	.st72{display:inline;fill:#F4F4F4;}
	.st73{fill:#FFFFFF;stroke:#1D1D1B;stroke-miterlimit:10;}
	.st74{fill:#FCD572;stroke:#1D1D1B;stroke-miterlimit:10;}
	.st75{display:inline;fill:#FCD572;stroke:#1D1D1B;stroke-miterlimit:10;}
	.st76{fill:#5F4634;stroke:#1D1D1B;stroke-miterlimit:10;}
	.st77{fill:#F4F4F4;stroke:#1D1D1B;stroke-miterlimit:10;}
	.st78{fill:#133F65;stroke:#FFFFFF;stroke-miterlimit:10;}
	.st79{display:none;clip-path:url(#SVGID_22_);}
	.st80{clip-path:url(#SVGID_22_);}
	.st81{clip-path:url(#SVGID_24_);fill:#FCD571;}
	.st82{clip-path:url(#SVGID_24_);fill:#153F65;}
	.st83{clip-path:url(#SVGID_24_);fill:none;stroke:#1D1D1B;stroke-miterlimit:10;}
	.st84{display:none;clip-path:url(#SVGID_24_);}
	.st85{display:inline;fill:#FFC499;stroke:#5F4634;stroke-width:0.5;stroke-miterlimit:10;}
	.st86{display:inline;fill:none;stroke:#FCD571;stroke-width:0.5;stroke-miterlimit:10;}
	.st87{clip-path:url(#SVGID_24_);fill:#5F4634;stroke:#5F4634;stroke-miterlimit:10;}
	.st88{display:none;fill:url(#SVGID_25_);}
	.st89{clip-path:url(#SVGID_27_);fill:#FCD571;}
	.st90{clip-path:url(#SVGID_27_);fill:none;stroke:#000000;stroke-miterlimit:10;}
	.st91{clip-path:url(#SVGID_29_);fill:#FFC499;}
	.st92{clip-path:url(#SVGID_29_);fill:none;stroke:#FFFFFF;stroke-width:2;stroke-miterlimit:10;}
	.st93{clip-path:url(#SVGID_31_);fill:#FFC499;}
	.st94{clip-path:url(#SVGID_31_);fill:none;stroke:#FFFFFF;stroke-miterlimit:10;}
	.st95{clip-path:url(#SVGID_31_);fill:#FCD571;}
	.st96{clip-path:url(#SVGID_33_);fill:#FCD571;}
	.st97{display:none;clip-path:url(#SVGID_33_);fill:none;stroke:#1D1D1B;stroke-miterlimit:10;}
	.st98{clip-path:url(#SVGID_33_);fill:#153F65;}
	.st99{clip-path:url(#SVGID_33_);fill:none;stroke:#1D1D1B;stroke-miterlimit:10;}
	.st100{fill:#122236;}
	.st101{opacity:0.3;fill:#66CC33;}
	.st102{clip-path:url(#SVGID_35_);fill:#FCD571;}
	.st103{clip-path:url(#SVGID_35_);fill:#153F65;stroke:#1D1D1B;stroke-miterlimit:10;}
	.st104{clip-path:url(#SVGID_35_);fill:#FFC499;}
	.st105{clip-path:url(#SVGID_37_);fill:#5F4634;}
	.st106{clip-path:url(#SVGID_37_);fill:none;stroke:#FFFFFF;stroke-miterlimit:10;}
	.st107{clip-path:url(#SVGID_37_);fill:#FFC499;}
	.st108{display:none;clip-path:url(#SVGID_37_);fill:#5F4634;}
	.st109{fill:#F5F5F5;}
	.st110{display:none;clip-path:url(#SVGID_39_);fill:#FCD571;}
	.st111{clip-path:url(#SVGID_39_);fill:#FFC499;}
	.st112{clip-path:url(#SVGID_39_);fill:none;stroke:#1D1D1B;stroke-miterlimit:10;}
	.st113{clip-path:url(#SVGID_39_);}
	.st114{clip-path:url(#SVGID_41_);fill:#FCD571;}
	.st115{clip-path:url(#SVGID_41_);fill:#153F65;}
	.st116{clip-path:url(#SVGID_41_);fill:none;stroke:#1D1D1B;stroke-miterlimit:10;}
	.st117{clip-path:url(#SVGID_41_);}
	.st118{fill:#FFC499;stroke:#5F4634;stroke-width:0.5;stroke-miterlimit:10;}
	.st119{fill:none;stroke:#FCD571;stroke-width:0.5;stroke-miterlimit:10;}
	.st120{clip-path:url(#SVGID_41_);fill:#5F4634;stroke:#5F4634;stroke-miterlimit:10;}
	.st121{display:none;clip-path:url(#SVGID_41_);}
	.st122{display:inline;fill:#051521;}
	.st123{clip-path:url(#SVGID_43_);fill:#153F65;stroke:#FFFFFF;stroke-miterlimit:10;}
	.st124{clip-path:url(#SVGID_43_);fill:none;stroke:#1D1D1B;stroke-miterlimit:10;}
	.st125{display:none;clip-path:url(#SVGID_43_);}
	.st126{clip-path:url(#SVGID_43_);fill:#FFC499;}
	.st127{display:none;clip-path:url(#SVGID_45_);}
	.st128{clip-path:url(#SVGID_45_);}
	.st129{clip-path:url(#SVGID_47_);fill:#FFC499;}
	.st130{clip-path:url(#SVGID_47_);fill:none;stroke:#FFFFFF;stroke-miterlimit:10;}
</style>
<g id="Capa_1">
	<g id="Capa_2">
	</g>
</g>
<g id="Capa_13">
</g>
<g id="Capa_3">
</g>
<g id="Capa_4">
</g>
<g id="Capa_5">
</g>
<g id="Capa_6">
</g>
<g id="Capa_24">
</g>
<g id="Capa_12">
</g>
<g id="Capa_7">
</g>
<g id="Capa_8">
</g>
<g id="Capa_9">
</g>
<g id="Capa_10">
</g>
<g id="Capa_11">
</g>
<g id="Capa_14">
</g>
<g id="Capa_15">
</g>
<g id="Capa_16">
</g>
<g id="Capa_17">
</g>
<g id="Capa_18">
</g>
<g id="Capa_19">
</g>
<g id="Capa_20">
</g>
<g id="Capa_21">
</g>
<g id="Capa_22">
</g>
<g id="Capa_23">
</g>
<g id="Capa_25">
	<g>
		<g>
			<defs>
				<rect id="SVGID_40_" x="1.1" y="3.4" width="1400" height="632"/>
			</defs>
			<use xlink:href="#SVGID_40_"  style="overflow:visible;fill:#FFC499;"/>
			<clipPath id="SVGID_3_">
				<use xlink:href="#SVGID_40_"  style="overflow:visible;"/>
			</clipPath>
			<path style="clip-path:url(#SVGID_3_);fill:#FCD571;" d="M678,2.1c-8.3,9.9-33.1,39.6-33.5,79.9c-0.5,51.9,38.2,95.5,55.4,110
				c29.4,24.7,69.9,46.2,83.9,75.2c13.8,28.5-0.8,58.9-20.5,86.2c-19.7,27.2-44.8,53.6-53.4,82.7c-2.8,9.3-2.9,19.8,2.2,28.6
				c5,8.7,13.3,12.1,18.5,14.7c17.3,8.5,27.6,20.7,48.2,45.2c12.3,14.6,26.4,31.4,34,57.6c3.7,12.7,8.6,29.6,3.9,47.1
				c-10.6,39.8-62.3,52.7-60.2,58.9c5.1,14.9,306-53,372.1-31c2.6,0.9,17.8,7.3,39.4,10.6c18.3,2.8,36.9,4.9,55.6,6.4
				c37.5,2.9,75.5,3.2,113.1,0.9c37.6-2.3,74.8-7.1,110.4-14.4c35.7-7.3,69.8-17.2,101.4-29.4c0.5-0.2,0.9-0.4,1.4-0.6
				c43.2-16.9,83.3-39.5,98-68.8c16.6-33-1.4-68-15-101.5c-28.1-68.9-37.5-140.5-28-211.1c6.5-47.8,21.6-95.7,14.4-143.5
				c-7.3-47.8-41.6-97.3-111.3-122.4c-83.3-30-157.7-26.1-209.6-19.4C962.1,7,765.9-103.1,678,2.1z"/>
			<path style="clip-path:url(#SVGID_3_);fill:#153F65;" d="M-8.5,224.4c-5.1,6.7,6,14.4,19.6,16.3s28-0.5,40.7-3.6
				c58.7-14.5,96.7-44,128.3-73.1s61.1-60.1,111.3-81.2c72.8-30.7,174.8-35.2,258-57.9c21.5-5.9,43-13.8,50.5-25.6
				s-6.4-27.6-30.7-28.1c5.1-0.7,10.2-1.5,15.4-2.2C427.9-49.4,264.3-63.2,103.8-67.3c-49.3-1.3-99.5-1.8-146.9,5.1
				S-135.6-40-155.9-17.1c-17.2,19.4-15.1,41.7-12.6,63c6.8,58.5,13.6,117,24.7,175.3c1.1,6,2.4,12.2,7.7,17.6
				c5.2,5.4,15.4,10,27.2,10.2c13,0.2,24.1-4.6,32.4-9.7s16-10.9,27.6-13.8S-12.1,218-8.5,224.4z"/>
			<path class="st10" d="M11.7,247.5c-5.1,6.7,6,14.4,19.6,16.3s28-0.5,40.7-3.6c58.7-14.5,96.7-44,128.3-73.1s61.1-60.1,111.3-81.2
				c72.8-30.7,174.8-35.2,258-57.9c21.5-5.9,43-13.8,50.5-25.6c7.6-11.8-6.4-27.6-30.7-28.1c5.1-0.7,10.2-1.5,15.4-2.2
				C448.1-26.2,284.5-40.1,124-44.2C74.7-45.4,24.5-46-22.9-39.1S-115.4-16.9-135.7,6c-17.2,19.4-15.1,41.7-12.6,63
				c6.8,58.5,13.6,117,24.7,175.3c1.1,6,2.4,12.2,7.7,17.6c5.2,5.4,15.4,10,27.2,10.2c13,0.2,24.1-4.6,32.4-9.7s16-10.9,27.6-13.8
				S8.1,241.2,11.7,247.5z"/>
			<g style="clip-path:url(#SVGID_3_);">
				<g>
					<path class="st0" d="M1351,570.2c8.9,5.7,15.2,12.9,19.4,20.6c8.8,16.1,7.7,30.6,6.3,37.4c-0.4,0.1-0.7,0.2-1.1,0.3
						c-1,0.2-2.1,0.3-3.2,0.5c-1.4,0.3-3,0.3-4.4,0.1c-0.4-0.1-0.7-0.1-1.1-0.2c-2.6-0.6-4.8-1.7-7-3c-8.5-5.1-15-12.1-18.5-20
						c-2.5-5.7-3.4-11.7-4.5-17.6c-1-5.9-2.2-11.9-5.2-17.5c-2.7-5.1-7.2-9.9-13.3-12.8C1335.1,561,1345.6,566.8,1351,570.2z"/>
					<path class="st0" d="M1351.9,569.4c-13.4-8.7-27.7-11.1-34.5-11.9c7.4-3.1,16.5-2.5,24.6-0.8c20,4,38.2,14.1,47.6,28.3
						c5,7.6,7.5,16.4,5.3,24.7c-0.5,2-1.4,4-2.5,5.9c-1.1,1.9-2.5,3.7-4.2,5.4c-1.6,1.6-3.5,3.1-5.6,4.4c-1,0.6-2.1,1.2-3.3,1.7
						c-0.4,0.2-0.7,0.3-1.1,0.5c1.7-12,0.1-25.3-6.5-37.2C1369,585.6,1363.7,577,1351.9,569.4z"/>
					<path class="st0" d="M1317.2,557.6c0,0,0.1,0,0.1,0.1C1317.3,557.6,1317.3,557.6,1317.2,557.6
						C1317.2,557.6,1317.2,557.6,1317.2,557.6z"/>
					<path class="st0" d="M1377.8,629.9c-1.1,6.4-3.5,12.9-8.9,18c0.1-0.4,0.1-0.8,0.2-1.2c2.4-3.8,5.5-9.6,7.3-16.9
						c0.1-0.4,0.2-1,0.3-1.5c0.5-0.2,0.9-0.3,1.4-0.5C1378,628.4,1377.9,629.2,1377.8,629.9z"/>
					<path class="st0" d="M1318.5,558.2c-0.4-0.2-0.8-0.4-1.2-0.6C1317.8,557.8,1318.2,558,1318.5,558.2
						C1318.6,558.2,1318.6,558.2,1318.5,558.2z"/>
					<path class="st0" d="M1317,557.5c0.1,0,0.2,0,0.3,0c0,0-0.1,0-0.1,0C1317.1,557.6,1317.1,557.5,1317,557.5z"/>
				</g>
				<path class="st118" d="M1378.1,611.9c4.7-2.3,8.7-5.5,11.4-9.3"/>
				<path class="st119" d="M1371.7,592c0-5,3-10,7.9-13.3"/>
				<path class="st119" d="M1356.5,573.7c-1.2-1.3-1.5-3-0.9-4.5s2.2-2.7,4.1-3.2c0-0.1,0-0.1,0-0.2"/>
				<path class="st119" d="M1365.6,582.8c-7.1-5-16.4-8.1-26-8.6"/>
				<path class="st119" d="M1377.8,611.9c-1-2.5-3.4-4.6-5.7-6.5c-3.7-3-7.4-6.1-11.9-8.4s-9.8-3.8-15.2-3.5
					c0.2-0.1,0.4-0.2,0.6-0.2"/>
			</g>
			<g style="clip-path:url(#SVGID_3_);">
				<g>
					<path class="st0" d="M1294.5,602c11.4-1.3,22.5-0.2,32.8,2.6c21.3,5.7,34.5,16,40.1,21.3c-0.1,0.3-0.3,0.6-0.4,0.8
						c-0.5,0.8-1.1,1.4-1.6,2.2c-0.7,1-1.7,1.9-2.8,2.6c-0.3,0.2-0.6,0.3-0.9,0.5c-2.3,1.1-4.9,1.6-7.5,2
						c-10.5,1.5-21.6,0.5-31.5-2.7c-7.1-2.3-13.5-5.8-19.9-9.2c-6.4-3.4-12.9-6.7-20.2-8.7c-6.8-1.9-14.3-2.5-21.1-0.8
						C1275,604.9,1287.6,602.7,1294.5,602z"/>
					<path class="st0" d="M1294.3,600.9c-17.3,1.9-29.1,8.5-34.5,12c2-6.3,8.6-11.2,15.7-14.8c17.2-8.8,39.1-12.6,59-8.5
						c10.6,2.2,20.7,6.6,27.2,13.5c1.6,1.7,2.9,3.5,4,5.4c1.1,1.9,1.9,3.9,2.4,6c0.5,2,0.7,4.1,0.5,6.2c-0.1,1-0.3,2.1-0.5,3.1
						c-0.1,0.3-0.2,0.6-0.3,1c-10.4-9-24.3-17-40.1-21.2C1321.3,601.8,1309.5,599.2,1294.3,600.9z"/>
					<path class="st0" d="M1259.8,613c0.1,0,0.1,0,0.2,0C1259.9,612.9,1259.8,612.9,1259.8,613C1259.8,613,1259.8,613,1259.8,613z"
						/>
					<path class="st0" d="M1369.7,626.4c5.4,4.9,10,10.7,11.3,17.1c-0.3-0.3-0.7-0.6-1-0.9c-2-3.9-5.5-9.6-11.4-15.5
						c-0.4-0.4-0.8-0.8-1.2-1.2c0.2-0.4,0.3-0.8,0.4-1.2C1368.5,625.2,1369.1,625.8,1369.7,626.4z"/>
					<path class="st0" d="M1261.3,612.6c-0.4,0.1-0.9,0.2-1.3,0.3C1260.4,612.8,1260.9,612.7,1261.3,612.6
						C1261.3,612.6,1261.3,612.6,1261.3,612.6z"/>
					<path class="st0" d="M1259.6,613c0.1,0,0.2-0.1,0.2-0.2c0,0,0,0.1,0,0.1C1259.7,613,1259.7,613,1259.6,613z"/>
				</g>
				<path class="st118" d="M1352.6,614.1c1-4.3,0.5-8.7-1.4-12.8"/>
				<path class="st119" d="M1329.3,604.6c-4.8-3.4-7.6-8.4-7.5-13.4"/>
				<path class="st119" d="M1301.5,601.1c-2-0.2-3.9-1.1-4.9-2.5s-1.1-3.1-0.3-4.5c-0.1-0.1-0.1-0.1-0.2-0.2"/>
				<path class="st119" d="M1316.3,601.9c-9.6,0.8-18.8,4.1-25.7,9.2"/>
				<path class="st119" d="M1352.4,614.4c-3.1-1.1-6.6-1.1-10.1-1c-5.4,0.1-10.8,0.2-16,1.3c-5.2,1.1-10.2,3.1-13.5,6.4
					c0.1-0.2,0.1-0.3,0.2-0.5"/>
			</g>
			<path style="clip-path:url(#SVGID_3_);fill:#5F4634;stroke:#5F4634;stroke-miterlimit:10;" d="M-46.8,579.2
				c7.7-7.4,23.3-12.4,39.6-12.8s32.8,3.9,41.8,10.8c9.7,7.5,12.8,18.4,29.3,21.6c6.2,1.2,13,1,19.6,1.2
				c33.2,1.2,62.2,16.3,64.1,33.2c1.8,17-23.8,33.6-56.5,36.6c-60.8,5.7-129-9.4-157.6-37.3c-7.8-7.6-13.1-16.4-10.2-24.8
				C-73,596.5-57.2,589.3-46.8,579.2z"/>
			<path class="st10" d="M-13,575.8c7.7-7.4,23.3-12.4,39.6-12.8s32.8,3.9,41.8,10.8c9.7,7.5,12.8,18.4,29.3,21.6
				c6.2,1.2,13,1,19.6,1.2c33.2,1.2,62.2,16.3,64.1,33.2c1.8,17-23.8,33.6-56.5,36.6c-60.8,5.7-129-9.4-157.6-37.3
				c-7.8-7.6-13.1-16.4-10.2-24.8C-39.2,593.1-23.5,585.8-13,575.8z"/>
			<g style="display:none;clip-path:url(#SVGID_3_);">
				<path class="st41" d="M299.9-45.3c-0.1,12.6-5.5,25-14.5,33.6c-2.5,2.3-5.2,4.4-8.1,6.1c-2.9,1.7-6.1,3.2-9.3,4.2
					c-3.2,1.1-6.6,1.8-10,2.1c-0.9,0.1-1.7,0.1-2.6,0.2c-0.7,0-1.6,0.2-2.3-0.1c-1-0.4,0.2-0.6,0.6-0.8c0.8-0.3,1.6-0.6,2.3-0.9
					c3.1-1.3,6.2-2.8,9.1-4.5c2.9-1.7,5.8-3.6,8.5-5.7c2.7-2.1,5.3-4.3,7.7-6.7c2.4-2.4,4.7-5,6.9-7.7c2.1-2.7,4.1-5.5,5.8-8.4
					c1.8-2.9,3.4-6,4.7-9.1C299.2-43.7,299.5-44.5,299.9-45.3z"/>
				<path class="st41" d="M318.6-34.3c-1.4,14.2-8.2,26.7-18.4,33.7c-2.8,1.9-5.8,3.4-9,4.5c-3.2,1.1-6.6,1.7-10,2
					c-3.5,0.2-7,0-10.5-0.6c-0.9-0.2-1.8-0.4-2.7-0.6c-0.7-0.2-1.7-0.3-2.4-0.8c-1-0.7,0.3-0.6,0.7-0.7c0.8-0.1,1.7-0.2,2.5-0.4
					c3.4-0.5,6.7-1.3,9.9-2.4c3.2-1,6.3-2.3,9.4-3.9c3-1.5,5.9-3.3,8.7-5.3c2.8-2,5.4-4.2,7.9-6.6c2.5-2.4,4.8-5,6.9-7.8
					c2.1-2.8,4.1-5.8,5.8-8.9C317.8-32.7,318.2-33.5,318.6-34.3z"/>
				<path class="st41" d="M339.2-27.5c-1.4,14.2-8.2,26.7-18.4,33.7c-2.8,1.9-5.8,3.4-9,4.5c-3.2,1.1-6.6,1.7-10,2
					c-3.5,0.2-7,0-10.5-0.6c-0.9-0.2-1.8-0.4-2.7-0.6c-0.7-0.2-1.7-0.3-2.4-0.8c-1-0.7,0.3-0.6,0.7-0.7c0.8-0.1,1.7-0.2,2.5-0.4
					c3.4-0.5,6.7-1.3,9.9-2.4c3.2-1,6.3-2.3,9.4-3.9c3-1.5,5.9-3.3,8.7-5.3c2.8-2,5.4-4.2,7.9-6.6c2.5-2.4,4.8-5,6.9-7.8
					c2.1-2.8,4.1-5.8,5.8-8.9C338.4-26,338.8-26.7,339.2-27.5z"/>
				<path class="st41" d="M361.4-4.3c-4.2,13.9-12.9,24.5-23.7,28.6c-2.9,1.1-6,1.7-9.1,1.9c-3.1,0.2-6.4-0.2-9.5-1
					c-3.2-0.8-6.4-2-9.5-3.7c-0.8-0.4-1.6-0.9-2.3-1.4c-0.6-0.4-1.5-0.8-2-1.5c-0.7-1,0.4-0.6,0.8-0.5c0.8,0.1,1.6,0.3,2.4,0.4
					c3.2,0.4,6.4,0.6,9.5,0.5c3.1-0.1,6.3-0.5,9.3-1.2c3.1-0.7,6.1-1.6,9-2.8c2.9-1.2,5.8-2.6,8.5-4.3c2.7-1.7,5.4-3.6,7.9-5.8
					c2.5-2.2,4.9-4.6,7.1-7.3C360.3-3,360.9-3.6,361.4-4.3z"/>
				<path class="st41" d="M380.8,6.4c-4.2,13.9-12.9,24.5-23.7,28.6c-2.9,1.1-6,1.7-9.1,1.9c-3.1,0.2-6.4-0.2-9.5-1
					c-3.2-0.8-6.4-2-9.5-3.7c-0.8-0.4-1.6-0.9-2.3-1.4c-0.6-0.4-1.5-0.8-2-1.5c-0.7-1,0.4-0.6,0.8-0.5c0.8,0.1,1.6,0.3,2.4,0.4
					c3.2,0.4,6.4,0.6,9.5,0.5c3.1-0.1,6.3-0.5,9.3-1.2c3.1-0.7,6.1-1.6,9-2.8c2.9-1.2,5.8-2.6,8.5-4.3c2.7-1.7,5.4-3.6,7.9-5.8
					c2.5-2.2,4.9-4.6,7.1-7.3C379.7,7.7,380.3,7.1,380.8,6.4z"/>
				<path class="st41" d="M399.8,18.3c-4.2,13.9-12.9,24.5-23.7,28.6c-2.9,1.1-6,1.7-9.1,1.9c-3.1,0.2-6.4-0.2-9.5-1
					c-3.2-0.8-6.4-2-9.5-3.7c-0.8-0.4-1.6-0.9-2.3-1.4c-0.6-0.4-1.5-0.8-2-1.5c-0.7-1,0.4-0.6,0.8-0.5c0.8,0.1,1.6,0.3,2.4,0.4
					c3.2,0.4,6.4,0.6,9.5,0.5c3.1-0.1,6.3-0.5,9.3-1.2c3.1-0.7,6.1-1.6,9-2.8c2.9-1.2,5.8-2.6,8.5-4.3c2.7-1.7,5.4-3.6,7.9-5.8
					c2.5-2.2,4.9-4.6,7.1-7.3C398.7,19.7,399.3,19,399.8,18.3z"/>
				<path class="st41" d="M413.9,29.6c-4.2,13.9-12.9,24.5-23.7,28.6c-2.9,1.1-6,1.7-9.1,1.9c-3.1,0.2-6.4-0.2-9.5-1
					c-3.2-0.8-6.4-2-9.5-3.7c-0.8-0.4-1.6-0.9-2.3-1.4c-0.6-0.4-1.5-0.8-2-1.5c-0.7-1,0.4-0.6,0.8-0.5c0.8,0.1,1.6,0.3,2.4,0.4
					c3.2,0.4,6.4,0.6,9.5,0.5c3.1-0.1,6.3-0.5,9.3-1.2c3.1-0.7,6.1-1.6,9-2.8c2.9-1.2,5.8-2.6,8.5-4.3c2.7-1.7,5.4-3.6,7.9-5.8
					c2.5-2.2,4.9-4.6,7.1-7.3C412.8,30.9,413.3,30.3,413.9,29.6z"/>
				<path class="st41" d="M423.7,39.9c-4.2,13.9-12.9,24.5-23.7,28.6c-2.9,1.1-6,1.7-9.1,1.9c-3.1,0.2-6.4-0.2-9.5-1
					c-3.2-0.8-6.4-2-9.5-3.7c-0.8-0.4-1.6-0.9-2.3-1.4c-0.6-0.4-1.5-0.8-2-1.5c-0.7-1,0.4-0.6,0.8-0.5c0.8,0.1,1.6,0.3,2.4,0.4
					c3.2,0.4,6.4,0.6,9.5,0.5c3.1-0.1,6.3-0.5,9.3-1.2c3.1-0.7,6.1-1.6,9-2.8c2.9-1.2,5.8-2.6,8.5-4.3c2.7-1.7,5.4-3.6,7.9-5.8
					c2.5-2.2,4.9-4.6,7.1-7.3C422.7,41.2,423.2,40.6,423.7,39.9z"/>
				<path class="st41" d="M435.5,63.7c-7.9,12.2-19.2,19.8-30.7,20.6c-3.1,0.2-6.2-0.1-9.3-0.8c-3.1-0.8-6.1-2-8.9-3.6
					c-2.8-1.7-5.6-3.8-8.1-6.3c-0.6-0.6-1.2-1.3-1.8-2c-0.5-0.6-1.2-1.2-1.5-2c-0.4-1.2,0.5-0.4,0.9-0.2c0.7,0.4,1.4,0.7,2.2,1
					c2.9,1.3,5.9,2.4,9,3.2c3.1,0.8,6.2,1.3,9.3,1.5c3.1,0.2,6.3,0.2,9.4-0.1c3.1-0.3,6.3-0.9,9.4-1.7c3.1-0.8,6.2-2,9.2-3.3
					c3-1.4,6-3,8.9-4.9C434.1,64.6,434.8,64.2,435.5,63.7z"/>
				<path class="st41" d="M449.1,80.7c-7.9,12.2-19.2,19.8-30.7,20.6c-3.1,0.2-6.2-0.1-9.3-0.8c-3.1-0.8-6.1-2-8.9-3.6
					c-2.8-1.7-5.6-3.8-8.1-6.3c-0.6-0.6-1.2-1.3-1.8-2c-0.5-0.6-1.2-1.2-1.5-2c-0.4-1.2,0.5-0.4,0.9-0.2c0.7,0.4,1.4,0.7,2.2,1
					c2.9,1.3,5.9,2.4,9,3.2c3.1,0.8,6.2,1.3,9.3,1.5c3.1,0.2,6.3,0.2,9.4-0.1c3.1-0.3,6.3-0.9,9.4-1.7c3.1-0.8,6.2-2,9.2-3.3
					c3-1.4,6-3,8.9-4.9C447.7,81.7,448.4,81.2,449.1,80.7z"/>
				<path class="st41" d="M459.7,99c-7.9,12.2-19.2,19.8-30.7,20.6c-3.1,0.2-6.2-0.1-9.3-0.8c-3.1-0.8-6.1-2-8.9-3.6
					c-2.8-1.7-5.6-3.8-8.1-6.3c-0.6-0.6-1.2-1.3-1.8-2c-0.5-0.6-1.2-1.2-1.5-2c-0.4-1.2,0.5-0.4,0.9-0.2c0.7,0.4,1.4,0.7,2.2,1
					c2.9,1.3,5.9,2.4,9,3.2c3.1,0.8,6.2,1.3,9.3,1.5c3.1,0.2,6.3,0.2,9.4-0.1c3.1-0.3,6.3-0.9,9.4-1.7c3.1-0.8,6.2-2,9.2-3.3
					c3-1.4,6-3,8.9-4.9C458.4,99.9,459.1,99.5,459.7,99z"/>
				<path class="st41" d="M457.5,130.8c-8.3,6.1-18.9,8.6-28.5,6.5c-2.6-0.6-5.2-1.4-7.6-2.6c-2.4-1.2-4.7-2.7-6.9-4.4
					c-2.1-1.7-4.1-3.7-5.8-5.9c-0.4-0.6-0.8-1.1-1.2-1.7c-0.3-0.5-0.8-1-0.9-1.6c-0.2-0.9,0.5-0.2,0.8,0.1c0.5,0.4,1.1,0.8,1.6,1.2
					c2.2,1.5,4.6,2.9,7,4.1c2.4,1.2,4.9,2.2,7.5,3.1c2.6,0.9,5.2,1.5,7.8,2.1c2.7,0.5,5.3,0.8,8.1,1c2.7,0.1,5.4,0.1,8.1-0.1
					c2.7-0.2,5.4-0.6,8.1-1.2C456.2,131.1,456.9,131,457.5,130.8z"/>
				<path class="st41" d="M460.7,148c-8.3,6.1-18.9,8.6-28.5,6.5c-2.6-0.6-5.2-1.4-7.6-2.6c-2.4-1.2-4.7-2.7-6.9-4.4
					c-2.1-1.7-4.1-3.7-5.8-5.9c-0.4-0.6-0.8-1.1-1.2-1.7c-0.3-0.5-0.8-1-0.9-1.6c-0.2-0.9,0.5-0.2,0.8,0.1c0.5,0.4,1.1,0.8,1.6,1.2
					c2.2,1.5,4.6,2.9,7,4.1c2.4,1.2,4.9,2.2,7.5,3.1c2.6,0.9,5.2,1.5,7.8,2.1c2.7,0.5,5.3,0.8,8.1,1c2.7,0.1,5.4,0.1,8.1-0.1
					c2.7-0.2,5.4-0.6,8.1-1.2C459.4,148.3,460.1,148.1,460.7,148z"/>
				<path class="st41" d="M452.6,170.4c-10,2.7-20.7,1.1-29-4.3c-2.2-1.5-4.3-3.2-6.1-5.2c-1.9-2-3.5-4.2-4.9-6.6
					c-1.4-2.4-2.5-4.9-3.3-7.6c-0.2-0.7-0.4-1.4-0.6-2c-0.1-0.6-0.4-1.2-0.3-1.9c0.1-0.9,0.5,0,0.7,0.3c0.4,0.6,0.7,1.1,1.1,1.7
					c1.6,2.2,3.3,4.4,5.1,6.4c1.8,2,3.8,3.9,5.9,5.6c2.1,1.7,4.3,3.3,6.6,4.8c2.3,1.4,4.7,2.7,7.2,3.9c2.5,1.1,5,2.1,7.6,2.9
					c2.6,0.8,5.3,1.4,8,1.8C451.3,170.2,452,170.3,452.6,170.4z"/>
				<path class="st41" d="M346.4,40c4.2,11.9,2.6,26-4.1,38.1c-1.8,3.3-4,6.4-6.5,9.3c-2.5,2.9-5.4,5.7-8.5,8.1
					c-3.1,2.4-6.4,4.6-9.9,6.4c-0.9,0.5-1.8,0.9-2.7,1.3c-0.7,0.3-1.6,0.9-2.5,0.9c-1.2,0.1,0-0.7,0.4-1c0.7-0.6,1.5-1.3,2.2-1.9
					c2.9-2.6,5.6-5.4,8.2-8.3c2.6-2.9,4.9-6,7.1-9.1c2.2-3.2,4.2-6.4,6-9.8c1.8-3.4,3.4-6.8,4.7-10.3c1.4-3.5,2.5-7,3.4-10.5
					c0.9-3.5,1.5-7.1,1.9-10.7C346.2,41.8,346.3,40.9,346.4,40z"/>
				<path class="st41" d="M356,50.9c2.3,11.4-0.8,24.7-8.2,36.2c-2,3.1-4.3,6.1-6.9,8.8c-2.6,2.8-5.4,5.3-8.5,7.6
					c-3,2.3-6.2,4.3-9.6,6c-0.8,0.4-1.7,0.8-2.5,1.2c-0.7,0.3-1.6,0.8-2.3,0.9c-1,0.1,0.1-0.6,0.5-1c0.7-0.6,1.5-1.2,2.2-1.8
					c2.9-2.5,5.6-5.1,8.3-7.8c2.6-2.7,5.1-5.6,7.4-8.6c2.3-3,4.5-6.1,6.4-9.2c2-3.2,3.8-6.4,5.4-9.7c1.6-3.3,3-6.6,4.2-10
					c1.2-3.4,2.2-6.8,3-10.1C355.6,52.5,355.8,51.7,356,50.9z"/>
				<path class="st41" d="M365,60.1c5.1,11.9,4.5,25.9-1.8,37.9c-1.7,3.3-3.8,6.3-6.2,9.2c-2.5,2.9-5.3,5.6-8.3,8
					c-3.1,2.4-6.4,4.5-10,6.3c-0.9,0.4-1.8,0.9-2.7,1.3c-0.8,0.3-1.7,0.9-2.5,0.9c-1.2,0.1-0.1-0.7,0.4-1c0.7-0.6,1.5-1.2,2.2-1.9
					c2.9-2.6,5.5-5.3,8-8.2c2.5-2.9,4.8-5.9,6.8-9c2.1-3.1,3.9-6.3,5.6-9.6c1.7-3.3,3.1-6.7,4.3-10.2c1.2-3.4,2.1-6.9,2.8-10.4
					c0.7-3.5,1.1-7.1,1.3-10.6C365,61.8,365,61,365,60.1z"/>
				<path class="st41" d="M382.5,76.7c3.4,12.2,1.1,26.3-6.2,38.2c-2,3.2-4.4,6.3-7,9.1c-2.7,2.8-5.7,5.4-8.9,7.7
					c-3.2,2.3-6.6,4.3-10.2,6c-0.9,0.4-1.8,0.8-2.7,1.2c-0.8,0.3-1.7,0.8-2.5,0.8c-1.1,0,0-0.7,0.5-1c0.8-0.6,1.5-1.2,2.3-1.8
					c3-2.5,5.9-5.2,8.6-8c2.7-2.8,5.2-5.8,7.6-8.8c2.3-3.1,4.5-6.2,6.5-9.5c2-3.3,3.7-6.7,5.3-10.1c1.5-3.4,2.9-6.9,3.9-10.4
					c1.1-3.5,1.9-7.1,2.5-10.7C382.3,78.4,382.4,77.6,382.5,76.7z"/>
				<path class="st41" d="M389.4,88.9c5.8,9.7,6.8,22.7,2.9,35.1c-1.1,3.4-2.5,6.7-4.3,9.9c-1.8,3.2-3.9,6.4-6.2,9.3
					c-2.3,2.9-5,5.7-7.8,8.1c-0.7,0.6-1.4,1.2-2.2,1.8c-0.6,0.5-1.3,1.2-2,1.4c-1,0.4-0.1-0.6,0.2-1c0.6-0.7,1.1-1.5,1.6-2.3
					c2.1-3.1,4.1-6.2,5.9-9.4c1.8-3.2,3.4-6.5,4.8-9.9c1.4-3.4,2.6-6.8,3.7-10.2c1-3.4,1.9-6.9,2.5-10.3c0.6-3.4,1-6.9,1.2-10.2
					c0.2-3.4,0.2-6.7-0.1-10C389.5,90.5,389.5,89.7,389.4,88.9z"/>
				<path class="st41" d="M401.9,105.3c4.7,9.7,4.6,21.5-0.4,32c-1.4,2.9-3.1,5.6-5.1,8.2c-2,2.6-4.3,5.1-6.9,7.3
					c-2.6,2.2-5.4,4.2-8.3,6c-0.8,0.4-1.5,0.9-2.3,1.3c-0.6,0.3-1.4,0.8-2.1,0.9c-1,0.1-0.1-0.5,0.3-0.9c0.6-0.6,1.2-1.2,1.8-1.7
					c2.4-2.4,4.6-4.9,6.6-7.5c2-2.6,3.9-5.3,5.6-8c1.7-2.8,3.2-5.6,4.5-8.5c1.3-2.9,2.4-5.9,3.4-8.9c0.9-3,1.6-6,2.1-9
					c0.5-3,0.8-6,0.8-9C402,106.8,402,106.1,401.9,105.3z"/>
				<path class="st41" d="M409.4,135.1c-0.2,8-4.6,16.9-11.9,23.9c-2,1.9-4.1,3.7-6.5,5.3c-2.3,1.6-4.8,3-7.4,4.3
					c-2.6,1.2-5.2,2.2-7.9,3c-0.7,0.2-1.4,0.4-2,0.5c-0.6,0.1-1.3,0.4-1.8,0.3c-0.8-0.1,0.2-0.4,0.5-0.6c0.6-0.3,1.2-0.7,1.9-1
					c2.5-1.4,4.9-2.9,7.3-4.4c2.3-1.6,4.6-3.3,6.8-5.1c2.2-1.8,4.2-3.6,6.2-5.6c2-1.9,3.8-4,5.5-6c1.7-2.1,3.3-4.2,4.7-6.4
					c1.4-2.2,2.7-4.4,3.8-6.6C408.9,136.2,409.2,135.6,409.4,135.1z"/>
				<path class="st41" d="M405.9,154.2c-6.1,6.8-8.2,14.7-5.7,21.3c0.7,1.8,1.7,3.5,3.1,5c1.3,1.6,3,3,4.9,4.3
					c1.9,1.3,4.1,2.4,6.5,3.3c0.6,0.2,1.2,0.4,1.8,0.6c0.5,0.2,1.1,0.4,1.8,0.4c0.9,0,0.2-0.4-0.1-0.6c-0.4-0.3-0.9-0.7-1.3-1
					c-1.7-1.4-3.3-2.9-4.6-4.4c-1.4-1.6-2.6-3.2-3.6-4.9c-1-1.7-1.8-3.5-2.5-5.3c-0.7-1.8-1.1-3.7-1.4-5.6c-0.3-1.9-0.3-3.8-0.2-5.8
					c0.1-2,0.4-3.9,1-5.9C405.6,155.1,405.8,154.7,405.9,154.2z"/>
				<path class="st41" d="M325.8,25.8c6.7,11,7.8,24.7,2.9,37.1c-1.3,3.4-3.1,6.6-5.2,9.7c-2.1,3.1-4.6,6-7.5,8.7
					c-2.8,2.7-5.9,5.1-9.3,7.2c-0.9,0.5-1.7,1-2.6,1.5c-0.7,0.4-1.6,1-2.4,1.2c-1.2,0.2-0.1-0.6,0.2-1c0.7-0.7,1.3-1.4,2-2.1
					c2.6-2.8,5-5.8,7.1-8.9c2.2-3.1,4.1-6.3,5.8-9.5c1.7-3.3,3.2-6.6,4.5-10c1.3-3.4,2.3-6.9,3.1-10.4c0.8-3.5,1.3-7,1.6-10.5
					c0.3-3.5,0.3-7,0-10.5C326,27.5,325.9,26.6,325.8,25.8z"/>
				<path class="st41" d="M244.3-2c4.2,11.9,2.6,26-4.1,38.1c-1.8,3.3-4,6.4-6.5,9.3c-2.5,2.9-5.4,5.7-8.5,8.1
					c-3.1,2.4-6.4,4.6-9.9,6.4c-0.9,0.5-1.8,0.9-2.7,1.3c-0.7,0.3-1.6,0.9-2.5,0.9c-1.2,0.1,0-0.7,0.4-1c0.7-0.6,1.5-1.3,2.2-1.9
					c2.9-2.6,5.6-5.4,8.2-8.3c2.6-2.9,4.9-6,7.1-9.1c2.2-3.2,4.2-6.4,6-9.8c1.8-3.4,3.4-6.8,4.7-10.3c1.4-3.5,2.5-7,3.4-10.5
					c0.9-3.5,1.5-7.1,1.9-10.7C244.1-0.3,244.2-1.2,244.3-2z"/>
				<path class="st41" d="M261.3,2.5c2.3,11.4-0.8,24.7-8.2,36.2c-2,3.1-4.3,6.1-6.9,8.8c-2.6,2.8-5.4,5.3-8.5,7.6
					c-3,2.3-6.2,4.3-9.6,6c-0.8,0.4-1.7,0.8-2.5,1.2c-0.7,0.3-1.6,0.8-2.3,0.9c-1,0.1,0.1-0.6,0.5-1c0.7-0.6,1.5-1.2,2.2-1.8
					c2.9-2.5,5.6-5.1,8.3-7.8c2.6-2.7,5.1-5.6,7.4-8.6c2.3-3,4.5-6.1,6.4-9.2c2-3.2,3.8-6.4,5.4-9.7c1.6-3.3,3-6.6,4.2-10
					c1.2-3.4,2.2-6.8,3-10.1C260.9,4.1,261.1,3.3,261.3,2.5z"/>
				<path class="st41" d="M276,4.5c5.1,11.9,4.5,25.9-1.8,37.9c-1.7,3.3-3.8,6.3-6.2,9.2c-2.5,2.9-5.3,5.6-8.3,8
					c-3.1,2.4-6.4,4.5-10,6.3c-0.9,0.4-1.8,0.9-2.7,1.3c-0.8,0.3-1.7,0.9-2.5,0.9c-1.2,0.1-0.1-0.7,0.4-1c0.7-0.6,1.5-1.2,2.2-1.9
					c2.9-2.6,5.5-5.3,8-8.2c2.5-2.9,4.8-5.9,6.8-9c2.1-3.1,3.9-6.3,5.6-9.6c1.7-3.3,3.1-6.7,4.3-10.2c1.2-3.4,2.1-6.9,2.8-10.4
					c0.7-3.5,1.1-7.1,1.3-10.6C275.9,6.3,276,5.4,276,4.5z"/>
				<path class="st41" d="M296.3,13.5c3.4,12.2,1.1,26.3-6.2,38.2c-2,3.2-4.4,6.3-7,9.1c-2.7,2.8-5.7,5.4-8.9,7.7
					c-3.2,2.3-6.6,4.3-10.2,6c-0.9,0.4-1.8,0.8-2.7,1.2c-0.8,0.3-1.7,0.8-2.5,0.8c-1.1,0,0-0.7,0.5-1c0.8-0.6,1.5-1.2,2.3-1.8
					c3-2.5,5.9-5.2,8.6-8c2.7-2.8,5.2-5.8,7.6-8.8c2.3-3.1,4.5-6.2,6.5-9.5c2-3.3,3.7-6.7,5.3-10.1c1.5-3.4,2.9-6.9,3.9-10.4
					c1.1-3.5,1.9-7.1,2.5-10.7C296,15.2,296.2,14.3,296.3,13.5z"/>
				<path class="st41" d="M306.8,18.1c5.8,9.7,6.8,22.7,2.9,35.1c-1.1,3.4-2.5,6.7-4.3,9.9c-1.8,3.2-3.9,6.4-6.2,9.3
					c-2.3,2.9-5,5.7-7.8,8.1c-0.7,0.6-1.4,1.2-2.2,1.8c-0.6,0.5-1.3,1.2-2,1.4c-1,0.4-0.1-0.6,0.2-1c0.6-0.7,1.1-1.5,1.6-2.3
					c2.1-3.1,4.1-6.2,5.9-9.4c1.8-3.2,3.4-6.5,4.8-9.9c1.4-3.4,2.6-6.8,3.7-10.2c1-3.4,1.9-6.9,2.5-10.3c0.6-3.4,1-6.9,1.2-10.2
					c0.2-3.4,0.2-6.7-0.1-10C306.9,19.7,306.8,18.9,306.8,18.1z"/>
				<path class="st31" d="M204.5-1.8c38-1.9,76.4,6.7,110.1,24.6s62.5,45.2,82.5,78.1c6.1,10.1,11.6,21.1,12.2,32.9
					c0.8,14.9-6.7,30.1-19.1,38.2"/>
				<path class="st30" d="M395.9,168.3c-8.8,2.3-14.8,7.8-16.2,14.7c-0.4,1.9-0.4,3.9-0.1,5.9c0.3,2.1,0.9,4.2,1.8,6.3
					c0.9,2.1,2.2,4.2,3.7,6.3c0.4,0.5,0.8,1,1.2,1.6c0.3,0.4,0.7,1,1.2,1.3c0.8,0.5,0.3-0.2,0.2-0.5c-0.2-0.5-0.4-1-0.6-1.6
					c-0.7-2.1-1.2-4.2-1.5-6.2c-0.3-2.1-0.4-4.1-0.4-6.1c0.1-2,0.3-3.9,0.7-5.8c0.4-1.9,1-3.7,1.8-5.5c0.8-1.7,1.8-3.4,2.9-5
					c1.2-1.6,2.5-3.1,4-4.4C395.1,168.9,395.5,168.6,395.9,168.3z"/>
			</g>
			<g style="display:none;clip-path:url(#SVGID_3_);">
				<path class="st122" d="M373.9,43.1c18-2.2,36.3,5,44.4,9c13.8,6.7,26.3,15.9,38.6,25.1c1.1,0.8,4.6,3.5,8.2,7.9
					c4.2,5.2,9.2,14,7,16.1c-2.3,2.3-9.5-5.6-24.2-7.6c-9.6-1.3-15.7,0.8-17.3,1.4c-4.4,1.7-11,4.5-13,11.1
					c-1.7,5.7,1.3,12.8,7,14.8c5.5,1.9,9.8-1.8,19.1-4.9c2-0.7,22.1-7.3,33.2-1.3c10.8,5.8,14.5,24.4,11.4,44.8
					c-8.8-5-30.9-16.1-48.1-8.8c-2.8,1.2-10.7,4.6-10.7,9.7c0,4.2,3.8,7.6,7.8,9c5.4,1.8,10,2.2,12.5,2c10.1-0.6,26.1,1.2,30.5,6
					c7.7,8.5-11.5,37.5-21.5,51.5c-1-1.4-3.5-4.8-8-6.6c-1.1-0.5-8-3.2-13,0.5c-5.4,4-3.9,12.3-3.6,13.7c1.8,8.5,9.8,12.5,10.9,13
					c-4.3,7.5-8.6,15-12.9,22.6c-19.8-23.4-49-38.8-79.4-42c6.9-5.5,14.1-11.4,17.7-19.5c3.6-8.1,2.5-19.1-5-24.3
					c-6.3-4.4-14.9-3.3-21.5,0.2c-9.4,5.1-15.4,11.4-17.2,14.2c-5.3,8.3-3.5,13.2-6.7,15.1c-4.5,2.8-16.2-2.6-45.6-33.1
					c10.9-0.2,20.4-5.8,24.6-14.6c4.8-10,3.1-24.8-6.3-30.2c-10.3-5.8-23.3,3.7-24.1,4.3c-9.9,7.5-10.8,19.3-10.9,21.3
					c-18-38.3-17.9-51.2-13.1-54.9c4.7-3.6,12.6,2.5,22.7-2.5c6.5-3.2,14.2-11,12.6-20.1c-1.6-9-12-16.2-20.6-14.9
					c-9.4,1.4-16.8,8.6-21.7,16.6c4.1-14,13.6-26.1,26.2-33.5c12.6-7.3,28.1-9.8,42.6-6.6c5.7,1.2,11.2,3.3,16.6,5.7
					c5.3,2.4,10.3,5.5,15.6,7.9c3.8,1.7,4.9-2.9,6.6-5.2c2.3-3.1,5.2-5.1,12-8.4C364.7,44.3,371.1,43.4,373.9,43.1z"/>
				<path class="st31" d="M431,257.2c-7.8-14.6-13.4-30.3-16.5-46.4c-4.1-21.5-4-44.3-14.3-63.8c-9.2-17.5-25.7-30.2-38-45.9
					c-13.8-17.7-21.8-39-33.4-58.1c-33.6-55.6-98.8-91.3-163.4-89.6c1.4,1.8,2.9,3.7,4.3,5.5"/>
				<path class="st85" d="M410.5,173.4c4-2,8-4,12.3-5c4.3-1,9.1-0.9,13.1,1.1c-0.2,0.6-0.4,1.2-0.6,1.8"/>
				<path class="st85" d="M411.3,196c-3.3,3.1-7.7,4.9-12.3,5"/>
				<path class="st85" d="M405.6,162.8c-8.6,0.8-16.8,5.2-22,12"/>
				<path class="st85" d="M367.8,108.7c-1.7,0.2-3.5,0.3-5.2,0.5c-4,0.4-8.1,0.8-11.9,2.2c-6.6,2.4-11.9,8-13.9,14.8"/>
				<path class="st85" d="M338.8,64.3c-10.8,0.9-21.3,5.3-29.4,12.3c-1.7,1.4-3.2,3-4.1,5c-0.9,2-0.9,4.5,0.3,6.3"/>
				<path class="st85" d="M346.2,72.4c10.6-8.6,24.1-13.6,38-14c-0.3,0.4-0.5,0.8-0.8,1.1"/>
				<path class="st85" d="M358.8,93.5c10-6.7,21.8-10.8,33.9-11.8c-0.3,0.5-0.6,1.1-0.8,1.6"/>
			</g>
			<g style="display:none;clip-path:url(#SVGID_3_);">
				<path class="st30" d="M315.5,57.9c17.4-3.9,35.8,1.6,44,4.7c14,5.3,26.8,13.3,39.5,21.2c1.1,0.7,4.8,3,8.5,7.1
					c4.4,4.8,9.9,13,8,15.3c-2,2.5-9.7-4.6-24.2-5.2c-9.5-0.4-15.3,2.3-16.8,3c-4.2,2.1-10.4,5.4-11.9,12.1
					c-1.3,5.8,2.1,12.6,7.9,14c5.5,1.3,9.4-2.6,18.4-6.7c1.9-0.9,21.1-9.3,32.4-4.3c11,4.8,15.9,22.8,14.3,43.3
					c-9-4.1-31.3-13.1-47.6-4.2c-2.7,1.5-10.1,5.5-9.8,10.6c0.3,4.1,4.2,7.1,8.2,8.1c5.4,1.3,9.9,1.2,12.3,0.8
					c9.8-1.5,25.6-1.2,30.2,3.1c8.1,7.7-8.7,38.2-17.4,52.9c-1-1.3-3.7-4.4-8.2-5.8c-1.1-0.3-8.1-2.4-12.7,1.7
					c-5,4.5-2.9,12.5-2.5,13.9c2.3,8.3,10.5,11.4,11.5,11.9c-3.7,7.8-7.4,15.7-11.1,23.5c-21-21.3-50.6-33.8-80.5-34.1
					c6.4-6.1,13-12.6,16-20.9s1.1-19.1-6.5-23.6c-6.4-3.7-14.8-1.9-21,2.2c-8.8,5.9-14.3,12.7-15.8,15.6c-4.6,8.7-2.5,13.4-5.5,15.6
					c-4.2,3.2-16-1-46.9-28.5c10.6-1.2,19.6-7.6,23.1-16.8c4-10.3,1.3-24.9-8.3-29.2c-10.5-4.8-22.5,5.8-23.3,6.5
					c-9.2,8.4-9.2,20.1-9.2,22.1c-20.3-36.2-21.1-49-16.6-53.1c4.3-4,12.5,1.3,22-4.6c6.1-3.7,13.1-12.3,10.9-21
					c-2.2-8.7-12.8-14.9-21.2-12.8c-9.1,2.2-15.8,10.1-20.1,18.5c3-14.2,11.5-27.1,23.3-35.6c11.8-8.4,26.8-12.3,41.2-10.5
					c5.7,0.7,11.2,2.2,16.6,4.1c5.4,1.9,10.5,4.5,15.8,6.4c3.8,1.3,4.5-3.3,6.1-5.7c2.1-3.3,4.7-5.5,11.2-9.5
					C306.6,59.9,312.8,58.5,315.5,57.9z"/>
				<path class="st31" d="M386.1,264.3c-8.6-13.7-15.2-28.7-19.3-44.4c-5.5-20.9-7-43.4-18.4-61.7c-10.3-16.5-27.3-27.5-40.3-41.9
					c-14.7-16.2-24-36.5-36.7-54.4c-36.7-51.9-102.9-81.1-166-73.3c1.5,1.7,3.1,3.3,4.6,5"/>
				<path class="st85" d="M360.3,183.4c3.7-2.3,7.5-4.7,11.7-6.1c4.2-1.4,8.8-1.8,12.9-0.1c-0.2,0.6-0.3,1.2-0.5,1.8"/>
				<path class="st85" d="M362.6,205.7c-3,3.4-7.2,5.6-11.7,6.1"/>
				<path class="st85" d="M354.8,173.4c-8.4,1.6-16.1,6.7-20.7,13.9"/>
				<path class="st85" d="M314,123.4c-1.7,0.3-3.4,0.6-5.1,1c-3.9,0.8-7.9,1.5-11.5,3.2c-6.3,3-11.1,9.1-12.6,15.9"/>
				<path class="st85" d="M282.6,82.2c-10.5,1.9-20.4,7.2-27.9,14.9c-1.5,1.6-3,3.2-3.7,5.3c-0.7,2-0.6,4.5,0.8,6.2"/>
				<path class="st85" d="M290.4,89.4c9.7-9.5,22.6-15.7,36.1-17.4c-0.2,0.4-0.5,0.8-0.7,1.2"/>
				<path class="st85" d="M304.2,109.2c9.3-7.6,20.5-12.8,32.4-14.8c-0.2,0.6-0.5,1.1-0.7,1.7"/>
			</g>
		</g>
		
			<image style="overflow:visible;" width="3000" height="2000" xlink:href="../Recursos/Pack.png"  transform="matrix(0.3333 0 0 0.3333 201.1113 -13.8869)">
		</image>
		<g>
			<path class="st13" d="M587.7,141.5c-0.8-1.8-2.9-3.6-4.6-3.3c-2.5,0.5-1.7,5.1-5.4,9.2c-0.4,0.4-3.4,3.8-6.8,4.2
				c0.6-0.5,1.1-1.2,1.5-1.9c0.7-1.3,1.1-2.7,1.2-4.2c0-0.2,0-0.4,0-0.5c0-2.7-0.9-5.2-1.9-7.5c-1-2.5-2.2-4.9-2.6-7.5
				c-0.1-0.7-0.2-1.4-0.2-2.1c0-2.9,1-5.9,2.8-8.2c0,0,0.1,0,0.1,0c1.8,0.2,3,2.1,3.6,2.9c3.4,5.2-0.5,10.9,2.5,13.3
				c1.4,1.1,3.6,0.8,4.1,0.7c0.4-0.1,2.4-0.4,3.9-2c2.2-2.2,2-5.2,1.9-6.1c-0.2-3.3-2.1-5.5-3-6.4c-4.2-4.7-10.7-5-12-5
				c-8.1-0.3-18.7,4.6-21.3,14.4c-2.1,8,2.3,14.7,2.8,15.4c4.1,6,10.2,7.5,11.8,7.9c6.5,1.5,16.2-0.1,20.1-6.4
				C587.1,147.4,589,144.4,587.7,141.5z M561.5,134.9c0.5-6.5,4.6-13.2,8.4-14.8c-1.4,2.4-2.2,5.1-2.2,7.9c0,0.8,0.1,1.5,0.2,2.3
				c0.4,2.8,1.6,5.3,2.7,7.8c1,2.3,1.8,4.7,1.8,7c0,0.2,0,0.3,0,0.5c-0.1,1.2-0.4,2.5-1,3.6c-0.6,1-1.4,1.9-2.5,2.3
				C564.2,149.8,561,141.6,561.5,134.9z"/>
			<g>
				<path class="st13" d="M628.4,146.5c0,4.6,2.6,3.4,2.6,5.5c0,3.1-6.9,3.1-8.9,3.1c-1.7,0-8.2,0-8.2-2.7c0-1.6,1.5-1.5,1.9-4.3
					c0.3-1.7,0.4-3.6,0.4-5.4c0-2.7-0.1-7.8-3.9-7.8c-3.3,0-3.2,2.8-3.2,5.2v6.2c0,4.5,2.2,3.6,2.2,5.5c0,3.1-6.1,3.2-8.2,3.2
					c-7.7,0-9.5-1.6-9.5-3.3c0-2.2,2.1-1.2,3-4.7c0.6-2.5,0.6-9.6,0.6-12.6c0-2.4-0.2-4.9-0.2-7.3c-0.1-3.8-3.3-2.5-3.3-5
					c0-4.3,14-5.4,14-5.4c1.6,0,1.7,0.5,1.7,2l-0.3,10.2c-0.1,1-0.1,2.7,1.3,2.7c1.6,0,2.3-4.8,8.3-4.8c9.9,0,9.2,9.3,9.3,10.8
					L628.4,146.5z"/>
				<path class="st13" d="M659.7,141.7c0,9.5,3.2,4.3,3.2,7.2c0,3.1-4.2,6.4-8.1,6.4c-4.3,0-4.4-2.7-5.7-2.7c-0.6,0-1.3,0.7-2.5,1.3
					c-1.2,0.7-2.8,1.4-5.3,1.4c-4.5,0-8.9-2.4-8.9-7.7c0-3.8,3.7-8.6,13.1-8.6c1.7,0,2.4,0.1,2.4-1.8c0-1.8-0.1-5.5-2.5-5.5
					c-3.2,0-3.6,5.8-8.3,5.8c-1.7,0-3-1.2-3-3c0-4.6,9.1-7.5,14.2-7.5c3.1,0,11.5,1.2,11.5,9.3V141.7z M643.5,146.4
					c0,1.4,0.8,2.9,2.3,2.9c2,0,2.2-2.2,2.2-3.8c0-1.2,0.1-2.5-1.5-2.5C644.8,143,643.5,144.7,643.5,146.4z"/>
				<path class="st13" d="M679.7,145.6c0,5.2,1.8,4.3,1.8,6.4c0,3.3-7.2,3.2-9.4,3.2c-2.2,0-7.6,0-7.6-3.2c0-2.6,2.5-0.3,2.6-5.5
					l0.2-8.1c0.1-4-3.2-2.7-3.2-5.5c0-2.9,12.4-5.5,13.5-5.5c1.2,0,1.9,1,1.9,2.1c0,0.3-0.1,0.6-0.1,1c0,0.6,0.3,1.4,1.1,1.4
					c0.9,0,1.3-1.1,2.4-2.3c1.1-1.1,2.7-2.2,5.8-2.2c11.1,0,9.3,10.9,9.8,19.1c0.3,4.3,2.5,3.3,2.5,5.6c0,1,0.2,3.2-9.9,3.2
					c-1.9,0-7.1,0.1-7.1-2.9c0-1.9,1.8-1,2-4.5c0.3-3.8,1.8-12.4-3.3-12.4c-3.4,0-3.1,3.7-3.1,6.1V145.6z"/>
				<path class="st13" d="M719.1,142.9c0,3.6,1.5,4.5,3,4.5c1.7,0,2.6-1.2,3.6-1.2c1.1,0,1.8,1.5,1.8,2.5c0,3.6-6.1,6.7-11.6,6.7
					c-2.7,0-9.6-1.2-9.6-9.7v-11.1c0-1,0-1.3-0.3-1.5c-0.3-0.2-0.9-0.1-2.1-0.1c-1.4,0-2.1,0.1-2.4-0.2c-0.4-0.4-0.3-0.9-0.3-2.2
					c0-0.8-0.2-1.3,0.5-1.8L714,121c1.2-0.8,1.2-0.6,2.8-0.6c2.2,0,2.3-0.2,2.3,2.3c0,1.7-0.1,3.3,0.2,4c0.2,0.4,0.5,0.4,1.9,0.4
					h3.8c2.3,0,2.3,0.2,2.3,2.6c0,3.1-0.4,3.3-2.5,3.3h-3.7c-1.9,0-2,0.1-2,2V142.9z"/>
				<path class="st13" d="M755.9,141.7c0,9.5,3.2,4.3,3.2,7.2c0,3.1-4.2,6.4-8.1,6.4c-4.3,0-4.4-2.7-5.7-2.7c-0.6,0-1.3,0.7-2.5,1.3
					c-1.2,0.7-2.8,1.4-5.3,1.4c-4.5,0-8.9-2.4-8.9-7.7c0-3.8,3.7-8.6,13.1-8.6c1.7,0,2.4,0.1,2.4-1.8c0-1.8-0.1-5.5-2.5-5.5
					c-3.2,0-3.6,5.8-8.3,5.8c-1.7,0-3-1.2-3-3c0-4.6,9.1-7.5,14.2-7.5c3.1,0,11.5,1.2,11.5,9.3V141.7z M739.8,146.4
					c0,1.4,0.8,2.9,2.3,2.9c2,0,2.2-2.2,2.2-3.8c0-1.2,0.1-2.5-1.5-2.5C741,143,739.8,144.7,739.8,146.4z"/>
				<path class="st13" d="M776.8,144.9c0,1-0.1,2.7,0.2,3.6c0.6,1.9,3,1,3,3.3c0,3.6-6.6,3.3-8.9,3.3c-2.4,0-10,0.3-10-3.6
					c0-1.9,2.3-1.2,3-3.2c0.7-2.2,0.7-8.9,0.7-11.6c0-2.1,0.1-6.1-0.4-8.6c-0.8-4-4-2.6-4-5.7c0-4.7,14-5.8,14.8-5.8
					c1.8,0,2.3,1.2,2.3,2.8c0,1.2-0.7,7.2-0.7,14.9V144.9z"/>
				<path class="st13" d="M794.8,142.2c-0.6,0-1.5-0.2-1.5,0.8c0,2.7,3.5,5,6,5c4,0,6-2.4,7.2-2.4c1.1,0,2.1,1.7,2.1,2.7
					c0,4.1-7.6,7.2-12.4,7.2c-9.7,0-14.7-7-14.7-13.9c0-8.3,7.1-14.3,15.1-14.3c9.2,0,13.2,7.1,13.2,11.1c0,3.6-1.6,4-3.3,4H794.8z
					 M799.5,135.4c0-1.9-1.2-3.4-3.2-3.4c-1.8,0-3.2,1.8-3.2,3.6c0,1.9,1.8,1.5,3.2,1.5C797.8,137,799.5,137.3,799.5,135.4z"/>
				<path class="st13" d="M816.7,129.6c0-2-4.1-2.3-4.1-7.2c0-3.6,2.6-6.3,6.2-6.3c3.9,0,6.4,3.4,6.4,7.1c0,6.3-5.9,14.6-9.6,14.6
					c-0.9,0-2.6-0.6-2.6-1.8S816.7,133,816.7,129.6z"/>
				<path class="st13" d="M840.9,127.4c1,0.2,1.8,0.4,2.2,0.4c0.5,0,1-0.2,1.5-0.4c0.5-0.2,1-0.3,1.5-0.3c2.5,0,5,5,5,7.2
					c0,1.5-1.2,2.5-2.6,2.5c-3.1,0-4.8-4.3-7.2-4.3c-1,0-1.9,0.8-1.9,1.8c0,3.4,11.8,4.1,11.8,12.4c0,5.1-4.9,8.6-10.5,8.6
					c-1.1,0-2.6-0.2-4-0.4c-1.3-0.2-2.5-0.3-2.9-0.3c-0.4,0-0.7,0.1-1.1,0.1c-0.3,0.1-0.6,0.1-1,0.1c-1.1,0-1.6-0.2-2.4-1
					c-1.3-1.5-2.7-4.6-2.7-6.6c0-1.4,0.5-2.5,2-2.5c2.4,0,4.5,5.3,7.5,5.3c1.1,0,2.1-0.5,2.1-1.7c0-3.2-10.6-3.6-10.6-12.4
					c0-5.4,4.4-8.8,10-8.8C838.8,127.1,839.9,127.2,840.9,127.4z"/>
			</g>
		</g>
	</g>
</g>
<g id="Capa_26">
</g>
<g id="Capa_27">
</g>
<g id="Capa_28">
</g>
<g id="Capa_29">
</g>
<g id="Capa_30">
</g>
<g id="Capa_31">
</g>
<g id="Capa_32">
</g>
<g id="Capa_33">
</g>
<g id="Capa_34">
</g>
<g id="Capa_35">
</g>
</svg>
