<svg width="1401" height="636" viewBox="0 0 1401 636" fill="none" xmlns="http://www.w3.org/2000/svg">
<g clip-path="url(#clip0_2_2)">
<path d="M1401.1 3.39999H1.09998V635.4H1401.1V3.39999Z" fill="#FFC499"/>
<path d="M678 2.09999C669.7 12 644.9 41.7 644.5 82C644 133.9 682.7 177.5 699.9 192C729.3 216.7 769.8 238.2 783.8 267.2C797.6 295.7 783 326.1 763.3 353.4C743.6 380.6 718.5 407 709.9 436.1C707.1 445.4 707 455.9 712.1 464.7C717.1 473.4 725.4 476.8 730.6 479.4C747.9 487.9 758.2 500.1 778.8 524.6C791.1 539.2 805.2 556 812.8 582.2C816.5 594.9 821.4 611.8 816.7 629.3C806.1 669.1 754.4 682 756.5 688.2C761.6 703.1 1062.5 635.2 1128.6 657.2C1131.2 658.1 1146.4 664.5 1168 667.8C1186.3 670.6 1204.9 672.7 1223.6 674.2C1261.1 677.1 1299.1 677.4 1336.7 675.1C1374.3 672.8 1411.5 668 1447.1 660.7C1482.8 653.4 1516.9 643.5 1548.5 631.3C1549 631.1 1549.4 630.9 1549.9 630.7C1593.1 613.8 1633.2 591.2 1647.9 561.9C1664.5 528.9 1646.5 493.9 1632.9 460.4C1604.8 391.5 1595.4 319.9 1604.9 249.3C1611.4 201.5 1626.5 153.6 1619.3 105.8C1612 58 1577.7 8.49999 1508 -16.6C1424.7 -46.6 1350.3 -42.7 1298.4 -36C962.1 6.99999 765.9 -103.1 678 2.09999Z" fill="#FCD571"/>
<path d="M-8.50006 224.4C-13.6001 231.1 -2.50007 238.8 11.0999 240.7C24.6999 242.6 39.0999 240.2 51.7999 237.1C110.5 222.6 148.5 193.1 180.1 164C211.7 134.9 241.2 103.9 291.4 82.8C364.2 52.1 466.2 47.6 549.4 24.9C570.9 19 592.4 11.1 599.9 -0.700005C607.4 -12.5 593.5 -28.3 569.2 -28.8C574.3 -29.5 579.4 -30.3 584.6 -31C427.9 -49.4 264.3 -63.2 103.8 -67.3C54.4999 -68.6 4.29994 -69.1 -43.1001 -62.2C-90.5001 -55.3 -135.6 -40 -155.9 -17.1C-173.1 2.29999 -171 24.6 -168.5 45.9C-161.7 104.4 -154.9 162.9 -143.8 221.2C-142.7 227.2 -141.4 233.4 -136.1 238.8C-130.9 244.2 -120.7 248.8 -108.9 249C-95.9001 249.2 -84.8001 244.4 -76.5001 239.3C-68.2001 234.2 -60.5001 228.4 -48.9001 225.5C-37.3001 222.6 -12.1001 218 -8.50006 224.4Z" fill="#153F65"/>
<path d="M11.7 247.5C6.59995 254.2 17.7 261.9 31.3 263.8C44.9 265.7 59.3 263.3 72 260.2C130.7 245.7 168.7 216.2 200.3 187.1C231.9 158 261.4 127 311.6 105.9C384.4 75.2 486.4 70.7 569.6 48C591.1 42.1 612.6 34.2 620.1 22.4C627.7 10.6 613.7 -5.2 589.4 -5.7C594.5 -6.4 599.6 -7.2 604.8 -7.9C448.1 -26.2 284.5 -40.1 124 -44.2C74.6999 -45.4 24.5 -46 -22.9 -39.1C-70.3 -32.2 -115.4 -16.9 -135.7 6C-152.9 25.4 -150.8 47.7 -148.3 69C-141.5 127.5 -134.7 186 -123.6 244.3C-122.5 250.3 -121.2 256.5 -115.9 261.9C-110.7 267.3 -100.5 271.9 -88.7 272.1C-75.7 272.3 -64.6 267.5 -56.3 262.4C-48 257.3 -40.3001 251.5 -28.7001 248.6C-17.1 245.7 8.09995 241.2 11.7 247.5Z" stroke="#1D1D1B" stroke-miterlimit="10"/>
<path d="M1351 570.2C1359.9 575.9 1366.2 583.1 1370.4 590.8C1379.2 606.9 1378.1 621.4 1376.7 628.2C1376.3 628.3 1376 628.4 1375.6 628.5C1374.6 628.7 1373.5 628.8 1372.4 629C1371 629.3 1369.4 629.3 1368 629.1C1367.6 629 1367.3 629 1366.9 628.9C1364.3 628.3 1362.1 627.2 1359.9 625.9C1351.4 620.8 1344.9 613.8 1341.4 605.9C1338.9 600.2 1338 594.2 1336.9 588.3C1335.9 582.4 1334.7 576.4 1331.7 570.8C1329 565.7 1324.5 560.9 1318.4 558C1335.1 561 1345.6 566.8 1351 570.2Z" fill="#5F4634"/>
<path d="M1351.9 569.4C1338.5 560.7 1324.2 558.3 1317.4 557.5C1324.8 554.4 1333.9 555 1342 556.7C1362 560.7 1380.2 570.8 1389.6 585C1394.6 592.6 1397.1 601.4 1394.9 609.7C1394.4 611.7 1393.5 613.7 1392.4 615.6C1391.3 617.5 1389.9 619.3 1388.2 621C1386.6 622.6 1384.7 624.1 1382.6 625.4C1381.6 626 1380.5 626.6 1379.3 627.1C1378.9 627.3 1378.6 627.4 1378.2 627.6C1379.9 615.6 1378.3 602.3 1371.7 590.4C1369 585.6 1363.7 577 1351.9 569.4Z" fill="#5F4634"/>
<path d="M1317.2 557.6C1317.2 557.6 1317.3 557.6 1317.3 557.7C1317.3 557.6 1317.3 557.6 1317.2 557.6Z" fill="#5F4634"/>
<path d="M1377.8 629.9C1376.7 636.3 1374.3 642.8 1368.9 647.9C1369 647.5 1369 647.1 1369.1 646.7C1371.5 642.9 1374.6 637.1 1376.4 629.8C1376.5 629.4 1376.6 628.8 1376.7 628.3C1377.2 628.1 1377.6 628 1378.1 627.8C1378 628.4 1377.9 629.2 1377.8 629.9Z" fill="#5F4634"/>
<path d="M1318.5 558.2C1318.1 558 1317.7 557.8 1317.3 557.6C1317.8 557.8 1318.2 558 1318.5 558.2C1318.6 558.2 1318.6 558.2 1318.5 558.2Z" fill="#5F4634"/>
<path d="M1317 557.5C1317.1 557.5 1317.2 557.5 1317.3 557.5H1317.2C1317.1 557.6 1317.1 557.5 1317 557.5Z" fill="#5F4634"/>
<path d="M1378.1 611.9C1382.8 609.6 1386.8 606.4 1389.5 602.6Z" fill="#FFC499"/>
<path d="M1378.1 611.9C1382.8 609.6 1386.8 606.4 1389.5 602.6" stroke="#5F4634" stroke-width="0.5" stroke-miterlimit="10"/>
<path d="M1371.7 592C1371.7 587 1374.7 582 1379.6 578.7" stroke="#FCD571" stroke-width="0.5" stroke-miterlimit="10"/>
<path d="M1356.5 573.7C1355.3 572.4 1355 570.7 1355.6 569.2C1356.2 567.7 1357.8 566.5 1359.7 566C1359.7 565.9 1359.7 565.9 1359.7 565.8" stroke="#FCD571" stroke-width="0.5" stroke-miterlimit="10"/>
<path d="M1365.6 582.8C1358.5 577.8 1349.2 574.7 1339.6 574.2" stroke="#FCD571" stroke-width="0.5" stroke-miterlimit="10"/>
<path d="M1377.8 611.9C1376.8 609.4 1374.4 607.3 1372.1 605.4C1368.4 602.4 1364.7 599.3 1360.2 597C1355.7 594.7 1350.4 593.2 1345 593.5C1345.2 593.4 1345.4 593.3 1345.6 593.3" stroke="#FCD571" stroke-width="0.5" stroke-miterlimit="10"/>
<path d="M1294.5 602C1305.9 600.7 1317 601.8 1327.3 604.6C1348.6 610.3 1361.8 620.6 1367.4 625.9C1367.3 626.2 1367.1 626.5 1367 626.7C1366.5 627.5 1365.9 628.1 1365.4 628.9C1364.7 629.9 1363.7 630.8 1362.6 631.5C1362.3 631.7 1362 631.8 1361.7 632C1359.4 633.1 1356.8 633.6 1354.2 634C1343.7 635.5 1332.6 634.5 1322.7 631.3C1315.6 629 1309.2 625.5 1302.8 622.1C1296.4 618.7 1289.9 615.4 1282.6 613.4C1275.8 611.5 1268.3 610.9 1261.5 612.6C1275 604.9 1287.6 602.7 1294.5 602Z" fill="#5F4634"/>
<path d="M1294.3 600.9C1277 602.8 1265.2 609.4 1259.8 612.9C1261.8 606.6 1268.4 601.7 1275.5 598.1C1292.7 589.3 1314.6 585.5 1334.5 589.6C1345.1 591.8 1355.2 596.2 1361.7 603.1C1363.3 604.8 1364.6 606.6 1365.7 608.5C1366.8 610.4 1367.6 612.4 1368.1 614.5C1368.6 616.5 1368.8 618.6 1368.6 620.7C1368.5 621.7 1368.3 622.8 1368.1 623.8C1368 624.1 1367.9 624.4 1367.8 624.8C1357.4 615.8 1343.5 607.8 1327.7 603.6C1321.3 601.8 1309.5 599.2 1294.3 600.9Z" fill="#5F4634"/>
<path d="M1259.8 613C1259.9 613 1259.9 613 1260 613C1259.9 612.9 1259.8 612.9 1259.8 613Z" fill="#5F4634"/>
<path d="M1369.7 626.4C1375.1 631.3 1379.7 637.1 1381 643.5C1380.7 643.2 1380.3 642.9 1380 642.6C1378 638.7 1374.5 633 1368.6 627.1C1368.2 626.7 1367.8 626.3 1367.4 625.9C1367.6 625.5 1367.7 625.1 1367.8 624.7C1368.5 625.2 1369.1 625.8 1369.7 626.4Z" fill="#5F4634"/>
<path d="M1261.3 612.6C1260.9 612.7 1260.4 612.8 1260 612.9C1260.4 612.8 1260.9 612.7 1261.3 612.6Z" fill="#5F4634"/>
<path d="M1259.6 613C1259.7 613 1259.8 612.9 1259.8 612.8V612.9C1259.7 613 1259.7 613 1259.6 613Z" fill="#5F4634"/>
<path d="M1352.6 614.1C1353.6 609.8 1353.1 605.4 1351.2 601.3Z" fill="#FFC499"/>
<path d="M1352.6 614.1C1353.6 609.8 1353.1 605.4 1351.2 601.3" stroke="#5F4634" stroke-width="0.5" stroke-miterlimit="10"/>
<path d="M1329.3 604.6C1324.5 601.2 1321.7 596.2 1321.8 591.2" stroke="#FCD571" stroke-width="0.5" stroke-miterlimit="10"/>
<path d="M1301.5 601.1C1299.5 600.9 1297.6 600 1296.6 598.6C1295.6 597.2 1295.5 595.5 1296.3 594.1C1296.2 594 1296.2 594 1296.1 593.9" stroke="#FCD571" stroke-width="0.5" stroke-miterlimit="10"/>
<path d="M1316.3 601.9C1306.7 602.7 1297.5 606 1290.6 611.1" stroke="#FCD571" stroke-width="0.5" stroke-miterlimit="10"/>
<path d="M1352.4 614.4C1349.3 613.3 1345.8 613.3 1342.3 613.4C1336.9 613.5 1331.5 613.6 1326.3 614.7C1321.1 615.8 1316.1 617.8 1312.8 621.1C1312.9 620.9 1312.9 620.8 1313 620.6" stroke="#FCD571" stroke-width="0.5" stroke-miterlimit="10"/>
<path d="M-46.8 579.2C-39.1 571.8 -23.5 566.8 -7.20004 566.4C9.09996 566 25.6 570.3 34.6 577.2C44.3 584.7 47.4 595.6 63.9 598.8C70.1 600 76.9 599.8 83.5 600C116.7 601.2 145.7 616.3 147.6 633.2C149.4 650.2 123.8 666.8 91.1 669.8C30.3 675.5 -37.9 660.4 -66.5 632.5C-74.3 624.9 -79.6 616.1 -76.7 607.7C-73 596.5 -57.2 589.3 -46.8 579.2Z" fill="#5F4634" stroke="#5F4634" stroke-miterlimit="10"/>
<path d="M-13.0001 575.8C-5.30005 568.4 10.2999 563.4 26.5999 563C42.8999 562.6 59.3999 566.9 68.3999 573.8C78.0999 581.3 81.2 592.2 97.7 595.4C103.9 596.6 110.7 596.4 117.3 596.6C150.5 597.8 179.5 612.9 181.4 629.8C183.2 646.8 157.6 663.4 124.9 666.4C64.0999 672.1 -4.10005 657 -32.7001 629.1C-40.5001 621.5 -45.8001 612.7 -42.9001 604.3C-39.2001 593.1 -23.5001 585.8 -13.0001 575.8Z" stroke="#1D1D1B" stroke-miterlimit="10"/>
<path d="M469.552 325.179C467.625 320.844 462.567 316.508 458.472 317.231C452.45 318.435 454.377 329.515 445.466 339.39C444.502 340.354 437.276 348.543 429.087 349.506C430.532 348.302 431.736 346.616 432.7 344.93C434.386 341.799 435.349 338.427 435.59 334.814C435.59 334.332 435.59 333.85 435.59 333.609C435.59 327.106 433.422 321.085 431.014 315.545C428.605 309.523 425.715 303.742 424.751 297.48C424.51 295.794 424.27 294.108 424.27 292.422C424.27 285.437 426.678 278.211 431.014 272.671H431.255C435.59 273.153 438.481 277.729 439.926 279.656C448.115 292.181 438.721 305.91 445.947 311.691C449.319 314.34 454.618 313.618 455.823 313.377C456.786 313.136 461.603 312.413 465.216 308.56C470.515 303.261 470.033 296.035 469.793 293.867C469.311 285.919 464.734 280.62 462.567 278.452C452.45 267.131 436.794 266.409 433.663 266.409C414.153 265.686 388.622 277.488 382.359 301.093C377.301 320.362 387.899 336.5 389.104 338.186C398.979 352.638 413.672 356.251 417.525 357.214C433.181 360.827 456.545 356.973 465.939 341.799C468.107 339.39 472.683 332.164 469.552 325.179ZM406.446 309.282C407.65 293.626 417.525 277.488 426.678 273.635C423.306 279.415 421.379 285.919 421.379 292.663C421.379 294.59 421.62 296.276 421.861 298.203C422.824 304.947 425.715 310.968 428.364 316.99C430.773 322.53 432.7 328.31 432.7 333.85C432.7 334.332 432.7 334.573 432.7 335.055C432.459 337.945 431.736 341.076 430.291 343.726C428.846 346.134 426.919 348.302 424.27 349.265C412.949 345.171 405.241 325.42 406.446 309.282Z" fill="#1D1D1B"/>
<path d="M567.583 337.222C567.583 348.302 573.845 345.412 573.845 350.47C573.845 357.937 557.226 357.937 552.409 357.937C548.314 357.937 532.658 357.937 532.658 351.433C532.658 347.579 536.271 347.82 537.234 341.076C537.957 336.981 538.198 332.405 538.198 328.07C538.198 321.566 537.957 309.282 528.804 309.282C520.856 309.282 521.096 316.026 521.096 321.807V336.741C521.096 347.579 526.395 345.412 526.395 349.988C526.395 357.455 511.703 357.696 506.645 357.696C488.098 357.696 483.763 353.842 483.763 349.747C483.763 344.448 488.821 346.857 490.989 338.427C492.434 332.405 492.434 315.304 492.434 308.078C492.434 302.297 491.952 296.276 491.952 290.495C491.711 281.342 484.004 284.473 484.004 278.452C484.004 268.095 517.724 265.445 517.724 265.445C521.578 265.445 521.819 266.649 521.819 270.262L521.096 294.83C520.856 297.239 520.856 301.334 524.228 301.334C528.082 301.334 529.768 289.772 544.219 289.772C568.065 289.772 566.379 312.173 566.62 315.786L567.583 337.222Z" fill="#1D1D1B"/>
<path d="M642.973 325.661C642.973 348.543 650.681 336.018 650.681 343.003C650.681 350.47 640.564 358.418 631.171 358.418C620.814 358.418 620.573 351.915 617.442 351.915C615.996 351.915 614.31 353.601 611.42 355.046C608.53 356.732 604.676 358.418 598.654 358.418C587.815 358.418 577.218 352.638 577.218 339.872C577.218 330.719 586.129 319.158 608.771 319.158C612.865 319.158 614.551 319.398 614.551 314.822C614.551 310.487 614.31 301.575 608.53 301.575C600.822 301.575 599.859 315.545 588.538 315.545C584.443 315.545 581.312 312.654 581.312 308.319C581.312 297.239 603.231 290.254 615.515 290.254C622.981 290.254 643.214 293.144 643.214 312.654V325.661H642.973ZM603.953 336.981C603.953 340.354 605.88 343.967 609.493 343.967C614.31 343.967 614.792 338.668 614.792 334.814C614.792 331.923 615.033 328.792 611.179 328.792C607.085 328.792 603.953 332.887 603.953 336.981Z" fill="#1D1D1B"/>
<path d="M691.146 335.055C691.146 347.579 695.481 345.412 695.481 350.47C695.481 358.418 678.139 358.177 672.84 358.177C667.541 358.177 654.535 358.177 654.535 350.47C654.535 344.207 660.556 349.747 660.797 337.222L661.279 317.712C661.52 308.078 653.571 311.209 653.571 304.465C653.571 297.48 683.438 291.218 686.088 291.218C688.978 291.218 690.664 293.626 690.664 296.276C690.664 296.998 690.423 297.721 690.423 298.684C690.423 300.129 691.146 302.056 693.073 302.056C695.24 302.056 696.204 299.407 698.853 296.517C701.503 293.867 705.357 291.218 712.823 291.218C739.559 291.218 735.224 317.472 736.428 337.222C737.151 347.579 742.45 345.171 742.45 350.711C742.45 353.119 742.931 358.418 718.604 358.418C714.028 358.418 701.503 358.659 701.503 351.433C701.503 346.857 705.838 349.025 706.32 340.594C707.043 331.442 710.656 310.727 698.372 310.727C690.182 310.727 690.905 319.639 690.905 325.42V335.055H691.146Z" fill="#1D1D1B"/>
<path d="M786.046 328.551C786.046 337.222 789.659 339.39 793.272 339.39C797.366 339.39 799.534 336.5 801.943 336.5C804.592 336.5 806.278 340.113 806.278 342.521C806.278 351.192 791.586 358.659 778.338 358.659C771.835 358.659 755.215 355.769 755.215 335.295V308.56C755.215 306.151 755.215 305.428 754.493 304.947C753.77 304.465 752.325 304.706 749.435 304.706C746.063 304.706 744.376 304.947 743.654 304.224C742.69 303.261 742.931 302.056 742.931 298.925C742.931 296.998 742.45 295.794 744.136 294.59L773.762 275.802C776.652 273.875 776.652 274.357 780.506 274.357C785.805 274.357 786.046 273.875 786.046 279.897C786.046 283.992 785.805 287.845 786.527 289.531C787.009 290.495 787.732 290.495 791.104 290.495H800.257C805.797 290.495 805.797 290.977 805.797 296.757C805.797 304.224 804.833 304.706 799.775 304.706H790.863C786.287 304.706 786.046 304.947 786.046 309.523V328.551V328.551Z" fill="#1D1D1B"/>
<path d="M874.683 325.661C874.683 348.543 882.391 336.018 882.391 343.003C882.391 350.47 872.275 358.418 862.881 358.418C852.524 358.418 852.283 351.915 849.152 351.915C847.707 351.915 846.021 353.601 843.13 355.046C840.24 356.732 836.386 358.418 830.365 358.418C819.526 358.418 808.928 352.638 808.928 339.872C808.928 330.719 817.84 319.158 840.481 319.158C844.575 319.158 846.261 319.398 846.261 314.822C846.261 310.487 846.021 301.575 840.24 301.575C832.532 301.575 831.569 315.545 820.248 315.545C816.154 315.545 813.022 312.654 813.022 308.319C813.022 297.239 834.941 290.254 847.225 290.254C854.692 290.254 874.924 293.144 874.924 312.654V325.661H874.683ZM835.904 336.981C835.904 340.354 837.831 343.967 841.444 343.967C846.261 343.967 846.743 338.668 846.743 334.814C846.743 331.923 846.984 328.792 843.13 328.792C838.795 328.792 835.904 332.887 835.904 336.981Z" fill="#1D1D1B"/>
<path d="M925.024 333.369C925.024 335.777 924.783 339.872 925.505 342.04C926.951 346.616 932.731 344.448 932.731 349.988C932.731 358.659 916.834 357.937 911.294 357.937C905.514 357.937 887.208 358.659 887.208 349.265C887.208 344.689 892.748 346.375 894.434 341.558C896.12 336.259 896.12 320.121 896.12 313.618C896.12 308.56 896.361 298.925 895.157 292.904C893.23 283.269 885.522 286.641 885.522 279.174C885.522 267.854 919.243 265.204 921.17 265.204C925.505 265.204 926.71 268.095 926.71 271.948C926.71 274.839 925.024 289.291 925.024 307.837V333.369Z" fill="#1D1D1B"/>
<path d="M968.379 326.865C966.934 326.865 964.766 326.383 964.766 328.792C964.766 335.295 973.196 340.835 979.218 340.835C988.852 340.835 993.67 335.055 996.56 335.055C999.209 335.055 1001.62 339.149 1001.62 341.558C1001.62 351.433 983.313 358.9 971.751 358.9C948.387 358.9 936.344 342.04 936.344 325.42C936.344 305.428 953.445 290.977 972.714 290.977C994.874 290.977 1004.51 308.078 1004.51 317.712C1004.51 326.383 1000.65 327.347 996.56 327.347H968.379V326.865ZM979.7 310.487C979.7 305.91 976.809 302.297 971.992 302.297C967.656 302.297 964.284 306.633 964.284 310.968C964.284 315.545 968.62 314.581 971.992 314.581C975.605 314.34 979.7 315.063 979.7 310.487Z" fill="#1D1D1B"/>
<path d="M1021.13 296.517C1021.13 291.699 1011.25 290.977 1011.25 279.174C1011.25 270.503 1017.51 264 1026.19 264C1035.58 264 1041.6 272.189 1041.6 281.101C1041.6 296.276 1027.39 316.267 1018.48 316.267C1016.31 316.267 1012.22 314.822 1012.22 311.932C1012.22 309.041 1021.13 304.706 1021.13 296.517Z" fill="#1D1D1B"/>
<path d="M1079.42 291.218C1081.83 291.699 1083.75 292.181 1084.72 292.181C1085.92 292.181 1087.12 291.699 1088.33 291.218C1089.53 290.736 1090.74 290.495 1091.94 290.495C1097.96 290.495 1103.98 302.538 1103.98 307.837C1103.98 311.45 1101.09 313.859 1097.72 313.859C1090.26 313.859 1086.16 303.502 1080.38 303.502C1077.97 303.502 1075.8 305.428 1075.8 307.837C1075.8 316.026 1104.23 317.712 1104.23 337.704C1104.23 349.988 1092.42 358.418 1078.94 358.418C1076.29 358.418 1072.67 357.937 1069.3 357.455C1066.17 356.973 1063.28 356.732 1062.32 356.732C1061.35 356.732 1060.63 356.973 1059.67 356.973C1058.94 357.214 1058.22 357.214 1057.26 357.214C1054.61 357.214 1053.4 356.732 1051.48 354.805C1048.35 351.192 1044.97 343.726 1044.97 338.908C1044.97 335.536 1046.18 332.887 1049.79 332.887C1055.57 332.887 1060.63 345.653 1067.86 345.653C1070.5 345.653 1072.91 344.448 1072.91 341.558C1072.91 333.85 1047.38 332.887 1047.38 311.691C1047.38 298.684 1057.98 290.495 1071.47 290.495C1074.36 290.495 1077.01 290.736 1079.42 291.218Z" fill="#1D1D1B"/>
</g>
<defs>
<clipPath id="clip0_2_2">
<rect width="1400.5" height="635.3" fill="white"/>
</clipPath>
</defs>
</svg>
