<?xml version="1.0" encoding="utf-8"?>
<!-- Generator: Adobe Illustrator 25.2.1, SVG Export Plug-In . SVG Version: 6.00 Build 0)  -->
<svg version="1.1" xmlns="http://www.w3.org/2000/svg" xmlns:xlink="http://www.w3.org/1999/xlink" x="0px" y="0px"
	 viewBox="0 0 1395.3 795.7" style="enable-background:new 0 0 1395.3 795.7;" xml:space="preserve">
<style type="text/css">
	.st0{fill:#5F4634;}
	.st1{display:none;}
	.st2{display:inline;fill:#5A2F15;}
	.st3{display:inline;fill:#FBBF29;}
	.st4{display:inline;fill:#225527;}
	.st5{fill:#153F65;}
	.st6{fill:#FFC499;}
	.st7{fill:#FCD571;}
	.st8{fill:url(#);}
	.st9{clip-path:url(#SVGID_3_);fill:#5F4634;}
	.st10{clip-path:url(#SVGID_3_);fill:none;stroke:#1D1D1B;stroke-miterlimit:10;}
	.st11{clip-path:url(#SVGID_3_);fill:#F9C199;}
	.st12{display:none;fill:#5F4634;}
	.st13{fill:#1D1D1B;}
	.st14{fill:none;stroke:#1D1D1B;stroke-width:7;stroke-miterlimit:10;}
	.st15{fill:#F9C199;}
	.st16{fill:none;stroke:#1D1D1B;stroke-miterlimit:10;}
	.st17{fill:#FCD572;}
	.st18{fill:none;stroke:#5F4634;stroke-width:0.5;stroke-miterlimit:10;}
	.st19{clip-path:url(#SVGID_5_);fill:#FCD571;}
	.st20{clip-path:url(#SVGID_5_);fill:none;stroke:#FFFFFF;stroke-width:2;stroke-miterlimit:10;}
	.st21{clip-path:url(#SVGID_5_);}
	.st22{fill:none;stroke:#FFFFFF;stroke-miterlimit:10;}
	.st23{fill:none;stroke:#FFFFFF;stroke-width:5;stroke-miterlimit:10;}
	.st24{fill:none;stroke:#FFFFFF;stroke-width:3;stroke-miterlimit:10;}
	.st25{fill:#FFFFFF;}
	.st26{fill:none;stroke:#FFFFFF;stroke-width:2;stroke-miterlimit:10;}
	.st27{clip-path:url(#SVGID_6_);fill:#153F65;stroke:#FFFFFF;stroke-miterlimit:10;}
	.st28{clip-path:url(#SVGID_6_);fill:none;stroke:#1D1D1B;stroke-miterlimit:10;}
	.st29{display:none;clip-path:url(#SVGID_6_);}
	.st30{display:inline;fill:#153F65;}
	.st31{display:inline;fill:none;stroke:#5F4634;stroke-miterlimit:10;}
	.st32{clip-path:url(#SVGID_6_);fill:#FFC499;}
	.st33{fill:none;stroke:#1D1D1B;stroke-width:3;stroke-miterlimit:10;}
	.st34{fill:#153F65;stroke:#E20613;stroke-miterlimit:10;}
	.st35{opacity:0.1;fill:url(#);}
	.st36{fill:none;stroke:#66CC33;stroke-miterlimit:10;}
	.st37{fill:none;stroke:#E20613;stroke-miterlimit:10;}
	.st38{fill:#FF6700;}
	.st39{fill:#FCEA0D;}
	.st40{display:none;fill:#153F65;stroke:#FFFFFF;stroke-miterlimit:10;}
	.st41{display:inline;fill:#5F4634;}
	.st42{display:inline;}
	.st43{clip-path:url(#SVGID_10_);fill:#FFC499;}
	.st44{clip-path:url(#SVGID_10_);fill:none;stroke:#1D1D1B;stroke-miterlimit:10;}
	.st45{fill:#9AC079;}
	.st46{fill:#133F65;}
	.st47{fill:none;stroke:#133F65;stroke-width:5;stroke-miterlimit:10;}
	.st48{fill:#F4F4F4;}
	.st49{fill:none;stroke:#5F4634;stroke-miterlimit:10;}
	.st50{clip-path:url(#SVGID_12_);fill:#133F65;}
	.st51{clip-path:url(#SVGID_12_);fill:none;stroke:#1D1D1B;stroke-miterlimit:10;}
	.st52{fill:none;stroke:#1D1D1B;stroke-width:0.25;stroke-miterlimit:10;}
	.st53{fill:none;stroke:#1D1D1B;stroke-width:2;stroke-miterlimit:10;}
	.st54{clip-path:url(#SVGID_14_);fill:#153F65;}
	.st55{clip-path:url(#SVGID_14_);}
	.st56{fill:#FFFFFF;stroke:#1D1D1B;stroke-width:2;stroke-miterlimit:10;}
	.st57{clip-path:url(#SVGID_16_);fill:#5F4634;}
	.st58{display:none;clip-path:url(#SVGID_16_);}
	.st59{display:inline;fill:#FCD572;}
	.st60{clip-path:url(#SVGID_16_);}
	.st61{fill:#1D1D1B;stroke:#FFFFFF;stroke-width:3;stroke-miterlimit:10;}
	.st62{display:none;fill:#FFFFFF;}
	.st63{opacity:0.3;clip-path:url(#SVGID_18_);fill:url(#);}
	.st64{clip-path:url(#SVGID_18_);}
	.st65{opacity:0.3;clip-path:url(#SVGID_20_);fill:url(#);stroke:#FFFFFF;stroke-width:2;stroke-miterlimit:10;}
	.st66{clip-path:url(#SVGID_18_);fill:#5F4634;}
	.st67{clip-path:url(#SVGID_18_);fill:none;stroke:#1D1D1B;stroke-miterlimit:10;}
	.st68{display:inline;fill:#9AC079;}
	.st69{display:inline;fill:#F9C199;}
	.st70{display:inline;fill:#133F65;}
	.st71{display:inline;fill:none;stroke:#133F65;stroke-width:5;stroke-miterlimit:10;}
	.st72{display:inline;fill:#F4F4F4;}
	.st73{fill:#FFFFFF;stroke:#1D1D1B;stroke-miterlimit:10;}
	.st74{fill:#FCD572;stroke:#1D1D1B;stroke-miterlimit:10;}
	.st75{display:inline;fill:#FCD572;stroke:#1D1D1B;stroke-miterlimit:10;}
	.st76{fill:#5F4634;stroke:#1D1D1B;stroke-miterlimit:10;}
	.st77{fill:#F4F4F4;stroke:#1D1D1B;stroke-miterlimit:10;}
	.st78{fill:#133F65;stroke:#FFFFFF;stroke-miterlimit:10;}
	.st79{display:none;clip-path:url(#SVGID_22_);}
	.st80{clip-path:url(#SVGID_22_);}
	.st81{clip-path:url(#SVGID_24_);fill:#FCD571;}
	.st82{clip-path:url(#SVGID_24_);fill:#153F65;}
	.st83{clip-path:url(#SVGID_24_);fill:none;stroke:#1D1D1B;stroke-miterlimit:10;}
	.st84{display:none;clip-path:url(#SVGID_24_);}
	.st85{display:inline;fill:#FFC499;stroke:#5F4634;stroke-width:0.5;stroke-miterlimit:10;}
	.st86{display:inline;fill:none;stroke:#FCD571;stroke-width:0.5;stroke-miterlimit:10;}
	.st87{clip-path:url(#SVGID_24_);fill:#5F4634;stroke:#5F4634;stroke-miterlimit:10;}
	.st88{display:none;fill:url(#SVGID_25_);}
	.st89{clip-path:url(#SVGID_27_);fill:#FCD571;}
	.st90{clip-path:url(#SVGID_27_);fill:none;stroke:#000000;stroke-miterlimit:10;}
	.st91{clip-path:url(#SVGID_29_);fill:#FFC499;}
	.st92{clip-path:url(#SVGID_29_);fill:none;stroke:#FFFFFF;stroke-width:2;stroke-miterlimit:10;}
	.st93{clip-path:url(#SVGID_31_);fill:#FFC499;}
	.st94{clip-path:url(#SVGID_31_);fill:none;stroke:#FFFFFF;stroke-miterlimit:10;}
	.st95{clip-path:url(#SVGID_31_);fill:#FCD571;}
	.st96{clip-path:url(#SVGID_33_);fill:#FCD571;}
	.st97{display:none;clip-path:url(#SVGID_33_);fill:none;stroke:#1D1D1B;stroke-miterlimit:10;}
	.st98{clip-path:url(#SVGID_33_);fill:#153F65;}
	.st99{clip-path:url(#SVGID_33_);fill:none;stroke:#1D1D1B;stroke-miterlimit:10;}
	.st100{fill:#122236;}
	.st101{opacity:0.3;fill:#66CC33;}
	.st102{clip-path:url(#SVGID_35_);fill:#FCD571;}
	.st103{clip-path:url(#SVGID_35_);fill:#153F65;stroke:#1D1D1B;stroke-miterlimit:10;}
	.st104{clip-path:url(#SVGID_35_);fill:#FFC499;}
	.st105{clip-path:url(#SVGID_37_);fill:#5F4634;}
	.st106{clip-path:url(#SVGID_37_);fill:none;stroke:#FFFFFF;stroke-miterlimit:10;}
	.st107{clip-path:url(#SVGID_37_);fill:#FFC499;}
	.st108{display:none;clip-path:url(#SVGID_37_);fill:#5F4634;}
	.st109{fill:#F5F5F5;}
	.st110{display:none;clip-path:url(#SVGID_39_);fill:#FCD571;}
	.st111{clip-path:url(#SVGID_39_);fill:#FFC499;}
	.st112{clip-path:url(#SVGID_39_);fill:none;stroke:#1D1D1B;stroke-miterlimit:10;}
	.st113{clip-path:url(#SVGID_39_);}
	.st114{clip-path:url(#SVGID_41_);fill:#FCD571;}
	.st115{clip-path:url(#SVGID_41_);fill:#153F65;}
	.st116{clip-path:url(#SVGID_41_);fill:none;stroke:#1D1D1B;stroke-miterlimit:10;}
	.st117{clip-path:url(#SVGID_41_);}
	.st118{fill:#FFC499;stroke:#5F4634;stroke-width:0.5;stroke-miterlimit:10;}
	.st119{fill:none;stroke:#FCD571;stroke-width:0.5;stroke-miterlimit:10;}
	.st120{clip-path:url(#SVGID_41_);fill:#5F4634;stroke:#5F4634;stroke-miterlimit:10;}
	.st121{display:none;clip-path:url(#SVGID_41_);}
	.st122{display:inline;fill:#051521;}
	.st123{clip-path:url(#SVGID_43_);fill:#153F65;stroke:#FFFFFF;stroke-miterlimit:10;}
	.st124{clip-path:url(#SVGID_43_);fill:none;stroke:#1D1D1B;stroke-miterlimit:10;}
	.st125{display:none;clip-path:url(#SVGID_43_);}
	.st126{clip-path:url(#SVGID_43_);fill:#FFC499;}
	.st127{font-family:'GiddyupStd';}
	.st128{font-size:40px;}
	.st129{font-family:'CooperBlackStd';}
	.st130{font-size:115.1587px;}
	.st131{font-family:'Montserrat-Medium';}
	.st132{font-size:25px;}
	.st133{display:none;clip-path:url(#SVGID_45_);}
	.st134{clip-path:url(#SVGID_45_);}
	.st135{clip-path:url(#SVGID_47_);fill:#FFC499;}
	.st136{clip-path:url(#SVGID_47_);fill:none;stroke:#FFFFFF;stroke-miterlimit:10;}
</style>
<g id="Capa_1">
	<g id="Capa_2">
	</g>
</g>
<g id="Capa_13">
</g>
<g id="Capa_3">
</g>
<g id="Capa_4">
</g>
<g id="Capa_5">
</g>
<g id="Capa_6">
</g>
<g id="Capa_24">
</g>
<g id="Capa_12">
</g>
<g id="Capa_7">
</g>
<g id="Capa_8">
</g>
<g id="Capa_9">
</g>
<g id="Capa_10">
</g>
<g id="Capa_11">
</g>
<g id="Capa_14">
</g>
<g id="Capa_15">
</g>
<g id="Capa_16">
</g>
<g id="Capa_17">
</g>
<g id="Capa_18">
</g>
<g id="Capa_19">
</g>
<g id="Capa_20">
</g>
<g id="Capa_21">
</g>
<g id="Capa_22">
</g>
<g id="Capa_23">
</g>
<g id="Capa_25">
</g>
<g id="Capa_26">
</g>
<g id="Capa_27">
</g>
<g id="Capa_28">
	<g>
		<g>
			<defs>
				<rect id="SVGID_42_" y="-2.1" width="1400" height="800"/>
			</defs>
			<use xlink:href="#SVGID_42_"  style="overflow:visible;fill:#FCD571;"/>
			<clipPath id="SVGID_3_">
				<use xlink:href="#SVGID_42_"  style="overflow:visible;"/>
			</clipPath>
			<path style="clip-path:url(#SVGID_3_);fill:#153F65;stroke:#FFFFFF;stroke-miterlimit:10;" d="M112.1-39.2
				c15.5-1.3,31.1,0.3,46.5,2.1c25.6,3,51.4,6.8,74.6,14.4s44,19.3,54.6,34.6c11.3,16.4,10,35.2,5.2,52.8s-12.7,35-14.1,52.9
				c-1.2,15.1,2.4,30.3,1.3,45.4c-1.1,15.1-7.7,31-25.2,41.2c-27,15.7-73.6,14.2-94.3,33.4c-6.2,5.7-9.1,12.7-15,18.6
				c-9.1,9.2-25.3,15.4-42.3,16c-17,0.6-34.2-4.3-44.8-12.8c-14-11.2-15.9-26.5-17.1-40.8c-1.6-18.3-3.2-36.5-4.8-54.8
				c-1-10.9-1.9-22.1,3.2-32.5c5.4-11.1,17.5-21.3,16.9-32.9c-0.7-12-14.5-21.7-23.5-32.2C20.4,51,17.5,32.5,25.3,16
				c5-10.5,14.5-20.2,26.8-27.8c5.9-3.6,13.3-6.4,18-10.7c3.8-3.5,6.6-6.8,12.2-9.4C91-36.1,101.5-38.4,112.1-39.2z"/>
			<path class="st10" d="M114.1-18.2c15.5-1.3,31.1,0.3,46.5,2.1c25.6,3,51.4,6.8,74.6,14.4s44,19.3,54.6,34.6
				c11.3,16.4,10,35.2,5.2,52.8s-12.7,35-14.1,52.9c-1.2,15.1,2.4,30.3,1.3,45.4s-7.7,31-25.2,41.2c-27,15.7-73.6,14.2-94.3,33.4
				c-6.2,5.7-9.1,12.7-15,18.6c-9.1,9.2-25.3,15.4-42.3,16c-17,0.6-34.2-4.3-44.8-12.8c-14-11.2-15.9-26.5-17.1-40.8
				c-1.6-18.3-3.2-36.5-4.8-54.8c-1-10.9-1.9-22.1,3.2-32.5c5.4-11.1,17.5-21.3,16.9-32.9c-0.7-12-14.5-21.7-23.5-32.2
				C22.5,72,19.5,53.5,27.4,37c5-10.5,14.5-20.2,26.8-27.8c5.9-3.6,13.3-6.4,18-10.7c3.8-3.5,6.6-6.8,12.2-9.4
				C93.1-15,103.6-17.3,114.1-18.2z"/>
			<g style="display:none;clip-path:url(#SVGID_3_);">
				<path class="st30" d="M1388,56.9c-14-0.3-27.6-4.4-36.9-11.1c-2.5-1.8-4.7-3.8-6.6-5.9c-1.9-2.1-3.3-4.4-4.4-6.8
					c-1.1-2.4-1.8-4.8-2.1-7.2c-0.1-0.6-0.1-1.2-0.1-1.9c0-0.5-0.2-1.2,0.1-1.6c0.4-0.7,0.7,0.1,0.8,0.5c0.3,0.6,0.6,1.1,1,1.7
					c1.4,2.3,3,4.5,4.8,6.7c1.8,2.2,3.9,4.2,6.1,6.2c2.2,2,4.6,3.9,7.2,5.7c2.6,1.8,5.4,3.5,8.3,5.1c2.9,1.6,6,3,9.2,4.4
					c3.2,1.3,6.5,2.5,10,3.6C1386.3,56.4,1387.1,56.7,1388,56.9z"/>
				<path class="st30" d="M1375.3,70.2c-15.7-1.3-29.3-6.4-36.9-13.9c-2-2-3.6-4.2-4.7-6.6c-1.1-2.3-1.8-4.8-1.9-7.3
					c-0.2-2.5,0.2-5,1-7.6c0.2-0.6,0.4-1.3,0.7-1.9c0.2-0.5,0.3-1.2,0.9-1.7c0.8-0.7,0.7,0.2,0.7,0.5c0.1,0.6,0.2,1.2,0.3,1.8
					c0.5,2.4,1.3,4.8,2.4,7.2c1.1,2.3,2.4,4.6,4.1,6.8c1.6,2.2,3.5,4.3,5.6,6.3c2.1,2,4.5,4,7.1,5.8c2.6,1.8,5.4,3.5,8.4,5.1
					c3,1.6,6.3,3,9.7,4.3C1373.6,69.6,1374.4,69.9,1375.3,70.2z"/>
				<path class="st30" d="M1367.3,85c-15.7-1.3-29.3-6.4-36.9-13.9c-2-2-3.6-4.2-4.7-6.6c-1.1-2.3-1.8-4.8-1.9-7.3
					c-0.2-2.5,0.2-5,1-7.6c0.2-0.6,0.4-1.3,0.7-1.9c0.2-0.5,0.3-1.2,0.9-1.7c0.8-0.7,0.7,0.2,0.7,0.5c0.1,0.6,0.2,1.2,0.3,1.8
					c0.5,2.4,1.3,4.8,2.4,7.2c1.1,2.3,2.4,4.6,4.1,6.8c1.6,2.2,3.5,4.3,5.6,6.3c2.1,2,4.5,4,7.1,5.8c2.6,1.8,5.4,3.5,8.4,5.1
					c3,1.6,6.3,3,9.7,4.3C1365.6,84.4,1366.4,84.7,1367.3,85z"/>
				<path class="st30" d="M1341,100.5c-15.3-3.3-26.8-9.8-31.1-17.6c-1.1-2.1-1.8-4.3-1.8-6.6c-0.1-2.3,0.4-4.6,1.3-6.9
					c1-2.3,2.4-4.6,4.4-6.8c0.5-0.6,1-1.1,1.6-1.6c0.5-0.5,0.9-1,1.7-1.4c1.1-0.5,0.6,0.3,0.5,0.6c-0.2,0.6-0.3,1.1-0.5,1.7
					c-0.6,2.3-0.8,4.6-0.8,6.8c0,2.3,0.4,4.5,1,6.7c0.7,2.2,1.6,4.4,2.8,6.5c1.2,2.1,2.8,4.2,4.6,6.2c1.8,2,3.9,3.9,6.3,5.8
					c2.4,1.8,5,3.6,7.9,5.3C1339.5,99.7,1340.2,100.1,1341,100.5z"/>
				<path class="st30" d="M1328.6,114.3c-15.3-3.3-26.8-9.8-31.1-17.6c-1.1-2.1-1.8-4.3-1.8-6.6c-0.1-2.3,0.4-4.6,1.3-6.9
					c1-2.3,2.4-4.6,4.4-6.8c0.5-0.6,1-1.1,1.6-1.6c0.5-0.5,0.9-1,1.7-1.4c1.1-0.5,0.6,0.3,0.5,0.6c-0.2,0.6-0.3,1.1-0.5,1.7
					c-0.6,2.3-0.8,4.6-0.8,6.8c0,2.3,0.4,4.5,1,6.7c0.7,2.2,1.6,4.4,2.8,6.5c1.2,2.1,2.8,4.2,4.6,6.2c1.8,2,3.9,3.9,6.3,5.8
					c2.4,1.8,5,3.6,7.9,5.3C1327.2,113.5,1327.9,113.9,1328.6,114.3z"/>
				<path class="st30" d="M1314.9,127.8c-15.3-3.3-26.8-9.8-31.1-17.6c-1.1-2.1-1.8-4.3-1.8-6.6c-0.1-2.3,0.4-4.6,1.3-6.9
					c1-2.3,2.4-4.6,4.4-6.8c0.5-0.6,1-1.1,1.6-1.6c0.5-0.5,0.9-1,1.7-1.4c1.1-0.5,0.6,0.3,0.5,0.6c-0.2,0.6-0.3,1.1-0.5,1.7
					c-0.6,2.3-0.8,4.6-0.8,6.8c0,2.3,0.4,4.5,1,6.7c0.7,2.2,1.6,4.4,2.8,6.5c1.2,2.1,2.8,4.2,4.6,6.2c1.8,2,3.9,3.9,6.3,5.8
					c2.4,1.8,5,3.6,7.9,5.3C1313.5,127,1314.2,127.4,1314.9,127.8z"/>
				<path class="st30" d="M1302.1,137.7c-15.3-3.3-26.8-9.8-31.1-17.6c-1.1-2.1-1.8-4.3-1.8-6.6c-0.1-2.3,0.4-4.6,1.3-6.9
					c1-2.3,2.4-4.6,4.4-6.8c0.5-0.6,1-1.1,1.6-1.6c0.5-0.5,0.9-1,1.7-1.4c1.1-0.5,0.6,0.3,0.5,0.6c-0.2,0.6-0.3,1.1-0.5,1.7
					c-0.6,2.3-0.8,4.6-0.8,6.8c0,2.3,0.4,4.5,1,6.7c0.7,2.2,1.6,4.4,2.8,6.5c1.2,2.1,2.8,4.2,4.6,6.2c1.8,2,3.9,3.9,6.3,5.8
					c2.4,1.8,5,3.6,7.9,5.3C1300.6,136.9,1301.4,137.3,1302.1,137.7z"/>
				<path class="st30" d="M1290.4,144.6c-15.3-3.3-26.8-9.8-31.1-17.6c-1.1-2.1-1.8-4.3-1.8-6.6c-0.1-2.3,0.4-4.6,1.3-6.9
					c1-2.3,2.4-4.6,4.4-6.8c0.5-0.6,1-1.1,1.6-1.6c0.5-0.5,0.9-1,1.7-1.4c1.1-0.5,0.6,0.3,0.5,0.6c-0.2,0.6-0.3,1.1-0.5,1.7
					c-0.6,2.3-0.8,4.6-0.8,6.8c0,2.3,0.4,4.5,1,6.7c0.7,2.2,1.6,4.4,2.8,6.5c1.2,2.1,2.8,4.2,4.6,6.2c1.8,2,3.9,3.9,6.3,5.8
					c2.4,1.8,5,3.6,7.9,5.3C1289,143.8,1289.7,144.2,1290.4,144.6z"/>
				<path class="st30" d="M1263.8,152.6c-13.3-5.9-21.5-14.3-22.1-22.5c-0.2-2.2,0.2-4.5,1.1-6.7c0.9-2.2,2.3-4.3,4.3-6.4
					c1.9-2,4.3-3.9,7.2-5.7c0.7-0.4,1.5-0.9,2.2-1.3c0.6-0.3,1.3-0.8,2.2-1c1.3-0.3,0.5,0.4,0.2,0.7c-0.4,0.5-0.8,1-1.2,1.5
					c-1.6,2.1-2.8,4.2-3.8,6.4c-1,2.2-1.6,4.4-1.9,6.7c-0.3,2.2-0.4,4.5-0.1,6.8c0.3,2.3,0.8,4.6,1.7,6.8c0.9,2.2,2,4.5,3.5,6.7
					c1.5,2.2,3.2,4.4,5.2,6.5C1262.7,151.6,1263.2,152.1,1263.8,152.6z"/>
				<path class="st30" d="M1244.5,162.1c-13.3-5.9-21.5-14.3-22.1-22.5c-0.2-2.2,0.2-4.5,1.1-6.7c0.9-2.2,2.3-4.3,4.3-6.4
					c1.9-2,4.3-3.9,7.2-5.7c0.7-0.4,1.5-0.9,2.2-1.3c0.6-0.3,1.3-0.8,2.2-1c1.3-0.3,0.5,0.4,0.2,0.7c-0.4,0.5-0.8,1-1.2,1.5
					c-1.6,2.1-2.8,4.2-3.8,6.4c-1,2.2-1.6,4.4-1.9,6.7c-0.3,2.2-0.4,4.5-0.1,6.8c0.3,2.3,0.8,4.6,1.7,6.8c0.9,2.2,2,4.5,3.5,6.7
					c1.5,2.2,3.2,4.4,5.2,6.5C1243.4,161.1,1244,161.6,1244.5,162.1z"/>
				<path class="st30" d="M1224,169.4c-13.3-5.9-21.5-14.3-22.1-22.5c-0.2-2.2,0.2-4.5,1.1-6.7c0.9-2.2,2.3-4.3,4.3-6.4
					c1.9-2,4.3-3.9,7.2-5.7c0.7-0.4,1.5-0.9,2.2-1.3c0.6-0.3,1.3-0.8,2.2-1c1.3-0.3,0.5,0.4,0.2,0.7c-0.4,0.5-0.8,1-1.2,1.5
					c-1.6,2.1-2.8,4.2-3.8,6.4c-1,2.2-1.6,4.4-1.9,6.7c-0.3,2.2-0.4,4.5-0.1,6.8c0.3,2.3,0.8,4.6,1.7,6.8c0.9,2.2,2,4.5,3.5,6.7
					c1.5,2.2,3.2,4.4,5.2,6.5C1223,168.4,1223.5,168.9,1224,169.4z"/>
				<path class="st30" d="M1188.8,167.2c-6.6-6.1-9-13.8-6.5-20.7c0.7-1.9,1.7-3.7,3.1-5.4c1.4-1.7,3.1-3.4,5-4.9
					c2-1.5,4.2-2.9,6.7-4c0.6-0.3,1.3-0.6,1.9-0.9c0.5-0.2,1.2-0.6,1.8-0.7c1-0.1,0.2,0.4-0.1,0.6c-0.5,0.4-0.9,0.8-1.3,1.2
					c-1.8,1.6-3.3,3.2-4.7,5c-1.4,1.7-2.6,3.5-3.6,5.3c-1,1.8-1.8,3.7-2.5,5.6c-0.6,1.9-1.1,3.8-1.3,5.8c-0.2,1.9-0.3,3.9-0.1,5.9
					c0.2,2,0.6,3.9,1.1,5.8C1188.5,166.3,1188.7,166.8,1188.8,167.2z"/>
				<path class="st30" d="M1169.7,169.2c-6.6-6.1-9-13.8-6.5-20.7c0.7-1.9,1.7-3.7,3.1-5.4c1.4-1.7,3.1-3.4,5-4.9
					c2-1.5,4.2-2.9,6.7-4c0.6-0.3,1.3-0.6,1.9-0.9c0.5-0.2,1.2-0.6,1.8-0.7c1-0.1,0.2,0.4-0.1,0.6c-0.5,0.4-0.9,0.8-1.3,1.2
					c-1.8,1.6-3.3,3.2-4.7,5c-1.4,1.7-2.6,3.5-3.6,5.3c-1,1.8-1.8,3.7-2.5,5.6c-0.6,1.9-1.1,3.8-1.3,5.8c-0.2,1.9-0.3,3.9-0.1,5.9
					c0.2,2,0.6,3.9,1.1,5.8C1169.4,168.3,1169.5,168.7,1169.7,169.2z"/>
				<path class="st30" d="M1145.1,162.9c-2.7-7.2-0.7-14.9,5.5-20.8c1.7-1.6,3.7-3,5.9-4.3c2.2-1.3,4.7-2.4,7.4-3.4
					c2.7-0.9,5.5-1.7,8.5-2.2c0.7-0.1,1.5-0.3,2.3-0.4c0.6-0.1,1.4-0.3,2.1-0.2c1,0.1,0,0.4-0.4,0.5c-0.6,0.3-1.3,0.5-1.9,0.8
					c-2.5,1.1-4.9,2.3-7.2,3.5c-2.3,1.3-4.4,2.7-6.3,4.1c-2,1.5-3.8,3-5.4,4.6c-1.7,1.6-3.1,3.3-4.5,5.1c-1.3,1.8-2.4,3.6-3.4,5.4
					c-0.9,1.9-1.7,3.8-2.2,5.7C1145.3,162,1145.2,162.5,1145.1,162.9z"/>
				<path class="st30" d="M1292.2,88.8c-13.3,2.8-28.9,1.4-42.1-3.7c-3.6-1.4-7-3-10.2-4.9c-3.2-1.9-6.1-4-8.8-6.3
					c-2.6-2.3-4.9-4.7-6.9-7.3c-0.5-0.6-0.9-1.3-1.4-2c-0.4-0.5-0.9-1.2-1-1.8c-0.1-0.8,0.7,0,1.1,0.3c0.7,0.5,1.4,1.1,2.1,1.6
					c2.8,2.1,5.9,4.2,9,6.1c3.2,1.9,6.5,3.7,9.9,5.3c3.4,1.6,7,3.1,10.7,4.5c3.7,1.4,7.4,2.6,11.3,3.6c3.8,1,7.7,1.9,11.6,2.6
					c3.9,0.7,7.8,1.3,11.8,1.6C1290.3,88.7,1291.3,88.7,1292.2,88.8z"/>
				<path class="st30" d="M1280,95.5c-12.6,1.4-27.4-1-39.9-6.6c-3.4-1.5-6.6-3.2-9.6-5.2c-3-1.9-5.8-4-8.2-6.3
					c-2.5-2.2-4.6-4.6-6.4-7c-0.5-0.6-0.9-1.2-1.3-1.8c-0.3-0.5-0.9-1.1-0.9-1.7c-0.1-0.7,0.7,0.1,1.1,0.4c0.6,0.5,1.3,1.1,2,1.6
					c2.7,2.1,5.5,4.2,8.5,6.1c3,1.9,6.1,3.8,9.3,5.5c3.2,1.7,6.6,3.3,10,4.8c3.5,1.5,7,2.9,10.6,4.1c3.6,1.2,7.3,2.3,11,3.3
					c3.7,0.9,7.4,1.7,11.2,2.4C1278.1,95.2,1279.1,95.4,1280,95.5z"/>
				<path class="st30" d="M1269.5,101.9c-13.3,3.5-28.9,2.7-42-2c-3.6-1.3-6.9-2.9-10.1-4.7c-3.1-1.8-6-3.9-8.6-6.2
					c-2.6-2.3-4.8-4.7-6.7-7.3c-0.5-0.7-0.9-1.3-1.3-2c-0.3-0.6-0.9-1.2-0.9-1.8c0-0.9,0.7,0,1.1,0.3c0.7,0.5,1.3,1.1,2,1.6
					c2.8,2.1,5.8,4.1,8.9,5.9c3.1,1.8,6.4,3.6,9.8,5.1c3.4,1.6,6.9,3,10.5,4.2c3.6,1.3,7.4,2.4,11.2,3.3c3.8,0.9,7.6,1.7,11.5,2.2
					c3.9,0.6,7.8,1,11.7,1.2C1267.6,101.8,1268.5,101.8,1269.5,101.9z"/>
				<path class="st30" d="M1250.7,114.2c-13.6,2.2-29.2,0.3-42.2-5.2c-3.5-1.5-6.8-3.3-9.9-5.2c-3.1-2-5.9-4.2-8.3-6.5
					c-2.5-2.3-4.6-4.9-6.3-7.5c-0.4-0.7-0.9-1.3-1.2-2c-0.3-0.6-0.8-1.2-0.8-1.8c0-0.8,0.7,0,1.1,0.4c0.6,0.6,1.3,1.1,2,1.7
					c2.7,2.2,5.6,4.3,8.6,6.3c3,2,6.2,3.9,9.6,5.6c3.3,1.7,6.8,3.4,10.4,4.8c3.6,1.5,7.3,2.8,11.1,4c3.8,1.2,7.6,2.2,11.5,3
					c3.9,0.9,7.8,1.5,11.8,2C1248.8,114,1249.7,114.1,1250.7,114.2z"/>
				<path class="st30" d="M1237,118.9c-10.9,4-25.3,4.5-39,1.4c-3.7-0.8-7.4-1.9-10.9-3.3c-3.6-1.3-7-2.9-10.2-4.6
					c-3.2-1.7-6.2-3.7-8.8-5.8c-0.7-0.5-1.3-1.1-2-1.6c-0.5-0.5-1.3-1-1.5-1.5c-0.4-0.7,0.7-0.1,1.1,0.2c0.8,0.4,1.6,0.8,2.5,1.2
					c3.3,1.6,6.8,3.1,10.3,4.4c3.5,1.4,7.2,2.6,10.8,3.7c3.7,1.1,7.4,2,11.2,2.8c3.8,0.8,7.6,1.5,11.4,2c3.8,0.5,7.6,0.9,11.3,1.1
					c3.8,0.2,7.5,0.2,11.1,0.1C1235.2,119,1236.1,118.9,1237,118.9z"/>
				<path class="st30" d="M1218.4,127.6c-10.8,3.2-24,2.9-35.5-0.9c-3.1-1-6.1-2.3-9-3.8c-2.8-1.5-5.5-3.2-7.9-5.1
					c-2.4-1.9-4.6-3.9-6.4-6.1c-0.5-0.6-0.9-1.1-1.3-1.7c-0.4-0.5-0.9-1-1-1.5c-0.1-0.7,0.6,0,1,0.2c0.6,0.4,1.2,0.9,1.9,1.3
					c2.6,1.8,5.3,3.4,8.1,4.9c2.8,1.5,5.8,2.9,8.8,4.2c3,1.3,6.1,2.4,9.3,3.4c3.2,1,6.4,1.9,9.7,2.6c3.3,0.7,6.6,1.3,9.9,1.7
					c3.3,0.4,6.7,0.7,10,0.8C1216.8,127.6,1217.6,127.6,1218.4,127.6z"/>
				<path class="st30" d="M1185.3,132.5c-8.9-0.3-18.6-3.7-26.2-9c-2.1-1.5-4-3.1-5.7-4.8c-1.7-1.7-3.2-3.5-4.5-5.4
					c-1.3-1.9-2.4-3.8-3.2-5.8c-0.2-0.5-0.4-1-0.6-1.5c-0.1-0.4-0.4-0.9-0.3-1.3c0.1-0.5,0.5,0.1,0.7,0.4c0.3,0.5,0.7,0.9,1.1,1.4
					c1.5,1.8,3,3.6,4.7,5.3c1.7,1.7,3.5,3.4,5.4,5c1.9,1.6,3.9,3.1,6,4.6c2.1,1.5,4.3,2.8,6.6,4.1c2.2,1.3,4.6,2.5,6.9,3.5
					c2.4,1.1,4.8,2,7.2,2.9C1184.1,132.1,1184.7,132.3,1185.3,132.5z"/>
				<path class="st30" d="M1164.2,129.5c-7.4-4.6-16.1-6.2-23.4-4.5c-2,0.5-3.9,1.2-5.7,2.1c-1.8,0.9-3.4,2.1-4.9,3.5
					c-1.5,1.4-2.7,2.9-3.8,4.6c-0.3,0.4-0.5,0.9-0.8,1.3c-0.2,0.4-0.5,0.8-0.5,1.3c0,0.7,0.4,0.1,0.6-0.1c0.4-0.3,0.8-0.6,1.2-0.9
					c1.6-1.2,3.3-2.3,5-3.2c1.8-1,3.6-1.8,5.5-2.5c1.9-0.7,3.9-1.3,5.9-1.7c2-0.4,4.1-0.7,6.3-0.9c2.1-0.2,4.3-0.2,6.4-0.1
					c2.2,0.1,4.4,0.4,6.6,0.8C1163.1,129.3,1163.7,129.4,1164.2,129.5z"/>
				<path class="st30" d="M1308.6,74.3c-12.4,4.6-27.6,5.1-41.2,1.4c-3.7-1-7.2-2.3-10.6-3.9c-3.4-1.6-6.6-3.5-9.4-5.5
					c-2.9-2.1-5.5-4.4-7.8-6.9c-0.6-0.6-1.1-1.3-1.6-1.9c-0.4-0.5-1.1-1.2-1.2-1.8c-0.2-0.9,0.7-0.1,1.1,0.2c0.7,0.5,1.5,1,2.3,1.4
					c3.1,1.9,6.3,3.7,9.7,5.3c3.4,1.6,6.8,3.1,10.4,4.4c3.6,1.3,7.2,2.4,11,3.4c3.7,1,7.6,1.8,11.4,2.4c3.8,0.6,7.7,1.1,11.6,1.3
					c3.9,0.3,7.8,0.3,11.6,0.2C1306.7,74.3,1307.6,74.3,1308.6,74.3z"/>
				<path class="st30" d="M1341.4,16c-13.3,2.8-28.9,1.4-42.1-3.7c-3.6-1.4-7-3-10.2-4.9c-3.2-1.9-6.1-4-8.8-6.3
					c-2.6-2.3-4.9-4.7-6.9-7.3c-0.5-0.6-0.9-1.3-1.4-2c-0.4-0.5-0.9-1.2-1-1.8c-0.1-0.8,0.7,0,1.1,0.3c0.7,0.5,1.4,1.1,2.1,1.6
					c2.8,2.1,5.9,4.2,9,6.1c3.2,1.9,6.5,3.7,9.9,5.3c3.4,1.6,7,3.1,10.7,4.5c3.7,1.4,7.4,2.6,11.3,3.6c3.8,1,7.7,1.9,11.6,2.6
					c3.9,0.7,7.8,1.3,11.8,1.6C1339.5,15.8,1340.5,15.9,1341.4,16z"/>
				<path class="st30" d="M1336,28.2c-12.6,1.4-27.4-1-39.9-6.6c-3.4-1.5-6.6-3.2-9.6-5.2c-3-1.9-5.8-4-8.2-6.3
					c-2.5-2.2-4.6-4.6-6.4-7c-0.5-0.6-0.9-1.2-1.3-1.8c-0.3-0.5-0.9-1.1-0.9-1.7c-0.1-0.7,0.7,0.1,1.1,0.4c0.6,0.5,1.3,1.1,2,1.6
					c2.7,2.1,5.5,4.2,8.5,6.1c3,1.9,6.1,3.8,9.3,5.5c3.2,1.7,6.6,3.3,10,4.8c3.5,1.5,7,2.9,10.6,4.1c3.6,1.2,7.3,2.3,11,3.3
					c3.7,0.9,7.4,1.7,11.2,2.4C1334.2,27.9,1335.1,28,1336,28.2z"/>
				<path class="st30" d="M1333.3,38.7c-13.3,3.5-28.9,2.7-42-2c-3.6-1.3-6.9-2.9-10.1-4.7c-3.1-1.8-6-3.9-8.6-6.2
					c-2.6-2.3-4.8-4.7-6.7-7.3c-0.5-0.7-0.9-1.3-1.3-2c-0.3-0.6-0.9-1.2-0.9-1.8c0-0.9,0.7,0,1.1,0.3c0.7,0.5,1.3,1.1,2,1.6
					c2.8,2.1,5.8,4.1,8.9,5.9c3.1,1.8,6.4,3.6,9.8,5.1c3.4,1.6,6.9,3,10.5,4.2c3.6,1.3,7.4,2.4,11.2,3.3c3.8,0.9,7.6,1.7,11.5,2.2
					c3.9,0.6,7.8,1,11.7,1.2C1331.4,38.7,1332.4,38.7,1333.3,38.7z"/>
				<path class="st30" d="M1323,53.2c-13.6,2.2-29.2,0.3-42.2-5.2c-3.5-1.5-6.8-3.3-9.9-5.2c-3.1-2-5.9-4.2-8.3-6.5
					c-2.5-2.3-4.6-4.9-6.3-7.5c-0.4-0.7-0.9-1.3-1.2-2c-0.3-0.6-0.8-1.2-0.8-1.8c0-0.8,0.7,0,1.1,0.4c0.6,0.6,1.3,1.1,2,1.7
					c2.7,2.2,5.6,4.3,8.6,6.3c3,2,6.2,3.9,9.6,5.6c3.3,1.7,6.8,3.4,10.4,4.8c3.6,1.5,7.3,2.8,11.1,4c3.8,1.2,7.6,2.2,11.5,3
					c3.9,0.9,7.8,1.5,11.8,2C1321,53,1322,53.1,1323,53.2z"/>
				<path class="st30" d="M1317.6,60.7c-10.9,4-25.3,4.5-39,1.4c-3.7-0.8-7.4-1.9-10.9-3.3c-3.6-1.3-7-2.9-10.2-4.6
					c-3.2-1.7-6.2-3.7-8.8-5.8c-0.7-0.5-1.3-1.1-2-1.6c-0.5-0.5-1.3-1-1.5-1.5c-0.4-0.7,0.7-0.1,1.1,0.2c0.8,0.4,1.6,0.8,2.5,1.2
					c3.3,1.6,6.8,3.1,10.3,4.4c3.5,1.4,7.2,2.6,10.8,3.7c3.7,1.1,7.4,2,11.2,2.8c3.8,0.8,7.6,1.5,11.4,2c3.8,0.5,7.6,0.9,11.3,1.1
					c3.8,0.2,7.5,0.2,11.1,0.1C1315.8,60.7,1316.7,60.7,1317.6,60.7z"/>
				<path class="st30" d="M1148.9,122.1c-2.4-6.4-8.2-10.8-15.9-12c-2.1-0.3-4.3-0.4-6.5-0.2c-2.3,0.2-4.6,0.6-7,1.2
					c-2.4,0.6-4.7,1.5-7.1,2.5c-0.6,0.3-1.2,0.5-1.8,0.8c-0.5,0.2-1.1,0.5-1.5,0.9c-0.6,0.5,0.2,0.2,0.6,0.2
					c0.6-0.1,1.2-0.3,1.7-0.4c2.3-0.5,4.7-0.8,7-1c2.3-0.2,4.5-0.2,6.7-0.2c2.2,0.1,4.3,0.3,6.4,0.6c2.1,0.3,4.1,0.8,6,1.4
					c1.9,0.6,3.7,1.3,5.5,2.2c1.7,0.9,3.3,1.9,4.8,3C1148.2,121.5,1148.5,121.8,1148.9,122.1z"/>
				<path class="st31" d="M1342.3-12.7c1.2,27.4-9.3,55-30.1,78.9c-20.8,23.9-51.7,44.2-88.6,58c-11.3,4.2-23.7,7.9-36.8,8.2
					c-16.6,0.3-33.1-5.4-41.8-14.5"/>
			</g>
			<path style="clip-path:url(#SVGID_3_);fill:#FFC499;" d="M460.6,71c8.9,37.8,4.3,76.4,9.7,114.5s23.1,77.7,67.1,103.4
				c52.1,30.5,134.4,37.6,173.7,75.2c43.4,41.4,13,97.8,29.3,146.7c19.4,58.3,102.2,98.3,184.1,126.3c81.9,28,172,51.2,231.1,97.2
				c33.2,25.9,54.6,57.7,90.8,81.9c36.2,24.2,96.6,39.3,140.6,21.2c35.1-14.4,46.2-43.6,53.5-69.9c67.3-240,75-486.9,22.7-728.4
				c-7.9-36.3-20.9-76.6-67.8-97.5c-38.8-17.3-89.9-16.2-137-14.5c-75.7,2.8-151.3,5.6-227,8.4c-75.7,2.8-151.3,5.6-227,8.4
				c-75.4,2.8-150.9,5.6-226.3,8.4c-37.9,1.4-75.9,2.8-113.8,4.2c-18.5,0.7-37,1.4-55.6,2.1c-7.3,0.3-31-1.8-32.8,5.1
				c-1.5,5.5,10.7,12.8,15.6,16.4C401-13,410.9-6.6,419.2,0.8c18.4,16.5,30.1,35.8,37.1,55.6C458,61.2,459.4,66.1,460.6,71z"/>
		</g>
		<g>
			<text transform="matrix(1 0 0 1 667.6806 73.9884)" class="st13 st127 st128">Logo</text>
		</g>
		<g>
			<g>
				<g>
					<path class="st13" d="M423.7,352.2c2.8,0.1,16.6,0.7,25.6,10.8c1.8,2,5.9,6.7,6.4,13.7c0.1,1.9,0.5,8.3-4.1,13.1
						c-3.4,3.5-7.5,4.1-8.4,4.3c-1.2,0.2-5.8,0.8-8.9-1.6c-6.3-5,1.9-17.2-5.3-28.4c-1.1-1.8-3.7-5.7-7.6-6.2
						c-8.9-1.2-21,15.8-22.3,32.4c-1.2,15.4,6.5,34.3,17.5,35.8c8.2,1.1,16.3-7.8,17.2-8.9c7.9-8.9,6.3-18.6,11.6-19.7
						c3.6-0.8,8.1,3.1,9.8,7c2.7,6.2-1.4,12.7-2.7,14.8c-8.4,13.4-29.2,17-43.1,13.7c-3.5-0.8-16.6-4.1-25.3-16.9
						c-1.1-1.6-10.5-15.8-5.9-33C383.6,362.1,406.3,351.5,423.7,352.2z"/>
				</g>
				<path class="st33" d="M420,356.9c-5,6.5-7.2,15.1-5.9,23.2c0.9,5.7,3.4,11,5.6,16.3c2.2,5.3,4.1,10.9,3.9,16.7
					c-0.3,5.7-3.2,11.7-8.5,14"/>
			</g>
			<text transform="matrix(1 0 0 1 466.8417 432.4464)" class="st13 st129 st130">hantale’s</text>
		</g>
		<path class="st6" d="M885.1,676.5c-3.9,7.4-9.4,14.5-10,22.9c-0.6,9.1,5.4,18.3,14.1,21.2c8.6,3,19.1-0.6,24.1-8.1
			c5.1-7.6,4.4-18.6-1.7-25.4c-4.7-5.3-12.1-8.3-15.3-14.6c-2.2-4.2-2.1-9.1-2-13.8c0.1-5.5,0.2-11.1,0.3-16.6
			c0.1-4.5,0.2-9.1,2.3-13c2.1-3.9,7-6.7,11.1-5.1c0.1,0,0-1.8,0-1.9c-0.1-0.7-0.4-1.3-0.7-1.9c-0.7-1.3-1.8-2.3-3-3.1
			c-2.8-1.8-6.1-2.1-9.3-2.4c-1.7-0.2-3.4-0.5-5.1-0.9c-1.1-0.3-2.4-0.5-3.5,0c-2.5,1.1,0.3,4.7,0.9,6.4c2.4,5.7,3.9,11.8,4.6,18
			c0.7,6.2,0.6,12.4-0.3,18.6c-1,6.1-2.8,12.1-5.4,17.7C885.8,675.1,885.4,675.8,885.1,676.5z"/>
		<text transform="matrix(1 0 0 1 534.1887 483.983)" class="st131 st132">CAFETERÍA Y RESTURANT</text>
	</g>
</g>
<g id="Capa_29">
</g>
<g id="Capa_30">
</g>
<g id="Capa_31">
</g>
<g id="Capa_32">
</g>
<g id="Capa_33">
</g>
<g id="Capa_34">
</g>
<g id="Capa_35">
</g>
</svg>
