<?xml version="1.0" encoding="utf-8"?>
<!-- Generator: Adobe Illustrator 25.2.1, SVG Export Plug-In . SVG Version: 6.00 Build 0)  -->
<svg version="1.1" xmlns="http://www.w3.org/2000/svg" xmlns:xlink="http://www.w3.org/1999/xlink" x="0px" y="0px"
	 viewBox="0 0 1400 1000" style="enable-background:new 0 0 1400 1000;" xml:space="preserve">
<style type="text/css">
	.st0{fill:#5F4634;}
	.st1{display:none;}
	.st2{display:inline;fill:#5A2F15;}
	.st3{display:inline;fill:#FBBF29;}
	.st4{display:inline;fill:#225527;}
	.st5{fill:#153F65;}
	.st6{fill:#FFC499;}
	.st7{fill:#FCD571;}
	.st8{fill:url(#);}
	.st9{clip-path:url(#SVGID_3_);fill:#5F4634;}
	.st10{clip-path:url(#SVGID_3_);fill:none;stroke:#1D1D1B;stroke-miterlimit:10;}
	.st11{clip-path:url(#SVGID_3_);fill:#F9C199;}
	.st12{display:none;fill:#5F4634;}
	.st13{fill:#1D1D1B;}
	.st14{fill:none;stroke:#1D1D1B;stroke-width:7;stroke-miterlimit:10;}
	.st15{fill:#F9C199;}
	.st16{fill:none;stroke:#1D1D1B;stroke-miterlimit:10;}
	.st17{fill:#FCD572;}
	.st18{fill:none;stroke:#5F4634;stroke-width:0.5;stroke-miterlimit:10;}
	.st19{clip-path:url(#SVGID_5_);fill:#FCD571;}
	.st20{clip-path:url(#SVGID_5_);fill:none;stroke:#FFFFFF;stroke-width:2;stroke-miterlimit:10;}
	.st21{clip-path:url(#SVGID_5_);}
	.st22{fill:none;stroke:#FFFFFF;stroke-miterlimit:10;}
	.st23{fill:none;stroke:#FFFFFF;stroke-width:5;stroke-miterlimit:10;}
	.st24{fill:none;stroke:#FFFFFF;stroke-width:3;stroke-miterlimit:10;}
	.st25{fill:#FFFFFF;}
	.st26{fill:none;stroke:#FFFFFF;stroke-width:2;stroke-miterlimit:10;}
	.st27{clip-path:url(#SVGID_6_);fill:#153F65;stroke:#FFFFFF;stroke-miterlimit:10;}
	.st28{clip-path:url(#SVGID_6_);fill:none;stroke:#1D1D1B;stroke-miterlimit:10;}
	.st29{display:none;clip-path:url(#SVGID_6_);}
	.st30{display:inline;fill:#153F65;}
	.st31{display:inline;fill:none;stroke:#5F4634;stroke-miterlimit:10;}
	.st32{clip-path:url(#SVGID_6_);fill:#FFC499;}
	.st33{fill:none;stroke:#1D1D1B;stroke-width:3;stroke-miterlimit:10;}
	.st34{fill:#153F65;stroke:#E20613;stroke-miterlimit:10;}
	.st35{opacity:0.1;fill:url(#);}
	.st36{fill:none;stroke:#66CC33;stroke-miterlimit:10;}
	.st37{fill:none;stroke:#E20613;stroke-miterlimit:10;}
	.st38{fill:#FF6700;}
	.st39{fill:#FCEA0D;}
	.st40{display:none;fill:#153F65;stroke:#FFFFFF;stroke-miterlimit:10;}
	.st41{display:inline;fill:#5F4634;}
	.st42{display:inline;}
	.st43{clip-path:url(#SVGID_10_);fill:#FFC499;}
	.st44{clip-path:url(#SVGID_10_);fill:none;stroke:#1D1D1B;stroke-miterlimit:10;}
	.st45{fill:#9AC079;}
	.st46{fill:#133F65;}
	.st47{fill:none;stroke:#133F65;stroke-width:5;stroke-miterlimit:10;}
	.st48{fill:#F4F4F4;}
	.st49{fill:none;stroke:#5F4634;stroke-miterlimit:10;}
	.st50{clip-path:url(#SVGID_12_);fill:#133F65;}
	.st51{clip-path:url(#SVGID_12_);fill:none;stroke:#1D1D1B;stroke-miterlimit:10;}
	.st52{fill:none;stroke:#1D1D1B;stroke-width:0.25;stroke-miterlimit:10;}
	.st53{fill:none;stroke:#1D1D1B;stroke-width:2;stroke-miterlimit:10;}
	.st54{clip-path:url(#SVGID_14_);fill:#153F65;}
	.st55{clip-path:url(#SVGID_14_);}
	.st56{fill:#FFFFFF;stroke:#1D1D1B;stroke-width:2;stroke-miterlimit:10;}
	.st57{clip-path:url(#SVGID_16_);fill:#5F4634;}
	.st58{display:none;clip-path:url(#SVGID_16_);}
	.st59{display:inline;fill:#FCD572;}
	.st60{clip-path:url(#SVGID_16_);}
	.st61{fill:#1D1D1B;stroke:#FFFFFF;stroke-width:3;stroke-miterlimit:10;}
	.st62{display:none;fill:#FFFFFF;}
	.st63{opacity:0.3;clip-path:url(#SVGID_18_);fill:url(#);}
	.st64{clip-path:url(#SVGID_18_);}
	.st65{opacity:0.3;clip-path:url(#SVGID_20_);fill:url(#);stroke:#FFFFFF;stroke-width:2;stroke-miterlimit:10;}
	.st66{clip-path:url(#SVGID_18_);fill:#5F4634;}
	.st67{clip-path:url(#SVGID_18_);fill:none;stroke:#1D1D1B;stroke-miterlimit:10;}
	.st68{display:inline;fill:#9AC079;}
	.st69{display:inline;fill:#F9C199;}
	.st70{display:inline;fill:#133F65;}
	.st71{display:inline;fill:none;stroke:#133F65;stroke-width:5;stroke-miterlimit:10;}
	.st72{display:inline;fill:#F4F4F4;}
	.st73{fill:#FFFFFF;stroke:#1D1D1B;stroke-miterlimit:10;}
	.st74{fill:#FCD572;stroke:#1D1D1B;stroke-miterlimit:10;}
	.st75{display:inline;fill:#FCD572;stroke:#1D1D1B;stroke-miterlimit:10;}
	.st76{fill:#5F4634;stroke:#1D1D1B;stroke-miterlimit:10;}
	.st77{fill:#F4F4F4;stroke:#1D1D1B;stroke-miterlimit:10;}
	.st78{fill:#133F65;stroke:#FFFFFF;stroke-miterlimit:10;}
	.st79{display:none;clip-path:url(#SVGID_22_);}
	.st80{clip-path:url(#SVGID_22_);}
	.st81{clip-path:url(#SVGID_24_);fill:#FCD571;}
	.st82{clip-path:url(#SVGID_24_);fill:#153F65;}
	.st83{clip-path:url(#SVGID_24_);fill:none;stroke:#1D1D1B;stroke-miterlimit:10;}
	.st84{display:none;clip-path:url(#SVGID_24_);}
	.st85{display:inline;fill:#FFC499;stroke:#5F4634;stroke-width:0.5;stroke-miterlimit:10;}
	.st86{display:inline;fill:none;stroke:#FCD571;stroke-width:0.5;stroke-miterlimit:10;}
	.st87{clip-path:url(#SVGID_24_);fill:#5F4634;stroke:#5F4634;stroke-miterlimit:10;}
	.st88{display:none;fill:url(#SVGID_25_);}
	.st89{clip-path:url(#SVGID_27_);fill:#FCD571;}
	.st90{clip-path:url(#SVGID_27_);fill:none;stroke:#000000;stroke-miterlimit:10;}
	.st91{clip-path:url(#SVGID_29_);fill:#FFC499;}
	.st92{clip-path:url(#SVGID_29_);fill:none;stroke:#FFFFFF;stroke-width:2;stroke-miterlimit:10;}
	.st93{clip-path:url(#SVGID_31_);fill:#FFC499;}
	.st94{clip-path:url(#SVGID_31_);fill:none;stroke:#FFFFFF;stroke-miterlimit:10;}
	.st95{clip-path:url(#SVGID_31_);fill:#FCD571;}
	.st96{clip-path:url(#SVGID_33_);fill:#FCD571;}
	.st97{display:none;clip-path:url(#SVGID_33_);fill:none;stroke:#1D1D1B;stroke-miterlimit:10;}
	.st98{clip-path:url(#SVGID_33_);fill:#153F65;}
	.st99{clip-path:url(#SVGID_33_);fill:none;stroke:#1D1D1B;stroke-miterlimit:10;}
	.st100{fill:#122236;}
	.st101{opacity:0.3;fill:#66CC33;}
	.st102{clip-path:url(#SVGID_35_);fill:#FCD571;}
	.st103{clip-path:url(#SVGID_35_);fill:#153F65;stroke:#1D1D1B;stroke-miterlimit:10;}
	.st104{clip-path:url(#SVGID_35_);fill:#FFC499;}
	.st105{clip-path:url(#SVGID_37_);fill:#5F4634;}
	.st106{clip-path:url(#SVGID_37_);fill:none;stroke:#FFFFFF;stroke-miterlimit:10;}
	.st107{clip-path:url(#SVGID_37_);fill:#FFC499;}
	.st108{display:none;clip-path:url(#SVGID_37_);fill:#5F4634;}
	.st109{fill:#F5F5F5;}
	.st110{display:none;clip-path:url(#SVGID_39_);fill:#FCD571;}
	.st111{clip-path:url(#SVGID_39_);fill:#FFC499;}
	.st112{clip-path:url(#SVGID_39_);fill:none;stroke:#1D1D1B;stroke-miterlimit:10;}
	.st113{clip-path:url(#SVGID_39_);}
	.st114{clip-path:url(#SVGID_41_);fill:#FCD571;}
	.st115{clip-path:url(#SVGID_41_);fill:#153F65;}
	.st116{clip-path:url(#SVGID_41_);fill:none;stroke:#1D1D1B;stroke-miterlimit:10;}
	.st117{clip-path:url(#SVGID_41_);}
	.st118{fill:#FFC499;stroke:#5F4634;stroke-width:0.5;stroke-miterlimit:10;}
	.st119{fill:none;stroke:#FCD571;stroke-width:0.5;stroke-miterlimit:10;}
	.st120{clip-path:url(#SVGID_41_);fill:#5F4634;stroke:#5F4634;stroke-miterlimit:10;}
	.st121{display:none;clip-path:url(#SVGID_41_);}
	.st122{display:inline;fill:#051521;}
	.st123{clip-path:url(#SVGID_43_);fill:#153F65;stroke:#FFFFFF;stroke-miterlimit:10;}
	.st124{clip-path:url(#SVGID_43_);fill:none;stroke:#1D1D1B;stroke-miterlimit:10;}
	.st125{display:none;clip-path:url(#SVGID_43_);}
	.st126{clip-path:url(#SVGID_43_);fill:#FFC499;}
	.st127{font-family:'Montserrat-Regular';}
	.st128{font-size:15.2681px;}
	.st129{font-family:'CooperBlackStd';}
	.st130{font-size:184.4765px;}
	.st131{font-family:'GiddyupStd';}
	.st132{font-size:30px;}
	.st133{font-size:18px;}
	.st134{display:none;clip-path:url(#SVGID_45_);}
	.st135{clip-path:url(#SVGID_45_);}
	.st136{clip-path:url(#SVGID_47_);fill:#FFC499;}
	.st137{clip-path:url(#SVGID_47_);fill:none;stroke:#FFFFFF;stroke-miterlimit:10;}
</style>
<g id="Capa_1">
	<g id="Capa_2">
	</g>
</g>
<g id="Capa_13">
</g>
<g id="Capa_3">
</g>
<g id="Capa_4">
</g>
<g id="Capa_5">
</g>
<g id="Capa_6">
</g>
<g id="Capa_24">
</g>
<g id="Capa_12">
</g>
<g id="Capa_7">
</g>
<g id="Capa_8">
</g>
<g id="Capa_9">
</g>
<g id="Capa_10">
</g>
<g id="Capa_11">
</g>
<g id="Capa_14">
</g>
<g id="Capa_15">
</g>
<g id="Capa_16">
</g>
<g id="Capa_17">
</g>
<g id="Capa_18">
</g>
<g id="Capa_19">
</g>
<g id="Capa_20">
</g>
<g id="Capa_21">
</g>
<g id="Capa_22">
</g>
<g id="Capa_23">
</g>
<g id="Capa_25">
</g>
<g id="Capa_26">
</g>
<g id="Capa_27">
</g>
<g id="Capa_28">
</g>
<g id="Capa_29">
	<g>
		<rect class="st25" width="1400" height="1000"/>
		<g>
			<g>
				
					<image style="overflow:visible;" width="2000" height="2000" xlink:href="../Recursos/Sketches.png"  transform="matrix(0.2319 0 0 0.2319 329.3584 0)">
				</image>
				<g>
					<path d="M762.1,242.3h-63.7c-1.3,0-2.3-1-2.3-2.3v0c0-1.3,1-2.3,2.3-2.3h63.7c1.3,0,2.3,1,2.3,2.3v0
						C764.4,241.3,763.4,242.3,762.1,242.3z"/>
					<path d="M762.1,241.2l-25.7-14.8c-1-0.6-1.4-1.9-0.8-2.9l0,0c0.6-1,1.9-1.4,2.9-0.8l25.7,14.8c1,0.6,1.4,1.9,0.8,2.9l0,0
						C764.4,241.4,763.2,241.8,762.1,241.2z"/>
					<path d="M762.1,238l-25.7,14.8c-1,0.6-1.4,1.9-0.8,2.9l0,0c0.6,1,1.9,1.4,2.9,0.8l25.7-14.8c1-0.6,1.4-1.9,0.8-2.9v0
						C764.4,237.8,763.2,237.4,762.1,238z"/>
				</g>
				<text transform="matrix(1 0 0 1 418.2285 464.8771)"><tspan x="0" y="0" class="st127 st128">Tuve un algunos tropiezos para conceptualizar el logo, ya que el cliente no podía </tspan><tspan x="0" y="19.5" class="st127 st128">decidirse en cuanto a su imagen de marca, el debate entre una cafetería y un</tspan><tspan x="0" y="39" class="st127 st128">restaurant, hasta que luego de discutirlo se decidió que la imagen representativa</tspan><tspan x="0" y="58.5" class="st127 st128">de la marca sería un cafetería. </tspan></text>
				<g>
					<g>
						<path class="st13" d="M936.9,164.6c5.3,0.2,31.9,1.3,49.4,20.7c3.5,3.9,11.4,13,12.3,26.5c0.2,3.7,1,16-7.9,25.2
							c-6.5,6.7-14.5,8-16.2,8.2c-2.3,0.3-11.3,1.6-17.1-3c-12.1-9.6,3.7-33.2-10.2-54.6c-2.2-3.4-7.2-10.9-14.7-11.9
							c-17.1-2.3-40.4,30.4-43,62.4c-2.3,29.6,12.5,66.1,33.7,68.9c15.8,2.1,31.3-15.1,33-17.1c15.1-17.2,12.1-35.8,22.2-38
							c7-1.5,15.5,5.9,18.8,13.4c5.2,11.9-2.7,24.5-5.2,28.5c-16.1,25.9-56.2,32.7-82.9,26.3c-6.8-1.6-32-8-48.8-32.6
							c-2.1-3-20.2-30.5-11.4-63.5C859.7,183.7,903.4,163.3,936.9,164.6z"/>
					</g>
					<path class="st14" d="M929.9,173.7c-9.6,12.5-13.8,29.1-11.3,44.7c1.7,10.9,6.5,21.1,10.8,31.3c4.2,10.2,8,21,7.4,32.1
						c-0.5,11.1-6.2,22.5-16.4,27"/>
				</g>
			</g>
			<g>
				<g>
					<text transform="matrix(1 0 0 1 395.4629 721.9992)" class="st13 st129 st130">c</text>
					<g>
						<g>
							<path class="st13" d="M736.9,606c-7.2,9.3-11,20.9-11,32.6c0,2.7,0.2,5.4,0.6,8.1c1.6,10,5.9,18.9,9.5,27.7
								c2.8,6.8,4.5,11.7,5.4,15.3c1,3.6,1.2,5.9,1.2,7.6c0,1.4-0.2,2.4-0.3,3.6c-0.3,2.2-0.9,5.3-2.8,9c-1.8,3.8-4.9,8.1-10,12.8
								l3.3,3.7c5.6-5,9.1-10,11.2-14.3c2.1-4.3,2.9-8.1,3.2-10.6c0.1-1.1,0.3-2.5,0.3-4.2c0-2.2-0.3-5-1.4-8.9
								c-1-3.9-2.8-9-5.7-15.9c-3.7-9-7.8-17.6-9.2-26.6c-0.4-2.4-0.6-4.9-0.6-7.3c0-10.5,3.5-21.1,10-29.5L736.9,606L736.9,606z"/>
						</g>
						<ellipse class="st33" cx="737.1" cy="666.7" rx="33.9" ry="59.3"/>
					</g>
					<g>
						<path class="st13" d="M593.8,696.3L593.8,696.3c-0.8,0-1.5-0.7-1.5-1.5v-56.3c0-0.8,0.7-1.5,1.5-1.5l0,0
							c0.8,0,1.5,0.7,1.5,1.5v56.3C595.3,695.6,594.6,696.3,593.8,696.3z"/>
						<path class="st13" d="M564.1,666.7L564.1,666.7c0,0.8,0.7,1.5,1.5,1.5h56.3c0.8,0,1.5-0.7,1.5-1.5l0,0c0-0.8-0.7-1.5-1.5-1.5
							h-56.3C564.8,665.2,564.1,665.8,564.1,666.7z"/>
					</g>
					<g>
						<path class="st13" d="M907.5,659.2L907.5,659.2c0,0.8-0.7,1.5-1.5,1.5h-56.3c-0.8,0-1.5-0.7-1.5-1.5l0,0
							c0-0.8,0.7-1.5,1.5-1.5H906C906.8,657.7,907.5,658.3,907.5,659.2z"/>
						<path class="st13" d="M848.2,674.2L848.2,674.2c0,0.8,0.7,1.5,1.5,1.5H906c0.8,0,1.5-0.7,1.5-1.5l0,0c0-0.8-0.7-1.5-1.5-1.5
							h-56.3C848.9,672.7,848.2,673.3,848.2,674.2z"/>
					</g>
					<text transform="matrix(1 0 0 1 414.7612 779.4123)" class="st13 st131 st132">Letra c</text>
					<text transform="matrix(1 0 0 1 673.6265 783.0502)" class="st13 st131 st132">Grano de café</text>
					<g>
						<g>
							<path class="st13" d="M1024.8,608.6c3.9,0.2,23.5,0.9,36.4,15.3c2.6,2.9,8.4,9.6,9.1,19.5c0.2,2.7,0.7,11.8-5.8,18.5
								c-4.8,4.9-10.7,5.9-11.9,6c-1.7,0.2-8.3,1.2-12.6-2.2c-8.9-7,2.7-24.5-7.5-40.3c-1.6-2.5-5.3-8-10.8-8.8
								c-12.6-1.7-29.8,22.4-31.7,46c-1.7,21.8,9.2,48.7,24.8,50.8c11.7,1.6,23.1-11.1,24.3-12.6c11.1-12.7,8.9-26.4,16.4-28
								c5.2-1.1,11.4,4.3,13.8,9.9c3.8,8.8-2,18-3.8,21c-11.9,19.1-41.4,24.1-61.1,19.4c-5-1.2-23.6-5.9-36-24
								c-1.5-2.2-14.9-22.5-8.4-46.8C968,622.7,1000.1,607.6,1024.8,608.6z"/>
						</g>
						<g>
							<path class="st13" d="M1017.6,613.7c-6.1,8-9.4,17.9-9.4,27.9c0,2.3,0.2,4.7,0.5,7c1.4,8.5,5,16.2,8.1,23.6
								c2.9,7,5.3,14.1,5.3,21.1c0,0.5,0,1,0,1.4c-0.2,3.7-1.2,7.5-3,10.6c-1.8,3.2-4.4,5.7-7.5,7.1l2,4.6c4.3-1.9,7.6-5.2,9.8-9.1
								c2.2-3.9,3.5-8.4,3.7-12.9c0-0.6,0-1.1,0-1.7c0-8.2-2.8-15.9-5.7-23c-3.2-7.6-6.6-14.9-7.8-22.5c-0.3-2-0.5-4.1-0.5-6.2
								c0-8.9,3-17.8,8.4-24.8L1017.6,613.7L1017.6,613.7z"/>
						</g>
					</g>
					<text transform="matrix(1 0 0 1 990.9824 782.3034)" class="st13 st131 st132">Logo</text>
				</g>
				<g>
					<text transform="matrix(1 0 0 1 405.9131 895.6625)"><tspan x="0" y="0" class="st13 st127 st133">El logo fue creado a partir de la primera letra del nombre de la marca</tspan><tspan x="0" y="23" class="st13 st127 st133">y un grano de café representando el producto de la marca. </tspan></text>
				</g>
			</g>
		</g>
	</g>
</g>
<g id="Capa_30">
</g>
<g id="Capa_31">
</g>
<g id="Capa_32">
</g>
<g id="Capa_33">
</g>
<g id="Capa_34">
</g>
<g id="Capa_35">
</g>
</svg>
